mtllib altar_clockdragonrend.mtl
usemtl texture_0
v 1.75000000 0.48437500 -0.51562500
vt 0.25000000 0.00000000
vn 0.00000000 -0.00000000 -1.00000000
v 1.75000000 0.45312500 -0.51562500
vt 0.25000000 0.01562500
vn 0.00000000 -0.00000000 -1.00000000
v -0.25000000 0.45312500 -0.51562500
vt 0.50000000 0.01562500
vn 0.00000000 -0.00000000 -1.00000000
v -0.25000000 0.48437500 -0.51562500
vt 0.50000000 0.00000000
vn 0.00000000 -0.00000000 -1.00000000
f 1/1/1 2/2/2 3/3/3 4/4/4
usemtl texture_0
v 1.75000000 0.48437500 1.48437500
vt 0.25000000 0.01562500
vn 1.00000000 0.00000000 0.00000000
v 1.75000000 0.45312500 1.48437500
vt 0.25000000 0.03125000
vn 1.00000000 0.00000000 0.00000000
v 1.75000000 0.45312500 -0.51562500
vt 0.50000000 0.03125000
vn 1.00000000 0.00000000 0.00000000
v 1.75000000 0.48437500 -0.51562500
vt 0.50000000 0.01562500
vn 1.00000000 0.00000000 0.00000000
f 5/5/5 6/6/6 7/7/7 8/8/8
usemtl texture_0
v -0.25000000 0.48437500 1.48437500
vt 0.25000000 0.03125000
vn 0.00000000 0.00000000 1.00000000
v -0.25000000 0.45312500 1.48437500
vt 0.25000000 0.04687500
vn 0.00000000 0.00000000 1.00000000
v 1.75000000 0.45312500 1.48437500
vt 0.50000000 0.04687500
vn 0.00000000 0.00000000 1.00000000
v 1.75000000 0.48437500 1.48437500
vt 0.50000000 0.03125000
vn 0.00000000 0.00000000 1.00000000
f 9/9/9 10/10/10 11/11/11 12/12/12
usemtl texture_0
v -0.25000000 0.48437500 -0.51562500
vt 0.25000000 0.04687500
vn -1.00000000 0.00000000 0.00000000
v -0.25000000 0.45312500 -0.51562500
vt 0.25000000 0.06250000
vn -1.00000000 0.00000000 0.00000000
v -0.25000000 0.45312500 1.48437500
vt 0.50000000 0.06250000
vn -1.00000000 0.00000000 0.00000000
v -0.25000000 0.48437500 1.48437500
vt 0.50000000 0.04687500
vn -1.00000000 0.00000000 0.00000000
f 13/13/13 14/14/14 15/15/15 16/16/16
usemtl texture_0
v -0.25000000 0.48437500 -0.51562500
vt 1.00000000 1.00000000
vn 0.00000000 1.00000000 0.00000000
v -0.25000000 0.48437500 1.48437500
vt 1.00000000 0.00000000
vn 0.00000000 1.00000000 0.00000000
v 1.75000000 0.48437500 1.48437500
vt 0.00000000 0.00000000
vn 0.00000000 1.00000000 0.00000000
v 1.75000000 0.48437500 -0.51562500
vt 0.00000000 1.00000000
vn 0.00000000 1.00000000 0.00000000
f 17/17/17 18/18/18 19/19/19 20/20/20
usemtl texture_0
v -0.25000000 0.45312500 1.48437500
vt 1.00000000 0.00000000
vn 0.00000000 -1.00000000 0.00000000
v -0.25000000 0.45312500 -0.51562500
vt 1.00000000 1.00000000
vn 0.00000000 -1.00000000 0.00000000
v 1.75000000 0.45312500 -0.51562500
vt 0.00000000 1.00000000
vn 0.00000000 -1.00000000 0.00000000
v 1.75000000 0.45312500 1.48437500
vt 0.00000000 0.00000000
vn 0.00000000 -1.00000000 0.00000000
f 21/21/21 22/22/22 23/23/23 24/24/24
