mtllib altar_omen.mtl
usemtl texture_0
v 0.60937500 -0.21116748 0.52320752
vt 0.18750000 0.37500000
vn 0.00000000 0.70710678 -0.70710678
v 0.60937500 -0.32165291 0.41272209
vt 0.18750000 0.43750000
vn 0.00000000 0.70710678 -0.70710678
v 0.48437500 -0.32165291 0.41272209
vt 0.25000000 0.43750000
vn 0.00000000 0.70710678 -0.70710678
v 0.48437500 -0.21116748 0.52320752
vt 0.25000000 0.37500000
vn 0.00000000 0.70710678 -0.70710678
f 1/1/1 2/2/2 3/3/3 4/4/4
usemtl texture_0
v 0.60937500 -0.32165291 0.63369296
vt 0.12500000 0.09375000
vn 1.00000000 0.00000000 0.00000000
v 0.60937500 -0.43213835 0.52320752
vt 0.12500000 0.15625000
vn 1.00000000 0.00000000 0.00000000
v 0.60937500 -0.32165291 0.41272209
vt 0.18750000 0.15625000
vn 1.00000000 0.00000000 0.00000000
v 0.60937500 -0.21116748 0.52320752
vt 0.18750000 0.09375000
vn 1.00000000 0.00000000 0.00000000
f 5/5/5 6/6/6 7/7/7 8/8/8
usemtl texture_0
v 0.48437500 -0.32165291 0.63369296
vt 0.34375000 0.21875000
vn 0.00000000 -0.70710678 0.70710678
v 0.48437500 -0.43213835 0.52320752
vt 0.34375000 0.28125000
vn 0.00000000 -0.70710678 0.70710678
v 0.60937500 -0.43213835 0.52320752
vt 0.40625000 0.28125000
vn 0.00000000 -0.70710678 0.70710678
v 0.60937500 -0.32165291 0.63369296
vt 0.40625000 0.21875000
vn 0.00000000 -0.70710678 0.70710678
f 9/9/9 10/10/10 11/11/11 12/12/12
usemtl texture_0
v 0.48437500 -0.21116748 0.52320752
vt 0.12500000 0.03125000
vn -1.00000000 -0.00000000 0.00000000
v 0.48437500 -0.32165291 0.41272209
vt 0.12500000 0.09375000
vn -1.00000000 -0.00000000 0.00000000
v 0.48437500 -0.43213835 0.52320752
vt 0.18750000 0.09375000
vn -1.00000000 -0.00000000 0.00000000
v 0.48437500 -0.32165291 0.63369296
vt 0.18750000 0.03125000
vn -1.00000000 -0.00000000 0.00000000
f 13/13/13 14/14/14 15/15/15 16/16/16
usemtl texture_0
v 0.48437500 -0.21116748 0.52320752
vt 0.40625000 0.28125000
vn 0.00000000 0.70710678 0.70710678
v 0.48437500 -0.32165291 0.63369296
vt 0.40625000 0.21875000
vn 0.00000000 0.70710678 0.70710678
v 0.60937500 -0.32165291 0.63369296
vt 0.34375000 0.21875000
vn 0.00000000 0.70710678 0.70710678
v 0.60937500 -0.21116748 0.52320752
vt 0.34375000 0.28125000
vn 0.00000000 0.70710678 0.70710678
f 17/17/17 18/18/18 19/19/19 20/20/20
usemtl texture_0
v 0.48437500 -0.43213835 0.52320752
vt 0.43750000 0.00000000
vn 0.00000000 -0.70710678 -0.70710678
v 0.48437500 -0.32165291 0.41272209
vt 0.43750000 0.06250000
vn 0.00000000 -0.70710678 -0.70710678
v 0.60937500 -0.32165291 0.41272209
vt 0.37500000 0.06250000
vn 0.00000000 -0.70710678 -0.70710678
v 0.60937500 -0.43213835 0.52320752
vt 0.37500000 0.00000000
vn 0.00000000 -0.70710678 -0.70710678
f 21/21/21 22/22/22 23/23/23 24/24/24
usemtl texture_0
v 0.59375000 -0.15625000 0.45312500
vt 0.25000000 0.40625000
vn 0.00000000 -0.00000000 -1.00000000
v 0.59375000 -0.28125000 0.45312500
vt 0.25000000 0.46875000
vn 0.00000000 -0.00000000 -1.00000000
v 0.50000000 -0.28125000 0.45312500
vt 0.31250000 0.46875000
vn 0.00000000 -0.00000000 -1.00000000
v 0.50000000 -0.15625000 0.45312500
vt 0.31250000 0.40625000
vn 0.00000000 -0.00000000 -1.00000000
f 25/25/25 26/26/26 27/27/27 28/28/28
usemtl texture_0
v 0.59375000 -0.15625000 0.57812500
vt 0.40625000 0.28125000
vn 1.00000000 0.00000000 0.00000000
v 0.59375000 -0.28125000 0.57812500
vt 0.40625000 0.34375000
vn 1.00000000 0.00000000 0.00000000
v 0.59375000 -0.28125000 0.45312500
vt 0.46875000 0.34375000
vn 1.00000000 0.00000000 0.00000000
v 0.59375000 -0.15625000 0.45312500
vt 0.46875000 0.28125000
vn 1.00000000 0.00000000 0.00000000
f 29/29/29 30/30/30 31/31/31 32/32/32
usemtl texture_0
v 0.50000000 -0.15625000 0.57812500
vt 0.40625000 0.34375000
vn 0.00000000 0.00000000 1.00000000
v 0.50000000 -0.28125000 0.57812500
vt 0.40625000 0.40625000
vn 0.00000000 0.00000000 1.00000000
v 0.59375000 -0.28125000 0.57812500
vt 0.46875000 0.40625000
vn 0.00000000 0.00000000 1.00000000
v 0.59375000 -0.15625000 0.57812500
vt 0.46875000 0.34375000
vn 0.00000000 0.00000000 1.00000000
f 33/33/33 34/34/34 35/35/35 36/36/36
usemtl texture_0
v 0.50000000 -0.15625000 0.45312500
vt 0.40625000 0.40625000
vn -1.00000000 0.00000000 0.00000000
v 0.50000000 -0.28125000 0.45312500
vt 0.40625000 0.46875000
vn -1.00000000 0.00000000 0.00000000
v 0.50000000 -0.28125000 0.57812500
vt 0.46875000 0.46875000
vn -1.00000000 0.00000000 0.00000000
v 0.50000000 -0.15625000 0.57812500
vt 0.46875000 0.40625000
vn -1.00000000 0.00000000 0.00000000
f 37/37/37 38/38/38 39/39/39 40/40/40
usemtl texture_0
v 0.50000000 -0.15625000 0.45312500
vt 0.50000000 0.06250000
vn 0.00000000 1.00000000 0.00000000
v 0.50000000 -0.15625000 0.57812500
vt 0.50000000 0.00000000
vn 0.00000000 1.00000000 0.00000000
v 0.59375000 -0.15625000 0.57812500
vt 0.43750000 0.00000000
vn 0.00000000 1.00000000 0.00000000
v 0.59375000 -0.15625000 0.45312500
vt 0.43750000 0.06250000
vn 0.00000000 1.00000000 0.00000000
f 41/41/41 42/42/42 43/43/43 44/44/44
usemtl texture_0
v 0.50000000 -0.28125000 0.57812500
vt 0.25000000 0.43750000
vn 0.00000000 -1.00000000 0.00000000
v 0.50000000 -0.28125000 0.45312500
vt 0.25000000 0.50000000
vn 0.00000000 -1.00000000 0.00000000
v 0.59375000 -0.28125000 0.45312500
vt 0.18750000 0.50000000
vn 0.00000000 -1.00000000 0.00000000
v 0.59375000 -0.28125000 0.57812500
vt 0.18750000 0.43750000
vn 0.00000000 -1.00000000 0.00000000
f 45/45/45 46/46/46 47/47/47 48/48/48
usemtl texture_0
v 0.57812500 1.10937500 0.48437500
vt 0.00000000 0.00000000
vn 0.00000000 -0.00000000 -1.00000000
v 0.57812500 -0.25000000 0.48437500
vt 0.00000000 0.65625000
vn 0.00000000 -0.00000000 -1.00000000
v 0.51562500 -0.25000000 0.48437500
vt 0.03125000 0.65625000
vn 0.00000000 -0.00000000 -1.00000000
v 0.51562500 1.10937500 0.48437500
vt 0.03125000 0.00000000
vn 0.00000000 -0.00000000 -1.00000000
f 49/49/49 50/50/50 51/51/51 52/52/52
usemtl texture_0
v 0.57812500 1.10937500 0.54687500
vt 0.03125000 0.00000000
vn 1.00000000 0.00000000 0.00000000
v 0.57812500 -0.25000000 0.54687500
vt 0.03125000 0.65625000
vn 1.00000000 0.00000000 0.00000000
v 0.57812500 -0.25000000 0.48437500
vt 0.06250000 0.65625000
vn 1.00000000 0.00000000 0.00000000
v 0.57812500 1.10937500 0.48437500
vt 0.06250000 0.00000000
vn 1.00000000 0.00000000 0.00000000
f 53/53/53 54/54/54 55/55/55 56/56/56
usemtl texture_0
v 0.51562500 1.10937500 0.54687500
vt 0.06250000 0.00000000
vn 0.00000000 0.00000000 1.00000000
v 0.51562500 -0.25000000 0.54687500
vt 0.06250000 0.65625000
vn 0.00000000 0.00000000 1.00000000
v 0.57812500 -0.25000000 0.54687500
vt 0.09375000 0.65625000
vn 0.00000000 0.00000000 1.00000000
v 0.57812500 1.10937500 0.54687500
vt 0.09375000 0.00000000
vn 0.00000000 0.00000000 1.00000000
f 57/57/57 58/58/58 59/59/59 60/60/60
usemtl texture_0
v 0.51562500 1.10937500 0.48437500
vt 0.09375000 0.00000000
vn -1.00000000 0.00000000 0.00000000
v 0.51562500 -0.25000000 0.48437500
vt 0.09375000 0.65625000
vn -1.00000000 0.00000000 0.00000000
v 0.51562500 -0.25000000 0.54687500
vt 0.12500000 0.65625000
vn -1.00000000 0.00000000 0.00000000
v 0.51562500 1.10937500 0.54687500
vt 0.12500000 0.00000000
vn -1.00000000 0.00000000 0.00000000
f 61/61/61 62/62/62 63/63/63 64/64/64
usemtl texture_0
v 0.51562500 1.10937500 0.48437500
vt 0.21875000 0.31250000
vn 0.00000000 1.00000000 0.00000000
v 0.51562500 1.10937500 0.54687500
vt 0.21875000 0.28125000
vn 0.00000000 1.00000000 0.00000000
v 0.57812500 1.10937500 0.54687500
vt 0.18750000 0.28125000
vn 0.00000000 1.00000000 0.00000000
v 0.57812500 1.10937500 0.48437500
vt 0.18750000 0.31250000
vn 0.00000000 1.00000000 0.00000000
f 65/65/65 66/66/66 67/67/67 68/68/68
usemtl texture_0
v 0.51562500 -0.25000000 0.54687500
vt 0.21875000 0.31250000
vn 0.00000000 -1.00000000 0.00000000
v 0.51562500 -0.25000000 0.48437500
vt 0.21875000 0.34375000
vn 0.00000000 -1.00000000 0.00000000
v 0.57812500 -0.25000000 0.48437500
vt 0.18750000 0.34375000
vn 0.00000000 -1.00000000 0.00000000
v 0.57812500 -0.25000000 0.54687500
vt 0.18750000 0.31250000
vn 0.00000000 -1.00000000 0.00000000
f 69/69/69 70/70/70 71/71/71 72/72/72
usemtl texture_0
v 0.59375000 0.26687500 0.46875000
vt 0.18750000 0.53125000
vn 0.00000000 -0.00000000 -1.00000000
v 0.59375000 0.20437500 0.46875000
vt 0.18750000 0.56250000
vn 0.00000000 -0.00000000 -1.00000000
v 0.50000000 0.20437500 0.46875000
vt 0.25000000 0.56250000
vn 0.00000000 -0.00000000 -1.00000000
v 0.50000000 0.26687500 0.46875000
vt 0.25000000 0.53125000
vn 0.00000000 -0.00000000 -1.00000000
f 73/73/73 74/74/74 75/75/75 76/76/76
usemtl texture_0
v 0.59375000 0.26687500 0.56250000
vt 0.53125000 0.18750000
vn 1.00000000 0.00000000 0.00000000
v 0.59375000 0.20437500 0.56250000
vt 0.53125000 0.21875000
vn 1.00000000 0.00000000 0.00000000
v 0.59375000 0.20437500 0.46875000
vt 0.59375000 0.21875000
vn 1.00000000 0.00000000 0.00000000
v 0.59375000 0.26687500 0.46875000
vt 0.59375000 0.18750000
vn 1.00000000 0.00000000 0.00000000
f 77/77/77 78/78/78 79/79/79 80/80/80
usemtl texture_0
v 0.50000000 0.26687500 0.56250000
vt 0.53125000 0.21875000
vn 0.00000000 0.00000000 1.00000000
v 0.50000000 0.20437500 0.56250000
vt 0.53125000 0.25000000
vn 0.00000000 0.00000000 1.00000000
v 0.59375000 0.20437500 0.56250000
vt 0.59375000 0.25000000
vn 0.00000000 0.00000000 1.00000000
v 0.59375000 0.26687500 0.56250000
vt 0.59375000 0.21875000
vn 0.00000000 0.00000000 1.00000000
f 81/81/81 82/82/82 83/83/83 84/84/84
usemtl texture_0
v 0.50000000 0.26687500 0.46875000
vt 0.25000000 0.53125000
vn -1.00000000 0.00000000 0.00000000
v 0.50000000 0.20437500 0.46875000
vt 0.25000000 0.56250000
vn -1.00000000 0.00000000 0.00000000
v 0.50000000 0.20437500 0.56250000
vt 0.31250000 0.56250000
vn -1.00000000 0.00000000 0.00000000
v 0.50000000 0.26687500 0.56250000
vt 0.31250000 0.53125000
vn -1.00000000 0.00000000 0.00000000
f 85/85/85 86/86/86 87/87/87 88/88/88
usemtl texture_0
v 0.50000000 0.26687500 0.46875000
vt 0.53125000 0.12500000
vn 0.00000000 1.00000000 0.00000000
v 0.50000000 0.26687500 0.56250000
vt 0.53125000 0.06250000
vn 0.00000000 1.00000000 0.00000000
v 0.59375000 0.26687500 0.56250000
vt 0.46875000 0.06250000
vn 0.00000000 1.00000000 0.00000000
v 0.59375000 0.26687500 0.46875000
vt 0.46875000 0.12500000
vn 0.00000000 1.00000000 0.00000000
f 89/89/89 90/90/90 91/91/91 92/92/92
usemtl texture_0
v 0.50000000 0.20437500 0.56250000
vt 0.53125000 0.12500000
vn 0.00000000 -1.00000000 0.00000000
v 0.50000000 0.20437500 0.46875000
vt 0.53125000 0.18750000
vn 0.00000000 -1.00000000 0.00000000
v 0.59375000 0.20437500 0.46875000
vt 0.46875000 0.18750000
vn 0.00000000 -1.00000000 0.00000000
v 0.59375000 0.20437500 0.56250000
vt 0.46875000 0.12500000
vn 0.00000000 -1.00000000 0.00000000
f 93/93/93 94/94/94 95/95/95 96/96/96
usemtl texture_0
v 0.59375000 0.59187500 0.46875000
vt 0.53125000 0.25000000
vn 0.00000000 -0.00000000 -1.00000000
v 0.59375000 0.52937500 0.46875000
vt 0.53125000 0.28125000
vn 0.00000000 -0.00000000 -1.00000000
v 0.50000000 0.52937500 0.46875000
vt 0.59375000 0.28125000
vn 0.00000000 -0.00000000 -1.00000000
v 0.50000000 0.59187500 0.46875000
vt 0.59375000 0.25000000
vn 0.00000000 -0.00000000 -1.00000000
f 97/97/97 98/98/98 99/99/99 100/100/100
usemtl texture_0
v 0.59375000 0.59187500 0.56250000
vt 0.53125000 0.28125000
vn 1.00000000 0.00000000 0.00000000
v 0.59375000 0.52937500 0.56250000
vt 0.53125000 0.31250000
vn 1.00000000 0.00000000 0.00000000
v 0.59375000 0.52937500 0.46875000
vt 0.59375000 0.31250000
vn 1.00000000 0.00000000 0.00000000
v 0.59375000 0.59187500 0.46875000
vt 0.59375000 0.28125000
vn 1.00000000 0.00000000 0.00000000
f 101/101/101 102/102/102 103/103/103 104/104/104
usemtl texture_0
v 0.50000000 0.59187500 0.56250000
vt 0.31250000 0.53125000
vn 0.00000000 0.00000000 1.00000000
v 0.50000000 0.52937500 0.56250000
vt 0.31250000 0.56250000
vn 0.00000000 0.00000000 1.00000000
v 0.59375000 0.52937500 0.56250000
vt 0.37500000 0.56250000
vn 0.00000000 0.00000000 1.00000000
v 0.59375000 0.59187500 0.56250000
vt 0.37500000 0.53125000
vn 0.00000000 0.00000000 1.00000000
f 105/105/105 106/106/106 107/107/107 108/108/108
usemtl texture_0
v 0.50000000 0.59187500 0.46875000
vt 0.53125000 0.31250000
vn -1.00000000 0.00000000 0.00000000
v 0.50000000 0.52937500 0.46875000
vt 0.53125000 0.34375000
vn -1.00000000 0.00000000 0.00000000
v 0.50000000 0.52937500 0.56250000
vt 0.59375000 0.34375000
vn -1.00000000 0.00000000 0.00000000
v 0.50000000 0.59187500 0.56250000
vt 0.59375000 0.31250000
vn -1.00000000 0.00000000 0.00000000
f 109/109/109 110/110/110 111/111/111 112/112/112
usemtl texture_0
v 0.50000000 0.59187500 0.46875000
vt 0.53125000 0.25000000
vn 0.00000000 1.00000000 0.00000000
v 0.50000000 0.59187500 0.56250000
vt 0.53125000 0.18750000
vn 0.00000000 1.00000000 0.00000000
v 0.59375000 0.59187500 0.56250000
vt 0.46875000 0.18750000
vn 0.00000000 1.00000000 0.00000000
v 0.59375000 0.59187500 0.46875000
vt 0.46875000 0.25000000
vn 0.00000000 1.00000000 0.00000000
f 113/113/113 114/114/114 115/115/115 116/116/116
usemtl texture_0
v 0.50000000 0.52937500 0.56250000
vt 0.31250000 0.46875000
vn 0.00000000 -1.00000000 0.00000000
v 0.50000000 0.52937500 0.46875000
vt 0.31250000 0.53125000
vn 0.00000000 -1.00000000 0.00000000
v 0.59375000 0.52937500 0.46875000
vt 0.25000000 0.53125000
vn 0.00000000 -1.00000000 0.00000000
v 0.59375000 0.52937500 0.56250000
vt 0.25000000 0.46875000
vn 0.00000000 -1.00000000 0.00000000
f 117/117/117 118/118/118 119/119/119 120/120/120
usemtl texture_0
v 0.59375000 1.51562500 0.45312500
vt 0.21875000 0.09375000
vn 0.00000000 -0.00000000 -1.00000000
v 0.59375000 1.15625000 0.45312500
vt 0.21875000 0.21875000
vn 0.00000000 -0.00000000 -1.00000000
v 0.50000000 1.15625000 0.45312500
vt 0.28125000 0.21875000
vn 0.00000000 -0.00000000 -1.00000000
v 0.50000000 1.51562500 0.45312500
vt 0.28125000 0.09375000
vn 0.00000000 -0.00000000 -1.00000000
f 121/121/121 122/122/122 123/123/123 124/124/124
usemtl texture_0
v 0.59375000 1.51562500 0.56250000
vt 0.62500000 0.00000000
vn 1.00000000 0.00000000 0.00000000
v 0.59375000 1.15625000 0.56250000
vt 0.62500000 0.18750000
vn 1.00000000 0.00000000 0.00000000
v 0.59375000 1.15625000 0.45312500
vt 0.71875000 0.18750000
vn 1.00000000 0.00000000 0.00000000
v 0.59375000 1.51562500 0.45312500
vt 0.71875000 0.00000000
vn 1.00000000 0.00000000 0.00000000
f 125/125/125 126/126/126 127/127/127 128/128/128
usemtl texture_0
v 0.50000000 1.51562500 0.56250000
vt 0.28125000 0.09375000
vn 0.00000000 0.00000000 1.00000000
v 0.50000000 1.15625000 0.56250000
vt 0.28125000 0.21875000
vn 0.00000000 0.00000000 1.00000000
v 0.59375000 1.15625000 0.56250000
vt 0.34375000 0.21875000
vn 0.00000000 0.00000000 1.00000000
v 0.59375000 1.51562500 0.56250000
vt 0.34375000 0.09375000
vn 0.00000000 0.00000000 1.00000000
f 129/129/129 130/130/130 131/131/131 132/132/132
usemtl texture_0
v 0.50000000 1.51562500 0.45312500
vt 0.62500000 0.00000000
vn -1.00000000 0.00000000 0.00000000
v 0.50000000 1.15625000 0.45312500
vt 0.62500000 0.15625000
vn -1.00000000 0.00000000 0.00000000
v 0.50000000 1.15625000 0.56250000
vt 0.71875000 0.15625000
vn -1.00000000 0.00000000 0.00000000
v 0.50000000 1.51562500 0.56250000
vt 0.71875000 0.00000000
vn -1.00000000 0.00000000 0.00000000
f 133/133/133 134/134/134 135/135/135 136/136/136
usemtl texture_0
v 0.50000000 1.51562500 0.45312500
vt 0.53125000 0.31250000
vn 0.00000000 1.00000000 0.00000000
v 0.50000000 1.51562500 0.56250000
vt 0.53125000 0.25000000
vn 0.00000000 1.00000000 0.00000000
v 0.59375000 1.51562500 0.56250000
vt 0.46875000 0.25000000
vn 0.00000000 1.00000000 0.00000000
v 0.59375000 1.51562500 0.45312500
vt 0.46875000 0.31250000
vn 0.00000000 1.00000000 0.00000000
f 137/137/137 138/138/138 139/139/139 140/140/140
usemtl texture_0
v 0.50000000 1.15625000 0.56250000
vt 0.37500000 0.46875000
vn 0.00000000 -1.00000000 0.00000000
v 0.50000000 1.15625000 0.45312500
vt 0.37500000 0.53125000
vn 0.00000000 -1.00000000 0.00000000
v 0.59375000 1.15625000 0.45312500
vt 0.31250000 0.53125000
vn 0.00000000 -1.00000000 0.00000000
v 0.59375000 1.15625000 0.56250000
vt 0.31250000 0.46875000
vn 0.00000000 -1.00000000 0.00000000
f 141/141/141 142/142/142 143/143/143 144/144/144
usemtl texture_0
v 0.60937500 1.19776335 0.38304248
vt 0.34375000 0.37500000
vn 0.00000000 -0.70710678 -0.70710678
v 0.60937500 1.06518083 0.51562500
vt 0.34375000 0.46875000
vn 0.00000000 -0.70710678 -0.70710678
v 0.48437500 1.06518083 0.51562500
vt 0.40625000 0.46875000
vn 0.00000000 -0.70710678 -0.70710678
v 0.48437500 1.19776335 0.38304248
vt 0.40625000 0.37500000
vn 0.00000000 -0.70710678 -0.70710678
f 145/145/145 146/146/146 147/147/147 148/148/148
usemtl texture_0
v 0.60937500 1.33034587 0.51562500
vt 0.21875000 0.28125000
vn 1.00000000 0.00000000 0.00000000
v 0.60937500 1.19776335 0.64820752
vt 0.21875000 0.18750000
vn 1.00000000 0.00000000 0.00000000
v 0.60937500 1.06518083 0.51562500
vt 0.12500000 0.18750000
vn 1.00000000 0.00000000 0.00000000
v 0.60937500 1.19776335 0.38304248
vt 0.12500000 0.28125000
vn 1.00000000 0.00000000 0.00000000
f 149/149/149 150/150/150 151/151/151 152/152/152
usemtl texture_0
v 0.48437500 1.33034587 0.51562500
vt 0.40625000 0.09375000
vn 0.00000000 0.70710678 0.70710678
v 0.48437500 1.19776335 0.64820752
vt 0.40625000 0.18750000
vn 0.00000000 0.70710678 0.70710678
v 0.60937500 1.19776335 0.64820752
vt 0.46875000 0.18750000
vn 0.00000000 0.70710678 0.70710678
v 0.60937500 1.33034587 0.51562500
vt 0.46875000 0.09375000
vn 0.00000000 0.70710678 0.70710678
f 153/153/153 154/154/154 155/155/155 156/156/156
usemtl texture_0
v 0.48437500 1.19776335 0.38304248
vt 0.12500000 0.28125000
vn -1.00000000 0.00000000 0.00000000
v 0.48437500 1.06518083 0.51562500
vt 0.12500000 0.18750000
vn -1.00000000 0.00000000 0.00000000
v 0.48437500 1.19776335 0.64820752
vt 0.21875000 0.18750000
vn -1.00000000 0.00000000 0.00000000
v 0.48437500 1.33034587 0.51562500
vt 0.21875000 0.28125000
vn -1.00000000 0.00000000 0.00000000
f 157/157/157 158/158/158 159/159/159 160/160/160
usemtl texture_0
v 0.48437500 1.19776335 0.38304248
vt 0.46875000 0.18750000
vn 0.00000000 0.70710678 -0.70710678
v 0.48437500 1.33034587 0.51562500
vt 0.46875000 0.09375000
vn 0.00000000 0.70710678 -0.70710678
v 0.60937500 1.33034587 0.51562500
vt 0.40625000 0.09375000
vn 0.00000000 0.70710678 -0.70710678
v 0.60937500 1.19776335 0.38304248
vt 0.40625000 0.18750000
vn 0.00000000 0.70710678 -0.70710678
f 161/161/161 162/162/162 163/163/163 164/164/164
usemtl texture_0
v 0.48437500 1.19776335 0.64820752
vt 0.46875000 0.18750000
vn 0.00000000 -0.70710678 0.70710678
v 0.48437500 1.06518083 0.51562500
vt 0.46875000 0.28125000
vn 0.00000000 -0.70710678 0.70710678
v 0.60937500 1.06518083 0.51562500
vt 0.40625000 0.28125000
vn 0.00000000 -0.70710678 0.70710678
v 0.60937500 1.19776335 0.64820752
vt 0.40625000 0.18750000
vn 0.00000000 -0.70710678 0.70710678
f 165/165/165 166/166/166 167/167/167 168/168/168
usemtl texture_0
v 0.60937500 1.55981917 0.46116748
vt 0.18750000 0.50000000
vn 0.00000000 -0.70710678 -0.70710678
v 0.60937500 1.51562500 0.50536165
vt 0.18750000 0.53125000
vn 0.00000000 -0.70710678 -0.70710678
v 0.48437500 1.51562500 0.50536165
vt 0.25000000 0.53125000
vn 0.00000000 -0.70710678 -0.70710678
v 0.48437500 1.55981917 0.46116748
vt 0.25000000 0.50000000
vn 0.00000000 -0.70710678 -0.70710678
f 169/169/169 170/170/170 171/171/171 172/172/172
usemtl texture_0
v 0.60937500 1.60401335 0.50536165
vt 0.62500000 0.15625000
vn 1.00000000 0.00000000 0.00000000
v 0.60937500 1.55981917 0.54955583
vt 0.62500000 0.25000000
vn 1.00000000 0.00000000 0.00000000
v 0.60937500 1.51562500 0.50536165
vt 0.71875000 0.25000000
vn 1.00000000 0.00000000 0.00000000
v 0.60937500 1.55981917 0.46116748
vt 0.71875000 0.15625000
vn 1.00000000 0.00000000 0.00000000
f 173/173/173 174/174/174 175/175/175 176/176/176
usemtl texture_0
v 0.48437500 1.60401335 0.50536165
vt 0.53125000 0.09375000
vn 0.00000000 0.70710678 0.70710678
v 0.48437500 1.55981917 0.54955583
vt 0.53125000 0.12500000
vn 0.00000000 0.70710678 0.70710678
v 0.60937500 1.55981917 0.54955583
vt 0.59375000 0.12500000
vn 0.00000000 0.70710678 0.70710678
v 0.60937500 1.60401335 0.50536165
vt 0.59375000 0.09375000
vn 0.00000000 0.70710678 0.70710678
f 177/177/177 178/178/178 179/179/179 180/180/180
usemtl texture_0
v 0.48437500 1.55981917 0.46116748
vt 0.62500000 0.15625000
vn -1.00000000 0.00000000 0.00000000
v 0.48437500 1.51562500 0.50536165
vt 0.62500000 0.25000000
vn -1.00000000 0.00000000 0.00000000
v 0.48437500 1.55981917 0.54955583
vt 0.71875000 0.25000000
vn -1.00000000 0.00000000 0.00000000
v 0.48437500 1.60401335 0.50536165
vt 0.71875000 0.15625000
vn -1.00000000 0.00000000 0.00000000
f 181/181/181 182/182/182 183/183/183 184/184/184
usemtl texture_0
v 0.48437500 1.55981917 0.46116748
vt 0.34375000 0.31250000
vn 0.00000000 0.70710678 -0.70710678
v 0.48437500 1.60401335 0.50536165
vt 0.34375000 0.21875000
vn 0.00000000 0.70710678 -0.70710678
v 0.60937500 1.60401335 0.50536165
vt 0.28125000 0.21875000
vn 0.00000000 0.70710678 -0.70710678
v 0.60937500 1.55981917 0.46116748
vt 0.28125000 0.31250000
vn 0.00000000 0.70710678 -0.70710678
f 185/185/185 186/186/186 187/187/187 188/188/188
usemtl texture_0
v 0.48437500 1.55981917 0.54955583
vt 0.37500000 0.00000000
vn 0.00000000 -0.70710678 0.70710678
v 0.48437500 1.51562500 0.50536165
vt 0.37500000 0.09375000
vn 0.00000000 -0.70710678 0.70710678
v 0.60937500 1.51562500 0.50536165
vt 0.31250000 0.09375000
vn 0.00000000 -0.70710678 0.70710678
v 0.60937500 1.55981917 0.54955583
vt 0.31250000 0.00000000
vn 0.00000000 -0.70710678 0.70710678
f 189/189/189 190/190/190 191/191/191 192/192/192
usemtl texture_0
v 0.60937500 1.37215585 0.38343498
vt 0.12500000 0.56250000
vn 0.00000000 -0.92387953 -0.38268343
v 0.60937500 1.34823813 0.44117745
vt 0.12500000 0.59375000
vn 0.00000000 -0.92387953 -0.38268343
v 0.48437500 1.34823813 0.44117745
vt 0.18750000 0.59375000
vn 0.00000000 -0.92387953 -0.38268343
v 0.48437500 1.37215585 0.38343498
vt 0.18750000 0.56250000
vn 0.00000000 -0.92387953 -0.38268343
f 193/193/193 194/194/194 195/195/195 196/196/196
usemtl texture_0
v 0.60937500 1.55981888 0.46116755
vt 0.18750000 0.59375000
vn 1.00000000 0.00000000 0.00000000
v 0.60937500 1.53590116 0.51891002
vt 0.18750000 0.62500000
vn 1.00000000 0.00000000 0.00000000
v 0.60937500 1.34823813 0.44117745
vt 0.31250000 0.62500000
vn 1.00000000 0.00000000 0.00000000
v 0.60937500 1.37215585 0.38343498
vt 0.31250000 0.59375000
vn 1.00000000 0.00000000 0.00000000
f 197/197/197 198/198/198 199/199/199 200/200/200
usemtl texture_0
v 0.48437500 1.55981888 0.46116755
vt 0.25000000 0.56250000
vn 0.00000000 0.92387953 0.38268343
v 0.48437500 1.53590116 0.51891002
vt 0.25000000 0.59375000
vn 0.00000000 0.92387953 0.38268343
v 0.60937500 1.53590116 0.51891002
vt 0.31250000 0.59375000
vn 0.00000000 0.92387953 0.38268343
v 0.60937500 1.55981888 0.46116755
vt 0.31250000 0.56250000
vn 0.00000000 0.92387953 0.38268343
f 201/201/201 202/202/202 203/203/203 204/204/204
usemtl texture_0
v 0.48437500 1.37215585 0.38343498
vt 0.31250000 0.59375000
vn -1.00000000 0.00000000 0.00000000
v 0.48437500 1.34823813 0.44117745
vt 0.31250000 0.62500000
vn -1.00000000 0.00000000 0.00000000
v 0.48437500 1.53590116 0.51891002
vt 0.18750000 0.62500000
vn -1.00000000 0.00000000 0.00000000
v 0.48437500 1.55981888 0.46116755
vt 0.18750000 0.59375000
vn -1.00000000 0.00000000 0.00000000
f 205/205/205 206/206/206 207/207/207 208/208/208
usemtl texture_0
v 0.48437500 1.37215585 0.38343498
vt 0.68750000 0.37500000
vn 0.00000000 0.38268343 -0.92387953
v 0.48437500 1.55981888 0.46116755
vt 0.68750000 0.25000000
vn 0.00000000 0.38268343 -0.92387953
v 0.60937500 1.55981888 0.46116755
vt 0.62500000 0.25000000
vn 0.00000000 0.38268343 -0.92387953
v 0.60937500 1.37215585 0.38343498
vt 0.62500000 0.37500000
vn 0.00000000 0.38268343 -0.92387953
f 209/209/209 210/210/210 211/211/211 212/212/212
usemtl texture_0
v 0.48437500 1.53590116 0.51891002
vt 0.18750000 0.59375000
vn 0.00000000 -0.38268343 0.92387953
v 0.48437500 1.34823813 0.44117745
vt 0.31250000 0.59375000
vn 0.00000000 -0.38268343 0.92387953
v 0.60937500 1.34823813 0.44117745
vt 0.31250000 0.62500000
vn 0.00000000 -0.38268343 0.92387953
v 0.60937500 1.53590116 0.51891002
vt 0.18750000 0.62500000
vn 0.00000000 -0.38268343 0.92387953
f 213/213/213 214/214/214 215/215/215 216/216/216
usemtl texture_0
v 0.60937500 1.34823854 0.56954571
vt 0.53125000 0.12500000
vn 0.00000000 -0.92387953 0.38268343
v 0.60937500 1.37215626 0.62728818
vt 0.53125000 0.15625000
vn 0.00000000 -0.92387953 0.38268343
v 0.48437500 1.37215626 0.62728818
vt 0.59375000 0.15625000
vn 0.00000000 -0.92387953 0.38268343
v 0.48437500 1.34823854 0.56954571
vt 0.59375000 0.12500000
vn 0.00000000 -0.92387953 0.38268343
f 217/217/217 218/218/218 219/219/219 220/220/220
usemtl texture_0
v 0.60937500 1.53590157 0.49181314
vt 0.18750000 0.59375000
vn 1.00000000 0.00000000 -0.00000000
v 0.60937500 1.55981929 0.54955561
vt 0.18750000 0.62500000
vn 1.00000000 0.00000000 -0.00000000
v 0.60937500 1.37215626 0.62728818
vt 0.31250000 0.62500000
vn 1.00000000 0.00000000 -0.00000000
v 0.60937500 1.34823854 0.56954571
vt 0.31250000 0.59375000
vn 1.00000000 0.00000000 -0.00000000
f 221/221/221 222/222/222 223/223/223 224/224/224
usemtl texture_0
v 0.48437500 1.53590157 0.49181314
vt 0.53125000 0.15625000
vn 0.00000000 0.92387953 -0.38268343
v 0.48437500 1.55981929 0.54955561
vt 0.53125000 0.18750000
vn 0.00000000 0.92387953 -0.38268343
v 0.60937500 1.55981929 0.54955561
vt 0.59375000 0.18750000
vn 0.00000000 0.92387953 -0.38268343
v 0.60937500 1.53590157 0.49181314
vt 0.59375000 0.15625000
vn 0.00000000 0.92387953 -0.38268343
f 225/225/225 226/226/226 227/227/227 228/228/228
usemtl texture_0
v 0.48437500 1.34823854 0.56954571
vt 0.31250000 0.59375000
vn -1.00000000 0.00000000 0.00000000
v 0.48437500 1.37215626 0.62728818
vt 0.31250000 0.62500000
vn -1.00000000 0.00000000 0.00000000
v 0.48437500 1.55981929 0.54955561
vt 0.18750000 0.62500000
vn -1.00000000 0.00000000 0.00000000
v 0.48437500 1.53590157 0.49181314
vt 0.18750000 0.59375000
vn -1.00000000 0.00000000 0.00000000
f 229/229/229 230/230/230 231/231/231 232/232/232
usemtl texture_0
v 0.48437500 1.34823854 0.56954571
vt 0.31250000 0.59375000
vn 0.00000000 -0.38268343 -0.92387953
v 0.48437500 1.53590157 0.49181314
vt 0.18750000 0.59375000
vn 0.00000000 -0.38268343 -0.92387953
v 0.60937500 1.53590157 0.49181314
vt 0.18750000 0.62500000
vn 0.00000000 -0.38268343 -0.92387953
v 0.60937500 1.34823854 0.56954571
vt 0.31250000 0.62500000
vn 0.00000000 -0.38268343 -0.92387953
f 233/233/233 234/234/234 235/235/235 236/236/236
usemtl texture_0
v 0.48437500 1.55981929 0.54955561
vt 0.68750000 0.25000000
vn 0.00000000 0.38268343 0.92387953
v 0.48437500 1.37215626 0.62728818
vt 0.68750000 0.37500000
vn 0.00000000 0.38268343 0.92387953
v 0.60937500 1.37215626 0.62728818
vt 0.62500000 0.37500000
vn 0.00000000 0.38268343 0.92387953
v 0.60937500 1.55981929 0.54955561
vt 0.62500000 0.25000000
vn 0.00000000 0.38268343 0.92387953
f 237/237/237 238/238/238 239/239/239 240/240/240
usemtl texture_0
v 0.56250000 1.18750000 0.42187500
vt 0.00000000 0.00000000
vn 0.00000000 0.00000000 0.00000000
v 0.56250000 -0.18750000 0.42187500
vt 0.00000000 0.68750000
vn 0.00000000 0.00000000 0.00000000
v 0.56250000 -0.18750000 0.42187500
vt 0.00000000 0.68750000
vn 0.00000000 0.00000000 0.00000000
v 0.56250000 1.18750000 0.42187500
vt 0.00000000 0.00000000
vn 0.00000000 0.00000000 0.00000000
f 241/241/241 242/242/242 243/243/243 244/244/244
usemtl texture_0
v 0.56250000 1.18750000 0.48437500
vt 0.71875000 0.00000000
vn 1.00000000 0.00000000 0.00000000
v 0.56250000 -0.18750000 0.48437500
vt 0.71875000 0.68750000
vn 1.00000000 0.00000000 0.00000000
v 0.56250000 -0.18750000 0.42187500
vt 0.75000000 0.68750000
vn 1.00000000 0.00000000 0.00000000
v 0.56250000 1.18750000 0.42187500
vt 0.75000000 0.00000000
vn 1.00000000 0.00000000 0.00000000
f 245/245/245 246/246/246 247/247/247 248/248/248
usemtl texture_0
v 0.56250000 1.18750000 0.48437500
vt 0.06250000 0.00000000
vn 0.00000000 0.00000000 0.00000000
v 0.56250000 -0.18750000 0.48437500
vt 0.06250000 0.68750000
vn 0.00000000 0.00000000 0.00000000
v 0.56250000 -0.18750000 0.48437500
vt 0.06250000 0.68750000
vn 0.00000000 0.00000000 0.00000000
v 0.56250000 1.18750000 0.48437500
vt 0.06250000 0.00000000
vn 0.00000000 0.00000000 0.00000000
f 249/249/249 250/250/250 251/251/251 252/252/252
usemtl texture_0
v 0.56250000 1.18750000 0.42187500
vt 0.71875000 0.00000000
vn -1.00000000 0.00000000 0.00000000
v 0.56250000 -0.18750000 0.42187500
vt 0.71875000 0.68750000
vn -1.00000000 0.00000000 0.00000000
v 0.56250000 -0.18750000 0.48437500
vt 0.75000000 0.68750000
vn -1.00000000 0.00000000 0.00000000
v 0.56250000 1.18750000 0.48437500
vt 0.75000000 0.00000000
vn -1.00000000 0.00000000 0.00000000
f 253/253/253 254/254/254 255/255/255 256/256/256
usemtl texture_0
v 0.56250000 1.18750000 0.42187500
vt 0.06250000 0.03125000
vn 0.00000000 0.00000000 0.00000000
v 0.56250000 1.18750000 0.48437500
vt 0.06250000 0.06250000
vn 0.00000000 0.00000000 0.00000000
v 0.56250000 1.18750000 0.48437500
vt 0.06250000 0.06250000
vn 0.00000000 0.00000000 0.00000000
v 0.56250000 1.18750000 0.42187500
vt 0.06250000 0.03125000
vn 0.00000000 0.00000000 0.00000000
f 257/257/257 258/258/258 259/259/259 260/260/260
usemtl texture_0
v 0.56250000 -0.18750000 0.48437500
vt 0.06250000 0.00000000
vn 0.00000000 0.00000000 0.00000000
v 0.56250000 -0.18750000 0.42187500
vt 0.06250000 0.03125000
vn 0.00000000 0.00000000 0.00000000
v 0.56250000 -0.18750000 0.42187500
vt 0.06250000 0.03125000
vn 0.00000000 0.00000000 0.00000000
v 0.56250000 -0.18750000 0.48437500
vt 0.06250000 0.00000000
vn 0.00000000 0.00000000 0.00000000
f 261/261/261 262/262/262 263/263/263 264/264/264
usemtl texture_0
v 0.56250000 1.18750000 0.54687500
vt 0.00000000 0.00000000
vn 0.00000000 0.00000000 0.00000000
v 0.56250000 -0.18750000 0.54687500
vt 0.00000000 0.68750000
vn 0.00000000 0.00000000 0.00000000
v 0.56250000 -0.18750000 0.54687500
vt 0.00000000 0.68750000
vn 0.00000000 0.00000000 0.00000000
v 0.56250000 1.18750000 0.54687500
vt 0.00000000 0.00000000
vn 0.00000000 0.00000000 0.00000000
f 265/265/265 266/266/266 267/267/267 268/268/268
usemtl texture_0
v 0.56250000 1.18750000 0.60937500
vt 0.78125000 0.00000000
vn 1.00000000 0.00000000 0.00000000
v 0.56250000 -0.18750000 0.60937500
vt 0.78125000 0.68750000
vn 1.00000000 0.00000000 0.00000000
v 0.56250000 -0.18750000 0.54687500
vt 0.81250000 0.68750000
vn 1.00000000 0.00000000 0.00000000
v 0.56250000 1.18750000 0.54687500
vt 0.81250000 0.00000000
vn 1.00000000 0.00000000 0.00000000
f 269/269/269 270/270/270 271/271/271 272/272/272
usemtl texture_0
v 0.56250000 1.18750000 0.60937500
vt 0.06250000 0.00000000
vn 0.00000000 0.00000000 0.00000000
v 0.56250000 -0.18750000 0.60937500
vt 0.06250000 0.68750000
vn 0.00000000 0.00000000 0.00000000
v 0.56250000 -0.18750000 0.60937500
vt 0.06250000 0.68750000
vn 0.00000000 0.00000000 0.00000000
v 0.56250000 1.18750000 0.60937500
vt 0.06250000 0.00000000
vn 0.00000000 0.00000000 0.00000000
f 273/273/273 274/274/274 275/275/275 276/276/276
usemtl texture_0
v 0.56250000 1.18750000 0.54687500
vt 0.78125000 0.00000000
vn -1.00000000 0.00000000 0.00000000
v 0.56250000 -0.18750000 0.54687500
vt 0.78125000 0.68750000
vn -1.00000000 0.00000000 0.00000000
v 0.56250000 -0.18750000 0.60937500
vt 0.81250000 0.68750000
vn -1.00000000 0.00000000 0.00000000
v 0.56250000 1.18750000 0.60937500
vt 0.81250000 0.00000000
vn -1.00000000 0.00000000 0.00000000
f 277/277/277 278/278/278 279/279/279 280/280/280
usemtl texture_0
v 0.56250000 1.18750000 0.54687500
vt 0.06250000 0.03125000
vn 0.00000000 0.00000000 0.00000000
v 0.56250000 1.18750000 0.60937500
vt 0.06250000 0.06250000
vn 0.00000000 0.00000000 0.00000000
v 0.56250000 1.18750000 0.60937500
vt 0.06250000 0.06250000
vn 0.00000000 0.00000000 0.00000000
v 0.56250000 1.18750000 0.54687500
vt 0.06250000 0.03125000
vn 0.00000000 0.00000000 0.00000000
f 281/281/281 282/282/282 283/283/283 284/284/284
usemtl texture_0
v 0.56250000 -0.18750000 0.60937500
vt 0.06250000 0.00000000
vn 0.00000000 0.00000000 0.00000000
v 0.56250000 -0.18750000 0.54687500
vt 0.06250000 0.03125000
vn 0.00000000 0.00000000 0.00000000
v 0.56250000 -0.18750000 0.54687500
vt 0.06250000 0.03125000
vn 0.00000000 0.00000000 0.00000000
v 0.56250000 -0.18750000 0.60937500
vt 0.06250000 0.00000000
vn 0.00000000 0.00000000 0.00000000
f 285/285/285 286/286/286 287/287/287 288/288/288
