mtllib altar_handle.mtl
usemtl texture_0
v 0.56250000 0.06250000 0.50000000
vt 0.18750000 0.62500000
vn 0.00000000 -0.00000000 -1.00000000
v 0.56250000 0.00000000 0.50000000
vt 0.18750000 0.68750000
vn 0.00000000 -0.00000000 -1.00000000
v 0.50000000 0.00000000 0.50000000
vt 0.25000000 0.68750000
vn 0.00000000 -0.00000000 -1.00000000
v 0.50000000 0.06250000 0.50000000
vt 0.25000000 0.62500000
vn 0.00000000 -0.00000000 -1.00000000
f 1/1/1 2/2/2 3/3/3 4/4/4
usemtl texture_0
v 0.56250000 0.06250000 0.56250000
vt 0.62500000 0.18750000
vn 1.00000000 0.00000000 0.00000000
v 0.56250000 0.00000000 0.56250000
vt 0.62500000 0.25000000
vn 1.00000000 0.00000000 0.00000000
v 0.56250000 0.00000000 0.50000000
vt 0.68750000 0.25000000
vn 1.00000000 0.00000000 0.00000000
v 0.56250000 0.06250000 0.50000000
vt 0.68750000 0.18750000
vn 1.00000000 0.00000000 0.00000000
f 5/5/5 6/6/6 7/7/7 8/8/8
usemtl texture_0
v 0.50000000 0.06250000 0.56250000
vt 0.25000000 0.62500000
vn 0.00000000 0.00000000 1.00000000
v 0.50000000 0.00000000 0.56250000
vt 0.25000000 0.68750000
vn 0.00000000 0.00000000 1.00000000
v 0.56250000 0.00000000 0.56250000
vt 0.31250000 0.68750000
vn 0.00000000 0.00000000 1.00000000
v 0.56250000 0.06250000 0.56250000
vt 0.31250000 0.62500000
vn 0.00000000 0.00000000 1.00000000
f 9/9/9 10/10/10 11/11/11 12/12/12
usemtl texture_0
v 0.50000000 0.06250000 0.50000000
vt 0.62500000 0.25000000
vn -1.00000000 0.00000000 0.00000000
v 0.50000000 0.00000000 0.50000000
vt 0.62500000 0.31250000
vn -1.00000000 0.00000000 0.00000000
v 0.50000000 0.00000000 0.56250000
vt 0.68750000 0.31250000
vn -1.00000000 0.00000000 0.00000000
v 0.50000000 0.06250000 0.56250000
vt 0.68750000 0.25000000
vn -1.00000000 0.00000000 0.00000000
f 13/13/13 14/14/14 15/15/15 16/16/16
usemtl texture_0
v 0.50000000 0.06250000 0.50000000
vt 0.37500000 0.68750000
vn 0.00000000 1.00000000 0.00000000
v 0.50000000 0.06250000 0.56250000
vt 0.37500000 0.62500000
vn 0.00000000 1.00000000 0.00000000
v 0.56250000 0.06250000 0.56250000
vt 0.31250000 0.62500000
vn 0.00000000 1.00000000 0.00000000
v 0.56250000 0.06250000 0.50000000
vt 0.31250000 0.68750000
vn 0.00000000 1.00000000 0.00000000
f 17/17/17 18/18/18 19/19/19 20/20/20
usemtl texture_0
v 0.50000000 0.00000000 0.56250000
vt 0.68750000 0.31250000
vn 0.00000000 -1.00000000 0.00000000
v 0.50000000 0.00000000 0.50000000
vt 0.68750000 0.37500000
vn 0.00000000 -1.00000000 0.00000000
v 0.56250000 0.00000000 0.50000000
vt 0.62500000 0.37500000
vn 0.00000000 -1.00000000 0.00000000
v 0.56250000 0.00000000 0.56250000
vt 0.62500000 0.31250000
vn 0.00000000 -1.00000000 0.00000000
f 21/21/21 22/22/22 23/23/23 24/24/24
usemtl texture_0
v 0.56250000 0.37500000 0.50000000
vt 0.00000000 0.50000000
vn 0.00000000 -0.00000000 -1.00000000
v 0.56250000 0.18750000 0.50000000
vt 0.00000000 0.68750000
vn 0.00000000 -0.00000000 -1.00000000
v 0.50000000 0.18750000 0.50000000
vt 0.06250000 0.68750000
vn 0.00000000 -0.00000000 -1.00000000
v 0.50000000 0.37500000 0.50000000
vt 0.06250000 0.50000000
vn 0.00000000 -0.00000000 -1.00000000
f 25/25/25 26/26/26 27/27/27 28/28/28
usemtl texture_0
v 0.56250000 0.37500000 0.56250000
vt 0.50000000 0.00000000
vn 1.00000000 0.00000000 0.00000000
v 0.56250000 0.18750000 0.56250000
vt 0.50000000 0.18750000
vn 1.00000000 0.00000000 0.00000000
v 0.56250000 0.18750000 0.50000000
vt 0.56250000 0.18750000
vn 1.00000000 0.00000000 0.00000000
v 0.56250000 0.37500000 0.50000000
vt 0.56250000 0.00000000
vn 1.00000000 0.00000000 0.00000000
f 29/29/29 30/30/30 31/31/31 32/32/32
usemtl texture_0
v 0.50000000 0.37500000 0.56250000
vt 0.06250000 0.50000000
vn 0.00000000 0.00000000 1.00000000
v 0.50000000 0.18750000 0.56250000
vt 0.06250000 0.68750000
vn 0.00000000 0.00000000 1.00000000
v 0.56250000 0.18750000 0.56250000
vt 0.12500000 0.68750000
vn 0.00000000 0.00000000 1.00000000
v 0.56250000 0.37500000 0.56250000
vt 0.12500000 0.50000000
vn 0.00000000 0.00000000 1.00000000
f 33/33/33 34/34/34 35/35/35 36/36/36
usemtl texture_0
v 0.50000000 0.37500000 0.50000000
vt 0.12500000 0.50000000
vn -1.00000000 0.00000000 0.00000000
v 0.50000000 0.18750000 0.50000000
vt 0.12500000 0.68750000
vn -1.00000000 0.00000000 0.00000000
v 0.50000000 0.18750000 0.56250000
vt 0.18750000 0.68750000
vn -1.00000000 0.00000000 0.00000000
v 0.50000000 0.37500000 0.56250000
vt 0.18750000 0.50000000
vn -1.00000000 0.00000000 0.00000000
f 37/37/37 38/38/38 39/39/39 40/40/40
usemtl texture_0
v 0.50000000 0.37500000 0.50000000
vt 0.43750000 0.68750000
vn 0.00000000 1.00000000 0.00000000
v 0.50000000 0.37500000 0.56250000
vt 0.43750000 0.62500000
vn 0.00000000 1.00000000 0.00000000
v 0.56250000 0.37500000 0.56250000
vt 0.37500000 0.62500000
vn 0.00000000 1.00000000 0.00000000
v 0.56250000 0.37500000 0.50000000
vt 0.37500000 0.68750000
vn 0.00000000 1.00000000 0.00000000
f 41/41/41 42/42/42 43/43/43 44/44/44
usemtl texture_0
v 0.50000000 0.18750000 0.56250000
vt 0.68750000 0.37500000
vn 0.00000000 -1.00000000 0.00000000
v 0.50000000 0.18750000 0.50000000
vt 0.68750000 0.43750000
vn 0.00000000 -1.00000000 0.00000000
v 0.56250000 0.18750000 0.50000000
vt 0.62500000 0.43750000
vn 0.00000000 -1.00000000 0.00000000
v 0.56250000 0.18750000 0.56250000
vt 0.62500000 0.37500000
vn 0.00000000 -1.00000000 0.00000000
f 45/45/45 46/46/46 47/47/47 48/48/48
usemtl texture_0
v 0.59375000 0.18750000 0.46875000
vt 0.00000000 0.00000000
vn 0.00000000 -0.00000000 -1.00000000
v 0.59375000 0.06250000 0.46875000
vt 0.00000000 0.12500000
vn 0.00000000 -0.00000000 -1.00000000
v 0.46875000 0.06250000 0.46875000
vt 0.12500000 0.12500000
vn 0.00000000 -0.00000000 -1.00000000
v 0.46875000 0.18750000 0.46875000
vt 0.12500000 0.00000000
vn 0.00000000 -0.00000000 -1.00000000
f 49/49/49 50/50/50 51/51/51 52/52/52
usemtl texture_0
v 0.59375000 0.18750000 0.59375000
vt 0.00000000 0.12500000
vn 1.00000000 0.00000000 0.00000000
v 0.59375000 0.06250000 0.59375000
vt 0.00000000 0.25000000
vn 1.00000000 0.00000000 0.00000000
v 0.59375000 0.06250000 0.46875000
vt 0.12500000 0.25000000
vn 1.00000000 0.00000000 0.00000000
v 0.59375000 0.18750000 0.46875000
vt 0.12500000 0.12500000
vn 1.00000000 0.00000000 0.00000000
f 53/53/53 54/54/54 55/55/55 56/56/56
usemtl texture_0
v 0.46875000 0.18750000 0.59375000
vt 0.12500000 0.00000000
vn 0.00000000 0.00000000 1.00000000
v 0.46875000 0.06250000 0.59375000
vt 0.12500000 0.12500000
vn 0.00000000 0.00000000 1.00000000
v 0.59375000 0.06250000 0.59375000
vt 0.25000000 0.12500000
vn 0.00000000 0.00000000 1.00000000
v 0.59375000 0.18750000 0.59375000
vt 0.25000000 0.00000000
vn 0.00000000 0.00000000 1.00000000
f 57/57/57 58/58/58 59/59/59 60/60/60
usemtl texture_0
v 0.46875000 0.18750000 0.46875000
vt 0.12500000 0.12500000
vn -1.00000000 0.00000000 0.00000000
v 0.46875000 0.06250000 0.46875000
vt 0.12500000 0.25000000
vn -1.00000000 0.00000000 0.00000000
v 0.46875000 0.06250000 0.59375000
vt 0.25000000 0.25000000
vn -1.00000000 0.00000000 0.00000000
v 0.46875000 0.18750000 0.59375000
vt 0.25000000 0.12500000
vn -1.00000000 0.00000000 0.00000000
f 61/61/61 62/62/62 63/63/63 64/64/64
usemtl texture_0
v 0.46875000 0.18750000 0.46875000
vt 0.12500000 0.37500000
vn 0.00000000 1.00000000 0.00000000
v 0.46875000 0.18750000 0.59375000
vt 0.12500000 0.25000000
vn 0.00000000 1.00000000 0.00000000
v 0.59375000 0.18750000 0.59375000
vt 0.00000000 0.25000000
vn 0.00000000 1.00000000 0.00000000
v 0.59375000 0.18750000 0.46875000
vt 0.00000000 0.37500000
vn 0.00000000 1.00000000 0.00000000
f 65/65/65 66/66/66 67/67/67 68/68/68
usemtl texture_0
v 0.46875000 0.06250000 0.59375000
vt 0.37500000 0.00000000
vn 0.00000000 -1.00000000 0.00000000
v 0.46875000 0.06250000 0.46875000
vt 0.37500000 0.12500000
vn 0.00000000 -1.00000000 0.00000000
v 0.59375000 0.06250000 0.46875000
vt 0.25000000 0.12500000
vn 0.00000000 -1.00000000 0.00000000
v 0.59375000 0.06250000 0.59375000
vt 0.25000000 0.00000000
vn 0.00000000 -1.00000000 0.00000000
f 69/69/69 70/70/70 71/71/71 72/72/72
usemtl texture_0
v 0.59375000 0.50000000 0.46875000
vt 0.12500000 0.25000000
vn 0.00000000 -0.00000000 -1.00000000
v 0.59375000 0.37500000 0.46875000
vt 0.12500000 0.37500000
vn 0.00000000 -0.00000000 -1.00000000
v 0.46875000 0.37500000 0.46875000
vt 0.25000000 0.37500000
vn 0.00000000 -0.00000000 -1.00000000
v 0.46875000 0.50000000 0.46875000
vt 0.25000000 0.25000000
vn 0.00000000 -0.00000000 -1.00000000
f 73/73/73 74/74/74 75/75/75 76/76/76
usemtl texture_0
v 0.59375000 0.50000000 0.59375000
vt 0.25000000 0.12500000
vn 1.00000000 0.00000000 0.00000000
v 0.59375000 0.37500000 0.59375000
vt 0.25000000 0.25000000
vn 1.00000000 0.00000000 0.00000000
v 0.59375000 0.37500000 0.46875000
vt 0.37500000 0.25000000
vn 1.00000000 0.00000000 0.00000000
v 0.59375000 0.50000000 0.46875000
vt 0.37500000 0.12500000
vn 1.00000000 0.00000000 0.00000000
f 77/77/77 78/78/78 79/79/79 80/80/80
usemtl texture_0
v 0.46875000 0.50000000 0.59375000
vt 0.25000000 0.25000000
vn 0.00000000 0.00000000 1.00000000
v 0.46875000 0.37500000 0.59375000
vt 0.25000000 0.37500000
vn 0.00000000 0.00000000 1.00000000
v 0.59375000 0.37500000 0.59375000
vt 0.37500000 0.37500000
vn 0.00000000 0.00000000 1.00000000
v 0.59375000 0.50000000 0.59375000
vt 0.37500000 0.25000000
vn 0.00000000 0.00000000 1.00000000
f 81/81/81 82/82/82 83/83/83 84/84/84
usemtl texture_0
v 0.46875000 0.50000000 0.46875000
vt 0.00000000 0.37500000
vn -1.00000000 0.00000000 0.00000000
v 0.46875000 0.37500000 0.46875000
vt 0.00000000 0.50000000
vn -1.00000000 0.00000000 0.00000000
v 0.46875000 0.37500000 0.59375000
vt 0.12500000 0.50000000
vn -1.00000000 0.00000000 0.00000000
v 0.46875000 0.50000000 0.59375000
vt 0.12500000 0.37500000
vn -1.00000000 0.00000000 0.00000000
f 85/85/85 86/86/86 87/87/87 88/88/88
usemtl texture_0
v 0.46875000 0.50000000 0.46875000
vt 0.50000000 0.12500000
vn 0.00000000 1.00000000 0.00000000
v 0.46875000 0.50000000 0.59375000
vt 0.50000000 0.00000000
vn 0.00000000 1.00000000 0.00000000
v 0.59375000 0.50000000 0.59375000
vt 0.37500000 0.00000000
vn 0.00000000 1.00000000 0.00000000
v 0.59375000 0.50000000 0.46875000
vt 0.37500000 0.12500000
vn 0.00000000 1.00000000 0.00000000
f 89/89/89 90/90/90 91/91/91 92/92/92
usemtl texture_0
v 0.46875000 0.37500000 0.59375000
vt 0.25000000 0.37500000
vn 0.00000000 -1.00000000 0.00000000
v 0.46875000 0.37500000 0.46875000
vt 0.25000000 0.50000000
vn 0.00000000 -1.00000000 0.00000000
v 0.59375000 0.37500000 0.46875000
vt 0.12500000 0.50000000
vn 0.00000000 -1.00000000 0.00000000
v 0.59375000 0.37500000 0.59375000
vt 0.12500000 0.37500000
vn 0.00000000 -1.00000000 0.00000000
f 93/93/93 94/94/94 95/95/95 96/96/96
usemtl texture_0
v 0.59375000 0.50000000 0.40625000
vt 0.18750000 0.50000000
vn 0.00000000 -0.00000000 -1.00000000
v 0.59375000 0.43750000 0.40625000
vt 0.18750000 0.56250000
vn 0.00000000 -0.00000000 -1.00000000
v 0.46875000 0.43750000 0.40625000
vt 0.31250000 0.56250000
vn 0.00000000 -0.00000000 -1.00000000
v 0.46875000 0.50000000 0.40625000
vt 0.31250000 0.50000000
vn 0.00000000 -0.00000000 -1.00000000
f 97/97/97 98/98/98 99/99/99 100/100/100
usemtl texture_0
v 0.59375000 0.50000000 0.46875000
vt 0.43750000 0.62500000
vn 1.00000000 0.00000000 0.00000000
v 0.59375000 0.43750000 0.46875000
vt 0.43750000 0.68750000
vn 1.00000000 0.00000000 0.00000000
v 0.59375000 0.43750000 0.40625000
vt 0.50000000 0.68750000
vn 1.00000000 0.00000000 0.00000000
v 0.59375000 0.50000000 0.40625000
vt 0.50000000 0.62500000
vn 1.00000000 0.00000000 0.00000000
f 101/101/101 102/102/102 103/103/103 104/104/104
usemtl texture_0
v 0.46875000 0.50000000 0.46875000
vt 0.50000000 0.18750000
vn 0.00000000 0.00000000 1.00000000
v 0.46875000 0.43750000 0.46875000
vt 0.50000000 0.25000000
vn 0.00000000 0.00000000 1.00000000
v 0.59375000 0.43750000 0.46875000
vt 0.62500000 0.25000000
vn 0.00000000 0.00000000 1.00000000
v 0.59375000 0.50000000 0.46875000
vt 0.62500000 0.18750000
vn 0.00000000 0.00000000 1.00000000
f 105/105/105 106/106/106 107/107/107 108/108/108
usemtl texture_0
v 0.46875000 0.50000000 0.40625000
vt 0.62500000 0.43750000
vn -1.00000000 0.00000000 0.00000000
v 0.46875000 0.43750000 0.40625000
vt 0.62500000 0.50000000
vn -1.00000000 0.00000000 0.00000000
v 0.46875000 0.43750000 0.46875000
vt 0.68750000 0.50000000
vn -1.00000000 0.00000000 0.00000000
v 0.46875000 0.50000000 0.46875000
vt 0.68750000 0.43750000
vn -1.00000000 0.00000000 0.00000000
f 109/109/109 110/110/110 111/111/111 112/112/112
usemtl texture_0
v 0.46875000 0.50000000 0.40625000
vt 0.62500000 0.31250000
vn 0.00000000 1.00000000 0.00000000
v 0.46875000 0.50000000 0.46875000
vt 0.62500000 0.25000000
vn 0.00000000 1.00000000 0.00000000
v 0.59375000 0.50000000 0.46875000
vt 0.50000000 0.25000000
vn 0.00000000 1.00000000 0.00000000
v 0.59375000 0.50000000 0.40625000
vt 0.50000000 0.31250000
vn 0.00000000 1.00000000 0.00000000
f 113/113/113 114/114/114 115/115/115 116/116/116
usemtl texture_0
v 0.46875000 0.43750000 0.46875000
vt 0.43750000 0.50000000
vn 0.00000000 -1.00000000 0.00000000
v 0.46875000 0.43750000 0.40625000
vt 0.43750000 0.56250000
vn 0.00000000 -1.00000000 0.00000000
v 0.59375000 0.43750000 0.40625000
vt 0.31250000 0.56250000
vn 0.00000000 -1.00000000 0.00000000
v 0.59375000 0.43750000 0.46875000
vt 0.31250000 0.50000000
vn 0.00000000 -1.00000000 0.00000000
f 117/117/117 118/118/118 119/119/119 120/120/120
usemtl texture_0
v 0.59312500 0.43624369 0.32196699
vt 0.31250000 0.56250000
vn 0.00000000 -0.70710678 -0.70710678
v 0.59312500 0.39204951 0.36616117
vt 0.31250000 0.62500000
vn 0.00000000 -0.70710678 -0.70710678
v 0.46937500 0.39204951 0.36616117
vt 0.43750000 0.62500000
vn 0.00000000 -0.70710678 -0.70710678
v 0.46937500 0.43624369 0.32196699
vt 0.43750000 0.56250000
vn 0.00000000 -0.70710678 -0.70710678
f 121/121/121 122/122/122 123/123/123 124/124/124
usemtl texture_0
v 0.59312500 0.52463203 0.41035534
vt 0.43750000 0.56250000
vn 1.00000000 0.00000000 0.00000000
v 0.59312500 0.48043786 0.45454951
vt 0.43750000 0.62500000
vn 1.00000000 0.00000000 0.00000000
v 0.59312500 0.39204951 0.36616117
vt 0.56250000 0.62500000
vn 1.00000000 0.00000000 0.00000000
v 0.59312500 0.43624369 0.32196699
vt 0.56250000 0.56250000
vn 1.00000000 0.00000000 0.00000000
f 125/125/125 126/126/126 127/127/127 128/128/128
usemtl texture_0
v 0.46937500 0.52463203 0.41035534
vt 0.56250000 0.50000000
vn 0.00000000 0.70710678 0.70710678
v 0.46937500 0.48043786 0.45454951
vt 0.56250000 0.56250000
vn 0.00000000 0.70710678 0.70710678
v 0.59312500 0.48043786 0.45454951
vt 0.68750000 0.56250000
vn 0.00000000 0.70710678 0.70710678
v 0.59312500 0.52463203 0.41035534
vt 0.68750000 0.50000000
vn 0.00000000 0.70710678 0.70710678
f 129/129/129 130/130/130 131/131/131 132/132/132
usemtl texture_0
v 0.46937500 0.43624369 0.32196699
vt 0.56250000 0.56250000
vn -1.00000000 0.00000000 0.00000000
v 0.46937500 0.39204951 0.36616117
vt 0.56250000 0.62500000
vn -1.00000000 0.00000000 0.00000000
v 0.46937500 0.48043786 0.45454951
vt 0.68750000 0.62500000
vn -1.00000000 0.00000000 0.00000000
v 0.46937500 0.52463203 0.41035534
vt 0.68750000 0.56250000
vn -1.00000000 0.00000000 0.00000000
f 133/133/133 134/134/134 135/135/135 136/136/136
usemtl texture_0
v 0.46937500 0.43624369 0.32196699
vt 0.50000000 0.37500000
vn 0.00000000 0.70710678 -0.70710678
v 0.46937500 0.52463203 0.41035534
vt 0.50000000 0.25000000
vn 0.00000000 0.70710678 -0.70710678
v 0.59312500 0.52463203 0.41035534
vt 0.37500000 0.25000000
vn 0.00000000 0.70710678 -0.70710678
v 0.59312500 0.43624369 0.32196699
vt 0.37500000 0.37500000
vn 0.00000000 0.70710678 -0.70710678
f 137/137/137 138/138/138 139/139/139 140/140/140
usemtl texture_0
v 0.46937500 0.48043786 0.45454951
vt 0.50000000 0.37500000
vn 0.00000000 -0.70710678 0.70710678
v 0.46937500 0.39204951 0.36616117
vt 0.50000000 0.50000000
vn 0.00000000 -0.70710678 0.70710678
v 0.59312500 0.39204951 0.36616117
vt 0.37500000 0.50000000
vn 0.00000000 -0.70710678 0.70710678
v 0.59312500 0.48043786 0.45454951
vt 0.37500000 0.37500000
vn 0.00000000 -0.70710678 0.70710678
f 141/141/141 142/142/142 143/143/143 144/144/144
usemtl texture_0
v 0.59375000 0.50000000 0.59375000
vt 0.50000000 0.31250000
vn 0.00000000 -0.00000000 -1.00000000
v 0.59375000 0.43750000 0.59375000
vt 0.50000000 0.37500000
vn 0.00000000 -0.00000000 -1.00000000
v 0.46875000 0.43750000 0.59375000
vt 0.62500000 0.37500000
vn 0.00000000 -0.00000000 -1.00000000
v 0.46875000 0.50000000 0.59375000
vt 0.62500000 0.31250000
vn 0.00000000 -0.00000000 -1.00000000
f 145/145/145 146/146/146 147/147/147 148/148/148
usemtl texture_0
v 0.59375000 0.50000000 0.65625000
vt 0.50000000 0.62500000
vn 1.00000000 0.00000000 0.00000000
v 0.59375000 0.43750000 0.65625000
vt 0.50000000 0.68750000
vn 1.00000000 0.00000000 0.00000000
v 0.59375000 0.43750000 0.59375000
vt 0.56250000 0.68750000
vn 1.00000000 0.00000000 0.00000000
v 0.59375000 0.50000000 0.59375000
vt 0.56250000 0.62500000
vn 1.00000000 0.00000000 0.00000000
f 149/149/149 150/150/150 151/151/151 152/152/152
usemtl texture_0
v 0.46875000 0.50000000 0.65625000
vt 0.50000000 0.37500000
vn 0.00000000 0.00000000 1.00000000
v 0.46875000 0.43750000 0.65625000
vt 0.50000000 0.43750000
vn 0.00000000 0.00000000 1.00000000
v 0.59375000 0.43750000 0.65625000
vt 0.62500000 0.43750000
vn 0.00000000 0.00000000 1.00000000
v 0.59375000 0.50000000 0.65625000
vt 0.62500000 0.37500000
vn 0.00000000 0.00000000 1.00000000
f 153/153/153 154/154/154 155/155/155 156/156/156
usemtl texture_0
v 0.46875000 0.50000000 0.59375000
vt 0.56250000 0.62500000
vn -1.00000000 0.00000000 0.00000000
v 0.46875000 0.43750000 0.59375000
vt 0.56250000 0.68750000
vn -1.00000000 0.00000000 0.00000000
v 0.46875000 0.43750000 0.65625000
vt 0.62500000 0.68750000
vn -1.00000000 0.00000000 0.00000000
v 0.46875000 0.50000000 0.65625000
vt 0.62500000 0.62500000
vn -1.00000000 0.00000000 0.00000000
f 157/157/157 158/158/158 159/159/159 160/160/160
usemtl texture_0
v 0.46875000 0.50000000 0.59375000
vt 0.56250000 0.56250000
vn 0.00000000 1.00000000 0.00000000
v 0.46875000 0.50000000 0.65625000
vt 0.56250000 0.50000000
vn 0.00000000 1.00000000 0.00000000
v 0.59375000 0.50000000 0.65625000
vt 0.43750000 0.50000000
vn 0.00000000 1.00000000 0.00000000
v 0.59375000 0.50000000 0.59375000
vt 0.43750000 0.56250000
vn 0.00000000 1.00000000 0.00000000
f 161/161/161 162/162/162 163/163/163 164/164/164
usemtl texture_0
v 0.46875000 0.43750000 0.65625000
vt 0.62500000 0.43750000
vn 0.00000000 -1.00000000 0.00000000
v 0.46875000 0.43750000 0.59375000
vt 0.62500000 0.50000000
vn 0.00000000 -1.00000000 0.00000000
v 0.59375000 0.43750000 0.59375000
vt 0.50000000 0.50000000
vn 0.00000000 -1.00000000 0.00000000
v 0.59375000 0.43750000 0.65625000
vt 0.50000000 0.43750000
vn 0.00000000 -1.00000000 0.00000000
f 165/165/165 166/166/166 167/167/167 168/168/168
usemtl texture_0
v 0.59312500 0.52209709 0.65467961
vt 0.56250000 0.00000000
vn 0.00000000 0.70710678 -0.70710678
v 0.59312500 0.47790291 0.61048543
vt 0.56250000 0.06250000
vn 0.00000000 0.70710678 -0.70710678
v 0.46937500 0.47790291 0.61048543
vt 0.68750000 0.06250000
vn 0.00000000 0.70710678 -0.70710678
v 0.46937500 0.52209709 0.65467961
vt 0.68750000 0.00000000
vn 0.00000000 0.70710678 -0.70710678
f 169/169/169 170/170/170 171/171/171 172/172/172
usemtl texture_0
v 0.59312500 0.43370874 0.74306796
vt 0.56250000 0.06250000
vn 1.00000000 0.00000000 0.00000000
v 0.59312500 0.38951457 0.69887378
vt 0.56250000 0.12500000
vn 1.00000000 0.00000000 0.00000000
v 0.59312500 0.47790291 0.61048543
vt 0.68750000 0.12500000
vn 1.00000000 0.00000000 0.00000000
v 0.59312500 0.52209709 0.65467961
vt 0.68750000 0.06250000
vn 1.00000000 0.00000000 0.00000000
f 173/173/173 174/174/174 175/175/175 176/176/176
usemtl texture_0
v 0.46937500 0.43370874 0.74306796
vt 0.56250000 0.12500000
vn 0.00000000 -0.70710678 0.70710678
v 0.46937500 0.38951457 0.69887378
vt 0.56250000 0.18750000
vn 0.00000000 -0.70710678 0.70710678
v 0.59312500 0.38951457 0.69887378
vt 0.68750000 0.18750000
vn 0.00000000 -0.70710678 0.70710678
v 0.59312500 0.43370874 0.74306796
vt 0.68750000 0.12500000
vn 0.00000000 -0.70710678 0.70710678
f 177/177/177 178/178/178 179/179/179 180/180/180
usemtl texture_0
v 0.46937500 0.52209709 0.65467961
vt 0.18750000 0.56250000
vn -1.00000000 -0.00000000 0.00000000
v 0.46937500 0.47790291 0.61048543
vt 0.18750000 0.62500000
vn -1.00000000 -0.00000000 0.00000000
v 0.46937500 0.38951457 0.69887378
vt 0.31250000 0.62500000
vn -1.00000000 -0.00000000 0.00000000
v 0.46937500 0.43370874 0.74306796
vt 0.31250000 0.56250000
vn -1.00000000 -0.00000000 0.00000000
f 181/181/181 182/182/182 183/183/183 184/184/184
usemtl texture_0
v 0.46937500 0.52209709 0.65467961
vt 0.50000000 0.25000000
vn 0.00000000 0.70710678 0.70710678
v 0.46937500 0.43370874 0.74306796
vt 0.50000000 0.12500000
vn 0.00000000 0.70710678 0.70710678
v 0.59312500 0.43370874 0.74306796
vt 0.37500000 0.12500000
vn 0.00000000 0.70710678 0.70710678
v 0.59312500 0.52209709 0.65467961
vt 0.37500000 0.25000000
vn 0.00000000 0.70710678 0.70710678
f 185/185/185 186/186/186 187/187/187 188/188/188
usemtl texture_0
v 0.46937500 0.38951457 0.69887378
vt 0.37500000 0.37500000
vn 0.00000000 -0.70710678 -0.70710678
v 0.46937500 0.47790291 0.61048543
vt 0.37500000 0.50000000
vn 0.00000000 -0.70710678 -0.70710678
v 0.59312500 0.47790291 0.61048543
vt 0.25000000 0.50000000
vn 0.00000000 -0.70710678 -0.70710678
v 0.59312500 0.38951457 0.69887378
vt 0.25000000 0.37500000
vn 0.00000000 -0.70710678 -0.70710678
f 189/189/189 190/190/190 191/191/191 192/192/192
