mtllib altar_hotbarsym.mtl
usemtl texture_0
v 0.56250000 0.31250000 0.43750000
vt 0.00000000 0.00000000
vn 0.00000000 -0.00000000 -1.00000000
v 0.56250000 0.00000000 0.43750000
vt 0.00000000 0.31250000
vn 0.00000000 -0.00000000 -1.00000000
v 0.37500000 0.00000000 0.43750000
vt 0.18750000 0.31250000
vn 0.00000000 -0.00000000 -1.00000000
v 0.37500000 0.31250000 0.43750000
vt 0.18750000 0.00000000
vn 0.00000000 -0.00000000 -1.00000000
f 1/1/1 2/2/2 3/3/3 4/4/4
usemtl texture_0
v 0.56250000 0.31250000 0.50000000
vt 0.00000000 0.31250000
vn 1.00000000 0.00000000 0.00000000
v 0.56250000 0.00000000 0.50000000
vt 0.00000000 0.62500000
vn 1.00000000 0.00000000 0.00000000
v 0.56250000 0.00000000 0.43750000
vt 0.06250000 0.62500000
vn 1.00000000 0.00000000 0.00000000
v 0.56250000 0.31250000 0.43750000
vt 0.06250000 0.31250000
vn 1.00000000 0.00000000 0.00000000
f 5/5/5 6/6/6 7/7/7 8/8/8
usemtl texture_0
v 0.37500000 0.31250000 0.50000000
vt 0.18750000 0.00000000
vn 0.00000000 0.00000000 1.00000000
v 0.37500000 0.00000000 0.50000000
vt 0.18750000 0.31250000
vn 0.00000000 0.00000000 1.00000000
v 0.56250000 0.00000000 0.50000000
vt 0.37500000 0.31250000
vn 0.00000000 0.00000000 1.00000000
v 0.56250000 0.31250000 0.50000000
vt 0.37500000 0.00000000
vn 0.00000000 0.00000000 1.00000000
f 9/9/9 10/10/10 11/11/11 12/12/12
usemtl texture_0
v 0.37500000 0.31250000 0.43750000
vt 0.06250000 0.31250000
vn -1.00000000 0.00000000 0.00000000
v 0.37500000 0.00000000 0.43750000
vt 0.06250000 0.62500000
vn -1.00000000 0.00000000 0.00000000
v 0.37500000 0.00000000 0.50000000
vt 0.12500000 0.62500000
vn -1.00000000 0.00000000 0.00000000
v 0.37500000 0.31250000 0.50000000
vt 0.12500000 0.31250000
vn -1.00000000 0.00000000 0.00000000
f 13/13/13 14/14/14 15/15/15 16/16/16
usemtl texture_0
v 0.37500000 0.31250000 0.43750000
vt 0.31250000 0.37500000
vn 0.00000000 1.00000000 0.00000000
v 0.37500000 0.31250000 0.50000000
vt 0.31250000 0.31250000
vn 0.00000000 1.00000000 0.00000000
v 0.56250000 0.31250000 0.50000000
vt 0.12500000 0.31250000
vn 0.00000000 1.00000000 0.00000000
v 0.56250000 0.31250000 0.43750000
vt 0.12500000 0.37500000
vn 0.00000000 1.00000000 0.00000000
f 17/17/17 18/18/18 19/19/19 20/20/20
usemtl texture_0
v 0.37500000 0.00000000 0.50000000
vt 0.50000000 0.31250000
vn 0.00000000 -1.00000000 0.00000000
v 0.37500000 0.00000000 0.43750000
vt 0.50000000 0.37500000
vn 0.00000000 -1.00000000 0.00000000
v 0.56250000 0.00000000 0.43750000
vt 0.31250000 0.37500000
vn 0.00000000 -1.00000000 0.00000000
v 0.56250000 0.00000000 0.50000000
vt 0.31250000 0.31250000
vn 0.00000000 -1.00000000 0.00000000
f 21/21/21 22/22/22 23/23/23 24/24/24
usemtl texture_0
v 0.62500000 0.25000000 0.43750000
vt 0.37500000 0.00000000
vn 0.00000000 -0.00000000 -1.00000000
v 0.62500000 0.06250000 0.43750000
vt 0.37500000 0.18750000
vn 0.00000000 -0.00000000 -1.00000000
v 0.56250000 0.06250000 0.43750000
vt 0.43750000 0.18750000
vn 0.00000000 -0.00000000 -1.00000000
v 0.56250000 0.25000000 0.43750000
vt 0.43750000 0.00000000
vn 0.00000000 -0.00000000 -1.00000000
f 25/25/25 26/26/26 27/27/27 28/28/28
usemtl texture_0
v 0.62500000 0.25000000 0.50000000
vt 0.12500000 0.37500000
vn 1.00000000 0.00000000 0.00000000
v 0.62500000 0.06250000 0.50000000
vt 0.12500000 0.56250000
vn 1.00000000 0.00000000 0.00000000
v 0.62500000 0.06250000 0.43750000
vt 0.18750000 0.56250000
vn 1.00000000 0.00000000 0.00000000
v 0.62500000 0.25000000 0.43750000
vt 0.18750000 0.37500000
vn 1.00000000 0.00000000 0.00000000
f 29/29/29 30/30/30 31/31/31 32/32/32
usemtl texture_0
v 0.56250000 0.25000000 0.50000000
vt 0.18750000 0.37500000
vn 0.00000000 0.00000000 1.00000000
v 0.56250000 0.06250000 0.50000000
vt 0.18750000 0.56250000
vn 0.00000000 0.00000000 1.00000000
v 0.62500000 0.06250000 0.50000000
vt 0.25000000 0.56250000
vn 0.00000000 0.00000000 1.00000000
v 0.62500000 0.25000000 0.50000000
vt 0.25000000 0.37500000
vn 0.00000000 0.00000000 1.00000000
f 33/33/33 34/34/34 35/35/35 36/36/36
usemtl texture_0
v 0.56250000 0.25000000 0.43750000
vt 0.25000000 0.37500000
vn -1.00000000 0.00000000 0.00000000
v 0.56250000 0.06250000 0.43750000
vt 0.25000000 0.56250000
vn -1.00000000 0.00000000 0.00000000
v 0.56250000 0.06250000 0.50000000
vt 0.31250000 0.56250000
vn -1.00000000 0.00000000 0.00000000
v 0.56250000 0.25000000 0.50000000
vt 0.31250000 0.37500000
vn -1.00000000 0.00000000 0.00000000
f 37/37/37 38/38/38 39/39/39 40/40/40
usemtl texture_0
v 0.56250000 0.25000000 0.43750000
vt 0.43750000 0.25000000
vn 0.00000000 1.00000000 0.00000000
v 0.56250000 0.25000000 0.50000000
vt 0.43750000 0.18750000
vn 0.00000000 1.00000000 0.00000000
v 0.62500000 0.25000000 0.50000000
vt 0.37500000 0.18750000
vn 0.00000000 1.00000000 0.00000000
v 0.62500000 0.25000000 0.43750000
vt 0.37500000 0.25000000
vn 0.00000000 1.00000000 0.00000000
f 41/41/41 42/42/42 43/43/43 44/44/44
usemtl texture_0
v 0.56250000 0.06250000 0.50000000
vt 0.43750000 0.25000000
vn 0.00000000 -1.00000000 0.00000000
v 0.56250000 0.06250000 0.43750000
vt 0.43750000 0.31250000
vn 0.00000000 -1.00000000 0.00000000
v 0.62500000 0.06250000 0.43750000
vt 0.37500000 0.31250000
vn 0.00000000 -1.00000000 0.00000000
v 0.62500000 0.06250000 0.50000000
vt 0.37500000 0.25000000
vn 0.00000000 -1.00000000 0.00000000
f 45/45/45 46/46/46 47/47/47 48/48/48
usemtl texture_0
v 0.37500000 0.25000000 0.43750000
vt 0.00000000 0.37500000
vn 0.00000000 -0.00000000 -1.00000000
v 0.37500000 0.06250000 0.43750000
vt 0.00000000 0.56250000
vn 0.00000000 -0.00000000 -1.00000000
v 0.31250000 0.06250000 0.43750000
vt 0.06250000 0.56250000
vn 0.00000000 -0.00000000 -1.00000000
v 0.31250000 0.25000000 0.43750000
vt 0.06250000 0.37500000
vn 0.00000000 -0.00000000 -1.00000000
f 49/49/49 50/50/50 51/51/51 52/52/52
usemtl texture_0
v 0.37500000 0.25000000 0.50000000
vt 0.37500000 0.37500000
vn 1.00000000 0.00000000 0.00000000
v 0.37500000 0.06250000 0.50000000
vt 0.37500000 0.56250000
vn 1.00000000 0.00000000 0.00000000
v 0.37500000 0.06250000 0.43750000
vt 0.43750000 0.56250000
vn 1.00000000 0.00000000 0.00000000
v 0.37500000 0.25000000 0.43750000
vt 0.43750000 0.37500000
vn 1.00000000 0.00000000 0.00000000
f 53/53/53 54/54/54 55/55/55 56/56/56
usemtl texture_0
v 0.31250000 0.25000000 0.50000000
vt 0.43750000 0.00000000
vn 0.00000000 0.00000000 1.00000000
v 0.31250000 0.06250000 0.50000000
vt 0.43750000 0.18750000
vn 0.00000000 0.00000000 1.00000000
v 0.37500000 0.06250000 0.50000000
vt 0.50000000 0.18750000
vn 0.00000000 0.00000000 1.00000000
v 0.37500000 0.25000000 0.50000000
vt 0.50000000 0.00000000
vn 0.00000000 0.00000000 1.00000000
f 57/57/57 58/58/58 59/59/59 60/60/60
usemtl texture_0
v 0.31250000 0.25000000 0.43750000
vt 0.00000000 0.37500000
vn -1.00000000 0.00000000 0.00000000
v 0.31250000 0.06250000 0.43750000
vt 0.00000000 0.56250000
vn -1.00000000 0.00000000 0.00000000
v 0.31250000 0.06250000 0.50000000
vt 0.06250000 0.56250000
vn -1.00000000 0.00000000 0.00000000
v 0.31250000 0.25000000 0.50000000
vt 0.06250000 0.37500000
vn -1.00000000 0.00000000 0.00000000
f 61/61/61 62/62/62 63/63/63 64/64/64
usemtl texture_0
v 0.31250000 0.25000000 0.43750000
vt 0.50000000 0.25000000
vn 0.00000000 1.00000000 0.00000000
v 0.31250000 0.25000000 0.50000000
vt 0.50000000 0.18750000
vn 0.00000000 1.00000000 0.00000000
v 0.37500000 0.25000000 0.50000000
vt 0.43750000 0.18750000
vn 0.00000000 1.00000000 0.00000000
v 0.37500000 0.25000000 0.43750000
vt 0.43750000 0.25000000
vn 0.00000000 1.00000000 0.00000000
f 65/65/65 66/66/66 67/67/67 68/68/68
usemtl texture_0
v 0.31250000 0.06250000 0.50000000
vt 0.50000000 0.25000000
vn 0.00000000 -1.00000000 0.00000000
v 0.31250000 0.06250000 0.43750000
vt 0.50000000 0.31250000
vn 0.00000000 -1.00000000 0.00000000
v 0.37500000 0.06250000 0.43750000
vt 0.43750000 0.31250000
vn 0.00000000 -1.00000000 0.00000000
v 0.37500000 0.06250000 0.50000000
vt 0.43750000 0.25000000
vn 0.00000000 -1.00000000 0.00000000
f 69/69/69 70/70/70 71/71/71 72/72/72
usemtl texture_0
v 0.81250000 0.43750000 0.46875000
vt 1.00000000 0.43750000
vn 0.00000000 -0.00000000 -1.00000000
v 0.81250000 -0.12500000 0.46875000
vt 1.00000000 1.00000000
vn 0.00000000 -0.00000000 -1.00000000
v 0.12500000 -0.12500000 0.46875000
vt 0.31250000 1.00000000
vn 0.00000000 -0.00000000 -1.00000000
v 0.12500000 0.43750000 0.46875000
vt 0.31250000 0.43750000
vn 0.00000000 -0.00000000 -1.00000000
f 73/73/73 74/74/74 75/75/75 76/76/76
usemtl texture_0
v 0.81250000 0.43750000 0.46875000
vt 0.12500000 0.00000000
vn 0.00000000 0.00000000 0.00000000
v 0.81250000 -0.12500000 0.46875000
vt 0.12500000 0.56250000
vn 0.00000000 0.00000000 0.00000000
v 0.81250000 -0.12500000 0.46875000
vt 0.12500000 0.56250000
vn 0.00000000 0.00000000 0.00000000
v 0.81250000 0.43750000 0.46875000
vt 0.12500000 0.00000000
vn 0.00000000 0.00000000 0.00000000
f 77/77/77 78/78/78 79/79/79 80/80/80
usemtl texture_0
v 0.12500000 0.43750000 0.46875000
vt 0.31250000 0.43750000
vn 0.00000000 0.00000000 1.00000000
v 0.12500000 -0.12500000 0.46875000
vt 0.31250000 1.00000000
vn 0.00000000 0.00000000 1.00000000
v 0.81250000 -0.12500000 0.46875000
vt 1.00000000 1.00000000
vn 0.00000000 0.00000000 1.00000000
v 0.81250000 0.43750000 0.46875000
vt 1.00000000 0.43750000
vn 0.00000000 0.00000000 1.00000000
f 81/81/81 82/82/82 83/83/83 84/84/84
usemtl texture_0
v 0.12500000 0.43750000 0.46875000
vt 0.00000000 0.00000000
vn 0.00000000 0.00000000 0.00000000
v 0.12500000 -0.12500000 0.46875000
vt 0.00000000 0.56250000
vn 0.00000000 0.00000000 0.00000000
v 0.12500000 -0.12500000 0.46875000
vt 0.00000000 0.56250000
vn 0.00000000 0.00000000 0.00000000
v 0.12500000 0.43750000 0.46875000
vt 0.00000000 0.00000000
vn 0.00000000 0.00000000 0.00000000
f 85/85/85 86/86/86 87/87/87 88/88/88
usemtl texture_0
v 0.12500000 0.43750000 0.46875000
vt 0.12500000 0.00000000
vn 0.00000000 0.00000000 0.00000000
v 0.12500000 0.43750000 0.46875000
vt 0.12500000 0.00000000
vn 0.00000000 0.00000000 0.00000000
v 0.81250000 0.43750000 0.46875000
vt 0.81250000 0.00000000
vn 0.00000000 0.00000000 0.00000000
v 0.81250000 0.43750000 0.46875000
vt 0.81250000 0.00000000
vn 0.00000000 0.00000000 0.00000000
f 89/89/89 90/90/90 91/91/91 92/92/92
usemtl texture_0
v 0.12500000 -0.12500000 0.46875000
vt 0.12500000 0.12500000
vn 0.00000000 0.00000000 0.00000000
v 0.12500000 -0.12500000 0.46875000
vt 0.12500000 0.12500000
vn 0.00000000 0.00000000 0.00000000
v 0.81250000 -0.12500000 0.46875000
vt 0.81250000 0.12500000
vn 0.00000000 0.00000000 0.00000000
v 0.81250000 -0.12500000 0.46875000
vt 0.81250000 0.12500000
vn 0.00000000 0.00000000 0.00000000
f 93/93/93 94/94/94 95/95/95 96/96/96
