mtllib flame_spear.mtl
usemtl texture_0
v 0.42187501 0.81250000 0.43750001
vt 0.09425000 0.56300000
vn 0.70710678 0.00000000 -0.70710678
v 0.42187501 0.56250000 0.43750001
vt 0.09425000 0.68700000
vn 0.70710678 0.00000000 -0.70710678
v 0.30034103 0.56250000 0.31596603
vt 0.18700000 0.68700000
vn 0.70710678 0.00000000 -0.70710678
v 0.30034103 0.81250000 0.31596603
vt 0.18700000 0.56300000
vn 0.70710678 0.00000000 -0.70710678
f 1/1/1 2/2/2 3/3/3 4/4/4
usemtl texture_0
v 0.42187501 0.81250000 0.43750001
vt 0.00050000 0.00050000
vn 0.00000000 0.00000000 0.00000000
v 0.42187501 0.56250000 0.43750001
vt 0.00050000 0.12450000
vn 0.00000000 0.00000000 0.00000000
v 0.42187501 0.56250000 0.43750001
vt 0.00050000 0.12450000
vn 0.00000000 0.00000000 0.00000000
v 0.42187501 0.81250000 0.43750001
vt 0.00050000 0.00050000
vn 0.00000000 0.00000000 0.00000000
f 5/5/5 6/6/6 7/7/7 8/8/8
usemtl texture_0
v 0.30034103 0.81250000 0.31596603
vt 0.59425000 0.00050000
vn -0.70710678 0.00000000 0.70710678
v 0.30034103 0.56250000 0.31596603
vt 0.59425000 0.12450000
vn -0.70710678 0.00000000 0.70710678
v 0.42187501 0.56250000 0.43750001
vt 0.68700000 0.12450000
vn -0.70710678 0.00000000 0.70710678
v 0.42187501 0.81250000 0.43750001
vt 0.68700000 0.00050000
vn -0.70710678 0.00000000 0.70710678
f 9/9/9 10/10/10 11/11/11 12/12/12
usemtl texture_0
v 0.30034103 0.81250000 0.31596603
vt 0.00050000 0.00050000
vn 0.00000000 0.00000000 0.00000000
v 0.30034103 0.56250000 0.31596603
vt 0.00050000 0.12450000
vn 0.00000000 0.00000000 0.00000000
v 0.30034103 0.56250000 0.31596603
vt 0.00050000 0.12450000
vn 0.00000000 0.00000000 0.00000000
v 0.30034103 0.81250000 0.31596603
vt 0.00050000 0.00050000
vn 0.00000000 0.00000000 0.00000000
f 13/13/13 14/14/14 15/15/15 16/16/16
usemtl texture_0
v 0.30034103 0.81250000 0.31596603
vt 0.09325000 0.00050000
vn 0.00000000 0.00000000 0.00000000
v 0.30034103 0.81250000 0.31596603
vt 0.09325000 0.00050000
vn 0.00000000 0.00000000 0.00000000
v 0.42187501 0.81250000 0.43750001
vt 0.00050000 0.00050000
vn 0.00000000 0.00000000 0.00000000
v 0.42187501 0.81250000 0.43750001
vt 0.00050000 0.00050000
vn 0.00000000 0.00000000 0.00000000
f 17/17/17 18/18/18 19/19/19 20/20/20
usemtl texture_0
v 0.30034103 0.56250000 0.31596603
vt 0.09325000 0.00050000
vn 0.00000000 0.00000000 0.00000000
v 0.30034103 0.56250000 0.31596603
vt 0.09325000 0.00050000
vn 0.00000000 0.00000000 0.00000000
v 0.42187501 0.56250000 0.43750001
vt 0.00050000 0.00050000
vn 0.00000000 0.00000000 0.00000000
v 0.42187501 0.56250000 0.43750001
vt 0.00050000 0.00050000
vn 0.00000000 0.00000000 0.00000000
f 21/21/21 22/22/22 23/23/23 24/24/24
usemtl texture_0
v 0.56250000 0.87500000 0.45312500
vt 0.00050000 0.00050000
vn 0.00000000 -0.00000000 -1.00000000
v 0.56250000 -0.25000000 0.45312500
vt 0.00050000 0.43700000
vn 0.00000000 -0.00000000 -1.00000000
v 0.43750000 -0.25000000 0.45312500
vt 0.06200000 0.43700000
vn 0.00000000 -0.00000000 -1.00000000
v 0.43750000 0.87500000 0.45312500
vt 0.06200000 0.00050000
vn 0.00000000 -0.00000000 -1.00000000
f 25/25/25 26/26/26 27/27/27 28/28/28
usemtl texture_0
v 0.56250000 0.87500000 0.54687500
vt 0.06300000 0.00050000
vn 1.00000000 0.00000000 0.00000000
v 0.56250000 -0.25000000 0.54687500
vt 0.06300000 0.43700000
vn 1.00000000 0.00000000 0.00000000
v 0.56250000 -0.25000000 0.45312500
vt 0.12450000 0.43700000
vn 1.00000000 0.00000000 0.00000000
v 0.56250000 0.87500000 0.45312500
vt 0.12450000 0.00050000
vn 1.00000000 0.00000000 0.00000000
f 29/29/29 30/30/30 31/31/31 32/32/32
usemtl texture_0
v 0.43750000 0.87500000 0.54687500
vt 0.12550000 0.00050000
vn 0.00000000 0.00000000 1.00000000
v 0.43750000 -0.25000000 0.54687500
vt 0.12550000 0.43700000
vn 0.00000000 0.00000000 1.00000000
v 0.56250000 -0.25000000 0.54687500
vt 0.18700000 0.43700000
vn 0.00000000 0.00000000 1.00000000
v 0.56250000 0.87500000 0.54687500
vt 0.18700000 0.00050000
vn 0.00000000 0.00000000 1.00000000
f 33/33/33 34/34/34 35/35/35 36/36/36
usemtl texture_0
v 0.43750000 0.87500000 0.45312500
vt 0.18800000 0.00050000
vn -1.00000000 0.00000000 0.00000000
v 0.43750000 -0.25000000 0.45312500
vt 0.18800000 0.43700000
vn -1.00000000 0.00000000 0.00000000
v 0.43750000 -0.25000000 0.54687500
vt 0.24950000 0.43700000
vn -1.00000000 0.00000000 0.00000000
v 0.43750000 0.87500000 0.54687500
vt 0.24950000 0.00050000
vn -1.00000000 0.00000000 0.00000000
f 37/37/37 38/38/38 39/39/39 40/40/40
usemtl texture_0
v 0.43750000 0.87500000 0.45312500
vt 0.90575000 0.24950000
vn 0.00000000 1.00000000 0.00000000
v 0.43750000 0.87500000 0.54687500
vt 0.90575000 0.18800000
vn 0.00000000 1.00000000 0.00000000
v 0.56250000 0.87500000 0.54687500
vt 0.84425000 0.18800000
vn 0.00000000 1.00000000 0.00000000
v 0.56250000 0.87500000 0.45312500
vt 0.84425000 0.24950000
vn 0.00000000 1.00000000 0.00000000
f 41/41/41 42/42/42 43/43/43 44/44/44
usemtl texture_0
v 0.43750000 -0.25000000 0.54687500
vt 0.37450000 0.84425000
vn 0.00000000 -1.00000000 0.00000000
v 0.43750000 -0.25000000 0.45312500
vt 0.37450000 0.90575000
vn 0.00000000 -1.00000000 0.00000000
v 0.56250000 -0.25000000 0.45312500
vt 0.31300000 0.90575000
vn 0.00000000 -1.00000000 0.00000000
v 0.56250000 -0.25000000 0.54687500
vt 0.31300000 0.84425000
vn 0.00000000 -1.00000000 0.00000000
f 45/45/45 46/46/46 47/47/47 48/48/48
usemtl texture_0
v 0.59375000 -0.25000000 0.42187500
vt 0.59425000 0.31300000
vn 0.00000000 -0.00000000 -1.00000000
v 0.59375000 -0.37500000 0.42187500
vt 0.59425000 0.37450000
vn 0.00000000 -0.00000000 -1.00000000
v 0.40625000 -0.37500000 0.42187500
vt 0.68700000 0.37450000
vn 0.00000000 -0.00000000 -1.00000000
v 0.40625000 -0.25000000 0.42187500
vt 0.68700000 0.31300000
vn 0.00000000 -0.00000000 -1.00000000
f 49/49/49 50/50/50 51/51/51 52/52/52
usemtl texture_0
v 0.59375000 -0.25000000 0.57812500
vt 0.71925000 0.25050000
vn 1.00000000 0.00000000 0.00000000
v 0.59375000 -0.37500000 0.57812500
vt 0.71925000 0.31200000
vn 1.00000000 0.00000000 0.00000000
v 0.59375000 -0.37500000 0.42187500
vt 0.81200000 0.31200000
vn 1.00000000 0.00000000 0.00000000
v 0.59375000 -0.25000000 0.42187500
vt 0.81200000 0.25050000
vn 1.00000000 0.00000000 0.00000000
f 53/53/53 54/54/54 55/55/55 56/56/56
usemtl texture_0
v 0.40625000 -0.25000000 0.57812500
vt 0.40675000 0.71925000
vn 0.00000000 0.00000000 1.00000000
v 0.40625000 -0.37500000 0.57812500
vt 0.40675000 0.78075000
vn 0.00000000 0.00000000 1.00000000
v 0.59375000 -0.37500000 0.57812500
vt 0.49950000 0.78075000
vn 0.00000000 0.00000000 1.00000000
v 0.59375000 -0.25000000 0.57812500
vt 0.49950000 0.71925000
vn 0.00000000 0.00000000 1.00000000
f 57/57/57 58/58/58 59/59/59 60/60/60
usemtl texture_0
v 0.40625000 -0.25000000 0.42187500
vt 0.71925000 0.46925000
vn -1.00000000 0.00000000 0.00000000
v 0.40625000 -0.37500000 0.42187500
vt 0.71925000 0.53075000
vn -1.00000000 0.00000000 0.00000000
v 0.40625000 -0.37500000 0.57812500
vt 0.81200000 0.53075000
vn -1.00000000 0.00000000 0.00000000
v 0.40625000 -0.25000000 0.57812500
vt 0.81200000 0.46925000
vn -1.00000000 0.00000000 0.00000000
f 61/61/61 62/62/62 63/63/63 64/64/64
usemtl texture_0
v 0.40625000 -0.25000000 0.42187500
vt 0.71825000 0.56200000
vn 0.00000000 1.00000000 0.00000000
v 0.40625000 -0.25000000 0.57812500
vt 0.71825000 0.46925000
vn 0.00000000 1.00000000 0.00000000
v 0.59375000 -0.25000000 0.57812500
vt 0.62550000 0.46925000
vn 0.00000000 1.00000000 0.00000000
v 0.59375000 -0.25000000 0.42187500
vt 0.62550000 0.56200000
vn 0.00000000 1.00000000 0.00000000
f 65/65/65 66/66/66 67/67/67 68/68/68
usemtl texture_0
v 0.40625000 -0.37500000 0.57812500
vt 0.65575000 0.62550000
vn 0.00000000 -1.00000000 0.00000000
v 0.40625000 -0.37500000 0.42187500
vt 0.65575000 0.71825000
vn 0.00000000 -1.00000000 0.00000000
v 0.59375000 -0.37500000 0.42187500
vt 0.56300000 0.71825000
vn 0.00000000 -1.00000000 0.00000000
v 0.59375000 -0.37500000 0.57812500
vt 0.56300000 0.62550000
vn 0.00000000 -1.00000000 0.00000000
f 69/69/69 70/70/70 71/71/71 72/72/72
usemtl texture_0
v 0.61048543 -0.40625000 0.43750000
vt 0.65675000 0.56300000
vn -0.00000000 0.00000000 -1.00000000
v 0.50000000 -0.51673543 0.43750000
vt 0.65675000 0.65575000
vn -0.00000000 0.00000000 -1.00000000
v 0.38951457 -0.40625000 0.43750000
vt 0.74950000 0.65575000
vn -0.00000000 0.00000000 -1.00000000
v 0.50000000 -0.29576457 0.43750000
vt 0.74950000 0.56300000
vn -0.00000000 0.00000000 -1.00000000
f 73/73/73 74/74/74 75/75/75 76/76/76
usemtl texture_0
v 0.61048543 -0.40625000 0.56250000
vt 0.18800000 0.56300000
vn 0.70710678 -0.70710678 0.00000000
v 0.50000000 -0.51673543 0.56250000
vt 0.18800000 0.65575000
vn 0.70710678 -0.70710678 0.00000000
v 0.50000000 -0.51673543 0.43750000
vt 0.24950000 0.65575000
vn 0.70710678 -0.70710678 0.00000000
v 0.61048543 -0.40625000 0.43750000
vt 0.24950000 0.56300000
vn 0.70710678 -0.70710678 0.00000000
f 77/77/77 78/78/78 79/79/79 80/80/80
usemtl texture_0
v 0.50000000 -0.29576457 0.56250000
vt 0.65675000 0.65675000
vn 0.00000000 0.00000000 1.00000000
v 0.38951457 -0.40625000 0.56250000
vt 0.65675000 0.74950000
vn 0.00000000 0.00000000 1.00000000
v 0.50000000 -0.51673543 0.56250000
vt 0.74950000 0.74950000
vn 0.00000000 0.00000000 1.00000000
v 0.61048543 -0.40625000 0.56250000
vt 0.74950000 0.65675000
vn 0.00000000 0.00000000 1.00000000
f 81/81/81 82/82/82 83/83/83 84/84/84
usemtl texture_0
v 0.50000000 -0.29576457 0.43750000
vt 0.18800000 0.65675000
vn -0.70710678 0.70710678 0.00000000
v 0.38951457 -0.40625000 0.43750000
vt 0.18800000 0.74950000
vn -0.70710678 0.70710678 0.00000000
v 0.38951457 -0.40625000 0.56250000
vt 0.24950000 0.74950000
vn -0.70710678 0.70710678 0.00000000
v 0.50000000 -0.29576457 0.56250000
vt 0.24950000 0.65675000
vn -0.70710678 0.70710678 0.00000000
f 85/85/85 86/86/86 87/87/87 88/88/88
usemtl texture_0
v 0.50000000 -0.29576457 0.43750000
vt 0.59325000 0.78075000
vn 0.70710678 0.70710678 -0.00000000
v 0.50000000 -0.29576457 0.56250000
vt 0.59325000 0.71925000
vn 0.70710678 0.70710678 -0.00000000
v 0.61048543 -0.40625000 0.56250000
vt 0.50050000 0.71925000
vn 0.70710678 0.70710678 -0.00000000
v 0.61048543 -0.40625000 0.43750000
vt 0.50050000 0.78075000
vn 0.70710678 0.70710678 -0.00000000
f 89/89/89 90/90/90 91/91/91 92/92/92
usemtl texture_0
v 0.38951457 -0.40625000 0.56250000
vt 0.28075000 0.75050000
vn -0.70710678 -0.70710678 -0.00000000
v 0.38951457 -0.40625000 0.43750000
vt 0.28075000 0.81200000
vn -0.70710678 -0.70710678 -0.00000000
v 0.50000000 -0.51673543 0.43750000
vt 0.18800000 0.81200000
vn -0.70710678 -0.70710678 -0.00000000
v 0.50000000 -0.51673543 0.56250000
vt 0.18800000 0.75050000
vn -0.70710678 -0.70710678 -0.00000000
f 93/93/93 94/94/94 95/95/95 96/96/96
usemtl texture_0
v 0.57812500 -0.09375000 0.43750000
vt 0.75050000 0.53175000
vn 0.00000000 -0.00000000 -1.00000000
v 0.57812500 -0.18750000 0.43750000
vt 0.75050000 0.59325000
vn 0.00000000 -0.00000000 -1.00000000
v 0.42187500 -0.18750000 0.43750000
vt 0.84325000 0.59325000
vn 0.00000000 -0.00000000 -1.00000000
v 0.42187500 -0.09375000 0.43750000
vt 0.84325000 0.53175000
vn 0.00000000 -0.00000000 -1.00000000
f 97/97/97 98/98/98 99/99/99 100/100/100
usemtl texture_0
v 0.57812500 -0.09375000 0.56250000
vt 0.37550000 0.84425000
vn 1.00000000 0.00000000 0.00000000
v 0.57812500 -0.18750000 0.56250000
vt 0.37550000 0.90575000
vn 1.00000000 0.00000000 0.00000000
v 0.57812500 -0.18750000 0.43750000
vt 0.43700000 0.90575000
vn 1.00000000 0.00000000 0.00000000
v 0.57812500 -0.09375000 0.43750000
vt 0.43700000 0.84425000
vn 1.00000000 0.00000000 0.00000000
f 101/101/101 102/102/102 103/103/103 104/104/104
usemtl texture_0
v 0.42187500 -0.09375000 0.56250000
vt 0.59425000 0.75050000
vn 0.00000000 0.00000000 1.00000000
v 0.42187500 -0.18750000 0.56250000
vt 0.59425000 0.81200000
vn 0.00000000 0.00000000 1.00000000
v 0.57812500 -0.18750000 0.56250000
vt 0.68700000 0.81200000
vn 0.00000000 0.00000000 1.00000000
v 0.57812500 -0.09375000 0.56250000
vt 0.68700000 0.75050000
vn 0.00000000 0.00000000 1.00000000
f 105/105/105 106/106/106 107/107/107 108/108/108
usemtl texture_0
v 0.42187500 -0.09375000 0.43750000
vt 0.43800000 0.84425000
vn -1.00000000 0.00000000 0.00000000
v 0.42187500 -0.18750000 0.43750000
vt 0.43800000 0.90575000
vn -1.00000000 0.00000000 0.00000000
v 0.42187500 -0.18750000 0.56250000
vt 0.49950000 0.90575000
vn -1.00000000 0.00000000 0.00000000
v 0.42187500 -0.09375000 0.56250000
vt 0.49950000 0.84425000
vn -1.00000000 0.00000000 0.00000000
f 109/109/109 110/110/110 111/111/111 112/112/112
usemtl texture_0
v 0.42187500 -0.09375000 0.43750000
vt 0.84325000 0.65575000
vn 0.00000000 1.00000000 0.00000000
v 0.42187500 -0.09375000 0.56250000
vt 0.84325000 0.59425000
vn 0.00000000 1.00000000 0.00000000
v 0.57812500 -0.09375000 0.56250000
vt 0.75050000 0.59425000
vn 0.00000000 1.00000000 0.00000000
v 0.57812500 -0.09375000 0.43750000
vt 0.75050000 0.65575000
vn 0.00000000 1.00000000 0.00000000
f 113/113/113 114/114/114 115/115/115 116/116/116
usemtl texture_0
v 0.42187500 -0.18750000 0.56250000
vt 0.84325000 0.65675000
vn 0.00000000 -1.00000000 0.00000000
v 0.42187500 -0.18750000 0.43750000
vt 0.84325000 0.71825000
vn 0.00000000 -1.00000000 0.00000000
v 0.57812500 -0.18750000 0.43750000
vt 0.75050000 0.71825000
vn 0.00000000 -1.00000000 0.00000000
v 0.57812500 -0.18750000 0.56250000
vt 0.75050000 0.65675000
vn 0.00000000 -1.00000000 0.00000000
f 117/117/117 118/118/118 119/119/119 120/120/120
usemtl texture_0
v 0.62500000 1.25000000 0.39062500
vt 0.34425000 0.37550000
vn 0.00000000 -0.00000000 -1.00000000
v 0.62500000 1.00000000 0.39062500
vt 0.34425000 0.49950000
vn 0.00000000 -0.00000000 -1.00000000
v 0.37500000 1.00000000 0.39062500
vt 0.46825000 0.49950000
vn 0.00000000 -0.00000000 -1.00000000
v 0.37500000 1.25000000 0.39062500
vt 0.46825000 0.37550000
vn 0.00000000 -0.00000000 -1.00000000
f 121/121/121 122/122/122 123/123/123 124/124/124
usemtl texture_0
v 0.62500000 1.25000000 0.60937500
vt 0.00050000 0.43800000
vn 1.00000000 0.00000000 0.00000000
v 0.62500000 1.00000000 0.60937500
vt 0.00050000 0.56200000
vn 1.00000000 0.00000000 0.00000000
v 0.62500000 1.00000000 0.39062500
vt 0.12450000 0.56200000
vn 1.00000000 0.00000000 0.00000000
v 0.62500000 1.25000000 0.39062500
vt 0.12450000 0.43800000
vn 1.00000000 0.00000000 0.00000000
f 125/125/125 126/126/126 127/127/127 128/128/128
usemtl texture_0
v 0.37500000 1.25000000 0.60937500
vt 0.12550000 0.43800000
vn 0.00000000 0.00000000 1.00000000
v 0.37500000 1.00000000 0.60937500
vt 0.12550000 0.56200000
vn 0.00000000 0.00000000 1.00000000
v 0.62500000 1.00000000 0.60937500
vt 0.24950000 0.56200000
vn 0.00000000 0.00000000 1.00000000
v 0.62500000 1.25000000 0.60937500
vt 0.24950000 0.43800000
vn 0.00000000 0.00000000 1.00000000
f 129/129/129 130/130/130 131/131/131 132/132/132
usemtl texture_0
v 0.37500000 1.25000000 0.39062500
vt 0.46925000 0.00050000
vn -1.00000000 0.00000000 0.00000000
v 0.37500000 1.00000000 0.39062500
vt 0.46925000 0.12450000
vn -1.00000000 0.00000000 0.00000000
v 0.37500000 1.00000000 0.60937500
vt 0.59325000 0.12450000
vn -1.00000000 0.00000000 0.00000000
v 0.37500000 1.25000000 0.60937500
vt 0.59325000 0.00050000
vn -1.00000000 0.00000000 0.00000000
f 133/133/133 134/134/134 135/135/135 136/136/136
usemtl texture_0
v 0.37500000 1.25000000 0.39062500
vt 0.59325000 0.24950000
vn 0.00000000 1.00000000 0.00000000
v 0.37500000 1.25000000 0.60937500
vt 0.59325000 0.12550000
vn 0.00000000 1.00000000 0.00000000
v 0.62500000 1.25000000 0.60937500
vt 0.46925000 0.12550000
vn 0.00000000 1.00000000 0.00000000
v 0.62500000 1.25000000 0.39062500
vt 0.46925000 0.24950000
vn 0.00000000 1.00000000 0.00000000
f 137/137/137 138/138/138 139/139/139 140/140/140
usemtl texture_0
v 0.37500000 1.00000000 0.60937500
vt 0.59325000 0.25050000
vn 0.00000000 -1.00000000 0.00000000
v 0.37500000 1.00000000 0.39062500
vt 0.59325000 0.37450000
vn 0.00000000 -1.00000000 0.00000000
v 0.62500000 1.00000000 0.39062500
vt 0.46925000 0.37450000
vn 0.00000000 -1.00000000 0.00000000
v 0.62500000 1.00000000 0.60937500
vt 0.46925000 0.25050000
vn 0.00000000 -1.00000000 0.00000000
f 141/141/141 142/142/142 143/143/143 144/144/144
usemtl texture_0
v 0.59375000 1.00000000 0.42187500
vt 0.68800000 0.75050000
vn 0.00000000 -0.00000000 -1.00000000
v 0.59375000 0.87500000 0.42187500
vt 0.68800000 0.81200000
vn 0.00000000 -0.00000000 -1.00000000
v 0.40625000 0.87500000 0.42187500
vt 0.78075000 0.81200000
vn 0.00000000 -0.00000000 -1.00000000
v 0.40625000 1.00000000 0.42187500
vt 0.78075000 0.75050000
vn 0.00000000 -0.00000000 -1.00000000
f 145/145/145 146/146/146 147/147/147 148/148/148
usemtl texture_0
v 0.59375000 1.00000000 0.57812500
vt 0.78175000 0.00050000
vn 1.00000000 0.00000000 0.00000000
v 0.59375000 0.87500000 0.57812500
vt 0.78175000 0.06200000
vn 1.00000000 0.00000000 0.00000000
v 0.59375000 0.87500000 0.42187500
vt 0.87450000 0.06200000
vn 1.00000000 0.00000000 0.00000000
v 0.59375000 1.00000000 0.42187500
vt 0.87450000 0.00050000
vn 1.00000000 0.00000000 0.00000000
f 149/149/149 150/150/150 151/151/151 152/152/152
usemtl texture_0
v 0.40625000 1.00000000 0.57812500
vt 0.09425000 0.78175000
vn 0.00000000 0.00000000 1.00000000
v 0.40625000 0.87500000 0.57812500
vt 0.09425000 0.84325000
vn 0.00000000 0.00000000 1.00000000
v 0.59375000 0.87500000 0.57812500
vt 0.18700000 0.84325000
vn 0.00000000 0.00000000 1.00000000
v 0.59375000 1.00000000 0.57812500
vt 0.18700000 0.78175000
vn 0.00000000 0.00000000 1.00000000
f 153/153/153 154/154/154 155/155/155 156/156/156
usemtl texture_0
v 0.40625000 1.00000000 0.42187500
vt 0.28175000 0.78175000
vn -1.00000000 0.00000000 0.00000000
v 0.40625000 0.87500000 0.42187500
vt 0.28175000 0.84325000
vn -1.00000000 0.00000000 0.00000000
v 0.40625000 0.87500000 0.57812500
vt 0.37450000 0.84325000
vn -1.00000000 0.00000000 0.00000000
v 0.40625000 1.00000000 0.57812500
vt 0.37450000 0.78175000
vn -1.00000000 0.00000000 0.00000000
f 157/157/157 158/158/158 159/159/159 160/160/160
usemtl texture_0
v 0.40625000 1.00000000 0.42187500
vt 0.78075000 0.09325000
vn 0.00000000 1.00000000 0.00000000
v 0.40625000 1.00000000 0.57812500
vt 0.78075000 0.00050000
vn 0.00000000 1.00000000 0.00000000
v 0.59375000 1.00000000 0.57812500
vt 0.68800000 0.00050000
vn 0.00000000 1.00000000 0.00000000
v 0.59375000 1.00000000 0.42187500
vt 0.68800000 0.09325000
vn 0.00000000 1.00000000 0.00000000
f 161/161/161 162/162/162 163/163/163 164/164/164
usemtl texture_0
v 0.40625000 0.87500000 0.57812500
vt 0.18700000 0.68800000
vn 0.00000000 -1.00000000 0.00000000
v 0.40625000 0.87500000 0.42187500
vt 0.18700000 0.78075000
vn 0.00000000 -1.00000000 0.00000000
v 0.59375000 0.87500000 0.42187500
vt 0.09425000 0.78075000
vn 0.00000000 -1.00000000 0.00000000
v 0.59375000 0.87500000 0.57812500
vt 0.09425000 0.68800000
vn 0.00000000 -1.00000000 0.00000000
f 165/165/165 166/166/166 167/167/167 168/168/168
usemtl texture_0
v 0.57812500 1.21875000 0.35937500
vt 0.31300000 0.68800000
vn 0.00000000 -0.00000000 -1.00000000
v 0.57812500 1.03125000 0.35937500
vt 0.31300000 0.78075000
vn 0.00000000 -0.00000000 -1.00000000
v 0.42187500 1.03125000 0.35937500
vt 0.40575000 0.78075000
vn 0.00000000 -0.00000000 -1.00000000
v 0.42187500 1.21875000 0.35937500
vt 0.40575000 0.68800000
vn 0.00000000 -0.00000000 -1.00000000
f 169/169/169 170/170/170 171/171/171 172/172/172
usemtl texture_0
v 0.57812500 1.21875000 0.64062500
vt 0.31300000 0.50050000
vn 1.00000000 0.00000000 0.00000000
v 0.57812500 1.03125000 0.64062500
vt 0.31300000 0.59325000
vn 1.00000000 0.00000000 0.00000000
v 0.57812500 1.03125000 0.35937500
vt 0.46825000 0.59325000
vn 1.00000000 0.00000000 0.00000000
v 0.57812500 1.21875000 0.35937500
vt 0.46825000 0.50050000
vn 1.00000000 0.00000000 0.00000000
f 173/173/173 174/174/174 175/175/175 176/176/176
usemtl texture_0
v 0.42187500 1.21875000 0.64062500
vt 0.68800000 0.31300000
vn 0.00000000 0.00000000 1.00000000
v 0.42187500 1.03125000 0.64062500
vt 0.68800000 0.40575000
vn 0.00000000 0.00000000 1.00000000
v 0.57812500 1.03125000 0.64062500
vt 0.78075000 0.40575000
vn 0.00000000 0.00000000 1.00000000
v 0.57812500 1.21875000 0.64062500
vt 0.78075000 0.31300000
vn 0.00000000 0.00000000 1.00000000
f 177/177/177 178/178/178 179/179/179 180/180/180
usemtl texture_0
v 0.42187500 1.21875000 0.35937500
vt 0.53175000 0.37550000
vn -1.00000000 0.00000000 0.00000000
v 0.42187500 1.03125000 0.35937500
vt 0.53175000 0.46825000
vn -1.00000000 0.00000000 0.00000000
v 0.42187500 1.03125000 0.64062500
vt 0.68700000 0.46825000
vn -1.00000000 0.00000000 0.00000000
v 0.42187500 1.21875000 0.64062500
vt 0.68700000 0.37550000
vn -1.00000000 0.00000000 0.00000000
f 181/181/181 182/182/182 183/183/183 184/184/184
usemtl texture_0
v 0.42187500 1.21875000 0.35937500
vt 0.62450000 0.62450000
vn 0.00000000 1.00000000 0.00000000
v 0.42187500 1.21875000 0.64062500
vt 0.62450000 0.46925000
vn 0.00000000 1.00000000 0.00000000
v 0.57812500 1.21875000 0.64062500
vt 0.53175000 0.46925000
vn 0.00000000 1.00000000 0.00000000
v 0.57812500 1.21875000 0.35937500
vt 0.53175000 0.62450000
vn 0.00000000 1.00000000 0.00000000
f 185/185/185 186/186/186 187/187/187 188/188/188
usemtl texture_0
v 0.42187500 1.03125000 0.64062500
vt 0.09325000 0.56300000
vn 0.00000000 -1.00000000 0.00000000
v 0.42187500 1.03125000 0.35937500
vt 0.09325000 0.71825000
vn 0.00000000 -1.00000000 0.00000000
v 0.57812500 1.03125000 0.35937500
vt 0.00050000 0.71825000
vn 0.00000000 -1.00000000 0.00000000
v 0.57812500 1.03125000 0.64062500
vt 0.00050000 0.56300000
vn 0.00000000 -1.00000000 0.00000000
f 189/189/189 190/190/190 191/191/191 192/192/192
usemtl texture_0
v 0.57812500 0.81250000 0.43750000
vt 0.46925000 0.78175000
vn 0.00000000 -0.00000000 -1.00000000
v 0.57812500 0.71875000 0.43750000
vt 0.46925000 0.84325000
vn 0.00000000 -0.00000000 -1.00000000
v 0.42187500 0.71875000 0.43750000
vt 0.56200000 0.84325000
vn 0.00000000 -0.00000000 -1.00000000
v 0.42187500 0.81250000 0.43750000
vt 0.56200000 0.78175000
vn 0.00000000 -0.00000000 -1.00000000
f 193/193/193 194/194/194 195/195/195 196/196/196
usemtl texture_0
v 0.57812500 0.81250000 0.56250000
vt 0.50050000 0.84425000
vn 1.00000000 0.00000000 0.00000000
v 0.57812500 0.71875000 0.56250000
vt 0.50050000 0.90575000
vn 1.00000000 0.00000000 0.00000000
v 0.57812500 0.71875000 0.43750000
vt 0.56200000 0.90575000
vn 1.00000000 0.00000000 0.00000000
v 0.57812500 0.81250000 0.43750000
vt 0.56200000 0.84425000
vn 1.00000000 0.00000000 0.00000000
f 197/197/197 198/198/198 199/199/199 200/200/200
usemtl texture_0
v 0.42187500 0.81250000 0.56250000
vt 0.78175000 0.71925000
vn 0.00000000 0.00000000 1.00000000
v 0.42187500 0.71875000 0.56250000
vt 0.78175000 0.78075000
vn 0.00000000 0.00000000 1.00000000
v 0.57812500 0.71875000 0.56250000
vt 0.87450000 0.78075000
vn 0.00000000 0.00000000 1.00000000
v 0.57812500 0.81250000 0.56250000
vt 0.87450000 0.71925000
vn 0.00000000 0.00000000 1.00000000
f 201/201/201 202/202/202 203/203/203 204/204/204
usemtl texture_0
v 0.42187500 0.81250000 0.43750000
vt 0.84425000 0.59425000
vn -1.00000000 0.00000000 0.00000000
v 0.42187500 0.71875000 0.43750000
vt 0.84425000 0.65575000
vn -1.00000000 0.00000000 0.00000000
v 0.42187500 0.71875000 0.56250000
vt 0.90575000 0.65575000
vn -1.00000000 0.00000000 0.00000000
v 0.42187500 0.81250000 0.56250000
vt 0.90575000 0.59425000
vn -1.00000000 0.00000000 0.00000000
f 205/205/205 206/206/206 207/207/207 208/208/208
usemtl texture_0
v 0.42187500 0.81250000 0.43750000
vt 0.87450000 0.84325000
vn 0.00000000 1.00000000 0.00000000
v 0.42187500 0.81250000 0.56250000
vt 0.87450000 0.78175000
vn 0.00000000 1.00000000 0.00000000
v 0.57812500 0.81250000 0.56250000
vt 0.78175000 0.78175000
vn 0.00000000 1.00000000 0.00000000
v 0.57812500 0.81250000 0.43750000
vt 0.78175000 0.84325000
vn 0.00000000 1.00000000 0.00000000
f 209/209/209 210/210/210 211/211/211 212/212/212
usemtl texture_0
v 0.42187500 0.71875000 0.56250000
vt 0.09325000 0.81300000
vn 0.00000000 -1.00000000 0.00000000
v 0.42187500 0.71875000 0.43750000
vt 0.09325000 0.87450000
vn 0.00000000 -1.00000000 0.00000000
v 0.57812500 0.71875000 0.43750000
vt 0.00050000 0.87450000
vn 0.00000000 -1.00000000 0.00000000
v 0.57812500 0.71875000 0.56250000
vt 0.00050000 0.81300000
vn 0.00000000 -1.00000000 0.00000000
f 213/213/213 214/214/214 215/215/215 216/216/216
usemtl texture_0
v 0.59375000 1.87500000 0.45312500
vt 0.25050000 0.00050000
vn 0.00000000 -0.00000000 -1.00000000
v 0.59375000 1.25000000 0.45312500
vt 0.25050000 0.24950000
vn 0.00000000 -0.00000000 -1.00000000
v 0.40625000 1.25000000 0.45312500
vt 0.34325000 0.24950000
vn 0.00000000 -0.00000000 -1.00000000
v 0.40625000 1.87500000 0.45312500
vt 0.34325000 0.00050000
vn 0.00000000 -0.00000000 -1.00000000
f 217/217/217 218/218/218 219/219/219 220/220/220
usemtl texture_0
v 0.59375000 1.87500000 0.54687500
vt 0.46925000 0.37550000
vn 1.00000000 0.00000000 0.00000000
v 0.59375000 1.25000000 0.54687500
vt 0.46925000 0.62450000
vn 1.00000000 0.00000000 0.00000000
v 0.59375000 1.25000000 0.45312500
vt 0.53075000 0.62450000
vn 1.00000000 0.00000000 0.00000000
v 0.59375000 1.87500000 0.45312500
vt 0.53075000 0.37550000
vn 1.00000000 0.00000000 0.00000000
f 221/221/221 222/222/222 223/223/223 224/224/224
usemtl texture_0
v 0.40625000 1.87500000 0.54687500
vt 0.25050000 0.25050000
vn 0.00000000 0.00000000 1.00000000
v 0.40625000 1.25000000 0.54687500
vt 0.25050000 0.49950000
vn 0.00000000 0.00000000 1.00000000
v 0.59375000 1.25000000 0.54687500
vt 0.34325000 0.49950000
vn 0.00000000 0.00000000 1.00000000
v 0.59375000 1.87500000 0.54687500
vt 0.34325000 0.25050000
vn 0.00000000 0.00000000 1.00000000
f 225/225/225 226/226/226 227/227/227 228/228/228
usemtl texture_0
v 0.40625000 1.87500000 0.45312500
vt 0.25050000 0.50050000
vn -1.00000000 0.00000000 0.00000000
v 0.40625000 1.25000000 0.45312500
vt 0.25050000 0.74950000
vn -1.00000000 0.00000000 0.00000000
v 0.40625000 1.25000000 0.54687500
vt 0.31200000 0.74950000
vn -1.00000000 0.00000000 0.00000000
v 0.40625000 1.87500000 0.54687500
vt 0.31200000 0.50050000
vn -1.00000000 0.00000000 0.00000000
f 229/229/229 230/230/230 231/231/231 232/232/232
usemtl texture_0
v 0.40625000 1.87500000 0.45312500
vt 0.90575000 0.12450000
vn 0.00000000 1.00000000 0.00000000
v 0.40625000 1.87500000 0.54687500
vt 0.90575000 0.06300000
vn 0.00000000 1.00000000 0.00000000
v 0.59375000 1.87500000 0.54687500
vt 0.81300000 0.06300000
vn 0.00000000 1.00000000 0.00000000
v 0.59375000 1.87500000 0.45312500
vt 0.81300000 0.12450000
vn 0.00000000 1.00000000 0.00000000
f 233/233/233 234/234/234 235/235/235 236/236/236
usemtl texture_0
v 0.40625000 1.25000000 0.54687500
vt 0.90575000 0.12550000
vn 0.00000000 -1.00000000 0.00000000
v 0.40625000 1.25000000 0.45312500
vt 0.90575000 0.18700000
vn 0.00000000 -1.00000000 0.00000000
v 0.59375000 1.25000000 0.45312500
vt 0.81300000 0.18700000
vn 0.00000000 -1.00000000 0.00000000
v 0.59375000 1.25000000 0.54687500
vt 0.81300000 0.12550000
vn 0.00000000 -1.00000000 0.00000000
f 237/237/237 238/238/238 239/239/239 240/240/240
usemtl texture_0
v 0.63391502 1.86875000 0.44687500
vt 0.00050000 0.71925000
vn -0.00000000 0.00000000 -1.00000000
v 0.50133250 1.73616748 0.44687500
vt 0.00050000 0.81200000
vn -0.00000000 0.00000000 -1.00000000
v 0.36874998 1.86875000 0.44687500
vt 0.09325000 0.81200000
vn -0.00000000 0.00000000 -1.00000000
v 0.50133250 2.00133252 0.44687500
vt 0.09325000 0.71925000
vn -0.00000000 0.00000000 -1.00000000
f 241/241/241 242/242/242 243/243/243 244/244/244
usemtl texture_0
v 0.63391502 1.86875000 0.55312500
vt 0.18800000 0.81300000
vn 0.70710678 -0.70710678 0.00000000
v 0.50133250 1.73616748 0.55312500
vt 0.18800000 0.90575000
vn 0.70710678 -0.70710678 0.00000000
v 0.50133250 1.73616748 0.44687500
vt 0.24950000 0.90575000
vn 0.70710678 -0.70710678 0.00000000
v 0.63391502 1.86875000 0.44687500
vt 0.24950000 0.81300000
vn 0.70710678 -0.70710678 0.00000000
f 245/245/245 246/246/246 247/247/247 248/248/248
usemtl texture_0
v 0.50133250 2.00133252 0.55312500
vt 0.71925000 0.09425000
vn 0.00000000 0.00000000 1.00000000
v 0.36874998 1.86875000 0.55312500
vt 0.71925000 0.18700000
vn 0.00000000 0.00000000 1.00000000
v 0.50133250 1.73616748 0.55312500
vt 0.81200000 0.18700000
vn 0.00000000 0.00000000 1.00000000
v 0.63391502 1.86875000 0.55312500
vt 0.81200000 0.09425000
vn 0.00000000 0.00000000 1.00000000
f 249/249/249 250/250/250 251/251/251 252/252/252
usemtl texture_0
v 0.50133250 2.00133252 0.44687500
vt 0.81300000 0.37550000
vn -0.70710678 0.70710678 0.00000000
v 0.36874998 1.86875000 0.44687500
vt 0.81300000 0.46825000
vn -0.70710678 0.70710678 0.00000000
v 0.36874998 1.86875000 0.55312500
vt 0.87450000 0.46825000
vn -0.70710678 0.70710678 0.00000000
v 0.50133250 2.00133252 0.55312500
vt 0.87450000 0.37550000
vn -0.70710678 0.70710678 0.00000000
f 253/253/253 254/254/254 255/255/255 256/256/256
usemtl texture_0
v 0.50133250 2.00133252 0.44687500
vt 0.90575000 0.31200000
vn 0.70710678 0.70710678 -0.00000000
v 0.50133250 2.00133252 0.55312500
vt 0.90575000 0.25050000
vn 0.70710678 0.70710678 -0.00000000
v 0.63391502 1.86875000 0.55312500
vt 0.81300000 0.25050000
vn 0.70710678 0.70710678 -0.00000000
v 0.63391502 1.86875000 0.44687500
vt 0.81300000 0.31200000
vn 0.70710678 0.70710678 -0.00000000
f 257/257/257 258/258/258 259/259/259 260/260/260
usemtl texture_0
v 0.36874998 1.86875000 0.55312500
vt 0.90575000 0.46925000
vn -0.70710678 -0.70710678 -0.00000000
v 0.36874998 1.86875000 0.44687500
vt 0.90575000 0.53075000
vn -0.70710678 -0.70710678 -0.00000000
v 0.50133250 1.73616748 0.44687500
vt 0.81300000 0.53075000
vn -0.70710678 -0.70710678 -0.00000000
v 0.50133250 1.73616748 0.55312500
vt 0.81300000 0.46925000
vn -0.70710678 -0.70710678 -0.00000000
f 261/261/261 262/262/262 263/263/263 264/264/264
usemtl texture_0
v 0.26260863 1.09924572 0.42187500
vt 0.90575000 0.65675000
vn 0.00000000 0.00000000 -1.00000000
v 0.20879378 0.96932516 0.42187500
vt 0.90575000 0.71825000
vn 0.00000000 0.00000000 -1.00000000
v 0.08464746 1.02074825 0.42187500
vt 0.84425000 0.71825000
vn 0.00000000 0.00000000 -1.00000000
v 0.13846232 1.15066881 0.42187500
vt 0.84425000 0.65675000
vn 0.00000000 0.00000000 -1.00000000
f 265/265/265 266/266/266 267/267/267 268/268/268
usemtl texture_0
v 0.26260863 1.09924572 0.57812500
vt 0.74950000 0.81300000
vn 0.92387953 -0.38268343 0.00000000
v 0.20879378 0.96932516 0.57812500
vt 0.74950000 0.87450000
vn 0.92387953 -0.38268343 0.00000000
v 0.20879378 0.96932516 0.42187500
vt 0.65675000 0.87450000
vn 0.92387953 -0.38268343 0.00000000
v 0.26260863 1.09924572 0.42187500
vt 0.65675000 0.81300000
vn 0.92387953 -0.38268343 0.00000000
f 269/269/269 270/270/270 271/271/271 272/272/272
usemtl texture_0
v 0.13846232 1.15066881 0.57812500
vt 0.81200000 0.84425000
vn 0.00000000 0.00000000 1.00000000
v 0.08464746 1.02074825 0.57812500
vt 0.81200000 0.90575000
vn 0.00000000 0.00000000 1.00000000
v 0.20879378 0.96932516 0.57812500
vt 0.75050000 0.90575000
vn 0.00000000 0.00000000 1.00000000
v 0.26260863 1.09924572 0.57812500
vt 0.75050000 0.84425000
vn 0.00000000 0.00000000 1.00000000
f 273/273/273 274/274/274 275/275/275 276/276/276
usemtl texture_0
v 0.13846232 1.15066881 0.42187500
vt 0.65575000 0.81300000
vn -0.92387953 0.38268343 0.00000000
v 0.08464746 1.02074825 0.42187500
vt 0.65575000 0.87450000
vn -0.92387953 0.38268343 0.00000000
v 0.08464746 1.02074825 0.57812500
vt 0.56300000 0.87450000
vn -0.92387953 0.38268343 0.00000000
v 0.13846232 1.15066881 0.57812500
vt 0.56300000 0.81300000
vn -0.92387953 0.38268343 0.00000000
f 277/277/277 278/278/278 279/279/279 280/280/280
usemtl texture_0
v 0.13846232 1.15066881 0.42187500
vt 0.09425000 0.93700000
vn 0.38268343 0.92387953 -0.00000000
v 0.13846232 1.15066881 0.57812500
vt 0.09425000 0.84425000
vn 0.38268343 0.92387953 -0.00000000
v 0.26260863 1.09924572 0.57812500
vt 0.15575000 0.84425000
vn 0.38268343 0.92387953 -0.00000000
v 0.26260863 1.09924572 0.42187500
vt 0.15575000 0.93700000
vn 0.38268343 0.92387953 -0.00000000
f 281/281/281 282/282/282 283/283/283 284/284/284
usemtl texture_0
v 0.08464746 1.02074825 0.57812500
vt 0.25050000 0.84425000
vn -0.38268343 -0.92387953 -0.00000000
v 0.08464746 1.02074825 0.42187500
vt 0.25050000 0.93700000
vn -0.38268343 -0.92387953 -0.00000000
v 0.20879378 0.96932516 0.42187500
vt 0.31200000 0.93700000
vn -0.38268343 -0.92387953 -0.00000000
v 0.20879378 0.96932516 0.57812500
vt 0.31200000 0.84425000
vn -0.38268343 -0.92387953 -0.00000000
f 285/285/285 286/286/286 287/287/287 288/288/288
usemtl texture_0
v 0.30468440 0.98034310 0.42187500
vt 0.46825000 0.59425000
vn 0.00000000 0.00000000 -1.00000000
v 0.28674611 0.93703625 0.42187500
vt 0.46825000 0.62450000
vn 0.00000000 0.00000000 -1.00000000
v 0.23477789 0.95856219 0.42187500
vt 0.43800000 0.62450000
vn 0.00000000 0.00000000 -1.00000000
v 0.25271617 1.00186904 0.42187500
vt 0.43800000 0.59425000
vn 0.00000000 0.00000000 -1.00000000
f 289/289/289 290/290/290 291/291/291 292/292/292
usemtl texture_0
v 0.30468440 0.98034310 0.57812500
vt 0.96825000 0.03175000
vn 0.92387953 -0.38268343 0.00000000
v 0.28674611 0.93703625 0.57812500
vt 0.96825000 0.06200000
vn 0.92387953 -0.38268343 0.00000000
v 0.28674611 0.93703625 0.42187500
vt 0.87550000 0.06200000
vn 0.92387953 -0.38268343 0.00000000
v 0.30468440 0.98034310 0.42187500
vt 0.87550000 0.03175000
vn 0.92387953 -0.38268343 0.00000000
f 293/293/293 294/294/294 295/295/295 296/296/296
usemtl texture_0
v 0.25271617 1.00186904 0.57812500
vt 0.65575000 0.56300000
vn 0.00000000 0.00000000 1.00000000
v 0.23477789 0.95856219 0.57812500
vt 0.65575000 0.59325000
vn 0.00000000 0.00000000 1.00000000
v 0.28674611 0.93703625 0.57812500
vt 0.62550000 0.59325000
vn 0.00000000 0.00000000 1.00000000
v 0.30468440 0.98034310 0.57812500
vt 0.62550000 0.56300000
vn 0.00000000 0.00000000 1.00000000
f 297/297/297 298/298/298 299/299/299 300/300/300
usemtl texture_0
v 0.25271617 1.00186904 0.42187500
vt 0.96825000 0.00050000
vn -0.92387953 0.38268343 0.00000000
v 0.23477789 0.95856219 0.42187500
vt 0.96825000 0.03075000
vn -0.92387953 0.38268343 0.00000000
v 0.23477789 0.95856219 0.57812500
vt 0.87550000 0.03075000
vn -0.92387953 0.38268343 0.00000000
v 0.25271617 1.00186904 0.57812500
vt 0.87550000 0.00050000
vn -0.92387953 0.38268343 0.00000000
f 301/301/301 302/302/302 303/303/303 304/304/304
usemtl texture_0
v 0.25271617 1.00186904 0.42187500
vt 0.15675000 0.93700000
vn 0.38268343 0.92387953 -0.00000000
v 0.25271617 1.00186904 0.57812500
vt 0.15675000 0.84425000
vn 0.38268343 0.92387953 -0.00000000
v 0.30468440 0.98034310 0.57812500
vt 0.18700000 0.84425000
vn 0.38268343 0.92387953 -0.00000000
v 0.30468440 0.98034310 0.42187500
vt 0.18700000 0.93700000
vn 0.38268343 0.92387953 -0.00000000
f 305/305/305 306/306/306 307/307/307 308/308/308
usemtl texture_0
v 0.23477789 0.95856219 0.57812500
vt 0.87550000 0.31300000
vn -0.38268343 -0.92387953 -0.00000000
v 0.23477789 0.95856219 0.42187500
vt 0.87550000 0.40575000
vn -0.38268343 -0.92387953 -0.00000000
v 0.28674611 0.93703625 0.42187500
vt 0.90575000 0.40575000
vn -0.38268343 -0.92387953 -0.00000000
v 0.28674611 0.93703625 0.57812500
vt 0.90575000 0.31300000
vn -0.38268343 -0.92387953 -0.00000000
f 309/309/309 310/310/310 311/311/311 312/312/312
usemtl texture_0
v 0.28674611 0.93703625 0.42187500
vt 0.96825000 0.53175000
vn -0.00000000 0.00000000 -1.00000000
v 0.25684897 0.86485816 0.42187500
vt 0.96825000 0.56200000
vn -0.00000000 0.00000000 -1.00000000
v 0.05475032 0.94857016 0.42187500
vt 0.84425000 0.56200000
vn -0.00000000 0.00000000 -1.00000000
v 0.08464746 1.02074825 0.42187500
vt 0.84425000 0.53175000
vn -0.00000000 0.00000000 -1.00000000
f 313/313/313 314/314/314 315/315/315 316/316/316
usemtl texture_0
v 0.28674611 0.93703625 0.57812500
vt 0.09325000 0.87550000
vn 0.92387953 -0.38268343 0.00000000
v 0.25684897 0.86485816 0.57812500
vt 0.09325000 0.90575000
vn 0.92387953 -0.38268343 0.00000000
v 0.25684897 0.86485816 0.42187500
vt 0.00050000 0.90575000
vn 0.92387953 -0.38268343 0.00000000
v 0.28674611 0.93703625 0.42187500
vt 0.00050000 0.87550000
vn 0.92387953 -0.38268343 0.00000000
f 317/317/317 318/318/318 319/319/319 320/320/320
usemtl texture_0
v 0.08464746 1.02074825 0.57812500
vt 0.96825000 0.56300000
vn 0.00000000 0.00000000 1.00000000
v 0.05475032 0.94857016 0.57812500
vt 0.96825000 0.59325000
vn 0.00000000 0.00000000 1.00000000
v 0.25684897 0.86485816 0.57812500
vt 0.84425000 0.59325000
vn 0.00000000 0.00000000 1.00000000
v 0.28674611 0.93703625 0.57812500
vt 0.84425000 0.56300000
vn 0.00000000 0.00000000 1.00000000
f 321/321/321 322/322/322 323/323/323 324/324/324
usemtl texture_0
v 0.08464746 1.02074825 0.42187500
vt 0.90575000 0.84425000
vn -0.92387953 0.38268343 0.00000000
v 0.05475032 0.94857016 0.42187500
vt 0.90575000 0.87450000
vn -0.92387953 0.38268343 0.00000000
v 0.05475032 0.94857016 0.57812500
vt 0.81300000 0.87450000
vn -0.92387953 0.38268343 0.00000000
v 0.08464746 1.02074825 0.57812500
vt 0.81300000 0.84425000
vn -0.92387953 0.38268343 0.00000000
f 325/325/325 326/326/326 327/327/327 328/328/328
usemtl texture_0
v 0.08464746 1.02074825 0.42187500
vt 0.31300000 0.68700000
vn 0.38268343 0.92387953 -0.00000000
v 0.08464746 1.02074825 0.57812500
vt 0.31300000 0.59425000
vn 0.38268343 0.92387953 -0.00000000
v 0.28674611 0.93703625 0.57812500
vt 0.43700000 0.59425000
vn 0.38268343 0.92387953 -0.00000000
v 0.28674611 0.93703625 0.42187500
vt 0.43700000 0.68700000
vn 0.38268343 0.92387953 -0.00000000
f 329/329/329 330/330/330 331/331/331 332/332/332
usemtl texture_0
v 0.05475032 0.94857016 0.57812500
vt 0.43800000 0.62550000
vn -0.38268343 -0.92387953 -0.00000000
v 0.05475032 0.94857016 0.42187500
vt 0.43800000 0.71825000
vn -0.38268343 -0.92387953 -0.00000000
v 0.25684897 0.86485816 0.42187500
vt 0.56200000 0.71825000
vn -0.38268343 -0.92387953 -0.00000000
v 0.25684897 0.86485816 0.57812500
vt 0.56200000 0.62550000
vn -0.38268343 -0.92387953 -0.00000000
f 333/333/333 334/334/334 335/335/335 336/336/336
usemtl texture_0
v 0.42572382 1.15006784 0.42187500
vt 0.81200000 0.40675000
vn -0.00000000 0.00000000 -1.00000000
v 0.38386782 1.04901852 0.42187500
vt 0.81200000 0.46825000
vn -0.00000000 0.00000000 -1.00000000
v 0.13846232 1.15066881 0.42187500
vt 0.68800000 0.46825000
vn -0.00000000 0.00000000 -1.00000000
v 0.18031832 1.25171813 0.42187500
vt 0.68800000 0.40675000
vn -0.00000000 0.00000000 -1.00000000
f 337/337/337 338/338/338 339/339/339 340/340/340
usemtl texture_0
v 0.42572382 1.15006784 0.57812500
vt 0.46825000 0.78175000
vn 0.92387953 -0.38268343 0.00000000
v 0.38386782 1.04901852 0.57812500
vt 0.46825000 0.84325000
vn 0.92387953 -0.38268343 0.00000000
v 0.38386782 1.04901852 0.42187500
vt 0.37550000 0.84325000
vn 0.92387953 -0.38268343 0.00000000
v 0.42572382 1.15006784 0.42187500
vt 0.37550000 0.78175000
vn 0.92387953 -0.38268343 0.00000000
f 341/341/341 342/342/342 343/343/343 344/344/344
usemtl texture_0
v 0.18031832 1.25171813 0.57812500
vt 0.84325000 0.18800000
vn 0.00000000 0.00000000 1.00000000
v 0.13846232 1.15066881 0.57812500
vt 0.84325000 0.24950000
vn 0.00000000 0.00000000 1.00000000
v 0.38386782 1.04901852 0.57812500
vt 0.71925000 0.24950000
vn 0.00000000 0.00000000 1.00000000
v 0.42572382 1.15006784 0.57812500
vt 0.71925000 0.18800000
vn 0.00000000 0.00000000 1.00000000
f 345/345/345 346/346/346 347/347/347 348/348/348
usemtl texture_0
v 0.18031832 1.25171813 0.42187500
vt 0.87450000 0.31300000
vn -0.92387953 0.38268343 0.00000000
v 0.13846232 1.15066881 0.42187500
vt 0.87450000 0.37450000
vn -0.92387953 0.38268343 0.00000000
v 0.13846232 1.15066881 0.57812500
vt 0.78175000 0.37450000
vn -0.92387953 0.38268343 0.00000000
v 0.18031832 1.25171813 0.57812500
vt 0.78175000 0.31300000
vn -0.92387953 0.38268343 0.00000000
f 349/349/349 350/350/350 351/351/351 352/352/352
usemtl texture_0
v 0.18031832 1.25171813 0.42187500
vt 0.59425000 0.21825000
vn 0.38268343 0.92387953 -0.00000000
v 0.18031832 1.25171813 0.57812500
vt 0.59425000 0.12550000
vn 0.38268343 0.92387953 -0.00000000
v 0.42572382 1.15006784 0.57812500
vt 0.71825000 0.12550000
vn 0.38268343 0.92387953 -0.00000000
v 0.42572382 1.15006784 0.42187500
vt 0.71825000 0.21825000
vn 0.38268343 0.92387953 -0.00000000
f 353/353/353 354/354/354 355/355/355 356/356/356
usemtl texture_0
v 0.13846232 1.15066881 0.57812500
vt 0.59425000 0.21925000
vn -0.38268343 -0.92387953 -0.00000000
v 0.13846232 1.15066881 0.42187500
vt 0.59425000 0.31200000
vn -0.38268343 -0.92387953 -0.00000000
v 0.38386782 1.04901852 0.42187500
vt 0.71825000 0.31200000
vn -0.38268343 -0.92387953 -0.00000000
v 0.38386782 1.04901852 0.57812500
vt 0.71825000 0.21925000
vn -0.38268343 -0.92387953 -0.00000000
f 357/357/357 358/358/358 359/359/359 360/360/360
usemtl texture_0
v 0.81968168 1.25171813 0.42187500
vt 0.68800000 0.40675000
vn 0.00000000 -0.00000000 -1.00000000
v 0.86153768 1.15066881 0.42187500
vt 0.68800000 0.46825000
vn 0.00000000 -0.00000000 -1.00000000
v 0.61613218 1.04901852 0.42187500
vt 0.81200000 0.46825000
vn 0.00000000 -0.00000000 -1.00000000
v 0.57427618 1.15006784 0.42187500
vt 0.81200000 0.40675000
vn 0.00000000 -0.00000000 -1.00000000
f 361/361/361 362/362/362 363/363/363 364/364/364
usemtl texture_0
v 0.81968168 1.25171813 0.57812500
vt 0.78175000 0.31300000
vn 0.92387953 0.38268343 0.00000000
v 0.86153768 1.15066881 0.57812500
vt 0.78175000 0.37450000
vn 0.92387953 0.38268343 0.00000000
v 0.86153768 1.15066881 0.42187500
vt 0.87450000 0.37450000
vn 0.92387953 0.38268343 0.00000000
v 0.81968168 1.25171813 0.42187500
vt 0.87450000 0.31300000
vn 0.92387953 0.38268343 0.00000000
f 365/365/365 366/366/366 367/367/367 368/368/368
usemtl texture_0
v 0.57427618 1.15006784 0.57812500
vt 0.71925000 0.18800000
vn -0.00000000 0.00000000 1.00000000
v 0.61613218 1.04901852 0.57812500
vt 0.71925000 0.24950000
vn -0.00000000 0.00000000 1.00000000
v 0.86153768 1.15066881 0.57812500
vt 0.84325000 0.24950000
vn -0.00000000 0.00000000 1.00000000
v 0.81968168 1.25171813 0.57812500
vt 0.84325000 0.18800000
vn -0.00000000 0.00000000 1.00000000
f 369/369/369 370/370/370 371/371/371 372/372/372
usemtl texture_0
v 0.57427618 1.15006784 0.42187500
vt 0.37550000 0.78175000
vn -0.92387953 -0.38268343 0.00000000
v 0.61613218 1.04901852 0.42187500
vt 0.37550000 0.84325000
vn -0.92387953 -0.38268343 0.00000000
v 0.61613218 1.04901852 0.57812500
vt 0.46825000 0.84325000
vn -0.92387953 -0.38268343 0.00000000
v 0.57427618 1.15006784 0.57812500
vt 0.46825000 0.78175000
vn -0.92387953 -0.38268343 0.00000000
f 373/373/373 374/374/374 375/375/375 376/376/376
usemtl texture_0
v 0.57427618 1.15006784 0.42187500
vt 0.71825000 0.21825000
vn -0.38268343 0.92387953 0.00000000
v 0.57427618 1.15006784 0.57812500
vt 0.71825000 0.12550000
vn -0.38268343 0.92387953 0.00000000
v 0.81968168 1.25171813 0.57812500
vt 0.59425000 0.12550000
vn -0.38268343 0.92387953 0.00000000
v 0.81968168 1.25171813 0.42187500
vt 0.59425000 0.21825000
vn -0.38268343 0.92387953 0.00000000
f 377/377/377 378/378/378 379/379/379 380/380/380
usemtl texture_0
v 0.61613218 1.04901852 0.57812500
vt 0.71825000 0.21925000
vn 0.38268343 -0.92387953 0.00000000
v 0.61613218 1.04901852 0.42187500
vt 0.71825000 0.31200000
vn 0.38268343 -0.92387953 0.00000000
v 0.86153768 1.15066881 0.42187500
vt 0.59425000 0.31200000
vn 0.38268343 -0.92387953 0.00000000
v 0.86153768 1.15066881 0.57812500
vt 0.59425000 0.21925000
vn 0.38268343 -0.92387953 0.00000000
f 381/381/381 382/382/382 383/383/383 384/384/384
usemtl texture_0
v 0.91535254 1.02074825 0.42187500
vt 0.84425000 0.53175000
vn 0.00000000 -0.00000000 -1.00000000
v 0.94524968 0.94857016 0.42187500
vt 0.84425000 0.56200000
vn 0.00000000 -0.00000000 -1.00000000
v 0.74315103 0.86485816 0.42187500
vt 0.96825000 0.56200000
vn 0.00000000 -0.00000000 -1.00000000
v 0.71325389 0.93703625 0.42187500
vt 0.96825000 0.53175000
vn 0.00000000 -0.00000000 -1.00000000
f 385/385/385 386/386/386 387/387/387 388/388/388
usemtl texture_0
v 0.91535254 1.02074825 0.57812500
vt 0.81300000 0.84425000
vn 0.92387953 0.38268343 0.00000000
v 0.94524968 0.94857016 0.57812500
vt 0.81300000 0.87450000
vn 0.92387953 0.38268343 0.00000000
v 0.94524968 0.94857016 0.42187500
vt 0.90575000 0.87450000
vn 0.92387953 0.38268343 0.00000000
v 0.91535254 1.02074825 0.42187500
vt 0.90575000 0.84425000
vn 0.92387953 0.38268343 0.00000000
f 389/389/389 390/390/390 391/391/391 392/392/392
usemtl texture_0
v 0.71325389 0.93703625 0.57812500
vt 0.84425000 0.56300000
vn -0.00000000 0.00000000 1.00000000
v 0.74315103 0.86485816 0.57812500
vt 0.84425000 0.59325000
vn -0.00000000 0.00000000 1.00000000
v 0.94524968 0.94857016 0.57812500
vt 0.96825000 0.59325000
vn -0.00000000 0.00000000 1.00000000
v 0.91535254 1.02074825 0.57812500
vt 0.96825000 0.56300000
vn -0.00000000 0.00000000 1.00000000
f 393/393/393 394/394/394 395/395/395 396/396/396
usemtl texture_0
v 0.71325389 0.93703625 0.42187500
vt 0.00050000 0.87550000
vn -0.92387953 -0.38268343 0.00000000
v 0.74315103 0.86485816 0.42187500
vt 0.00050000 0.90575000
vn -0.92387953 -0.38268343 0.00000000
v 0.74315103 0.86485816 0.57812500
vt 0.09325000 0.90575000
vn -0.92387953 -0.38268343 0.00000000
v 0.71325389 0.93703625 0.57812500
vt 0.09325000 0.87550000
vn -0.92387953 -0.38268343 0.00000000
f 397/397/397 398/398/398 399/399/399 400/400/400
usemtl texture_0
v 0.71325389 0.93703625 0.42187500
vt 0.43700000 0.68700000
vn -0.38268343 0.92387953 0.00000000
v 0.71325389 0.93703625 0.57812500
vt 0.43700000 0.59425000
vn -0.38268343 0.92387953 0.00000000
v 0.91535254 1.02074825 0.57812500
vt 0.31300000 0.59425000
vn -0.38268343 0.92387953 0.00000000
v 0.91535254 1.02074825 0.42187500
vt 0.31300000 0.68700000
vn -0.38268343 0.92387953 0.00000000
f 401/401/401 402/402/402 403/403/403 404/404/404
usemtl texture_0
v 0.74315103 0.86485816 0.57812500
vt 0.56200000 0.62550000
vn 0.38268343 -0.92387953 0.00000000
v 0.74315103 0.86485816 0.42187500
vt 0.56200000 0.71825000
vn 0.38268343 -0.92387953 0.00000000
v 0.94524968 0.94857016 0.42187500
vt 0.43800000 0.71825000
vn 0.38268343 -0.92387953 0.00000000
v 0.94524968 0.94857016 0.57812500
vt 0.43800000 0.62550000
vn 0.38268343 -0.92387953 0.00000000
f 405/405/405 406/406/406 407/407/407 408/408/408
usemtl texture_0
v 0.74728383 1.00186904 0.42187500
vt 0.43800000 0.59425000
vn 0.00000000 -0.00000000 -1.00000000
v 0.76522211 0.95856219 0.42187500
vt 0.43800000 0.62450000
vn 0.00000000 -0.00000000 -1.00000000
v 0.71325389 0.93703625 0.42187500
vt 0.46825000 0.62450000
vn 0.00000000 -0.00000000 -1.00000000
v 0.69531560 0.98034310 0.42187500
vt 0.46825000 0.59425000
vn 0.00000000 -0.00000000 -1.00000000
f 409/409/409 410/410/410 411/411/411 412/412/412
usemtl texture_0
v 0.74728383 1.00186904 0.57812500
vt 0.87550000 0.00050000
vn 0.92387953 0.38268343 0.00000000
v 0.76522211 0.95856219 0.57812500
vt 0.87550000 0.03075000
vn 0.92387953 0.38268343 0.00000000
v 0.76522211 0.95856219 0.42187500
vt 0.96825000 0.03075000
vn 0.92387953 0.38268343 0.00000000
v 0.74728383 1.00186904 0.42187500
vt 0.96825000 0.00050000
vn 0.92387953 0.38268343 0.00000000
f 413/413/413 414/414/414 415/415/415 416/416/416
usemtl texture_0
v 0.69531560 0.98034310 0.57812500
vt 0.62550000 0.56300000
vn 0.00000000 0.00000000 1.00000000
v 0.71325389 0.93703625 0.57812500
vt 0.62550000 0.59325000
vn 0.00000000 0.00000000 1.00000000
v 0.76522211 0.95856219 0.57812500
vt 0.65575000 0.59325000
vn 0.00000000 0.00000000 1.00000000
v 0.74728383 1.00186904 0.57812500
vt 0.65575000 0.56300000
vn 0.00000000 0.00000000 1.00000000
f 417/417/417 418/418/418 419/419/419 420/420/420
usemtl texture_0
v 0.69531560 0.98034310 0.42187500
vt 0.87550000 0.03175000
vn -0.92387953 -0.38268343 0.00000000
v 0.71325389 0.93703625 0.42187500
vt 0.87550000 0.06200000
vn -0.92387953 -0.38268343 0.00000000
v 0.71325389 0.93703625 0.57812500
vt 0.96825000 0.06200000
vn -0.92387953 -0.38268343 0.00000000
v 0.69531560 0.98034310 0.57812500
vt 0.96825000 0.03175000
vn -0.92387953 -0.38268343 0.00000000
f 421/421/421 422/422/422 423/423/423 424/424/424
usemtl texture_0
v 0.69531560 0.98034310 0.42187500
vt 0.18700000 0.93700000
vn -0.38268343 0.92387953 0.00000000
v 0.69531560 0.98034310 0.57812500
vt 0.18700000 0.84425000
vn -0.38268343 0.92387953 0.00000000
v 0.74728383 1.00186904 0.57812500
vt 0.15675000 0.84425000
vn -0.38268343 0.92387953 0.00000000
v 0.74728383 1.00186904 0.42187500
vt 0.15675000 0.93700000
vn -0.38268343 0.92387953 0.00000000
f 425/425/425 426/426/426 427/427/427 428/428/428
usemtl texture_0
v 0.71325389 0.93703625 0.57812500
vt 0.90575000 0.31300000
vn 0.38268343 -0.92387953 0.00000000
v 0.71325389 0.93703625 0.42187500
vt 0.90575000 0.40575000
vn 0.38268343 -0.92387953 0.00000000
v 0.76522211 0.95856219 0.42187500
vt 0.87550000 0.40575000
vn 0.38268343 -0.92387953 0.00000000
v 0.76522211 0.95856219 0.57812500
vt 0.87550000 0.31300000
vn 0.38268343 -0.92387953 0.00000000
f 429/429/429 430/430/430 431/431/431 432/432/432
usemtl texture_0
v 0.86153768 1.15066881 0.42187500
vt 0.84425000 0.65675000
vn 0.00000000 -0.00000000 -1.00000000
v 0.91535254 1.02074825 0.42187500
vt 0.84425000 0.71825000
vn 0.00000000 -0.00000000 -1.00000000
v 0.79120622 0.96932516 0.42187500
vt 0.90575000 0.71825000
vn 0.00000000 -0.00000000 -1.00000000
v 0.73739137 1.09924572 0.42187500
vt 0.90575000 0.65675000
vn 0.00000000 -0.00000000 -1.00000000
f 433/433/433 434/434/434 435/435/435 436/436/436
usemtl texture_0
v 0.86153768 1.15066881 0.57812500
vt 0.56300000 0.81300000
vn 0.92387953 0.38268343 0.00000000
v 0.91535254 1.02074825 0.57812500
vt 0.56300000 0.87450000
vn 0.92387953 0.38268343 0.00000000
v 0.91535254 1.02074825 0.42187500
vt 0.65575000 0.87450000
vn 0.92387953 0.38268343 0.00000000
v 0.86153768 1.15066881 0.42187500
vt 0.65575000 0.81300000
vn 0.92387953 0.38268343 0.00000000
f 437/437/437 438/438/438 439/439/439 440/440/440
usemtl texture_0
v 0.73739137 1.09924572 0.57812500
vt 0.75050000 0.84425000
vn 0.00000000 0.00000000 1.00000000
v 0.79120622 0.96932516 0.57812500
vt 0.75050000 0.90575000
vn 0.00000000 0.00000000 1.00000000
v 0.91535254 1.02074825 0.57812500
vt 0.81200000 0.90575000
vn 0.00000000 0.00000000 1.00000000
v 0.86153768 1.15066881 0.57812500
vt 0.81200000 0.84425000
vn 0.00000000 0.00000000 1.00000000
f 441/441/441 442/442/442 443/443/443 444/444/444
usemtl texture_0
v 0.73739137 1.09924572 0.42187500
vt 0.65675000 0.81300000
vn -0.92387953 -0.38268343 0.00000000
v 0.79120622 0.96932516 0.42187500
vt 0.65675000 0.87450000
vn -0.92387953 -0.38268343 0.00000000
v 0.79120622 0.96932516 0.57812500
vt 0.74950000 0.87450000
vn -0.92387953 -0.38268343 0.00000000
v 0.73739137 1.09924572 0.57812500
vt 0.74950000 0.81300000
vn -0.92387953 -0.38268343 0.00000000
f 445/445/445 446/446/446 447/447/447 448/448/448
usemtl texture_0
v 0.73739137 1.09924572 0.42187500
vt 0.15575000 0.93700000
vn -0.38268343 0.92387953 0.00000000
v 0.73739137 1.09924572 0.57812500
vt 0.15575000 0.84425000
vn -0.38268343 0.92387953 0.00000000
v 0.86153768 1.15066881 0.57812500
vt 0.09425000 0.84425000
vn -0.38268343 0.92387953 0.00000000
v 0.86153768 1.15066881 0.42187500
vt 0.09425000 0.93700000
vn -0.38268343 0.92387953 0.00000000
f 449/449/449 450/450/450 451/451/451 452/452/452
usemtl texture_0
v 0.79120622 0.96932516 0.57812500
vt 0.31200000 0.84425000
vn 0.38268343 -0.92387953 0.00000000
v 0.79120622 0.96932516 0.42187500
vt 0.31200000 0.93700000
vn 0.38268343 -0.92387953 0.00000000
v 0.91535254 1.02074825 0.42187500
vt 0.25050000 0.93700000
vn 0.38268343 -0.92387953 0.00000000
v 0.91535254 1.02074825 0.57812500
vt 0.25050000 0.84425000
vn 0.38268343 -0.92387953 0.00000000
f 453/453/453 454/454/454 455/455/455 456/456/456
usemtl texture_0
v 0.69965897 0.81250000 0.68403397
vt 0.59425000 0.00050000
vn 0.70710678 0.00000000 -0.70710678
v 0.69965897 0.56250000 0.68403397
vt 0.59425000 0.12450000
vn 0.70710678 0.00000000 -0.70710678
v 0.57812499 0.56250000 0.56249999
vt 0.68700000 0.12450000
vn 0.70710678 0.00000000 -0.70710678
v 0.57812499 0.81250000 0.56249999
vt 0.68700000 0.00050000
vn 0.70710678 0.00000000 -0.70710678
f 457/457/457 458/458/458 459/459/459 460/460/460
usemtl texture_0
v 0.69965897 0.81250000 0.68403397
vt 0.00050000 0.00050000
vn 0.00000000 0.00000000 0.00000000
v 0.69965897 0.56250000 0.68403397
vt 0.00050000 0.12450000
vn 0.00000000 0.00000000 0.00000000
v 0.69965897 0.56250000 0.68403397
vt 0.00050000 0.12450000
vn 0.00000000 0.00000000 0.00000000
v 0.69965897 0.81250000 0.68403397
vt 0.00050000 0.00050000
vn 0.00000000 0.00000000 0.00000000
f 461/461/461 462/462/462 463/463/463 464/464/464
usemtl texture_0
v 0.57812499 0.81250000 0.56249999
vt 0.09425000 0.56300000
vn -0.70710678 0.00000000 0.70710678
v 0.57812499 0.56250000 0.56249999
vt 0.09425000 0.68700000
vn -0.70710678 0.00000000 0.70710678
v 0.69965897 0.56250000 0.68403397
vt 0.18700000 0.68700000
vn -0.70710678 0.00000000 0.70710678
v 0.69965897 0.81250000 0.68403397
vt 0.18700000 0.56300000
vn -0.70710678 0.00000000 0.70710678
f 465/465/465 466/466/466 467/467/467 468/468/468
usemtl texture_0
v 0.57812499 0.81250000 0.56249999
vt 0.00050000 0.00050000
vn 0.00000000 0.00000000 0.00000000
v 0.57812499 0.56250000 0.56249999
vt 0.00050000 0.12450000
vn 0.00000000 0.00000000 0.00000000
v 0.57812499 0.56250000 0.56249999
vt 0.00050000 0.12450000
vn 0.00000000 0.00000000 0.00000000
v 0.57812499 0.81250000 0.56249999
vt 0.00050000 0.00050000
vn 0.00000000 0.00000000 0.00000000
f 469/469/469 470/470/470 471/471/471 472/472/472
usemtl texture_0
v 0.57812499 0.81250000 0.56249999
vt 0.00050000 0.00050000
vn 0.00000000 0.00000000 0.00000000
v 0.57812499 0.81250000 0.56249999
vt 0.00050000 0.00050000
vn 0.00000000 0.00000000 0.00000000
v 0.69965897 0.81250000 0.68403397
vt 0.09325000 0.00050000
vn 0.00000000 0.00000000 0.00000000
v 0.69965897 0.81250000 0.68403397
vt 0.09325000 0.00050000
vn 0.00000000 0.00000000 0.00000000
f 473/473/473 474/474/474 475/475/475 476/476/476
usemtl texture_0
v 0.57812499 0.56250000 0.56249999
vt 0.00050000 0.00050000
vn 0.00000000 0.00000000 0.00000000
v 0.57812499 0.56250000 0.56249999
vt 0.00050000 0.00050000
vn 0.00000000 0.00000000 0.00000000
v 0.69965897 0.56250000 0.68403397
vt 0.09325000 0.00050000
vn 0.00000000 0.00000000 0.00000000
v 0.69965897 0.56250000 0.68403397
vt 0.09325000 0.00050000
vn 0.00000000 0.00000000 0.00000000
f 477/477/477 478/478/478 479/479/479 480/480/480
usemtl texture_0
v 0.69965897 0.81250000 0.31596603
vt 0.18700000 0.56300000
vn -0.70710678 -0.00000000 -0.70710678
v 0.69965897 0.56250000 0.31596603
vt 0.18700000 0.68700000
vn -0.70710678 -0.00000000 -0.70710678
v 0.57812499 0.56250000 0.43750001
vt 0.09425000 0.68700000
vn -0.70710678 -0.00000000 -0.70710678
v 0.57812499 0.81250000 0.43750001
vt 0.09425000 0.56300000
vn -0.70710678 -0.00000000 -0.70710678
f 481/481/481 482/482/482 483/483/483 484/484/484
usemtl texture_0
v 0.69965897 0.81250000 0.31596603
vt 0.00050000 0.00050000
vn 0.00000000 0.00000000 0.00000000
v 0.69965897 0.56250000 0.31596603
vt 0.00050000 0.12450000
vn 0.00000000 0.00000000 0.00000000
v 0.69965897 0.56250000 0.31596603
vt 0.00050000 0.12450000
vn 0.00000000 0.00000000 0.00000000
v 0.69965897 0.81250000 0.31596603
vt 0.00050000 0.00050000
vn 0.00000000 0.00000000 0.00000000
f 485/485/485 486/486/486 487/487/487 488/488/488
usemtl texture_0
v 0.57812499 0.81250000 0.43750001
vt 0.68700000 0.00050000
vn 0.70710678 0.00000000 0.70710678
v 0.57812499 0.56250000 0.43750001
vt 0.68700000 0.12450000
vn 0.70710678 0.00000000 0.70710678
v 0.69965897 0.56250000 0.31596603
vt 0.59425000 0.12450000
vn 0.70710678 0.00000000 0.70710678
v 0.69965897 0.81250000 0.31596603
vt 0.59425000 0.00050000
vn 0.70710678 0.00000000 0.70710678
f 489/489/489 490/490/490 491/491/491 492/492/492
usemtl texture_0
v 0.57812499 0.81250000 0.43750001
vt 0.00050000 0.00050000
vn 0.00000000 0.00000000 0.00000000
v 0.57812499 0.56250000 0.43750001
vt 0.00050000 0.12450000
vn 0.00000000 0.00000000 0.00000000
v 0.57812499 0.56250000 0.43750001
vt 0.00050000 0.12450000
vn 0.00000000 0.00000000 0.00000000
v 0.57812499 0.81250000 0.43750001
vt 0.00050000 0.00050000
vn 0.00000000 0.00000000 0.00000000
f 493/493/493 494/494/494 495/495/495 496/496/496
usemtl texture_0
v 0.57812499 0.81250000 0.43750001
vt 0.00050000 0.00050000
vn -0.00000000 0.00000000 0.00000000
v 0.57812499 0.81250000 0.43750001
vt 0.00050000 0.00050000
vn -0.00000000 0.00000000 0.00000000
v 0.69965897 0.81250000 0.31596603
vt 0.09325000 0.00050000
vn -0.00000000 0.00000000 0.00000000
v 0.69965897 0.81250000 0.31596603
vt 0.09325000 0.00050000
vn -0.00000000 0.00000000 0.00000000
f 497/497/497 498/498/498 499/499/499 500/500/500
usemtl texture_0
v 0.57812499 0.56250000 0.43750001
vt 0.00050000 0.00050000
vn -0.00000000 0.00000000 0.00000000
v 0.57812499 0.56250000 0.43750001
vt 0.00050000 0.00050000
vn -0.00000000 0.00000000 0.00000000
v 0.69965897 0.56250000 0.31596603
vt 0.09325000 0.00050000
vn -0.00000000 0.00000000 0.00000000
v 0.69965897 0.56250000 0.31596603
vt 0.09325000 0.00050000
vn -0.00000000 0.00000000 0.00000000
f 501/501/501 502/502/502 503/503/503 504/504/504
usemtl texture_0
v 0.42187501 0.81250000 0.56249999
vt 0.68700000 0.00050000
vn -0.70710678 -0.00000000 -0.70710678
v 0.42187501 0.56250000 0.56249999
vt 0.68700000 0.12450000
vn -0.70710678 -0.00000000 -0.70710678
v 0.30034103 0.56250000 0.68403397
vt 0.59425000 0.12450000
vn -0.70710678 -0.00000000 -0.70710678
v 0.30034103 0.81250000 0.68403397
vt 0.59425000 0.00050000
vn -0.70710678 -0.00000000 -0.70710678
f 505/505/505 506/506/506 507/507/507 508/508/508
usemtl texture_0
v 0.42187501 0.81250000 0.56249999
vt 0.00050000 0.00050000
vn 0.00000000 0.00000000 0.00000000
v 0.42187501 0.56250000 0.56249999
vt 0.00050000 0.12450000
vn 0.00000000 0.00000000 0.00000000
v 0.42187501 0.56250000 0.56249999
vt 0.00050000 0.12450000
vn 0.00000000 0.00000000 0.00000000
v 0.42187501 0.81250000 0.56249999
vt 0.00050000 0.00050000
vn 0.00000000 0.00000000 0.00000000
f 509/509/509 510/510/510 511/511/511 512/512/512
usemtl texture_0
v 0.30034103 0.81250000 0.68403397
vt 0.18700000 0.56300000
vn 0.70710678 0.00000000 0.70710678
v 0.30034103 0.56250000 0.68403397
vt 0.18700000 0.68700000
vn 0.70710678 0.00000000 0.70710678
v 0.42187501 0.56250000 0.56249999
vt 0.09425000 0.68700000
vn 0.70710678 0.00000000 0.70710678
v 0.42187501 0.81250000 0.56249999
vt 0.09425000 0.56300000
vn 0.70710678 0.00000000 0.70710678
f 513/513/513 514/514/514 515/515/515 516/516/516
usemtl texture_0
v 0.30034103 0.81250000 0.68403397
vt 0.00050000 0.00050000
vn 0.00000000 0.00000000 0.00000000
v 0.30034103 0.56250000 0.68403397
vt 0.00050000 0.12450000
vn 0.00000000 0.00000000 0.00000000
v 0.30034103 0.56250000 0.68403397
vt 0.00050000 0.12450000
vn 0.00000000 0.00000000 0.00000000
v 0.30034103 0.81250000 0.68403397
vt 0.00050000 0.00050000
vn 0.00000000 0.00000000 0.00000000
f 517/517/517 518/518/518 519/519/519 520/520/520
usemtl texture_0
v 0.30034103 0.81250000 0.68403397
vt 0.09325000 0.00050000
vn -0.00000000 0.00000000 0.00000000
v 0.30034103 0.81250000 0.68403397
vt 0.09325000 0.00050000
vn -0.00000000 0.00000000 0.00000000
v 0.42187501 0.81250000 0.56249999
vt 0.00050000 0.00050000
vn -0.00000000 0.00000000 0.00000000
v 0.42187501 0.81250000 0.56249999
vt 0.00050000 0.00050000
vn -0.00000000 0.00000000 0.00000000
f 521/521/521 522/522/522 523/523/523 524/524/524
usemtl texture_0
v 0.30034103 0.56250000 0.68403397
vt 0.09325000 0.00050000
vn -0.00000000 0.00000000 0.00000000
v 0.30034103 0.56250000 0.68403397
vt 0.09325000 0.00050000
vn -0.00000000 0.00000000 0.00000000
v 0.42187501 0.56250000 0.56249999
vt 0.00050000 0.00050000
vn -0.00000000 0.00000000 0.00000000
v 0.42187501 0.56250000 0.56249999
vt 0.00050000 0.00050000
vn -0.00000000 0.00000000 0.00000000
f 525/525/525 526/526/526 527/527/527 528/528/528
