mtllib loot_legendary_crate.mtl
usemtl texture_0
v 0.76889666 0.10068818 0.36057887
vt 0.68750000 0.17187500
vn 0.00000000 -0.00000000 -1.00000000
v 0.76889666 -0.00000000 0.36057887
vt 0.68750000 0.21875000
vn 0.00000000 -0.00000000 -1.00000000
v 0.66149594 -0.00000000 0.36057887
vt 0.64062500 0.21875000
vn 0.00000000 -0.00000000 -1.00000000
v 0.66149594 0.10068818 0.36057887
vt 0.64062500 0.17187500
vn 0.00000000 -0.00000000 -1.00000000
f 1/1/1 2/2/2 3/3/3 4/4/4
usemtl texture_0
v 0.76889666 0.10068818 0.65119259
vt 0.65625000 0.04687500
vn 1.00000000 0.00000000 0.00000000
v 0.76889666 -0.00000000 0.65119259
vt 0.65625000 0.09375000
vn 1.00000000 0.00000000 0.00000000
v 0.76889666 -0.00000000 0.36057887
vt 0.54687500 0.09375000
vn 1.00000000 0.00000000 0.00000000
v 0.76889666 0.10068818 0.36057887
vt 0.54687500 0.04687500
vn 1.00000000 0.00000000 0.00000000
f 5/5/5 6/6/6 7/7/7 8/8/8
usemtl texture_0
v 0.66149594 0.10068818 0.65119259
vt 0.26562500 0.64062500
vn 0.00000000 0.00000000 1.00000000
v 0.66149594 -0.00000000 0.65119259
vt 0.26562500 0.68750000
vn 0.00000000 0.00000000 1.00000000
v 0.76889666 -0.00000000 0.65119259
vt 0.21875000 0.68750000
vn 0.00000000 0.00000000 1.00000000
v 0.76889666 0.10068818 0.65119259
vt 0.21875000 0.64062500
vn 0.00000000 0.00000000 1.00000000
f 9/9/9 10/10/10 11/11/11 12/12/12
usemtl texture_0
v 0.66149594 0.10068818 0.36057887
vt 0.65625000 0.00000000
vn -1.00000000 0.00000000 0.00000000
v 0.66149594 -0.00000000 0.36057887
vt 0.65625000 0.04687500
vn -1.00000000 0.00000000 0.00000000
v 0.66149594 -0.00000000 0.65119259
vt 0.54687500 0.04687500
vn -1.00000000 0.00000000 0.00000000
v 0.66149594 0.10068818 0.65119259
vt 0.54687500 0.00000000
vn -1.00000000 0.00000000 0.00000000
f 13/13/13 14/14/14 15/15/15 16/16/16
usemtl texture_0
v 0.66149594 0.10068818 0.36057887
vt 0.00000000 0.65625000
vn 0.00000000 1.00000000 0.00000000
v 0.66149594 0.10068818 0.65119259
vt 0.00000000 0.54687500
vn 0.00000000 1.00000000 0.00000000
v 0.76889666 0.10068818 0.65119259
vt 0.04687500 0.54687500
vn 0.00000000 1.00000000 0.00000000
v 0.76889666 0.10068818 0.36057887
vt 0.04687500 0.65625000
vn 0.00000000 1.00000000 0.00000000
f 17/17/17 18/18/18 19/19/19 20/20/20
usemtl texture_0
v 0.66149594 -0.00000000 0.65119259
vt 0.54687500 0.53125000
vn 0.00000000 -1.00000000 0.00000000
v 0.66149594 -0.00000000 0.36057887
vt 0.54687500 0.64062500
vn 0.00000000 -1.00000000 0.00000000
v 0.76889666 -0.00000000 0.36057887
vt 0.59375000 0.64062500
vn 0.00000000 -1.00000000 0.00000000
v 0.76889666 -0.00000000 0.65119259
vt 0.59375000 0.53125000
vn 0.00000000 -1.00000000 0.00000000
f 21/21/21 22/22/22 23/23/23 24/24/24
usemtl texture_0
v 0.65122969 0.10068844 0.65474629
vt 0.59375000 0.37500000
vn 0.00000000 -0.00000000 -1.00000000
v 0.65122969 0.00000027 0.65474629
vt 0.59375000 0.42187500
vn 0.00000000 -0.00000000 -1.00000000
v 0.34877031 0.00000027 0.65474629
vt 0.46875000 0.42187500
vn 0.00000000 -0.00000000 -1.00000000
v 0.34877031 0.10068844 0.65474629
vt 0.46875000 0.37500000
vn 0.00000000 -0.00000000 -1.00000000
f 25/25/25 26/26/26 27/27/27 28/28/28
usemtl texture_0
v 0.65122969 0.10068844 0.76214701
vt 0.64062500 0.60937500
vn 1.00000000 0.00000000 0.00000000
v 0.65122969 0.00000027 0.76214701
vt 0.64062500 0.65625000
vn 1.00000000 0.00000000 0.00000000
v 0.65122969 0.00000027 0.65474629
vt 0.59375000 0.65625000
vn 1.00000000 0.00000000 0.00000000
v 0.65122969 0.10068844 0.65474629
vt 0.59375000 0.60937500
vn 1.00000000 0.00000000 0.00000000
f 29/29/29 30/30/30 31/31/31 32/32/32
usemtl texture_0
v 0.34877031 0.10068844 0.76214701
vt 0.59375000 0.32812500
vn 0.00000000 0.00000000 1.00000000
v 0.34877031 0.00000027 0.76214701
vt 0.59375000 0.37500000
vn 0.00000000 0.00000000 1.00000000
v 0.65122969 0.00000027 0.76214701
vt 0.46875000 0.37500000
vn 0.00000000 0.00000000 1.00000000
v 0.65122969 0.10068844 0.76214701
vt 0.46875000 0.32812500
vn 0.00000000 0.00000000 1.00000000
f 33/33/33 34/34/34 35/35/35 36/36/36
usemtl texture_0
v 0.34877031 0.10068844 0.65474629
vt 0.34375000 0.62500000
vn -1.00000000 0.00000000 0.00000000
v 0.34877031 0.00000027 0.65474629
vt 0.34375000 0.67187500
vn -1.00000000 0.00000000 0.00000000
v 0.34877031 0.00000027 0.76214701
vt 0.29687500 0.67187500
vn -1.00000000 0.00000000 0.00000000
v 0.34877031 0.10068844 0.76214701
vt 0.29687500 0.62500000
vn -1.00000000 0.00000000 0.00000000
f 37/37/37 38/38/38 39/39/39 40/40/40
usemtl texture_0
v 0.34877031 0.10068844 0.65474629
vt 0.20312500 0.48437500
vn 0.00000000 1.00000000 0.00000000
v 0.34877031 0.10068844 0.76214701
vt 0.20312500 0.53125000
vn 0.00000000 1.00000000 0.00000000
v 0.65122969 0.10068844 0.76214701
vt 0.07812500 0.53125000
vn 0.00000000 1.00000000 0.00000000
v 0.65122969 0.10068844 0.65474629
vt 0.07812500 0.48437500
vn 0.00000000 1.00000000 0.00000000
f 41/41/41 42/42/42 43/43/43 44/44/44
usemtl texture_0
v 0.34877031 0.00000027 0.76214701
vt 0.32812500 0.53125000
vn 0.00000000 -1.00000000 0.00000000
v 0.34877031 0.00000027 0.65474629
vt 0.32812500 0.48437500
vn 0.00000000 -1.00000000 0.00000000
v 0.65122969 0.00000027 0.65474629
vt 0.20312500 0.48437500
vn 0.00000000 -1.00000000 0.00000000
v 0.65122969 0.00000027 0.76214701
vt 0.20312500 0.53125000
vn 0.00000000 -1.00000000 0.00000000
f 45/45/45 46/46/46 47/47/47 48/48/48
usemtl texture_0
v 0.33889892 0.29535225 0.65869485
vt 0.64062500 0.26562500
vn 0.00000000 -0.00000000 -1.00000000
v 0.33889892 0.13425117 0.65869485
vt 0.64062500 0.32812500
vn 0.00000000 -0.00000000 -1.00000000
v 0.23149819 0.13425117 0.65869485
vt 0.59375000 0.32812500
vn 0.00000000 -0.00000000 -1.00000000
v 0.23149819 0.29535225 0.65869485
vt 0.59375000 0.26562500
vn 0.00000000 -0.00000000 -1.00000000
f 49/49/49 50/50/50 51/51/51 52/52/52
usemtl texture_0
v 0.33889892 0.29535225 0.76609557
vt 0.64062500 0.20312500
vn 1.00000000 0.00000000 0.00000000
v 0.33889892 0.13425117 0.76609557
vt 0.64062500 0.26562500
vn 1.00000000 0.00000000 0.00000000
v 0.33889892 0.13425117 0.65869485
vt 0.59375000 0.26562500
vn 1.00000000 0.00000000 0.00000000
v 0.33889892 0.29535225 0.65869485
vt 0.59375000 0.20312500
vn 1.00000000 0.00000000 0.00000000
f 53/53/53 54/54/54 55/55/55 56/56/56
usemtl texture_0
v 0.23149819 0.29535225 0.76609557
vt 0.53125000 0.57812500
vn 0.00000000 0.00000000 1.00000000
v 0.23149819 0.13425117 0.76609557
vt 0.53125000 0.64062500
vn 0.00000000 0.00000000 1.00000000
v 0.33889892 0.13425117 0.76609557
vt 0.48437500 0.64062500
vn 0.00000000 0.00000000 1.00000000
v 0.33889892 0.29535225 0.76609557
vt 0.48437500 0.57812500
vn 0.00000000 0.00000000 1.00000000
f 57/57/57 58/58/58 59/59/59 60/60/60
usemtl texture_0
v 0.23149819 0.29535225 0.65869485
vt 0.64062500 0.32812500
vn -1.00000000 0.00000000 0.00000000
v 0.23149819 0.13425117 0.65869485
vt 0.64062500 0.39062500
vn -1.00000000 0.00000000 0.00000000
v 0.23149819 0.13425117 0.76609557
vt 0.59375000 0.39062500
vn -1.00000000 0.00000000 0.00000000
v 0.23149819 0.29535225 0.76609557
vt 0.59375000 0.32812500
vn -1.00000000 0.00000000 0.00000000
f 61/61/61 62/62/62 63/63/63 64/64/64
usemtl texture_0
v 0.23149819 0.29535225 0.65869485
vt 0.39062500 0.62500000
vn 0.00000000 1.00000000 0.00000000
v 0.23149819 0.29535225 0.76609557
vt 0.39062500 0.67187500
vn 0.00000000 1.00000000 0.00000000
v 0.33889892 0.29535225 0.76609557
vt 0.34375000 0.67187500
vn 0.00000000 1.00000000 0.00000000
v 0.33889892 0.29535225 0.65869485
vt 0.34375000 0.62500000
vn 0.00000000 1.00000000 0.00000000
f 65/65/65 66/66/66 67/67/67 68/68/68
usemtl texture_0
v 0.23149819 0.13425117 0.76609557
vt 0.43750000 0.67187500
vn 0.00000000 -1.00000000 0.00000000
v 0.23149819 0.13425117 0.65869485
vt 0.43750000 0.62500000
vn 0.00000000 -1.00000000 0.00000000
v 0.33889892 0.13425117 0.65869485
vt 0.39062500 0.62500000
vn 0.00000000 -1.00000000 0.00000000
v 0.33889892 0.13425117 0.76609557
vt 0.39062500 0.67187500
vn 0.00000000 -1.00000000 0.00000000
f 69/69/69 70/70/70 71/71/71 72/72/72
usemtl texture_0
v 0.76850181 0.29535225 0.65869485
vt 0.59375000 0.26562500
vn 0.00000000 -0.00000000 -1.00000000
v 0.76850181 0.13425117 0.65869485
vt 0.59375000 0.32812500
vn 0.00000000 -0.00000000 -1.00000000
v 0.66110108 0.13425117 0.65869485
vt 0.64062500 0.32812500
vn 0.00000000 -0.00000000 -1.00000000
v 0.66110108 0.29535225 0.65869485
vt 0.64062500 0.26562500
vn 0.00000000 -0.00000000 -1.00000000
f 73/73/73 74/74/74 75/75/75 76/76/76
usemtl texture_0
v 0.76850181 0.29535225 0.76609557
vt 0.59375000 0.32812500
vn 1.00000000 0.00000000 0.00000000
v 0.76850181 0.13425117 0.76609557
vt 0.59375000 0.39062500
vn 1.00000000 0.00000000 0.00000000
v 0.76850181 0.13425117 0.65869485
vt 0.64062500 0.39062500
vn 1.00000000 0.00000000 0.00000000
v 0.76850181 0.29535225 0.65869485
vt 0.64062500 0.32812500
vn 1.00000000 0.00000000 0.00000000
f 77/77/77 78/78/78 79/79/79 80/80/80
usemtl texture_0
v 0.66110108 0.29535225 0.76609557
vt 0.48437500 0.57812500
vn 0.00000000 0.00000000 1.00000000
v 0.66110108 0.13425117 0.76609557
vt 0.48437500 0.64062500
vn 0.00000000 0.00000000 1.00000000
v 0.76850181 0.13425117 0.76609557
vt 0.53125000 0.64062500
vn 0.00000000 0.00000000 1.00000000
v 0.76850181 0.29535225 0.76609557
vt 0.53125000 0.57812500
vn 0.00000000 0.00000000 1.00000000
f 81/81/81 82/82/82 83/83/83 84/84/84
usemtl texture_0
v 0.66110108 0.29535225 0.65869485
vt 0.59375000 0.20312500
vn -1.00000000 0.00000000 0.00000000
v 0.66110108 0.13425117 0.65869485
vt 0.59375000 0.26562500
vn -1.00000000 0.00000000 0.00000000
v 0.66110108 0.13425117 0.76609557
vt 0.64062500 0.26562500
vn -1.00000000 0.00000000 0.00000000
v 0.66110108 0.29535225 0.76609557
vt 0.64062500 0.20312500
vn -1.00000000 0.00000000 0.00000000
f 85/85/85 86/86/86 87/87/87 88/88/88
usemtl texture_0
v 0.66110108 0.29535225 0.65869485
vt 0.34375000 0.62500000
vn 0.00000000 1.00000000 0.00000000
v 0.66110108 0.29535225 0.76609557
vt 0.34375000 0.67187500
vn 0.00000000 1.00000000 0.00000000
v 0.76850181 0.29535225 0.76609557
vt 0.39062500 0.67187500
vn 0.00000000 1.00000000 0.00000000
v 0.76850181 0.29535225 0.65869485
vt 0.39062500 0.62500000
vn 0.00000000 1.00000000 0.00000000
f 89/89/89 90/90/90 91/91/91 92/92/92
usemtl texture_0
v 0.66110108 0.13425117 0.76609557
vt 0.39062500 0.67187500
vn 0.00000000 -1.00000000 0.00000000
v 0.66110108 0.13425117 0.65869485
vt 0.39062500 0.62500000
vn 0.00000000 -1.00000000 0.00000000
v 0.76850181 0.13425117 0.65869485
vt 0.43750000 0.62500000
vn 0.00000000 -1.00000000 0.00000000
v 0.76850181 0.13425117 0.76609557
vt 0.43750000 0.67187500
vn 0.00000000 -1.00000000 0.00000000
f 93/93/93 94/94/94 95/95/95 96/96/96
usemtl texture_0
v 0.76850181 0.29535225 0.24330676
vt 0.53125000 0.57812500
vn 0.00000000 -0.00000000 -1.00000000
v 0.76850181 0.13425117 0.24330676
vt 0.53125000 0.64062500
vn 0.00000000 -0.00000000 -1.00000000
v 0.66110108 0.13425117 0.24330676
vt 0.48437500 0.64062500
vn 0.00000000 -0.00000000 -1.00000000
v 0.66110108 0.29535225 0.24330676
vt 0.48437500 0.57812500
vn 0.00000000 -0.00000000 -1.00000000
f 97/97/97 98/98/98 99/99/99 100/100/100
usemtl texture_0
v 0.76850181 0.29535225 0.35070748
vt 0.64062500 0.32812500
vn 1.00000000 0.00000000 0.00000000
v 0.76850181 0.13425117 0.35070748
vt 0.64062500 0.39062500
vn 1.00000000 0.00000000 0.00000000
v 0.76850181 0.13425117 0.24330676
vt 0.59375000 0.39062500
vn 1.00000000 0.00000000 0.00000000
v 0.76850181 0.29535225 0.24330676
vt 0.59375000 0.32812500
vn 1.00000000 0.00000000 0.00000000
f 101/101/101 102/102/102 103/103/103 104/104/104
usemtl texture_0
v 0.66110108 0.29535225 0.35070748
vt 0.64062500 0.26562500
vn 0.00000000 0.00000000 1.00000000
v 0.66110108 0.13425117 0.35070748
vt 0.64062500 0.32812500
vn 0.00000000 0.00000000 1.00000000
v 0.76850181 0.13425117 0.35070748
vt 0.59375000 0.32812500
vn 0.00000000 0.00000000 1.00000000
v 0.76850181 0.29535225 0.35070748
vt 0.59375000 0.26562500
vn 0.00000000 0.00000000 1.00000000
f 105/105/105 106/106/106 107/107/107 108/108/108
usemtl texture_0
v 0.66110108 0.29535225 0.24330676
vt 0.64062500 0.20312500
vn -1.00000000 0.00000000 0.00000000
v 0.66110108 0.13425117 0.24330676
vt 0.64062500 0.26562500
vn -1.00000000 0.00000000 0.00000000
v 0.66110108 0.13425117 0.35070748
vt 0.59375000 0.26562500
vn -1.00000000 0.00000000 0.00000000
v 0.66110108 0.29535225 0.35070748
vt 0.59375000 0.20312500
vn -1.00000000 0.00000000 0.00000000
f 109/109/109 110/110/110 111/111/111 112/112/112
usemtl texture_0
v 0.66110108 0.29535225 0.24330676
vt 0.34375000 0.67187500
vn 0.00000000 1.00000000 0.00000000
v 0.66110108 0.29535225 0.35070748
vt 0.34375000 0.62500000
vn 0.00000000 1.00000000 0.00000000
v 0.76850181 0.29535225 0.35070748
vt 0.39062500 0.62500000
vn 0.00000000 1.00000000 0.00000000
v 0.76850181 0.29535225 0.24330676
vt 0.39062500 0.67187500
vn 0.00000000 1.00000000 0.00000000
f 113/113/113 114/114/114 115/115/115 116/116/116
usemtl texture_0
v 0.66110108 0.13425117 0.35070748
vt 0.39062500 0.62500000
vn 0.00000000 -1.00000000 0.00000000
v 0.66110108 0.13425117 0.24330676
vt 0.39062500 0.67187500
vn 0.00000000 -1.00000000 0.00000000
v 0.76850181 0.13425117 0.24330676
vt 0.43750000 0.67187500
vn 0.00000000 -1.00000000 0.00000000
v 0.76850181 0.13425117 0.35070748
vt 0.43750000 0.62500000
vn 0.00000000 -1.00000000 0.00000000
f 117/117/117 118/118/118 119/119/119 120/120/120
usemtl texture_0
v 0.34877031 0.13425117 0.64882346
vt 0.48437500 0.57812500
vn 0.00000000 -0.00000000 -1.00000000
v 0.34877031 0.00000027 0.64882346
vt 0.48437500 0.62500000
vn 0.00000000 -0.00000000 -1.00000000
v 0.17779783 0.00000027 0.64882346
vt 0.42187500 0.62500000
vn 0.00000000 -0.00000000 -1.00000000
v 0.17779783 0.13425117 0.64882346
vt 0.42187500 0.57812500
vn 0.00000000 -0.00000000 -1.00000000
f 121/121/121 122/122/122 123/123/123 124/124/124
usemtl texture_0
v 0.34877031 0.13425117 0.81979593
vt 0.42187500 0.57812500
vn 1.00000000 0.00000000 0.00000000
v 0.34877031 0.00000027 0.81979593
vt 0.42187500 0.62500000
vn 1.00000000 0.00000000 0.00000000
v 0.34877031 0.00000027 0.64882346
vt 0.35937500 0.62500000
vn 1.00000000 0.00000000 0.00000000
v 0.34877031 0.13425117 0.64882346
vt 0.35937500 0.57812500
vn 1.00000000 0.00000000 0.00000000
f 125/125/125 126/126/126 127/127/127 128/128/128
usemtl texture_0
v 0.17779783 0.13425117 0.81979593
vt 0.35937500 0.57812500
vn 0.00000000 0.00000000 1.00000000
v 0.17779783 0.00000027 0.81979593
vt 0.35937500 0.62500000
vn 0.00000000 0.00000000 1.00000000
v 0.34877031 0.00000027 0.81979593
vt 0.29687500 0.62500000
vn 0.00000000 0.00000000 1.00000000
v 0.34877031 0.13425117 0.81979593
vt 0.29687500 0.57812500
vn 0.00000000 0.00000000 1.00000000
f 129/129/129 130/130/130 131/131/131 132/132/132
usemtl texture_0
v 0.17779783 0.13425117 0.64882346
vt 0.64062500 0.46875000
vn -1.00000000 0.00000000 0.00000000
v 0.17779783 0.00000027 0.64882346
vt 0.64062500 0.51562500
vn -1.00000000 0.00000000 0.00000000
v 0.17779783 0.00000027 0.81979593
vt 0.57812500 0.51562500
vn -1.00000000 0.00000000 0.00000000
v 0.17779783 0.13425117 0.81979593
vt 0.57812500 0.46875000
vn -1.00000000 0.00000000 0.00000000
f 133/133/133 134/134/134 135/135/135 136/136/136
usemtl texture_0
v 0.17779783 0.13425117 0.64882346
vt 0.23437500 0.57812500
vn 0.00000000 1.00000000 0.00000000
v 0.17779783 0.13425117 0.81979593
vt 0.23437500 0.64062500
vn 0.00000000 1.00000000 0.00000000
v 0.34877031 0.13425117 0.81979593
vt 0.17187500 0.64062500
vn 0.00000000 1.00000000 0.00000000
v 0.34877031 0.13425117 0.64882346
vt 0.17187500 0.57812500
vn 0.00000000 1.00000000 0.00000000
f 137/137/137 138/138/138 139/139/139 140/140/140
usemtl texture_0
v 0.17779783 0.00000027 0.81979593
vt 0.29687500 0.64062500
vn 0.00000000 -1.00000000 0.00000000
v 0.17779783 0.00000027 0.64882346
vt 0.29687500 0.57812500
vn 0.00000000 -1.00000000 0.00000000
v 0.34877031 0.00000027 0.64882346
vt 0.23437500 0.57812500
vn 0.00000000 -1.00000000 0.00000000
v 0.34877031 0.00000027 0.81979593
vt 0.23437500 0.64062500
vn 0.00000000 -1.00000000 0.00000000
f 141/141/141 142/142/142 143/143/143 144/144/144
usemtl texture_0
v 0.82220217 0.13425117 0.64882346
vt 0.42187500 0.57812500
vn 0.00000000 -0.00000000 -1.00000000
v 0.82220217 0.00000027 0.64882346
vt 0.42187500 0.62500000
vn 0.00000000 -0.00000000 -1.00000000
v 0.65122969 0.00000027 0.64882346
vt 0.48437500 0.62500000
vn 0.00000000 -0.00000000 -1.00000000
v 0.65122969 0.13425117 0.64882346
vt 0.48437500 0.57812500
vn 0.00000000 -0.00000000 -1.00000000
f 145/145/145 146/146/146 147/147/147 148/148/148
usemtl texture_0
v 0.82220217 0.13425117 0.81979593
vt 0.57812500 0.46875000
vn 1.00000000 0.00000000 0.00000000
v 0.82220217 0.00000027 0.81979593
vt 0.57812500 0.51562500
vn 1.00000000 0.00000000 0.00000000
v 0.82220217 0.00000027 0.64882346
vt 0.64062500 0.51562500
vn 1.00000000 0.00000000 0.00000000
v 0.82220217 0.13425117 0.64882346
vt 0.64062500 0.46875000
vn 1.00000000 0.00000000 0.00000000
f 149/149/149 150/150/150 151/151/151 152/152/152
usemtl texture_0
v 0.65122969 0.13425117 0.81979593
vt 0.29687500 0.57812500
vn 0.00000000 0.00000000 1.00000000
v 0.65122969 0.00000027 0.81979593
vt 0.29687500 0.62500000
vn 0.00000000 0.00000000 1.00000000
v 0.82220217 0.00000027 0.81979593
vt 0.35937500 0.62500000
vn 0.00000000 0.00000000 1.00000000
v 0.82220217 0.13425117 0.81979593
vt 0.35937500 0.57812500
vn 0.00000000 0.00000000 1.00000000
f 153/153/153 154/154/154 155/155/155 156/156/156
usemtl texture_0
v 0.65122969 0.13425117 0.64882346
vt 0.35937500 0.57812500
vn -1.00000000 0.00000000 0.00000000
v 0.65122969 0.00000027 0.64882346
vt 0.35937500 0.62500000
vn -1.00000000 0.00000000 0.00000000
v 0.65122969 0.00000027 0.81979593
vt 0.42187500 0.62500000
vn -1.00000000 0.00000000 0.00000000
v 0.65122969 0.13425117 0.81979593
vt 0.42187500 0.57812500
vn -1.00000000 0.00000000 0.00000000
f 157/157/157 158/158/158 159/159/159 160/160/160
usemtl texture_0
v 0.65122969 0.13425117 0.64882346
vt 0.17187500 0.57812500
vn 0.00000000 1.00000000 0.00000000
v 0.65122969 0.13425117 0.81979593
vt 0.17187500 0.64062500
vn 0.00000000 1.00000000 0.00000000
v 0.82220217 0.13425117 0.81979593
vt 0.23437500 0.64062500
vn 0.00000000 1.00000000 0.00000000
v 0.82220217 0.13425117 0.64882346
vt 0.23437500 0.57812500
vn 0.00000000 1.00000000 0.00000000
f 161/161/161 162/162/162 163/163/163 164/164/164
usemtl texture_0
v 0.65122969 0.00000027 0.81979593
vt 0.23437500 0.64062500
vn 0.00000000 -1.00000000 0.00000000
v 0.65122969 0.00000027 0.64882346
vt 0.23437500 0.57812500
vn 0.00000000 -1.00000000 0.00000000
v 0.82220217 0.00000027 0.64882346
vt 0.29687500 0.57812500
vn 0.00000000 -1.00000000 0.00000000
v 0.82220217 0.00000027 0.81979593
vt 0.29687500 0.64062500
vn 0.00000000 -1.00000000 0.00000000
f 165/165/165 166/166/166 167/167/167 168/168/168
usemtl texture_0
v 0.82220217 0.13425117 0.18960640
vt 0.35937500 0.57812500
vn 0.00000000 -0.00000000 -1.00000000
v 0.82220217 0.00000027 0.18960640
vt 0.35937500 0.62500000
vn 0.00000000 -0.00000000 -1.00000000
v 0.65122969 0.00000027 0.18960640
vt 0.29687500 0.62500000
vn 0.00000000 -0.00000000 -1.00000000
v 0.65122969 0.13425117 0.18960640
vt 0.29687500 0.57812500
vn 0.00000000 -0.00000000 -1.00000000
f 169/169/169 170/170/170 171/171/171 172/172/172
usemtl texture_0
v 0.82220217 0.13425117 0.36057887
vt 0.64062500 0.46875000
vn 1.00000000 0.00000000 0.00000000
v 0.82220217 0.00000027 0.36057887
vt 0.64062500 0.51562500
vn 1.00000000 0.00000000 0.00000000
v 0.82220217 0.00000027 0.18960640
vt 0.57812500 0.51562500
vn 1.00000000 0.00000000 0.00000000
v 0.82220217 0.13425117 0.18960640
vt 0.57812500 0.46875000
vn 1.00000000 0.00000000 0.00000000
f 173/173/173 174/174/174 175/175/175 176/176/176
usemtl texture_0
v 0.65122969 0.13425117 0.36057887
vt 0.48437500 0.57812500
vn 0.00000000 0.00000000 1.00000000
v 0.65122969 0.00000027 0.36057887
vt 0.48437500 0.62500000
vn 0.00000000 0.00000000 1.00000000
v 0.82220217 0.00000027 0.36057887
vt 0.42187500 0.62500000
vn 0.00000000 0.00000000 1.00000000
v 0.82220217 0.13425117 0.36057887
vt 0.42187500 0.57812500
vn 0.00000000 0.00000000 1.00000000
f 177/177/177 178/178/178 179/179/179 180/180/180
usemtl texture_0
v 0.65122969 0.13425117 0.18960640
vt 0.42187500 0.57812500
vn -1.00000000 0.00000000 0.00000000
v 0.65122969 0.00000027 0.18960640
vt 0.42187500 0.62500000
vn -1.00000000 0.00000000 0.00000000
v 0.65122969 0.00000027 0.36057887
vt 0.35937500 0.62500000
vn -1.00000000 0.00000000 0.00000000
v 0.65122969 0.13425117 0.36057887
vt 0.35937500 0.57812500
vn -1.00000000 0.00000000 0.00000000
f 181/181/181 182/182/182 183/183/183 184/184/184
usemtl texture_0
v 0.65122969 0.13425117 0.18960640
vt 0.17187500 0.64062500
vn 0.00000000 1.00000000 0.00000000
v 0.65122969 0.13425117 0.36057887
vt 0.17187500 0.57812500
vn 0.00000000 1.00000000 0.00000000
v 0.82220217 0.13425117 0.36057887
vt 0.23437500 0.57812500
vn 0.00000000 1.00000000 0.00000000
v 0.82220217 0.13425117 0.18960640
vt 0.23437500 0.64062500
vn 0.00000000 1.00000000 0.00000000
f 185/185/185 186/186/186 187/187/187 188/188/188
usemtl texture_0
v 0.65122969 0.00000027 0.36057887
vt 0.23437500 0.57812500
vn 0.00000000 -1.00000000 0.00000000
v 0.65122969 0.00000027 0.18960640
vt 0.23437500 0.64062500
vn 0.00000000 -1.00000000 0.00000000
v 0.82220217 0.00000027 0.18960640
vt 0.29687500 0.64062500
vn 0.00000000 -1.00000000 0.00000000
v 0.82220217 0.00000027 0.36057887
vt 0.29687500 0.57812500
vn 0.00000000 -1.00000000 0.00000000
f 189/189/189 190/190/190 191/191/191 192/192/192
usemtl texture_0
v 0.72032942 0.34747319 0.29147914
vt 0.17187500 0.00000000
vn 0.00000000 -0.00000000 -1.00000000
v 0.72032942 0.09871416 0.29147914
vt 0.17187500 0.10937500
vn 0.00000000 -0.00000000 -1.00000000
v 0.27967058 0.09871416 0.29147914
vt 0.34375000 0.10937500
vn 0.00000000 -0.00000000 -1.00000000
v 0.27967058 0.34747319 0.29147914
vt 0.34375000 0.00000000
vn 0.00000000 -0.00000000 -1.00000000
f 193/193/193 194/194/194 195/195/195 196/196/196
usemtl texture_0
v 0.72032942 0.34747319 0.71476434
vt 0.17187500 0.10937500
vn 1.00000000 0.00000000 0.00000000
v 0.72032942 0.09871416 0.71476434
vt 0.17187500 0.21875000
vn 1.00000000 0.00000000 0.00000000
v 0.72032942 0.09871416 0.29147914
vt 0.34375000 0.21875000
vn 1.00000000 0.00000000 0.00000000
v 0.72032942 0.34747319 0.29147914
vt 0.34375000 0.10937500
vn 1.00000000 0.00000000 0.00000000
f 197/197/197 198/198/198 199/199/199 200/200/200
usemtl texture_0
v 0.27967058 0.34747319 0.71476434
vt 0.17187500 0.21875000
vn 0.00000000 0.00000000 1.00000000
v 0.27967058 0.09871416 0.71476434
vt 0.17187500 0.32812500
vn 0.00000000 0.00000000 1.00000000
v 0.72032942 0.09871416 0.71476434
vt 0.34375000 0.32812500
vn 0.00000000 0.00000000 1.00000000
v 0.72032942 0.34747319 0.71476434
vt 0.34375000 0.21875000
vn 0.00000000 0.00000000 1.00000000
f 201/201/201 202/202/202 203/203/203 204/204/204
usemtl texture_0
v 0.27967058 0.34747319 0.29147914
vt 0.17187500 0.32812500
vn -1.00000000 0.00000000 0.00000000
v 0.27967058 0.09871416 0.29147914
vt 0.17187500 0.43750000
vn -1.00000000 0.00000000 0.00000000
v 0.27967058 0.09871416 0.71476434
vt 0.34375000 0.43750000
vn -1.00000000 0.00000000 0.00000000
v 0.27967058 0.34747319 0.71476434
vt 0.34375000 0.32812500
vn -1.00000000 0.00000000 0.00000000
f 205/205/205 206/206/206 207/207/207 208/208/208
usemtl texture_0
v 0.27967058 0.34747319 0.29147914
vt 0.17187500 0.17187500
vn 0.00000000 1.00000000 0.00000000
v 0.27967058 0.34747319 0.71476434
vt 0.17187500 0.00000000
vn 0.00000000 1.00000000 0.00000000
v 0.72032942 0.34747319 0.71476434
vt 0.00000000 0.00000000
vn 0.00000000 1.00000000 0.00000000
v 0.72032942 0.34747319 0.29147914
vt 0.00000000 0.17187500
vn 0.00000000 1.00000000 0.00000000
f 209/209/209 210/210/210 211/211/211 212/212/212
usemtl texture_0
v 0.27967058 0.09871416 0.71476434
vt 0.17187500 0.17187500
vn 0.00000000 -1.00000000 0.00000000
v 0.27967058 0.09871416 0.29147914
vt 0.17187500 0.34375000
vn 0.00000000 -1.00000000 0.00000000
v 0.72032942 0.09871416 0.29147914
vt 0.00000000 0.34375000
vn 0.00000000 -1.00000000 0.00000000
v 0.72032942 0.09871416 0.71476434
vt 0.00000000 0.17187500
vn 0.00000000 -1.00000000 0.00000000
f 213/213/213 214/214/214 215/215/215 216/216/216
usemtl texture_0
v 0.66110108 0.10068844 0.35070748
vt 0.17187500 0.53125000
vn 0.00000000 -0.00000000 -1.00000000
v 0.66110108 0.00000027 0.35070748
vt 0.17187500 0.57812500
vn 0.00000000 -0.00000000 -1.00000000
v 0.33889892 0.00000027 0.35070748
vt 0.29687500 0.57812500
vn 0.00000000 -0.00000000 -1.00000000
v 0.33889892 0.10068844 0.35070748
vt 0.29687500 0.53125000
vn 0.00000000 -0.00000000 -1.00000000
f 217/217/217 218/218/218 219/219/219 220/220/220
usemtl texture_0
v 0.66110108 0.10068844 0.65553600
vt 0.29687500 0.53125000
vn 1.00000000 0.00000000 0.00000000
v 0.66110108 0.00000027 0.65553600
vt 0.29687500 0.57812500
vn 1.00000000 0.00000000 0.00000000
v 0.66110108 0.00000027 0.35070748
vt 0.42187500 0.57812500
vn 1.00000000 0.00000000 0.00000000
v 0.66110108 0.10068844 0.35070748
vt 0.42187500 0.53125000
vn 1.00000000 0.00000000 0.00000000
f 221/221/221 222/222/222 223/223/223 224/224/224
usemtl texture_0
v 0.33889892 0.10068844 0.65553600
vt 0.42187500 0.53125000
vn 0.00000000 0.00000000 1.00000000
v 0.33889892 0.00000027 0.65553600
vt 0.42187500 0.57812500
vn 0.00000000 0.00000000 1.00000000
v 0.66110108 0.00000027 0.65553600
vt 0.54687500 0.57812500
vn 0.00000000 0.00000000 1.00000000
v 0.66110108 0.10068844 0.65553600
vt 0.54687500 0.53125000
vn 0.00000000 0.00000000 1.00000000
f 225/225/225 226/226/226 227/227/227 228/228/228
usemtl texture_0
v 0.33889892 0.10068844 0.35070748
vt 0.53125000 0.42187500
vn -1.00000000 0.00000000 0.00000000
v 0.33889892 0.00000027 0.35070748
vt 0.53125000 0.46875000
vn -1.00000000 0.00000000 0.00000000
v 0.33889892 0.00000027 0.65553600
vt 0.65625000 0.46875000
vn -1.00000000 0.00000000 0.00000000
v 0.33889892 0.10068844 0.65553600
vt 0.65625000 0.42187500
vn -1.00000000 0.00000000 0.00000000
f 229/229/229 230/230/230 231/231/231 232/232/232
usemtl texture_0
v 0.33889892 0.10068844 0.35070748
vt 0.46875000 0.45312500
vn 0.00000000 1.00000000 0.00000000
v 0.33889892 0.10068844 0.65553600
vt 0.46875000 0.32812500
vn 0.00000000 1.00000000 0.00000000
v 0.66110108 0.10068844 0.65553600
vt 0.34375000 0.32812500
vn 0.00000000 1.00000000 0.00000000
v 0.66110108 0.10068844 0.35070748
vt 0.34375000 0.45312500
vn 0.00000000 1.00000000 0.00000000
f 233/233/233 234/234/234 235/235/235 236/236/236
usemtl texture_0
v 0.33889892 0.00000027 0.65553600
vt 0.54687500 0.00000000
vn 0.00000000 -1.00000000 0.00000000
v 0.33889892 0.00000027 0.35070748
vt 0.54687500 0.12500000
vn 0.00000000 -1.00000000 0.00000000
v 0.66110108 0.00000027 0.35070748
vt 0.42187500 0.12500000
vn 0.00000000 -1.00000000 0.00000000
v 0.66110108 0.00000027 0.65553600
vt 0.42187500 0.00000000
vn 0.00000000 -1.00000000 0.00000000
f 237/237/237 238/238/238 239/239/239 240/240/240
usemtl texture_0
v 0.80838222 0.39682987 0.33096470
vt 0.68750000 0.17187500
vn 0.00000000 -0.00000000 -1.00000000
v 0.80838222 0.29614170 0.33096470
vt 0.68750000 0.21875000
vn 0.00000000 -0.00000000 -1.00000000
v 0.70098150 0.29614170 0.33096470
vt 0.64062500 0.21875000
vn 0.00000000 -0.00000000 -1.00000000
v 0.70098150 0.39682987 0.33096470
vt 0.64062500 0.17187500
vn 0.00000000 -0.00000000 -1.00000000
f 241/241/241 242/242/242 243/243/243 244/244/244
usemtl texture_0
v 0.80838222 0.39682987 0.68080676
vt 0.65625000 0.04687500
vn 1.00000000 0.00000000 0.00000000
v 0.80838222 0.29614170 0.68080676
vt 0.65625000 0.09375000
vn 1.00000000 0.00000000 0.00000000
v 0.80838222 0.29614170 0.33096470
vt 0.54687500 0.09375000
vn 1.00000000 0.00000000 0.00000000
v 0.80838222 0.39682987 0.33096470
vt 0.54687500 0.04687500
vn 1.00000000 0.00000000 0.00000000
f 245/245/245 246/246/246 247/247/247 248/248/248
usemtl texture_0
v 0.70098150 0.39682987 0.68080676
vt 0.26562500 0.64062500
vn 0.00000000 0.00000000 1.00000000
v 0.70098150 0.29614170 0.68080676
vt 0.26562500 0.68750000
vn 0.00000000 0.00000000 1.00000000
v 0.80838222 0.29614170 0.68080676
vt 0.21875000 0.68750000
vn 0.00000000 0.00000000 1.00000000
v 0.80838222 0.39682987 0.68080676
vt 0.21875000 0.64062500
vn 0.00000000 0.00000000 1.00000000
f 249/249/249 250/250/250 251/251/251 252/252/252
usemtl texture_0
v 0.70098150 0.39682987 0.33096470
vt 0.65625000 0.00000000
vn -1.00000000 0.00000000 0.00000000
v 0.70098150 0.29614170 0.33096470
vt 0.65625000 0.04687500
vn -1.00000000 0.00000000 0.00000000
v 0.70098150 0.29614170 0.68080676
vt 0.54687500 0.04687500
vn -1.00000000 0.00000000 0.00000000
v 0.70098150 0.39682987 0.68080676
vt 0.54687500 0.00000000
vn -1.00000000 0.00000000 0.00000000
f 253/253/253 254/254/254 255/255/255 256/256/256
usemtl texture_0
v 0.70098150 0.39682987 0.33096470
vt 0.00000000 0.65625000
vn 0.00000000 1.00000000 0.00000000
v 0.70098150 0.39682987 0.68080676
vt 0.00000000 0.54687500
vn 0.00000000 1.00000000 0.00000000
v 0.80838222 0.39682987 0.68080676
vt 0.04687500 0.54687500
vn 0.00000000 1.00000000 0.00000000
v 0.80838222 0.39682987 0.33096470
vt 0.04687500 0.65625000
vn 0.00000000 1.00000000 0.00000000
f 257/257/257 258/258/258 259/259/259 260/260/260
usemtl texture_0
v 0.70098150 0.29614170 0.68080676
vt 0.54687500 0.53125000
vn 0.00000000 -1.00000000 0.00000000
v 0.70098150 0.29614170 0.33096470
vt 0.54687500 0.64062500
vn 0.00000000 -1.00000000 0.00000000
v 0.80838222 0.29614170 0.33096470
vt 0.59375000 0.64062500
vn 0.00000000 -1.00000000 0.00000000
v 0.80838222 0.29614170 0.68080676
vt 0.59375000 0.53125000
vn 0.00000000 -1.00000000 0.00000000
f 261/261/261 262/262/262 263/263/263 264/264/264
usemtl texture_0
v 0.29901850 0.39682987 0.33096470
vt 0.64062500 0.17187500
vn 0.00000000 -0.00000000 -1.00000000
v 0.29901850 0.29614170 0.33096470
vt 0.64062500 0.21875000
vn 0.00000000 -0.00000000 -1.00000000
v 0.19161778 0.29614170 0.33096470
vt 0.68750000 0.21875000
vn 0.00000000 -0.00000000 -1.00000000
v 0.19161778 0.39682987 0.33096470
vt 0.68750000 0.17187500
vn 0.00000000 -0.00000000 -1.00000000
f 265/265/265 266/266/266 267/267/267 268/268/268
usemtl texture_0
v 0.29901850 0.39682987 0.68080676
vt 0.54687500 0.00000000
vn 1.00000000 0.00000000 0.00000000
v 0.29901850 0.29614170 0.68080676
vt 0.54687500 0.04687500
vn 1.00000000 0.00000000 0.00000000
v 0.29901850 0.29614170 0.33096470
vt 0.65625000 0.04687500
vn 1.00000000 0.00000000 0.00000000
v 0.29901850 0.39682987 0.33096470
vt 0.65625000 0.00000000
vn 1.00000000 0.00000000 0.00000000
f 269/269/269 270/270/270 271/271/271 272/272/272
usemtl texture_0
v 0.19161778 0.39682987 0.68080676
vt 0.21875000 0.64062500
vn 0.00000000 0.00000000 1.00000000
v 0.19161778 0.29614170 0.68080676
vt 0.21875000 0.68750000
vn 0.00000000 0.00000000 1.00000000
v 0.29901850 0.29614170 0.68080676
vt 0.26562500 0.68750000
vn 0.00000000 0.00000000 1.00000000
v 0.29901850 0.39682987 0.68080676
vt 0.26562500 0.64062500
vn 0.00000000 0.00000000 1.00000000
f 273/273/273 274/274/274 275/275/275 276/276/276
usemtl texture_0
v 0.19161778 0.39682987 0.33096470
vt 0.54687500 0.04687500
vn -1.00000000 0.00000000 0.00000000
v 0.19161778 0.29614170 0.33096470
vt 0.54687500 0.09375000
vn -1.00000000 0.00000000 0.00000000
v 0.19161778 0.29614170 0.68080676
vt 0.65625000 0.09375000
vn -1.00000000 0.00000000 0.00000000
v 0.19161778 0.39682987 0.68080676
vt 0.65625000 0.04687500
vn -1.00000000 0.00000000 0.00000000
f 277/277/277 278/278/278 279/279/279 280/280/280
usemtl texture_0
v 0.19161778 0.39682987 0.33096470
vt 0.04687500 0.65625000
vn 0.00000000 1.00000000 0.00000000
v 0.19161778 0.39682987 0.68080676
vt 0.04687500 0.54687500
vn 0.00000000 1.00000000 0.00000000
v 0.29901850 0.39682987 0.68080676
vt 0.00000000 0.54687500
vn 0.00000000 1.00000000 0.00000000
v 0.29901850 0.39682987 0.33096470
vt 0.00000000 0.65625000
vn 0.00000000 1.00000000 0.00000000
f 281/281/281 282/282/282 283/283/283 284/284/284
usemtl texture_0
v 0.19161778 0.29614170 0.68080676
vt 0.59375000 0.53125000
vn 0.00000000 -1.00000000 0.00000000
v 0.19161778 0.29614170 0.33096470
vt 0.59375000 0.64062500
vn 0.00000000 -1.00000000 0.00000000
v 0.29901850 0.29614170 0.33096470
vt 0.54687500 0.64062500
vn 0.00000000 -1.00000000 0.00000000
v 0.29901850 0.29614170 0.68080676
vt 0.54687500 0.53125000
vn 0.00000000 -1.00000000 0.00000000
f 285/285/285 286/286/286 287/287/287 288/288/288
usemtl texture_0
v 0.33850406 0.10068818 0.36057887
vt 0.64062500 0.17187500
vn 0.00000000 -0.00000000 -1.00000000
v 0.33850406 -0.00000000 0.36057887
vt 0.64062500 0.21875000
vn 0.00000000 -0.00000000 -1.00000000
v 0.23110334 -0.00000000 0.36057887
vt 0.68750000 0.21875000
vn 0.00000000 -0.00000000 -1.00000000
v 0.23110334 0.10068818 0.36057887
vt 0.68750000 0.17187500
vn 0.00000000 -0.00000000 -1.00000000
f 289/289/289 290/290/290 291/291/291 292/292/292
usemtl texture_0
v 0.33850406 0.10068818 0.65119259
vt 0.54687500 0.00000000
vn 1.00000000 0.00000000 0.00000000
v 0.33850406 -0.00000000 0.65119259
vt 0.54687500 0.04687500
vn 1.00000000 0.00000000 0.00000000
v 0.33850406 -0.00000000 0.36057887
vt 0.65625000 0.04687500
vn 1.00000000 0.00000000 0.00000000
v 0.33850406 0.10068818 0.36057887
vt 0.65625000 0.00000000
vn 1.00000000 0.00000000 0.00000000
f 293/293/293 294/294/294 295/295/295 296/296/296
usemtl texture_0
v 0.23110334 0.10068818 0.65119259
vt 0.21875000 0.64062500
vn 0.00000000 0.00000000 1.00000000
v 0.23110334 -0.00000000 0.65119259
vt 0.21875000 0.68750000
vn 0.00000000 0.00000000 1.00000000
v 0.33850406 -0.00000000 0.65119259
vt 0.26562500 0.68750000
vn 0.00000000 0.00000000 1.00000000
v 0.33850406 0.10068818 0.65119259
vt 0.26562500 0.64062500
vn 0.00000000 0.00000000 1.00000000
f 297/297/297 298/298/298 299/299/299 300/300/300
usemtl texture_0
v 0.23110334 0.10068818 0.36057887
vt 0.54687500 0.04687500
vn -1.00000000 0.00000000 0.00000000
v 0.23110334 -0.00000000 0.36057887
vt 0.54687500 0.09375000
vn -1.00000000 0.00000000 0.00000000
v 0.23110334 -0.00000000 0.65119259
vt 0.65625000 0.09375000
vn -1.00000000 0.00000000 0.00000000
v 0.23110334 0.10068818 0.65119259
vt 0.65625000 0.04687500
vn -1.00000000 0.00000000 0.00000000
f 301/301/301 302/302/302 303/303/303 304/304/304
usemtl texture_0
v 0.23110334 0.10068818 0.36057887
vt 0.04687500 0.65625000
vn 0.00000000 1.00000000 0.00000000
v 0.23110334 0.10068818 0.65119259
vt 0.04687500 0.54687500
vn 0.00000000 1.00000000 0.00000000
v 0.33850406 0.10068818 0.65119259
vt 0.00000000 0.54687500
vn 0.00000000 1.00000000 0.00000000
v 0.33850406 0.10068818 0.36057887
vt 0.00000000 0.65625000
vn 0.00000000 1.00000000 0.00000000
f 305/305/305 306/306/306 307/307/307 308/308/308
usemtl texture_0
v 0.23110334 -0.00000000 0.65119259
vt 0.59375000 0.53125000
vn 0.00000000 -1.00000000 0.00000000
v 0.23110334 -0.00000000 0.36057887
vt 0.59375000 0.64062500
vn 0.00000000 -1.00000000 0.00000000
v 0.33850406 -0.00000000 0.36057887
vt 0.54687500 0.64062500
vn 0.00000000 -1.00000000 0.00000000
v 0.33850406 -0.00000000 0.65119259
vt 0.54687500 0.53125000
vn 0.00000000 -1.00000000 0.00000000
f 309/309/309 310/310/310 311/311/311 312/312/312
usemtl texture_0
v 0.33889892 0.29535225 0.24330676
vt 0.48437500 0.57812500
vn 0.00000000 -0.00000000 -1.00000000
v 0.33889892 0.13425117 0.24330676
vt 0.48437500 0.64062500
vn 0.00000000 -0.00000000 -1.00000000
v 0.23149819 0.13425117 0.24330676
vt 0.53125000 0.64062500
vn 0.00000000 -0.00000000 -1.00000000
v 0.23149819 0.29535225 0.24330676
vt 0.53125000 0.57812500
vn 0.00000000 -0.00000000 -1.00000000
f 313/313/313 314/314/314 315/315/315 316/316/316
usemtl texture_0
v 0.33889892 0.29535225 0.35070748
vt 0.59375000 0.20312500
vn 1.00000000 0.00000000 0.00000000
v 0.33889892 0.13425117 0.35070748
vt 0.59375000 0.26562500
vn 1.00000000 0.00000000 0.00000000
v 0.33889892 0.13425117 0.24330676
vt 0.64062500 0.26562500
vn 1.00000000 0.00000000 0.00000000
v 0.33889892 0.29535225 0.24330676
vt 0.64062500 0.20312500
vn 1.00000000 0.00000000 0.00000000
f 317/317/317 318/318/318 319/319/319 320/320/320
usemtl texture_0
v 0.23149819 0.29535225 0.35070748
vt 0.59375000 0.26562500
vn 0.00000000 0.00000000 1.00000000
v 0.23149819 0.13425117 0.35070748
vt 0.59375000 0.32812500
vn 0.00000000 0.00000000 1.00000000
v 0.33889892 0.13425117 0.35070748
vt 0.64062500 0.32812500
vn 0.00000000 0.00000000 1.00000000
v 0.33889892 0.29535225 0.35070748
vt 0.64062500 0.26562500
vn 0.00000000 0.00000000 1.00000000
f 321/321/321 322/322/322 323/323/323 324/324/324
usemtl texture_0
v 0.23149819 0.29535225 0.24330676
vt 0.59375000 0.32812500
vn -1.00000000 0.00000000 0.00000000
v 0.23149819 0.13425117 0.24330676
vt 0.59375000 0.39062500
vn -1.00000000 0.00000000 0.00000000
v 0.23149819 0.13425117 0.35070748
vt 0.64062500 0.39062500
vn -1.00000000 0.00000000 0.00000000
v 0.23149819 0.29535225 0.35070748
vt 0.64062500 0.32812500
vn -1.00000000 0.00000000 0.00000000
f 325/325/325 326/326/326 327/327/327 328/328/328
usemtl texture_0
v 0.23149819 0.29535225 0.24330676
vt 0.39062500 0.67187500
vn 0.00000000 1.00000000 0.00000000
v 0.23149819 0.29535225 0.35070748
vt 0.39062500 0.62500000
vn 0.00000000 1.00000000 0.00000000
v 0.33889892 0.29535225 0.35070748
vt 0.34375000 0.62500000
vn 0.00000000 1.00000000 0.00000000
v 0.33889892 0.29535225 0.24330676
vt 0.34375000 0.67187500
vn 0.00000000 1.00000000 0.00000000
f 329/329/329 330/330/330 331/331/331 332/332/332
usemtl texture_0
v 0.23149819 0.13425117 0.35070748
vt 0.43750000 0.62500000
vn 0.00000000 -1.00000000 0.00000000
v 0.23149819 0.13425117 0.24330676
vt 0.43750000 0.67187500
vn 0.00000000 -1.00000000 0.00000000
v 0.33889892 0.13425117 0.24330676
vt 0.39062500 0.67187500
vn 0.00000000 -1.00000000 0.00000000
v 0.33889892 0.13425117 0.35070748
vt 0.39062500 0.62500000
vn 0.00000000 -1.00000000 0.00000000
f 333/333/333 334/334/334 335/335/335 336/336/336
usemtl texture_0
v 0.34877031 0.13425117 0.18960640
vt 0.29687500 0.57812500
vn 0.00000000 -0.00000000 -1.00000000
v 0.34877031 0.00000027 0.18960640
vt 0.29687500 0.62500000
vn 0.00000000 -0.00000000 -1.00000000
v 0.17779783 0.00000027 0.18960640
vt 0.35937500 0.62500000
vn 0.00000000 -0.00000000 -1.00000000
v 0.17779783 0.13425117 0.18960640
vt 0.35937500 0.57812500
vn 0.00000000 -0.00000000 -1.00000000
f 337/337/337 338/338/338 339/339/339 340/340/340
usemtl texture_0
v 0.34877031 0.13425117 0.36057887
vt 0.35937500 0.57812500
vn 1.00000000 0.00000000 0.00000000
v 0.34877031 0.00000027 0.36057887
vt 0.35937500 0.62500000
vn 1.00000000 0.00000000 0.00000000
v 0.34877031 0.00000027 0.18960640
vt 0.42187500 0.62500000
vn 1.00000000 0.00000000 0.00000000
v 0.34877031 0.13425117 0.18960640
vt 0.42187500 0.57812500
vn 1.00000000 0.00000000 0.00000000
f 341/341/341 342/342/342 343/343/343 344/344/344
usemtl texture_0
v 0.17779783 0.13425117 0.36057887
vt 0.42187500 0.57812500
vn 0.00000000 0.00000000 1.00000000
v 0.17779783 0.00000027 0.36057887
vt 0.42187500 0.62500000
vn 0.00000000 0.00000000 1.00000000
v 0.34877031 0.00000027 0.36057887
vt 0.48437500 0.62500000
vn 0.00000000 0.00000000 1.00000000
v 0.34877031 0.13425117 0.36057887
vt 0.48437500 0.57812500
vn 0.00000000 0.00000000 1.00000000
f 345/345/345 346/346/346 347/347/347 348/348/348
usemtl texture_0
v 0.17779783 0.13425117 0.18960640
vt 0.57812500 0.46875000
vn -1.00000000 0.00000000 0.00000000
v 0.17779783 0.00000027 0.18960640
vt 0.57812500 0.51562500
vn -1.00000000 0.00000000 0.00000000
v 0.17779783 0.00000027 0.36057887
vt 0.64062500 0.51562500
vn -1.00000000 0.00000000 0.00000000
v 0.17779783 0.13425117 0.36057887
vt 0.64062500 0.46875000
vn -1.00000000 0.00000000 0.00000000
f 349/349/349 350/350/350 351/351/351 352/352/352
usemtl texture_0
v 0.17779783 0.13425117 0.18960640
vt 0.23437500 0.64062500
vn 0.00000000 1.00000000 0.00000000
v 0.17779783 0.13425117 0.36057887
vt 0.23437500 0.57812500
vn 0.00000000 1.00000000 0.00000000
v 0.34877031 0.13425117 0.36057887
vt 0.17187500 0.57812500
vn 0.00000000 1.00000000 0.00000000
v 0.34877031 0.13425117 0.18960640
vt 0.17187500 0.64062500
vn 0.00000000 1.00000000 0.00000000
f 353/353/353 354/354/354 355/355/355 356/356/356
usemtl texture_0
v 0.17779783 0.00000027 0.36057887
vt 0.29687500 0.57812500
vn 0.00000000 -1.00000000 0.00000000
v 0.17779783 0.00000027 0.18960640
vt 0.29687500 0.64062500
vn 0.00000000 -1.00000000 0.00000000
v 0.34877031 0.00000027 0.18960640
vt 0.23437500 0.64062500
vn 0.00000000 -1.00000000 0.00000000
v 0.34877031 0.00000027 0.36057887
vt 0.23437500 0.57812500
vn 0.00000000 -1.00000000 0.00000000
f 357/357/357 358/358/358 359/359/359 360/360/360
usemtl texture_0
v 0.53395758 0.39604043 0.67843763
vt 0.59375000 0.37500000
vn 0.00000000 -0.00000000 -1.00000000
v 0.53395758 0.29535225 0.67843763
vt 0.59375000 0.42187500
vn 0.00000000 -0.00000000 -1.00000000
v 0.19201264 0.29535225 0.67843763
vt 0.46875000 0.42187500
vn 0.00000000 -0.00000000 -1.00000000
v 0.19201264 0.39604043 0.67843763
vt 0.46875000 0.37500000
vn 0.00000000 -0.00000000 -1.00000000
f 361/361/361 362/362/362 363/363/363 364/364/364
usemtl texture_0
v 0.53395758 0.39604043 0.78583835
vt 0.64062500 0.60937500
vn 1.00000000 0.00000000 0.00000000
v 0.53395758 0.29535225 0.78583835
vt 0.64062500 0.65625000
vn 1.00000000 0.00000000 0.00000000
v 0.53395758 0.29535225 0.67843763
vt 0.59375000 0.65625000
vn 1.00000000 0.00000000 0.00000000
v 0.53395758 0.39604043 0.67843763
vt 0.59375000 0.60937500
vn 1.00000000 0.00000000 0.00000000
f 365/365/365 366/366/366 367/367/367 368/368/368
usemtl texture_0
v 0.19201264 0.39604043 0.78583835
vt 0.59375000 0.32812500
vn 0.00000000 0.00000000 1.00000000
v 0.19201264 0.29535225 0.78583835
vt 0.59375000 0.37500000
vn 0.00000000 0.00000000 1.00000000
v 0.53395758 0.29535225 0.78583835
vt 0.46875000 0.37500000
vn 0.00000000 0.00000000 1.00000000
v 0.53395758 0.39604043 0.78583835
vt 0.46875000 0.32812500
vn 0.00000000 0.00000000 1.00000000
f 369/369/369 370/370/370 371/371/371 372/372/372
usemtl texture_0
v 0.19201264 0.39604043 0.67843763
vt 0.34375000 0.62500000
vn -1.00000000 0.00000000 0.00000000
v 0.19201264 0.29535225 0.67843763
vt 0.34375000 0.67187500
vn -1.00000000 0.00000000 0.00000000
v 0.19201264 0.29535225 0.78583835
vt 0.29687500 0.67187500
vn -1.00000000 0.00000000 0.00000000
v 0.19201264 0.39604043 0.78583835
vt 0.29687500 0.62500000
vn -1.00000000 0.00000000 0.00000000
f 373/373/373 374/374/374 375/375/375 376/376/376
usemtl texture_0
v 0.19201264 0.39604043 0.67843763
vt 0.20312500 0.48437500
vn 0.00000000 1.00000000 0.00000000
v 0.19201264 0.39604043 0.78583835
vt 0.20312500 0.53125000
vn 0.00000000 1.00000000 0.00000000
v 0.53395758 0.39604043 0.78583835
vt 0.07812500 0.53125000
vn 0.00000000 1.00000000 0.00000000
v 0.53395758 0.39604043 0.67843763
vt 0.07812500 0.48437500
vn 0.00000000 1.00000000 0.00000000
f 377/377/377 378/378/378 379/379/379 380/380/380
usemtl texture_0
v 0.19201264 0.29535225 0.78583835
vt 0.32812500 0.53125000
vn 0.00000000 -1.00000000 0.00000000
v 0.19201264 0.29535225 0.67843763
vt 0.32812500 0.48437500
vn 0.00000000 -1.00000000 0.00000000
v 0.53395758 0.29535225 0.67843763
vt 0.20312500 0.48437500
vn 0.00000000 -1.00000000 0.00000000
v 0.53395758 0.29535225 0.78583835
vt 0.20312500 0.53125000
vn 0.00000000 -1.00000000 0.00000000
f 381/381/381 382/382/382 383/383/383 384/384/384
usemtl texture_0
v 0.80798736 0.39604043 0.67843763
vt 0.59375000 0.37500000
vn 0.00000000 -0.00000000 -1.00000000
v 0.80798736 0.29535225 0.67843763
vt 0.59375000 0.42187500
vn 0.00000000 -0.00000000 -1.00000000
v 0.46604242 0.29535225 0.67843763
vt 0.46875000 0.42187500
vn 0.00000000 -0.00000000 -1.00000000
v 0.46604242 0.39604043 0.67843763
vt 0.46875000 0.37500000
vn 0.00000000 -0.00000000 -1.00000000
f 385/385/385 386/386/386 387/387/387 388/388/388
usemtl texture_0
v 0.80798736 0.39604043 0.78583835
vt 0.64062500 0.60937500
vn 1.00000000 0.00000000 0.00000000
v 0.80798736 0.29535225 0.78583835
vt 0.64062500 0.65625000
vn 1.00000000 0.00000000 0.00000000
v 0.80798736 0.29535225 0.67843763
vt 0.59375000 0.65625000
vn 1.00000000 0.00000000 0.00000000
v 0.80798736 0.39604043 0.67843763
vt 0.59375000 0.60937500
vn 1.00000000 0.00000000 0.00000000
f 389/389/389 390/390/390 391/391/391 392/392/392
usemtl texture_0
v 0.46604242 0.39604043 0.78583835
vt 0.59375000 0.32812500
vn 0.00000000 0.00000000 1.00000000
v 0.46604242 0.29535225 0.78583835
vt 0.59375000 0.37500000
vn 0.00000000 0.00000000 1.00000000
v 0.80798736 0.29535225 0.78583835
vt 0.46875000 0.37500000
vn 0.00000000 0.00000000 1.00000000
v 0.80798736 0.39604043 0.78583835
vt 0.46875000 0.32812500
vn 0.00000000 0.00000000 1.00000000
f 393/393/393 394/394/394 395/395/395 396/396/396
usemtl texture_0
v 0.46604242 0.39604043 0.67843763
vt 0.34375000 0.62500000
vn -1.00000000 0.00000000 0.00000000
v 0.46604242 0.29535225 0.67843763
vt 0.34375000 0.67187500
vn -1.00000000 0.00000000 0.00000000
v 0.46604242 0.29535225 0.78583835
vt 0.29687500 0.67187500
vn -1.00000000 0.00000000 0.00000000
v 0.46604242 0.39604043 0.78583835
vt 0.29687500 0.62500000
vn -1.00000000 0.00000000 0.00000000
f 397/397/397 398/398/398 399/399/399 400/400/400
usemtl texture_0
v 0.46604242 0.39604043 0.67843763
vt 0.20312500 0.48437500
vn 0.00000000 1.00000000 0.00000000
v 0.46604242 0.39604043 0.78583835
vt 0.20312500 0.53125000
vn 0.00000000 1.00000000 0.00000000
v 0.80798736 0.39604043 0.78583835
vt 0.07812500 0.53125000
vn 0.00000000 1.00000000 0.00000000
v 0.80798736 0.39604043 0.67843763
vt 0.07812500 0.48437500
vn 0.00000000 1.00000000 0.00000000
f 401/401/401 402/402/402 403/403/403 404/404/404
usemtl texture_0
v 0.46604242 0.29535225 0.78583835
vt 0.32812500 0.53125000
vn 0.00000000 -1.00000000 0.00000000
v 0.46604242 0.29535225 0.67843763
vt 0.32812500 0.48437500
vn 0.00000000 -1.00000000 0.00000000
v 0.80798736 0.29535225 0.67843763
vt 0.20312500 0.48437500
vn 0.00000000 -1.00000000 0.00000000
v 0.80798736 0.29535225 0.78583835
vt 0.20312500 0.53125000
vn 0.00000000 -1.00000000 0.00000000
f 405/405/405 406/406/406 407/407/407 408/408/408
usemtl texture_0
v 0.53395758 0.39604043 0.22356398
vt 0.46875000 0.32812500
vn 0.00000000 -0.00000000 -1.00000000
v 0.53395758 0.29535225 0.22356398
vt 0.46875000 0.37500000
vn 0.00000000 -0.00000000 -1.00000000
v 0.19201264 0.29535225 0.22356398
vt 0.59375000 0.37500000
vn 0.00000000 -0.00000000 -1.00000000
v 0.19201264 0.39604043 0.22356398
vt 0.59375000 0.32812500
vn 0.00000000 -0.00000000 -1.00000000
f 409/409/409 410/410/410 411/411/411 412/412/412
usemtl texture_0
v 0.53395758 0.39604043 0.33096470
vt 0.59375000 0.60937500
vn 1.00000000 0.00000000 0.00000000
v 0.53395758 0.29535225 0.33096470
vt 0.59375000 0.65625000
vn 1.00000000 0.00000000 0.00000000
v 0.53395758 0.29535225 0.22356398
vt 0.64062500 0.65625000
vn 1.00000000 0.00000000 0.00000000
v 0.53395758 0.39604043 0.22356398
vt 0.64062500 0.60937500
vn 1.00000000 0.00000000 0.00000000
f 413/413/413 414/414/414 415/415/415 416/416/416
usemtl texture_0
v 0.19201264 0.39604043 0.33096470
vt 0.46875000 0.37500000
vn 0.00000000 0.00000000 1.00000000
v 0.19201264 0.29535225 0.33096470
vt 0.46875000 0.42187500
vn 0.00000000 0.00000000 1.00000000
v 0.53395758 0.29535225 0.33096470
vt 0.59375000 0.42187500
vn 0.00000000 0.00000000 1.00000000
v 0.53395758 0.39604043 0.33096470
vt 0.59375000 0.37500000
vn 0.00000000 0.00000000 1.00000000
f 417/417/417 418/418/418 419/419/419 420/420/420
usemtl texture_0
v 0.19201264 0.39604043 0.22356398
vt 0.29687500 0.62500000
vn -1.00000000 0.00000000 0.00000000
v 0.19201264 0.29535225 0.22356398
vt 0.29687500 0.67187500
vn -1.00000000 0.00000000 0.00000000
v 0.19201264 0.29535225 0.33096470
vt 0.34375000 0.67187500
vn -1.00000000 0.00000000 0.00000000
v 0.19201264 0.39604043 0.33096470
vt 0.34375000 0.62500000
vn -1.00000000 0.00000000 0.00000000
f 421/421/421 422/422/422 423/423/423 424/424/424
usemtl texture_0
v 0.19201264 0.39604043 0.22356398
vt 0.20312500 0.53125000
vn 0.00000000 1.00000000 0.00000000
v 0.19201264 0.39604043 0.33096470
vt 0.20312500 0.48437500
vn 0.00000000 1.00000000 0.00000000
v 0.53395758 0.39604043 0.33096470
vt 0.07812500 0.48437500
vn 0.00000000 1.00000000 0.00000000
v 0.53395758 0.39604043 0.22356398
vt 0.07812500 0.53125000
vn 0.00000000 1.00000000 0.00000000
f 425/425/425 426/426/426 427/427/427 428/428/428
usemtl texture_0
v 0.19201264 0.29535225 0.33096470
vt 0.32812500 0.48437500
vn 0.00000000 -1.00000000 0.00000000
v 0.19201264 0.29535225 0.22356398
vt 0.32812500 0.53125000
vn 0.00000000 -1.00000000 0.00000000
v 0.53395758 0.29535225 0.22356398
vt 0.20312500 0.53125000
vn 0.00000000 -1.00000000 0.00000000
v 0.53395758 0.29535225 0.33096470
vt 0.20312500 0.48437500
vn 0.00000000 -1.00000000 0.00000000
f 429/429/429 430/430/430 431/431/431 432/432/432
usemtl texture_0
v 0.80798736 0.39604043 0.22356398
vt 0.46875000 0.32812500
vn 0.00000000 -0.00000000 -1.00000000
v 0.80798736 0.29535225 0.22356398
vt 0.46875000 0.37500000
vn 0.00000000 -0.00000000 -1.00000000
v 0.46604242 0.29535225 0.22356398
vt 0.59375000 0.37500000
vn 0.00000000 -0.00000000 -1.00000000
v 0.46604242 0.39604043 0.22356398
vt 0.59375000 0.32812500
vn 0.00000000 -0.00000000 -1.00000000
f 433/433/433 434/434/434 435/435/435 436/436/436
usemtl texture_0
v 0.80798736 0.39604043 0.33096470
vt 0.59375000 0.60937500
vn 1.00000000 0.00000000 0.00000000
v 0.80798736 0.29535225 0.33096470
vt 0.59375000 0.65625000
vn 1.00000000 0.00000000 0.00000000
v 0.80798736 0.29535225 0.22356398
vt 0.64062500 0.65625000
vn 1.00000000 0.00000000 0.00000000
v 0.80798736 0.39604043 0.22356398
vt 0.64062500 0.60937500
vn 1.00000000 0.00000000 0.00000000
f 437/437/437 438/438/438 439/439/439 440/440/440
usemtl texture_0
v 0.46604242 0.39604043 0.33096470
vt 0.46875000 0.37500000
vn 0.00000000 0.00000000 1.00000000
v 0.46604242 0.29535225 0.33096470
vt 0.46875000 0.42187500
vn 0.00000000 0.00000000 1.00000000
v 0.80798736 0.29535225 0.33096470
vt 0.59375000 0.42187500
vn 0.00000000 0.00000000 1.00000000
v 0.80798736 0.39604043 0.33096470
vt 0.59375000 0.37500000
vn 0.00000000 0.00000000 1.00000000
f 441/441/441 442/442/442 443/443/443 444/444/444
usemtl texture_0
v 0.46604242 0.39604043 0.22356398
vt 0.29687500 0.62500000
vn -1.00000000 0.00000000 0.00000000
v 0.46604242 0.29535225 0.22356398
vt 0.29687500 0.67187500
vn -1.00000000 0.00000000 0.00000000
v 0.46604242 0.29535225 0.33096470
vt 0.34375000 0.67187500
vn -1.00000000 0.00000000 0.00000000
v 0.46604242 0.39604043 0.33096470
vt 0.34375000 0.62500000
vn -1.00000000 0.00000000 0.00000000
f 445/445/445 446/446/446 447/447/447 448/448/448
usemtl texture_0
v 0.46604242 0.39604043 0.22356398
vt 0.20312500 0.53125000
vn 0.00000000 1.00000000 0.00000000
v 0.46604242 0.39604043 0.33096470
vt 0.20312500 0.48437500
vn 0.00000000 1.00000000 0.00000000
v 0.80798736 0.39604043 0.33096470
vt 0.07812500 0.48437500
vn 0.00000000 1.00000000 0.00000000
v 0.80798736 0.39604043 0.22356398
vt 0.07812500 0.53125000
vn 0.00000000 1.00000000 0.00000000
f 449/449/449 450/450/450 451/451/451 452/452/452
usemtl texture_0
v 0.46604242 0.29535225 0.33096470
vt 0.32812500 0.48437500
vn 0.00000000 -1.00000000 0.00000000
v 0.46604242 0.29535225 0.22356398
vt 0.32812500 0.53125000
vn 0.00000000 -1.00000000 0.00000000
v 0.80798736 0.29535225 0.22356398
vt 0.20312500 0.53125000
vn 0.00000000 -1.00000000 0.00000000
v 0.80798736 0.29535225 0.33096470
vt 0.20312500 0.48437500
vn 0.00000000 -1.00000000 0.00000000
f 453/453/453 454/454/454 455/455/455 456/456/456
usemtl texture_0
v 0.65122969 0.10068844 0.24330676
vt 0.46875000 0.32812500
vn 0.00000000 -0.00000000 -1.00000000
v 0.65122969 0.00000027 0.24330676
vt 0.46875000 0.37500000
vn 0.00000000 -0.00000000 -1.00000000
v 0.34877031 0.00000027 0.24330676
vt 0.59375000 0.37500000
vn 0.00000000 -0.00000000 -1.00000000
v 0.34877031 0.10068844 0.24330676
vt 0.59375000 0.32812500
vn 0.00000000 -0.00000000 -1.00000000
f 457/457/457 458/458/458 459/459/459 460/460/460
usemtl texture_0
v 0.65122969 0.10068844 0.35070748
vt 0.59375000 0.60937500
vn 1.00000000 0.00000000 0.00000000
v 0.65122969 0.00000027 0.35070748
vt 0.59375000 0.65625000
vn 1.00000000 0.00000000 0.00000000
v 0.65122969 0.00000027 0.24330676
vt 0.64062500 0.65625000
vn 1.00000000 0.00000000 0.00000000
v 0.65122969 0.10068844 0.24330676
vt 0.64062500 0.60937500
vn 1.00000000 0.00000000 0.00000000
f 461/461/461 462/462/462 463/463/463 464/464/464
usemtl texture_0
v 0.34877031 0.10068844 0.35070748
vt 0.46875000 0.37500000
vn 0.00000000 0.00000000 1.00000000
v 0.34877031 0.00000027 0.35070748
vt 0.46875000 0.42187500
vn 0.00000000 0.00000000 1.00000000
v 0.65122969 0.00000027 0.35070748
vt 0.59375000 0.42187500
vn 0.00000000 0.00000000 1.00000000
v 0.65122969 0.10068844 0.35070748
vt 0.59375000 0.37500000
vn 0.00000000 0.00000000 1.00000000
f 465/465/465 466/466/466 467/467/467 468/468/468
usemtl texture_0
v 0.34877031 0.10068844 0.24330676
vt 0.29687500 0.62500000
vn -1.00000000 0.00000000 0.00000000
v 0.34877031 0.00000027 0.24330676
vt 0.29687500 0.67187500
vn -1.00000000 0.00000000 0.00000000
v 0.34877031 0.00000027 0.35070748
vt 0.34375000 0.67187500
vn -1.00000000 0.00000000 0.00000000
v 0.34877031 0.10068844 0.35070748
vt 0.34375000 0.62500000
vn -1.00000000 0.00000000 0.00000000
f 469/469/469 470/470/470 471/471/471 472/472/472
usemtl texture_0
v 0.34877031 0.10068844 0.24330676
vt 0.20312500 0.53125000
vn 0.00000000 1.00000000 0.00000000
v 0.34877031 0.10068844 0.35070748
vt 0.20312500 0.48437500
vn 0.00000000 1.00000000 0.00000000
v 0.65122969 0.10068844 0.35070748
vt 0.07812500 0.48437500
vn 0.00000000 1.00000000 0.00000000
v 0.65122969 0.10068844 0.24330676
vt 0.07812500 0.53125000
vn 0.00000000 1.00000000 0.00000000
f 473/473/473 474/474/474 475/475/475 476/476/476
usemtl texture_0
v 0.34877031 0.00000027 0.35070748
vt 0.32812500 0.48437500
vn 0.00000000 -1.00000000 0.00000000
v 0.34877031 0.00000027 0.24330676
vt 0.32812500 0.53125000
vn 0.00000000 -1.00000000 0.00000000
v 0.65122969 0.00000027 0.24330676
vt 0.20312500 0.53125000
vn 0.00000000 -1.00000000 0.00000000
v 0.65122969 0.00000027 0.35070748
vt 0.20312500 0.48437500
vn 0.00000000 -1.00000000 0.00000000
f 477/477/477 478/478/478 479/479/479 480/480/480
usemtl texture_0
v 0.81904332 0.49554404 0.20382120
vt 0.42187500 0.12500000
vn 0.00000000 -0.00000000 -1.00000000
v 0.81904332 0.37511308 0.20382120
vt 0.42187500 0.17187500
vn 0.00000000 -0.00000000 -1.00000000
v 0.18095668 0.37511308 0.20382120
vt 0.67187500 0.17187500
vn 0.00000000 -0.00000000 -1.00000000
v 0.18095668 0.49554404 0.20382120
vt 0.67187500 0.12500000
vn 0.00000000 -0.00000000 -1.00000000
f 481/481/481 482/482/482 483/483/483 484/484/484
usemtl texture_0
v 0.81904332 0.49554404 0.35070748
vt 0.59375000 0.51562500
vn 1.00000000 0.00000000 0.00000000
v 0.81904332 0.37511308 0.35070748
vt 0.59375000 0.56250000
vn 1.00000000 0.00000000 0.00000000
v 0.81904332 0.37511308 0.20382120
vt 0.65625000 0.56250000
vn 1.00000000 0.00000000 0.00000000
v 0.81904332 0.49554404 0.20382120
vt 0.65625000 0.51562500
vn 1.00000000 0.00000000 0.00000000
f 485/485/485 486/486/486 487/487/487 488/488/488
usemtl texture_0
v 0.18095668 0.49554404 0.35070748
vt 0.07812500 0.43750000
vn 0.00000000 0.00000000 1.00000000
v 0.18095668 0.37511308 0.35070748
vt 0.07812500 0.48437500
vn 0.00000000 0.00000000 1.00000000
v 0.81904332 0.37511308 0.35070748
vt 0.32812500 0.48437500
vn 0.00000000 0.00000000 1.00000000
v 0.81904332 0.49554404 0.35070748
vt 0.32812500 0.43750000
vn 0.00000000 0.00000000 1.00000000
f 489/489/489 490/490/490 491/491/491 492/492/492
usemtl texture_0
v 0.18095668 0.49554404 0.20382120
vt 0.59375000 0.56250000
vn -1.00000000 0.00000000 0.00000000
v 0.18095668 0.37511308 0.20382120
vt 0.59375000 0.60937500
vn -1.00000000 0.00000000 0.00000000
v 0.18095668 0.37511308 0.35070748
vt 0.65625000 0.60937500
vn -1.00000000 0.00000000 0.00000000
v 0.18095668 0.49554404 0.35070748
vt 0.65625000 0.56250000
vn -1.00000000 0.00000000 0.00000000
f 493/493/493 494/494/494 495/495/495 496/496/496
usemtl texture_0
v 0.18095668 0.49554404 0.20382120
vt 0.59375000 0.26562500
vn 0.00000000 1.00000000 0.00000000
v 0.18095668 0.49554404 0.35070748
vt 0.59375000 0.20312500
vn 0.00000000 1.00000000 0.00000000
v 0.81904332 0.49554404 0.35070748
vt 0.34375000 0.20312500
vn 0.00000000 1.00000000 0.00000000
v 0.81904332 0.49554404 0.20382120
vt 0.34375000 0.26562500
vn 0.00000000 1.00000000 0.00000000
f 497/497/497 498/498/498 499/499/499 500/500/500
usemtl texture_0
v 0.18095668 0.37511308 0.35070748
vt 0.59375000 0.26562500
vn 0.00000000 -1.00000000 0.00000000
v 0.18095668 0.37511308 0.20382120
vt 0.59375000 0.32812500
vn 0.00000000 -1.00000000 0.00000000
v 0.81904332 0.37511308 0.20382120
vt 0.34375000 0.32812500
vn 0.00000000 -1.00000000 0.00000000
v 0.81904332 0.37511308 0.35070748
vt 0.34375000 0.26562500
vn 0.00000000 -1.00000000 0.00000000
f 501/501/501 502/502/502 503/503/503 504/504/504
usemtl texture_0
v 0.30573105 0.47580126 0.34991777
vt 0.43750000 0.62500000
vn 0.00000000 -0.00000000 -1.00000000
v 0.30573105 0.37511308 0.34991777
vt 0.43750000 0.67187500
vn 0.00000000 -0.00000000 -1.00000000
v 0.18095668 0.37511308 0.34991777
vt 0.48437500 0.67187500
vn 0.00000000 -0.00000000 -1.00000000
v 0.18095668 0.47580126 0.34991777
vt 0.48437500 0.62500000
vn 0.00000000 -0.00000000 -1.00000000
f 505/505/505 506/506/506 507/507/507 508/508/508
usemtl texture_0
v 0.30573105 0.47580126 0.65869485
vt 0.32812500 0.48437500
vn 1.00000000 0.00000000 0.00000000
v 0.30573105 0.37511308 0.65869485
vt 0.32812500 0.53125000
vn 1.00000000 0.00000000 0.00000000
v 0.30573105 0.37511308 0.34991777
vt 0.45312500 0.53125000
vn 1.00000000 0.00000000 0.00000000
v 0.30573105 0.47580126 0.34991777
vt 0.45312500 0.48437500
vn 1.00000000 0.00000000 0.00000000
f 509/509/509 510/510/510 511/511/511 512/512/512
usemtl texture_0
v 0.18095668 0.47580126 0.65869485
vt 0.17187500 0.64062500
vn 0.00000000 0.00000000 1.00000000
v 0.18095668 0.37511308 0.65869485
vt 0.17187500 0.68750000
vn 0.00000000 0.00000000 1.00000000
v 0.30573105 0.37511308 0.65869485
vt 0.21875000 0.68750000
vn 0.00000000 0.00000000 1.00000000
v 0.30573105 0.47580126 0.65869485
vt 0.21875000 0.64062500
vn 0.00000000 0.00000000 1.00000000
f 513/513/513 514/514/514 515/515/515 516/516/516
usemtl texture_0
v 0.18095668 0.47580126 0.34991777
vt 0.45312500 0.48437500
vn -1.00000000 0.00000000 0.00000000
v 0.18095668 0.37511308 0.34991777
vt 0.45312500 0.53125000
vn -1.00000000 0.00000000 0.00000000
v 0.18095668 0.37511308 0.65869485
vt 0.57812500 0.53125000
vn -1.00000000 0.00000000 0.00000000
v 0.18095668 0.47580126 0.65869485
vt 0.57812500 0.48437500
vn -1.00000000 0.00000000 0.00000000
f 517/517/517 518/518/518 519/519/519 520/520/520
usemtl texture_0
v 0.18095668 0.47580126 0.34991777
vt 0.12500000 0.65625000
vn 0.00000000 1.00000000 0.00000000
v 0.18095668 0.47580126 0.65869485
vt 0.12500000 0.53125000
vn 0.00000000 1.00000000 0.00000000
v 0.30573105 0.47580126 0.65869485
vt 0.07812500 0.53125000
vn 0.00000000 1.00000000 0.00000000
v 0.30573105 0.47580126 0.34991777
vt 0.07812500 0.65625000
vn 0.00000000 1.00000000 0.00000000
f 521/521/521 522/522/522 523/523/523 524/524/524
usemtl texture_0
v 0.18095668 0.37511308 0.65869485
vt 0.17187500 0.53125000
vn 0.00000000 -1.00000000 0.00000000
v 0.18095668 0.37511308 0.34991777
vt 0.17187500 0.65625000
vn 0.00000000 -1.00000000 0.00000000
v 0.30573105 0.37511308 0.34991777
vt 0.12500000 0.65625000
vn 0.00000000 -1.00000000 0.00000000
v 0.30573105 0.37511308 0.65869485
vt 0.12500000 0.53125000
vn 0.00000000 -1.00000000 0.00000000
f 525/525/525 526/526/526 527/527/527 528/528/528
usemtl texture_0
v 0.41787004 0.56187978 0.24330676
vt 0.54687500 0.09375000
vn 0.00000000 -0.00000000 -1.00000000
v 0.41787004 0.47974981 0.24330676
vt 0.54687500 0.12500000
vn 0.00000000 -0.00000000 -1.00000000
v 0.23149819 0.47974981 0.24330676
vt 0.62500000 0.12500000
vn 0.00000000 -0.00000000 -1.00000000
v 0.23149819 0.56187978 0.24330676
vt 0.62500000 0.09375000
vn 0.00000000 -0.00000000 -1.00000000
f 529/529/529 530/530/530 531/531/531 532/532/532
usemtl texture_0
v 0.41787004 0.56187978 0.76530586
vt 0.42187500 0.17187500
vn 1.00000000 0.00000000 0.00000000
v 0.41787004 0.47974981 0.76530586
vt 0.42187500 0.20312500
vn 1.00000000 0.00000000 0.00000000
v 0.41787004 0.47974981 0.24330676
vt 0.62500000 0.20312500
vn 1.00000000 0.00000000 0.00000000
v 0.41787004 0.56187978 0.24330676
vt 0.62500000 0.17187500
vn 1.00000000 0.00000000 0.00000000
f 533/533/533 534/534/534 535/535/535 536/536/536
usemtl texture_0
v 0.23149819 0.56187978 0.76530586
vt 0.59375000 0.39062500
vn 0.00000000 0.00000000 1.00000000
v 0.23149819 0.47974981 0.76530586
vt 0.59375000 0.42187500
vn 0.00000000 0.00000000 1.00000000
v 0.41787004 0.47974981 0.76530586
vt 0.67187500 0.42187500
vn 0.00000000 0.00000000 1.00000000
v 0.41787004 0.56187978 0.76530586
vt 0.67187500 0.39062500
vn 0.00000000 0.00000000 1.00000000
f 537/537/537 538/538/538 539/539/539 540/540/540
usemtl texture_0
v 0.23149819 0.56187978 0.24330676
vt 0.32812500 0.45312500
vn -1.00000000 0.00000000 0.00000000
v 0.23149819 0.47974981 0.24330676
vt 0.32812500 0.48437500
vn -1.00000000 0.00000000 0.00000000
v 0.23149819 0.47974981 0.76530586
vt 0.53125000 0.48437500
vn -1.00000000 0.00000000 0.00000000
v 0.23149819 0.56187978 0.76530586
vt 0.53125000 0.45312500
vn -1.00000000 0.00000000 0.00000000
f 541/541/541 542/542/542 543/543/543 544/544/544
usemtl texture_0
v 0.23149819 0.56187978 0.24330676
vt 0.07812500 0.54687500
vn 0.00000000 1.00000000 0.00000000
v 0.23149819 0.56187978 0.76530586
vt 0.07812500 0.34375000
vn 0.00000000 1.00000000 0.00000000
v 0.41787004 0.56187978 0.76530586
vt 0.00000000 0.34375000
vn 0.00000000 1.00000000 0.00000000
v 0.41787004 0.56187978 0.24330676
vt 0.00000000 0.54687500
vn 0.00000000 1.00000000 0.00000000
f 545/545/545 546/546/546 547/547/547 548/548/548
usemtl texture_0
v 0.23149819 0.47974981 0.76530586
vt 0.42187500 0.00000000
vn 0.00000000 -1.00000000 0.00000000
v 0.23149819 0.47974981 0.24330676
vt 0.42187500 0.20312500
vn 0.00000000 -1.00000000 0.00000000
v 0.41787004 0.47974981 0.24330676
vt 0.34375000 0.20312500
vn 0.00000000 -1.00000000 0.00000000
v 0.41787004 0.47974981 0.76530586
vt 0.34375000 0.00000000
vn 0.00000000 -1.00000000 0.00000000
f 549/549/549 550/550/550 551/551/551 552/552/552
usemtl texture_0
v 0.90187964 0.65375128 0.19126918
vt 0.12500000 0.34375000
vn -0.70710678 -0.00000000 -0.70710678
v 0.90187964 0.39512086 0.19126918
vt 0.12500000 0.43750000
vn -0.70710678 -0.00000000 -0.70710678
v 0.81365084 0.39512086 0.27949798
vt 0.07812500 0.43750000
vn -0.70710678 -0.00000000 -0.70710678
v 0.81365084 0.65375128 0.27949798
vt 0.07812500 0.34375000
vn -0.70710678 -0.00000000 -0.70710678
f 553/553/553 554/554/554 555/555/555 556/556/556
usemtl texture_0
v 0.90187964 0.65375128 0.19126918
vt 0.00000000 0.00000000
vn 0.00000000 0.00000000 0.00000000
v 0.90187964 0.39512086 0.19126918
vt 0.00000000 0.09375000
vn 0.00000000 0.00000000 0.00000000
v 0.90187964 0.39512086 0.19126918
vt 0.00000000 0.09375000
vn 0.00000000 0.00000000 0.00000000
v 0.90187964 0.65375128 0.19126918
vt 0.00000000 0.00000000
vn 0.00000000 0.00000000 0.00000000
f 557/557/557 558/558/558 559/559/559 560/560/560
usemtl texture_0
v 0.81365084 0.65375128 0.27949798
vt 0.17187500 0.34375000
vn 0.70710678 0.00000000 0.70710678
v 0.81365084 0.39512086 0.27949798
vt 0.17187500 0.43750000
vn 0.70710678 0.00000000 0.70710678
v 0.90187964 0.39512086 0.19126918
vt 0.12500000 0.43750000
vn 0.70710678 0.00000000 0.70710678
v 0.90187964 0.65375128 0.19126918
vt 0.12500000 0.34375000
vn 0.70710678 0.00000000 0.70710678
f 561/561/561 562/562/562 563/563/563 564/564/564
usemtl texture_0
v 0.81365084 0.65375128 0.27949798
vt 0.00000000 0.00000000
vn 0.00000000 0.00000000 0.00000000
v 0.81365084 0.39512086 0.27949798
vt 0.00000000 0.09375000
vn 0.00000000 0.00000000 0.00000000
v 0.81365084 0.39512086 0.27949798
vt 0.00000000 0.09375000
vn 0.00000000 0.00000000 0.00000000
v 0.81365084 0.65375128 0.27949798
vt 0.00000000 0.00000000
vn 0.00000000 0.00000000 0.00000000
f 565/565/565 566/566/566 567/567/567 568/568/568
usemtl texture_0
v 0.81365084 0.65375128 0.27949798
vt 0.00000000 0.00000000
vn -0.00000000 0.00000000 0.00000000
v 0.81365084 0.65375128 0.27949798
vt 0.00000000 0.00000000
vn -0.00000000 0.00000000 0.00000000
v 0.90187964 0.65375128 0.19126918
vt 0.04687500 0.00000000
vn -0.00000000 0.00000000 0.00000000
v 0.90187964 0.65375128 0.19126918
vt 0.04687500 0.00000000
vn -0.00000000 0.00000000 0.00000000
f 569/569/569 570/570/570 571/571/571 572/572/572
usemtl texture_0
v 0.81365084 0.39512086 0.27949798
vt 0.00000000 0.00000000
vn -0.00000000 0.00000000 0.00000000
v 0.81365084 0.39512086 0.27949798
vt 0.00000000 0.00000000
vn -0.00000000 0.00000000 0.00000000
v 0.90187964 0.39512086 0.19126918
vt 0.04687500 0.00000000
vn -0.00000000 0.00000000 0.00000000
v 0.90187964 0.39512086 0.19126918
vt 0.04687500 0.00000000
vn -0.00000000 0.00000000 0.00000000
f 573/573/573 574/574/574 575/575/575 576/576/576
usemtl texture_0
v 0.18634916 0.65375128 0.27949798
vt 0.07812500 0.34375000
vn 0.70710678 0.00000000 -0.70710678
v 0.18634916 0.39512086 0.27949798
vt 0.07812500 0.43750000
vn 0.70710678 0.00000000 -0.70710678
v 0.09812036 0.39512086 0.19126918
vt 0.12500000 0.43750000
vn 0.70710678 0.00000000 -0.70710678
v 0.09812036 0.65375128 0.19126918
vt 0.12500000 0.34375000
vn 0.70710678 0.00000000 -0.70710678
f 577/577/577 578/578/578 579/579/579 580/580/580
usemtl texture_0
v 0.18634916 0.65375128 0.27949798
vt 0.00000000 0.00000000
vn 0.00000000 0.00000000 0.00000000
v 0.18634916 0.39512086 0.27949798
vt 0.00000000 0.09375000
vn 0.00000000 0.00000000 0.00000000
v 0.18634916 0.39512086 0.27949798
vt 0.00000000 0.09375000
vn 0.00000000 0.00000000 0.00000000
v 0.18634916 0.65375128 0.27949798
vt 0.00000000 0.00000000
vn 0.00000000 0.00000000 0.00000000
f 581/581/581 582/582/582 583/583/583 584/584/584
usemtl texture_0
v 0.09812036 0.65375128 0.19126918
vt 0.12500000 0.34375000
vn -0.70710678 0.00000000 0.70710678
v 0.09812036 0.39512086 0.19126918
vt 0.12500000 0.43750000
vn -0.70710678 0.00000000 0.70710678
v 0.18634916 0.39512086 0.27949798
vt 0.17187500 0.43750000
vn -0.70710678 0.00000000 0.70710678
v 0.18634916 0.65375128 0.27949798
vt 0.17187500 0.34375000
vn -0.70710678 0.00000000 0.70710678
f 585/585/585 586/586/586 587/587/587 588/588/588
usemtl texture_0
v 0.09812036 0.65375128 0.19126918
vt 0.00000000 0.00000000
vn 0.00000000 0.00000000 0.00000000
v 0.09812036 0.39512086 0.19126918
vt 0.00000000 0.09375000
vn 0.00000000 0.00000000 0.00000000
v 0.09812036 0.39512086 0.19126918
vt 0.00000000 0.09375000
vn 0.00000000 0.00000000 0.00000000
v 0.09812036 0.65375128 0.19126918
vt 0.00000000 0.00000000
vn 0.00000000 0.00000000 0.00000000
f 589/589/589 590/590/590 591/591/591 592/592/592
usemtl texture_0
v 0.09812036 0.65375128 0.19126918
vt 0.04687500 0.00000000
vn 0.00000000 0.00000000 0.00000000
v 0.09812036 0.65375128 0.19126918
vt 0.04687500 0.00000000
vn 0.00000000 0.00000000 0.00000000
v 0.18634916 0.65375128 0.27949798
vt 0.00000000 0.00000000
vn 0.00000000 0.00000000 0.00000000
v 0.18634916 0.65375128 0.27949798
vt 0.00000000 0.00000000
vn 0.00000000 0.00000000 0.00000000
f 593/593/593 594/594/594 595/595/595 596/596/596
usemtl texture_0
v 0.09812036 0.39512086 0.19126918
vt 0.04687500 0.00000000
vn 0.00000000 0.00000000 0.00000000
v 0.09812036 0.39512086 0.19126918
vt 0.04687500 0.00000000
vn 0.00000000 0.00000000 0.00000000
v 0.18634916 0.39512086 0.27949798
vt 0.00000000 0.00000000
vn 0.00000000 0.00000000 0.00000000
v 0.18634916 0.39512086 0.27949798
vt 0.00000000 0.00000000
vn 0.00000000 0.00000000 0.00000000
f 597/597/597 598/598/598 599/599/599 600/600/600
usemtl texture_0
v 0.90187964 0.62725090 0.80514797
vt 0.12500000 0.34375000
vn 0.70710678 0.00000000 -0.70710678
v 0.90187964 0.36862049 0.80514797
vt 0.12500000 0.43750000
vn 0.70710678 0.00000000 -0.70710678
v 0.81365084 0.36862049 0.71691917
vt 0.17187500 0.43750000
vn 0.70710678 0.00000000 -0.70710678
v 0.81365084 0.62725090 0.71691917
vt 0.17187500 0.34375000
vn 0.70710678 0.00000000 -0.70710678
f 601/601/601 602/602/602 603/603/603 604/604/604
usemtl texture_0
v 0.90187964 0.62725090 0.80514797
vt 0.00000000 0.00000000
vn 0.00000000 0.00000000 0.00000000
v 0.90187964 0.36862049 0.80514797
vt 0.00000000 0.09375000
vn 0.00000000 0.00000000 0.00000000
v 0.90187964 0.36862049 0.80514797
vt 0.00000000 0.09375000
vn 0.00000000 0.00000000 0.00000000
v 0.90187964 0.62725090 0.80514797
vt 0.00000000 0.00000000
vn 0.00000000 0.00000000 0.00000000
f 605/605/605 606/606/606 607/607/607 608/608/608
usemtl texture_0
v 0.81365084 0.62725090 0.71691917
vt 0.07812500 0.34375000
vn -0.70710678 0.00000000 0.70710678
v 0.81365084 0.36862049 0.71691917
vt 0.07812500 0.43750000
vn -0.70710678 0.00000000 0.70710678
v 0.90187964 0.36862049 0.80514797
vt 0.12500000 0.43750000
vn -0.70710678 0.00000000 0.70710678
v 0.90187964 0.62725090 0.80514797
vt 0.12500000 0.34375000
vn -0.70710678 0.00000000 0.70710678
f 609/609/609 610/610/610 611/611/611 612/612/612
usemtl texture_0
v 0.81365084 0.62725090 0.71691917
vt 0.00000000 0.00000000
vn 0.00000000 0.00000000 0.00000000
v 0.81365084 0.36862049 0.71691917
vt 0.00000000 0.09375000
vn 0.00000000 0.00000000 0.00000000
v 0.81365084 0.36862049 0.71691917
vt 0.00000000 0.09375000
vn 0.00000000 0.00000000 0.00000000
v 0.81365084 0.62725090 0.71691917
vt 0.00000000 0.00000000
vn 0.00000000 0.00000000 0.00000000
f 613/613/613 614/614/614 615/615/615 616/616/616
usemtl texture_0
v 0.81365084 0.62725090 0.71691917
vt 0.00000000 0.00000000
vn 0.00000000 0.00000000 0.00000000
v 0.81365084 0.62725090 0.71691917
vt 0.00000000 0.00000000
vn 0.00000000 0.00000000 0.00000000
v 0.90187964 0.62725090 0.80514797
vt 0.04687500 0.00000000
vn 0.00000000 0.00000000 0.00000000
v 0.90187964 0.62725090 0.80514797
vt 0.04687500 0.00000000
vn 0.00000000 0.00000000 0.00000000
f 617/617/617 618/618/618 619/619/619 620/620/620
usemtl texture_0
v 0.81365084 0.36862049 0.71691917
vt 0.00000000 0.00000000
vn 0.00000000 0.00000000 0.00000000
v 0.81365084 0.36862049 0.71691917
vt 0.00000000 0.00000000
vn 0.00000000 0.00000000 0.00000000
v 0.90187964 0.36862049 0.80514797
vt 0.04687500 0.00000000
vn 0.00000000 0.00000000 0.00000000
v 0.90187964 0.36862049 0.80514797
vt 0.04687500 0.00000000
vn 0.00000000 0.00000000 0.00000000
f 621/621/621 622/622/622 623/623/623 624/624/624
usemtl texture_0
v 0.18634916 0.62725090 0.71691917
vt 0.17187500 0.34375000
vn -0.70710678 -0.00000000 -0.70710678
v 0.18634916 0.36862049 0.71691917
vt 0.17187500 0.43750000
vn -0.70710678 -0.00000000 -0.70710678
v 0.09812036 0.36862049 0.80514797
vt 0.12500000 0.43750000
vn -0.70710678 -0.00000000 -0.70710678
v 0.09812036 0.62725090 0.80514797
vt 0.12500000 0.34375000
vn -0.70710678 -0.00000000 -0.70710678
f 625/625/625 626/626/626 627/627/627 628/628/628
usemtl texture_0
v 0.18634916 0.62725090 0.71691917
vt 0.00000000 0.00000000
vn 0.00000000 0.00000000 0.00000000
v 0.18634916 0.36862049 0.71691917
vt 0.00000000 0.09375000
vn 0.00000000 0.00000000 0.00000000
v 0.18634916 0.36862049 0.71691917
vt 0.00000000 0.09375000
vn 0.00000000 0.00000000 0.00000000
v 0.18634916 0.62725090 0.71691917
vt 0.00000000 0.00000000
vn 0.00000000 0.00000000 0.00000000
f 629/629/629 630/630/630 631/631/631 632/632/632
usemtl texture_0
v 0.09812036 0.62725090 0.80514797
vt 0.12500000 0.34375000
vn 0.70710678 0.00000000 0.70710678
v 0.09812036 0.36862049 0.80514797
vt 0.12500000 0.43750000
vn 0.70710678 0.00000000 0.70710678
v 0.18634916 0.36862049 0.71691917
vt 0.07812500 0.43750000
vn 0.70710678 0.00000000 0.70710678
v 0.18634916 0.62725090 0.71691917
vt 0.07812500 0.34375000
vn 0.70710678 0.00000000 0.70710678
f 633/633/633 634/634/634 635/635/635 636/636/636
usemtl texture_0
v 0.09812036 0.62725090 0.80514797
vt 0.00000000 0.00000000
vn 0.00000000 0.00000000 0.00000000
v 0.09812036 0.36862049 0.80514797
vt 0.00000000 0.09375000
vn 0.00000000 0.00000000 0.00000000
v 0.09812036 0.36862049 0.80514797
vt 0.00000000 0.09375000
vn 0.00000000 0.00000000 0.00000000
v 0.09812036 0.62725090 0.80514797
vt 0.00000000 0.00000000
vn 0.00000000 0.00000000 0.00000000
f 637/637/637 638/638/638 639/639/639 640/640/640
usemtl texture_0
v 0.09812036 0.62725090 0.80514797
vt 0.04687500 0.00000000
vn -0.00000000 0.00000000 0.00000000
v 0.09812036 0.62725090 0.80514797
vt 0.04687500 0.00000000
vn -0.00000000 0.00000000 0.00000000
v 0.18634916 0.62725090 0.71691917
vt 0.00000000 0.00000000
vn -0.00000000 0.00000000 0.00000000
v 0.18634916 0.62725090 0.71691917
vt 0.00000000 0.00000000
vn -0.00000000 0.00000000 0.00000000
f 641/641/641 642/642/642 643/643/643 644/644/644
usemtl texture_0
v 0.09812036 0.36862049 0.80514797
vt 0.04687500 0.00000000
vn -0.00000000 0.00000000 0.00000000
v 0.09812036 0.36862049 0.80514797
vt 0.04687500 0.00000000
vn -0.00000000 0.00000000 0.00000000
v 0.18634916 0.36862049 0.71691917
vt 0.00000000 0.00000000
vn -0.00000000 0.00000000 0.00000000
v 0.18634916 0.36862049 0.71691917
vt 0.00000000 0.00000000
vn -0.00000000 0.00000000 0.00000000
f 645/645/645 646/646/646 647/647/647 648/648/648
usemtl texture_0
v 0.76850181 0.56187978 0.24330676
vt 0.62500000 0.09375000
vn 0.00000000 -0.00000000 -1.00000000
v 0.76850181 0.47974981 0.24330676
vt 0.62500000 0.12500000
vn 0.00000000 -0.00000000 -1.00000000
v 0.58212996 0.47974981 0.24330676
vt 0.54687500 0.12500000
vn 0.00000000 -0.00000000 -1.00000000
v 0.58212996 0.56187978 0.24330676
vt 0.54687500 0.09375000
vn 0.00000000 -0.00000000 -1.00000000
f 649/649/649 650/650/650 651/651/651 652/652/652
usemtl texture_0
v 0.76850181 0.56187978 0.76530586
vt 0.53125000 0.45312500
vn 1.00000000 0.00000000 0.00000000
v 0.76850181 0.47974981 0.76530586
vt 0.53125000 0.48437500
vn 1.00000000 0.00000000 0.00000000
v 0.76850181 0.47974981 0.24330676
vt 0.32812500 0.48437500
vn 1.00000000 0.00000000 0.00000000
v 0.76850181 0.56187978 0.24330676
vt 0.32812500 0.45312500
vn 1.00000000 0.00000000 0.00000000
f 653/653/653 654/654/654 655/655/655 656/656/656
usemtl texture_0
v 0.58212996 0.56187978 0.76530586
vt 0.67187500 0.39062500
vn 0.00000000 0.00000000 1.00000000
v 0.58212996 0.47974981 0.76530586
vt 0.67187500 0.42187500
vn 0.00000000 0.00000000 1.00000000
v 0.76850181 0.47974981 0.76530586
vt 0.59375000 0.42187500
vn 0.00000000 0.00000000 1.00000000
v 0.76850181 0.56187978 0.76530586
vt 0.59375000 0.39062500
vn 0.00000000 0.00000000 1.00000000
f 657/657/657 658/658/658 659/659/659 660/660/660
usemtl texture_0
v 0.58212996 0.56187978 0.24330676
vt 0.62500000 0.17187500
vn -1.00000000 0.00000000 0.00000000
v 0.58212996 0.47974981 0.24330676
vt 0.62500000 0.20312500
vn -1.00000000 0.00000000 0.00000000
v 0.58212996 0.47974981 0.76530586
vt 0.42187500 0.20312500
vn -1.00000000 0.00000000 0.00000000
v 0.58212996 0.56187978 0.76530586
vt 0.42187500 0.17187500
vn -1.00000000 0.00000000 0.00000000
f 661/661/661 662/662/662 663/663/663 664/664/664
usemtl texture_0
v 0.58212996 0.56187978 0.24330676
vt 0.00000000 0.54687500
vn 0.00000000 1.00000000 0.00000000
v 0.58212996 0.56187978 0.76530586
vt 0.00000000 0.34375000
vn 0.00000000 1.00000000 0.00000000
v 0.76850181 0.56187978 0.76530586
vt 0.07812500 0.34375000
vn 0.00000000 1.00000000 0.00000000
v 0.76850181 0.56187978 0.24330676
vt 0.07812500 0.54687500
vn 0.00000000 1.00000000 0.00000000
f 665/665/665 666/666/666 667/667/667 668/668/668
usemtl texture_0
v 0.58212996 0.47974981 0.76530586
vt 0.34375000 0.00000000
vn 0.00000000 -1.00000000 0.00000000
v 0.58212996 0.47974981 0.24330676
vt 0.34375000 0.20312500
vn 0.00000000 -1.00000000 0.00000000
v 0.76850181 0.47974981 0.24330676
vt 0.42187500 0.20312500
vn 0.00000000 -1.00000000 0.00000000
v 0.76850181 0.47974981 0.76530586
vt 0.42187500 0.00000000
vn 0.00000000 -1.00000000 0.00000000
f 669/669/669 670/670/670 671/671/671 672/672/672
usemtl texture_0
v 0.81904332 0.49554404 0.65869485
vt 0.32812500 0.43750000
vn 0.00000000 -0.00000000 -1.00000000
v 0.81904332 0.37511308 0.65869485
vt 0.32812500 0.48437500
vn 0.00000000 -0.00000000 -1.00000000
v 0.18095668 0.37511308 0.65869485
vt 0.07812500 0.48437500
vn 0.00000000 -0.00000000 -1.00000000
v 0.18095668 0.49554404 0.65869485
vt 0.07812500 0.43750000
vn 0.00000000 -0.00000000 -1.00000000
f 673/673/673 674/674/674 675/675/675 676/676/676
usemtl texture_0
v 0.81904332 0.49554404 0.80558113
vt 0.65625000 0.51562500
vn 1.00000000 0.00000000 0.00000000
v 0.81904332 0.37511308 0.80558113
vt 0.65625000 0.56250000
vn 1.00000000 0.00000000 0.00000000
v 0.81904332 0.37511308 0.65869485
vt 0.59375000 0.56250000
vn 1.00000000 0.00000000 0.00000000
v 0.81904332 0.49554404 0.65869485
vt 0.59375000 0.51562500
vn 1.00000000 0.00000000 0.00000000
f 677/677/677 678/678/678 679/679/679 680/680/680
usemtl texture_0
v 0.18095668 0.49554404 0.80558113
vt 0.67187500 0.12500000
vn 0.00000000 0.00000000 1.00000000
v 0.18095668 0.37511308 0.80558113
vt 0.67187500 0.17187500
vn 0.00000000 0.00000000 1.00000000
v 0.81904332 0.37511308 0.80558113
vt 0.42187500 0.17187500
vn 0.00000000 0.00000000 1.00000000
v 0.81904332 0.49554404 0.80558113
vt 0.42187500 0.12500000
vn 0.00000000 0.00000000 1.00000000
f 681/681/681 682/682/682 683/683/683 684/684/684
usemtl texture_0
v 0.18095668 0.49554404 0.65869485
vt 0.65625000 0.56250000
vn -1.00000000 0.00000000 0.00000000
v 0.18095668 0.37511308 0.65869485
vt 0.65625000 0.60937500
vn -1.00000000 0.00000000 0.00000000
v 0.18095668 0.37511308 0.80558113
vt 0.59375000 0.60937500
vn -1.00000000 0.00000000 0.00000000
v 0.18095668 0.49554404 0.80558113
vt 0.59375000 0.56250000
vn -1.00000000 0.00000000 0.00000000
f 685/685/685 686/686/686 687/687/687 688/688/688
usemtl texture_0
v 0.18095668 0.49554404 0.65869485
vt 0.59375000 0.20312500
vn 0.00000000 1.00000000 0.00000000
v 0.18095668 0.49554404 0.80558113
vt 0.59375000 0.26562500
vn 0.00000000 1.00000000 0.00000000
v 0.81904332 0.49554404 0.80558113
vt 0.34375000 0.26562500
vn 0.00000000 1.00000000 0.00000000
v 0.81904332 0.49554404 0.65869485
vt 0.34375000 0.20312500
vn 0.00000000 1.00000000 0.00000000
f 689/689/689 690/690/690 691/691/691 692/692/692
usemtl texture_0
v 0.18095668 0.37511308 0.80558113
vt 0.59375000 0.32812500
vn 0.00000000 -1.00000000 0.00000000
v 0.18095668 0.37511308 0.65869485
vt 0.59375000 0.26562500
vn 0.00000000 -1.00000000 0.00000000
v 0.81904332 0.37511308 0.65869485
vt 0.34375000 0.26562500
vn 0.00000000 -1.00000000 0.00000000
v 0.81904332 0.37511308 0.80558113
vt 0.34375000 0.32812500
vn 0.00000000 -1.00000000 0.00000000
f 693/693/693 694/694/694 695/695/695 696/696/696
usemtl texture_0
v 0.81904332 0.47580126 0.34991777
vt 0.48437500 0.62500000
vn 0.00000000 -0.00000000 -1.00000000
v 0.81904332 0.37511308 0.34991777
vt 0.48437500 0.67187500
vn 0.00000000 -0.00000000 -1.00000000
v 0.69426895 0.37511308 0.34991777
vt 0.43750000 0.67187500
vn 0.00000000 -0.00000000 -1.00000000
v 0.69426895 0.47580126 0.34991777
vt 0.43750000 0.62500000
vn 0.00000000 -0.00000000 -1.00000000
f 697/697/697 698/698/698 699/699/699 700/700/700
usemtl texture_0
v 0.81904332 0.47580126 0.65869485
vt 0.57812500 0.48437500
vn 1.00000000 0.00000000 0.00000000
v 0.81904332 0.37511308 0.65869485
vt 0.57812500 0.53125000
vn 1.00000000 0.00000000 0.00000000
v 0.81904332 0.37511308 0.34991777
vt 0.45312500 0.53125000
vn 1.00000000 0.00000000 0.00000000
v 0.81904332 0.47580126 0.34991777
vt 0.45312500 0.48437500
vn 1.00000000 0.00000000 0.00000000
f 701/701/701 702/702/702 703/703/703 704/704/704
usemtl texture_0
v 0.69426895 0.47580126 0.65869485
vt 0.21875000 0.64062500
vn 0.00000000 0.00000000 1.00000000
v 0.69426895 0.37511308 0.65869485
vt 0.21875000 0.68750000
vn 0.00000000 0.00000000 1.00000000
v 0.81904332 0.37511308 0.65869485
vt 0.17187500 0.68750000
vn 0.00000000 0.00000000 1.00000000
v 0.81904332 0.47580126 0.65869485
vt 0.17187500 0.64062500
vn 0.00000000 0.00000000 1.00000000
f 705/705/705 706/706/706 707/707/707 708/708/708
usemtl texture_0
v 0.69426895 0.47580126 0.34991777
vt 0.45312500 0.48437500
vn -1.00000000 0.00000000 0.00000000
v 0.69426895 0.37511308 0.34991777
vt 0.45312500 0.53125000
vn -1.00000000 0.00000000 0.00000000
v 0.69426895 0.37511308 0.65869485
vt 0.32812500 0.53125000
vn -1.00000000 0.00000000 0.00000000
v 0.69426895 0.47580126 0.65869485
vt 0.32812500 0.48437500
vn -1.00000000 0.00000000 0.00000000
f 709/709/709 710/710/710 711/711/711 712/712/712
usemtl texture_0
v 0.69426895 0.47580126 0.34991777
vt 0.07812500 0.65625000
vn 0.00000000 1.00000000 0.00000000
v 0.69426895 0.47580126 0.65869485
vt 0.07812500 0.53125000
vn 0.00000000 1.00000000 0.00000000
v 0.81904332 0.47580126 0.65869485
vt 0.12500000 0.53125000
vn 0.00000000 1.00000000 0.00000000
v 0.81904332 0.47580126 0.34991777
vt 0.12500000 0.65625000
vn 0.00000000 1.00000000 0.00000000
f 713/713/713 714/714/714 715/715/715 716/716/716
usemtl texture_0
v 0.69426895 0.37511308 0.65869485
vt 0.12500000 0.53125000
vn 0.00000000 -1.00000000 0.00000000
v 0.69426895 0.37511308 0.34991777
vt 0.12500000 0.65625000
vn 0.00000000 -1.00000000 0.00000000
v 0.81904332 0.37511308 0.34991777
vt 0.17187500 0.65625000
vn 0.00000000 -1.00000000 0.00000000
v 0.81904332 0.37511308 0.65869485
vt 0.17187500 0.53125000
vn 0.00000000 -1.00000000 0.00000000
f 717/717/717 718/718/718 719/719/719 720/720/720
usemtl texture_1
v 0.53975056 0.38938671 0.18020407
vt 0.00000000 0.00000000
vn 0.00000000 -0.00000000 -1.00000000
v 0.53975056 0.25688484 0.18020407
vt 0.00000000 0.31250000
vn 0.00000000 -0.00000000 -1.00000000
v 0.46024944 0.25688484 0.18020407
vt 0.18750000 0.31250000
vn 0.00000000 -0.00000000 -1.00000000
v 0.46024944 0.38938671 0.18020407
vt 0.18750000 0.00000000
vn 0.00000000 -0.00000000 -1.00000000
f 721/721/721 722/722/722 723/723/723 724/724/724
usemtl texture_1
v 0.53975056 0.38938671 0.23320482
vt 0.00000000 0.31250000
vn 1.00000000 0.00000000 0.00000000
v 0.53975056 0.25688484 0.23320482
vt 0.00000000 0.62500000
vn 1.00000000 0.00000000 0.00000000
v 0.53975056 0.25688484 0.18020407
vt 0.12500000 0.62500000
vn 1.00000000 0.00000000 0.00000000
v 0.53975056 0.38938671 0.18020407
vt 0.12500000 0.31250000
vn 1.00000000 0.00000000 0.00000000
f 725/725/725 726/726/726 727/727/727 728/728/728
usemtl texture_1
v 0.46024944 0.38938671 0.23320482
vt 0.18750000 0.00000000
vn 0.00000000 0.00000000 1.00000000
v 0.46024944 0.25688484 0.23320482
vt 0.18750000 0.31250000
vn 0.00000000 0.00000000 1.00000000
v 0.53975056 0.25688484 0.23320482
vt 0.37500000 0.31250000
vn 0.00000000 0.00000000 1.00000000
v 0.53975056 0.38938671 0.23320482
vt 0.37500000 0.00000000
vn 0.00000000 0.00000000 1.00000000
f 729/729/729 730/730/730 731/731/731 732/732/732
usemtl texture_1
v 0.46024944 0.38938671 0.18020407
vt 0.12500000 0.31250000
vn -1.00000000 0.00000000 0.00000000
v 0.46024944 0.25688484 0.18020407
vt 0.12500000 0.62500000
vn -1.00000000 0.00000000 0.00000000
v 0.46024944 0.25688484 0.23320482
vt 0.25000000 0.62500000
vn -1.00000000 0.00000000 0.00000000
v 0.46024944 0.38938671 0.23320482
vt 0.25000000 0.31250000
vn -1.00000000 0.00000000 0.00000000
f 733/733/733 734/734/734 735/735/735 736/736/736
usemtl texture_1
v 0.46024944 0.38938671 0.18020407
vt 0.43750000 0.43750000
vn 0.00000000 1.00000000 0.00000000
v 0.46024944 0.38938671 0.23320482
vt 0.43750000 0.31250000
vn 0.00000000 1.00000000 0.00000000
v 0.53975056 0.38938671 0.23320482
vt 0.25000000 0.31250000
vn 0.00000000 1.00000000 0.00000000
v 0.53975056 0.38938671 0.18020407
vt 0.25000000 0.43750000
vn 0.00000000 1.00000000 0.00000000
f 737/737/737 738/738/738 739/739/739 740/740/740
usemtl texture_1
v 0.46024944 0.25688484 0.23320482
vt 0.56250000 0.00000000
vn 0.00000000 -1.00000000 0.00000000
v 0.46024944 0.25688484 0.18020407
vt 0.56250000 0.12500000
vn 0.00000000 -1.00000000 0.00000000
v 0.53975056 0.25688484 0.18020407
vt 0.37500000 0.12500000
vn 0.00000000 -1.00000000 0.00000000
v 0.53975056 0.25688484 0.23320482
vt 0.37500000 0.00000000
vn 0.00000000 -1.00000000 0.00000000
f 741/741/741 742/742/742 743/743/743 744/744/744
