mtllib loot_common_crate.mtl
usemtl texture_0
v 0.89127684 0.12867647 0.11397059
vt 0.68750000 0.60937500
vn 0.00000000 -0.00000000 -1.00000000
v 0.89127684 0.00000000 0.11397059
vt 0.68750000 0.64062500
vn 0.00000000 -0.00000000 -1.00000000
v 0.10635037 0.00000000 0.11397059
vt 0.92187500 0.64062500
vn 0.00000000 -0.00000000 -1.00000000
v 0.10635037 0.12867647 0.11397059
vt 0.92187500 0.60937500
vn 0.00000000 -0.00000000 -1.00000000
f 1/1/1 2/2/2 3/3/3 4/4/4
usemtl texture_0
v 0.89127684 0.12867647 0.91176471
vt 0.64062500 0.57812500
vn 1.00000000 0.00000000 0.00000000
v 0.89127684 0.00000000 0.91176471
vt 0.64062500 0.60937500
vn 1.00000000 0.00000000 0.00000000
v 0.89127684 0.00000000 0.11397059
vt 0.89062500 0.60937500
vn 1.00000000 0.00000000 0.00000000
v 0.89127684 0.12867647 0.11397059
vt 0.89062500 0.57812500
vn 1.00000000 0.00000000 0.00000000
f 5/5/5 6/6/6 7/7/7 8/8/8
usemtl texture_0
v 0.10635037 0.12867647 0.91176471
vt 0.43750000 0.71875000
vn 0.00000000 0.00000000 1.00000000
v 0.10635037 0.00000000 0.91176471
vt 0.43750000 0.75000000
vn 0.00000000 0.00000000 1.00000000
v 0.89127684 0.00000000 0.91176471
vt 0.67187500 0.75000000
vn 0.00000000 0.00000000 1.00000000
v 0.89127684 0.12867647 0.91176471
vt 0.67187500 0.71875000
vn 0.00000000 0.00000000 1.00000000
f 9/9/9 10/10/10 11/11/11 12/12/12
usemtl texture_0
v 0.10635037 0.12867647 0.11397059
vt 0.67187500 0.18750000
vn -1.00000000 0.00000000 0.00000000
v 0.10635037 0.00000000 0.11397059
vt 0.67187500 0.21875000
vn -1.00000000 0.00000000 0.00000000
v 0.10635037 0.00000000 0.91176471
vt 0.92187500 0.21875000
vn -1.00000000 0.00000000 0.00000000
v 0.10635037 0.12867647 0.91176471
vt 0.92187500 0.18750000
vn -1.00000000 0.00000000 0.00000000
f 13/13/13 14/14/14 15/15/15 16/16/16
usemtl texture_0
v 0.10635037 0.12867647 0.11397059
vt 0.23437500 0.51562500
vn 0.00000000 1.00000000 0.00000000
v 0.10635037 0.12867647 0.91176471
vt 0.23437500 0.26562500
vn 0.00000000 1.00000000 0.00000000
v 0.89127684 0.12867647 0.91176471
vt 0.00000000 0.26562500
vn 0.00000000 1.00000000 0.00000000
v 0.89127684 0.12867647 0.11397059
vt 0.00000000 0.51562500
vn 0.00000000 1.00000000 0.00000000
f 17/17/17 18/18/18 19/19/19 20/20/20
usemtl texture_0
v 0.10635037 0.00000000 0.91176471
vt 0.46875000 0.26562500
vn 0.00000000 -1.00000000 0.00000000
v 0.10635037 0.00000000 0.11397059
vt 0.46875000 0.51562500
vn 0.00000000 -1.00000000 0.00000000
v 0.89127684 0.00000000 0.11397059
vt 0.23437500 0.51562500
vn 0.00000000 -1.00000000 0.00000000
v 0.89127684 0.00000000 0.91176471
vt 0.23437500 0.26562500
vn 0.00000000 -1.00000000 0.00000000
f 21/21/21 22/22/22 23/23/23 24/24/24
usemtl texture_0
v 0.91701213 0.43750000 0.08823529
vt 0.18750000 0.57812500
vn 0.00000000 -0.00000000 -1.00000000
v 0.91701213 0.30882353 0.08823529
vt 0.18750000 0.62500000
vn 0.00000000 -0.00000000 -1.00000000
v 0.08061507 0.30882353 0.08823529
vt 0.43750000 0.62500000
vn 0.00000000 -0.00000000 -1.00000000
v 0.08061507 0.43750000 0.08823529
vt 0.43750000 0.57812500
vn 0.00000000 -0.00000000 -1.00000000
f 25/25/25 26/26/26 27/27/27 28/28/28
usemtl texture_0
v 0.91701213 0.43750000 0.93750000
vt 0.50000000 0.21875000
vn 1.00000000 0.00000000 0.00000000
v 0.91701213 0.30882353 0.93750000
vt 0.50000000 0.26562500
vn 1.00000000 0.00000000 0.00000000
v 0.91701213 0.30882353 0.08823529
vt 0.76562500 0.26562500
vn 1.00000000 0.00000000 0.00000000
v 0.91701213 0.43750000 0.08823529
vt 0.76562500 0.21875000
vn 1.00000000 0.00000000 0.00000000
f 29/29/29 30/30/30 31/31/31 32/32/32
usemtl texture_0
v 0.08061507 0.43750000 0.93750000
vt 0.43750000 0.60937500
vn 0.00000000 0.00000000 1.00000000
v 0.08061507 0.30882353 0.93750000
vt 0.43750000 0.65625000
vn 0.00000000 0.00000000 1.00000000
v 0.91701213 0.30882353 0.93750000
vt 0.68750000 0.65625000
vn 0.00000000 0.00000000 1.00000000
v 0.91701213 0.43750000 0.93750000
vt 0.68750000 0.60937500
vn 0.00000000 0.00000000 1.00000000
f 33/33/33 34/34/34 35/35/35 36/36/36
usemtl texture_0
v 0.08061507 0.43750000 0.08823529
vt 0.00000000 0.51562500
vn -1.00000000 0.00000000 0.00000000
v 0.08061507 0.30882353 0.08823529
vt 0.00000000 0.56250000
vn -1.00000000 0.00000000 0.00000000
v 0.08061507 0.30882353 0.93750000
vt 0.26562500 0.56250000
vn -1.00000000 0.00000000 0.00000000
v 0.08061507 0.43750000 0.93750000
vt 0.26562500 0.51562500
vn -1.00000000 0.00000000 0.00000000
f 37/37/37 38/38/38 39/39/39 40/40/40
usemtl texture_0
v 0.08061507 0.43750000 0.08823529
vt 0.25000000 0.26562500
vn 0.00000000 1.00000000 0.00000000
v 0.08061507 0.43750000 0.93750000
vt 0.25000000 0.00000000
vn 0.00000000 1.00000000 0.00000000
v 0.91701213 0.43750000 0.93750000
vt 0.00000000 0.00000000
vn 0.00000000 1.00000000 0.00000000
v 0.91701213 0.43750000 0.08823529
vt 0.00000000 0.26562500
vn 0.00000000 1.00000000 0.00000000
f 41/41/41 42/42/42 43/43/43 44/44/44
usemtl texture_0
v 0.08061507 0.30882353 0.93750000
vt 0.50000000 0.00000000
vn 0.00000000 -1.00000000 0.00000000
v 0.08061507 0.30882353 0.08823529
vt 0.50000000 0.26562500
vn 0.00000000 -1.00000000 0.00000000
v 0.91701213 0.30882353 0.08823529
vt 0.25000000 0.26562500
vn 0.00000000 -1.00000000 0.00000000
v 0.91701213 0.30882353 0.93750000
vt 0.25000000 0.00000000
vn 0.00000000 -1.00000000 0.00000000
f 45/45/45 46/46/46 47/47/47 48/48/48
usemtl texture_0
v 0.86276728 0.30882353 0.29411765
vt 0.76562500 0.64062500
vn 0.00000000 -0.00000000 -1.00000000
v 0.86276728 0.12867647 0.29411765
vt 0.76562500 0.70312500
vn 0.00000000 -0.00000000 -1.00000000
v 0.72122316 0.12867647 0.29411765
vt 0.81250000 0.70312500
vn 0.00000000 -0.00000000 -1.00000000
v 0.72122316 0.30882353 0.29411765
vt 0.81250000 0.64062500
vn 0.00000000 -0.00000000 -1.00000000
f 49/49/49 50/50/50 51/51/51 52/52/52
usemtl texture_0
v 0.86276728 0.30882353 0.73161765
vt 0.64062500 0.45312500
vn 1.00000000 0.00000000 0.00000000
v 0.86276728 0.12867647 0.73161765
vt 0.64062500 0.51562500
vn 1.00000000 0.00000000 0.00000000
v 0.86276728 0.12867647 0.29411765
vt 0.78125000 0.51562500
vn 1.00000000 0.00000000 0.00000000
v 0.86276728 0.30882353 0.29411765
vt 0.78125000 0.45312500
vn 1.00000000 0.00000000 0.00000000
f 53/53/53 54/54/54 55/55/55 56/56/56
usemtl texture_0
v 0.72122316 0.30882353 0.73161765
vt 0.76562500 0.70312500
vn 0.00000000 0.00000000 1.00000000
v 0.72122316 0.12867647 0.73161765
vt 0.76562500 0.76562500
vn 0.00000000 0.00000000 1.00000000
v 0.86276728 0.12867647 0.73161765
vt 0.81250000 0.76562500
vn 0.00000000 0.00000000 1.00000000
v 0.86276728 0.30882353 0.73161765
vt 0.81250000 0.70312500
vn 0.00000000 0.00000000 1.00000000
f 57/57/57 58/58/58 59/59/59 60/60/60
usemtl texture_0
v 0.72122316 0.30882353 0.29411765
vt 0.64062500 0.51562500
vn -1.00000000 0.00000000 0.00000000
v 0.72122316 0.12867647 0.29411765
vt 0.64062500 0.57812500
vn -1.00000000 0.00000000 0.00000000
v 0.72122316 0.12867647 0.73161765
vt 0.78125000 0.57812500
vn -1.00000000 0.00000000 0.00000000
v 0.72122316 0.30882353 0.73161765
vt 0.78125000 0.51562500
vn -1.00000000 0.00000000 0.00000000
f 61/61/61 62/62/62 63/63/63 64/64/64
usemtl texture_0
v 0.72122316 0.30882353 0.29411765
vt 0.76562500 0.78125000
vn 0.00000000 1.00000000 0.00000000
v 0.72122316 0.30882353 0.73161765
vt 0.76562500 0.64062500
vn 0.00000000 1.00000000 0.00000000
v 0.86276728 0.30882353 0.73161765
vt 0.71875000 0.64062500
vn 0.00000000 1.00000000 0.00000000
v 0.86276728 0.30882353 0.29411765
vt 0.71875000 0.78125000
vn 0.00000000 1.00000000 0.00000000
f 65/65/65 66/66/66 67/67/67 68/68/68
usemtl texture_0
v 0.72122316 0.12867647 0.73161765
vt 0.71875000 0.71875000
vn 0.00000000 -1.00000000 0.00000000
v 0.72122316 0.12867647 0.29411765
vt 0.71875000 0.85937500
vn 0.00000000 -1.00000000 0.00000000
v 0.86276728 0.12867647 0.29411765
vt 0.67187500 0.85937500
vn 0.00000000 -1.00000000 0.00000000
v 0.86276728 0.12867647 0.73161765
vt 0.67187500 0.71875000
vn 0.00000000 -1.00000000 0.00000000
f 69/69/69 70/70/70 71/71/71 72/72/72
usemtl texture_0
v 0.27877684 0.30882353 0.29411765
vt 0.81250000 0.64062500
vn 0.00000000 -0.00000000 -1.00000000
v 0.27877684 0.12867647 0.29411765
vt 0.81250000 0.70312500
vn 0.00000000 -0.00000000 -1.00000000
v 0.13723272 0.12867647 0.29411765
vt 0.76562500 0.70312500
vn 0.00000000 -0.00000000 -1.00000000
v 0.13723272 0.30882353 0.29411765
vt 0.76562500 0.64062500
vn 0.00000000 -0.00000000 -1.00000000
f 73/73/73 74/74/74 75/75/75 76/76/76
usemtl texture_0
v 0.27877684 0.30882353 0.73161765
vt 0.78125000 0.51562500
vn 1.00000000 0.00000000 0.00000000
v 0.27877684 0.12867647 0.73161765
vt 0.78125000 0.57812500
vn 1.00000000 0.00000000 0.00000000
v 0.27877684 0.12867647 0.29411765
vt 0.64062500 0.57812500
vn 1.00000000 0.00000000 0.00000000
v 0.27877684 0.30882353 0.29411765
vt 0.64062500 0.51562500
vn 1.00000000 0.00000000 0.00000000
f 77/77/77 78/78/78 79/79/79 80/80/80
usemtl texture_0
v 0.13723272 0.30882353 0.73161765
vt 0.81250000 0.70312500
vn 0.00000000 0.00000000 1.00000000
v 0.13723272 0.12867647 0.73161765
vt 0.81250000 0.76562500
vn 0.00000000 0.00000000 1.00000000
v 0.27877684 0.12867647 0.73161765
vt 0.76562500 0.76562500
vn 0.00000000 0.00000000 1.00000000
v 0.27877684 0.30882353 0.73161765
vt 0.76562500 0.70312500
vn 0.00000000 0.00000000 1.00000000
f 81/81/81 82/82/82 83/83/83 84/84/84
usemtl texture_0
v 0.13723272 0.30882353 0.29411765
vt 0.78125000 0.45312500
vn -1.00000000 0.00000000 0.00000000
v 0.13723272 0.12867647 0.29411765
vt 0.78125000 0.51562500
vn -1.00000000 0.00000000 0.00000000
v 0.13723272 0.12867647 0.73161765
vt 0.64062500 0.51562500
vn -1.00000000 0.00000000 0.00000000
v 0.13723272 0.30882353 0.73161765
vt 0.64062500 0.45312500
vn -1.00000000 0.00000000 0.00000000
f 85/85/85 86/86/86 87/87/87 88/88/88
usemtl texture_0
v 0.13723272 0.30882353 0.29411765
vt 0.71875000 0.78125000
vn 0.00000000 1.00000000 0.00000000
v 0.13723272 0.30882353 0.73161765
vt 0.71875000 0.64062500
vn 0.00000000 1.00000000 0.00000000
v 0.27877684 0.30882353 0.73161765
vt 0.76562500 0.64062500
vn 0.00000000 1.00000000 0.00000000
v 0.27877684 0.30882353 0.29411765
vt 0.76562500 0.78125000
vn 0.00000000 1.00000000 0.00000000
f 89/89/89 90/90/90 91/91/91 92/92/92
usemtl texture_0
v 0.13723272 0.12867647 0.73161765
vt 0.67187500 0.71875000
vn 0.00000000 -1.00000000 0.00000000
v 0.13723272 0.12867647 0.29411765
vt 0.67187500 0.85937500
vn 0.00000000 -1.00000000 0.00000000
v 0.27877684 0.12867647 0.29411765
vt 0.71875000 0.85937500
vn 0.00000000 -1.00000000 0.00000000
v 0.27877684 0.12867647 0.73161765
vt 0.71875000 0.71875000
vn 0.00000000 -1.00000000 0.00000000
f 93/93/93 94/94/94 95/95/95 96/96/96
usemtl texture_0
v 0.86534081 0.30882353 0.13970588
vt 0.76562500 0.76562500
vn 0.00000000 -0.00000000 -1.00000000
v 0.86534081 0.12867647 0.13970588
vt 0.76562500 0.82812500
vn 0.00000000 -0.00000000 -1.00000000
v 0.72637022 0.12867647 0.13970588
vt 0.81250000 0.82812500
vn 0.00000000 -0.00000000 -1.00000000
v 0.72637022 0.30882353 0.13970588
vt 0.81250000 0.76562500
vn 0.00000000 -0.00000000 -1.00000000
f 97/97/97 98/98/98 99/99/99 100/100/100
usemtl texture_0
v 0.86534081 0.30882353 0.29411765
vt 0.43750000 0.78125000
vn 1.00000000 0.00000000 0.00000000
v 0.86534081 0.12867647 0.29411765
vt 0.43750000 0.84375000
vn 1.00000000 0.00000000 0.00000000
v 0.86534081 0.12867647 0.13970588
vt 0.48437500 0.84375000
vn 1.00000000 0.00000000 0.00000000
v 0.86534081 0.30882353 0.13970588
vt 0.48437500 0.78125000
vn 1.00000000 0.00000000 0.00000000
f 101/101/101 102/102/102 103/103/103 104/104/104
usemtl texture_0
v 0.72637022 0.30882353 0.29411765
vt 0.78125000 0.45312500
vn 0.00000000 0.00000000 1.00000000
v 0.72637022 0.12867647 0.29411765
vt 0.78125000 0.51562500
vn 0.00000000 0.00000000 1.00000000
v 0.86534081 0.12867647 0.29411765
vt 0.82812500 0.51562500
vn 0.00000000 0.00000000 1.00000000
v 0.86534081 0.30882353 0.29411765
vt 0.82812500 0.45312500
vn 0.00000000 0.00000000 1.00000000
f 105/105/105 106/106/106 107/107/107 108/108/108
usemtl texture_0
v 0.72637022 0.30882353 0.13970588
vt 0.48437500 0.78125000
vn -1.00000000 0.00000000 0.00000000
v 0.72637022 0.12867647 0.13970588
vt 0.48437500 0.84375000
vn -1.00000000 0.00000000 0.00000000
v 0.72637022 0.12867647 0.29411765
vt 0.53125000 0.84375000
vn -1.00000000 0.00000000 0.00000000
v 0.72637022 0.30882353 0.29411765
vt 0.53125000 0.78125000
vn -1.00000000 0.00000000 0.00000000
f 109/109/109 110/110/110 111/111/111 112/112/112
usemtl texture_0
v 0.72637022 0.30882353 0.13970588
vt 0.85937500 0.73437500
vn 0.00000000 1.00000000 0.00000000
v 0.72637022 0.30882353 0.29411765
vt 0.85937500 0.68750000
vn 0.00000000 1.00000000 0.00000000
v 0.86534081 0.30882353 0.29411765
vt 0.81250000 0.68750000
vn 0.00000000 1.00000000 0.00000000
v 0.86534081 0.30882353 0.13970588
vt 0.81250000 0.73437500
vn 0.00000000 1.00000000 0.00000000
f 113/113/113 114/114/114 115/115/115 116/116/116
usemtl texture_0
v 0.72637022 0.12867647 0.29411765
vt 0.85937500 0.73437500
vn 0.00000000 -1.00000000 0.00000000
v 0.72637022 0.12867647 0.13970588
vt 0.85937500 0.78125000
vn 0.00000000 -1.00000000 0.00000000
v 0.86534081 0.12867647 0.13970588
vt 0.81250000 0.78125000
vn 0.00000000 -1.00000000 0.00000000
v 0.86534081 0.12867647 0.29411765
vt 0.81250000 0.73437500
vn 0.00000000 -1.00000000 0.00000000
f 117/117/117 118/118/118 119/119/119 120/120/120
usemtl texture_0
v 0.27362978 0.30882353 0.13970588
vt 0.81250000 0.76562500
vn 0.00000000 -0.00000000 -1.00000000
v 0.27362978 0.12867647 0.13970588
vt 0.81250000 0.82812500
vn 0.00000000 -0.00000000 -1.00000000
v 0.13465919 0.12867647 0.13970588
vt 0.76562500 0.82812500
vn 0.00000000 -0.00000000 -1.00000000
v 0.13465919 0.30882353 0.13970588
vt 0.76562500 0.76562500
vn 0.00000000 -0.00000000 -1.00000000
f 121/121/121 122/122/122 123/123/123 124/124/124
usemtl texture_0
v 0.27362978 0.30882353 0.29411765
vt 0.53125000 0.78125000
vn 1.00000000 0.00000000 0.00000000
v 0.27362978 0.12867647 0.29411765
vt 0.53125000 0.84375000
vn 1.00000000 0.00000000 0.00000000
v 0.27362978 0.12867647 0.13970588
vt 0.48437500 0.84375000
vn 1.00000000 0.00000000 0.00000000
v 0.27362978 0.30882353 0.13970588
vt 0.48437500 0.78125000
vn 1.00000000 0.00000000 0.00000000
f 125/125/125 126/126/126 127/127/127 128/128/128
usemtl texture_0
v 0.13465919 0.30882353 0.29411765
vt 0.82812500 0.45312500
vn 0.00000000 0.00000000 1.00000000
v 0.13465919 0.12867647 0.29411765
vt 0.82812500 0.51562500
vn 0.00000000 0.00000000 1.00000000
v 0.27362978 0.12867647 0.29411765
vt 0.78125000 0.51562500
vn 0.00000000 0.00000000 1.00000000
v 0.27362978 0.30882353 0.29411765
vt 0.78125000 0.45312500
vn 0.00000000 0.00000000 1.00000000
f 129/129/129 130/130/130 131/131/131 132/132/132
usemtl texture_0
v 0.13465919 0.30882353 0.13970588
vt 0.48437500 0.78125000
vn -1.00000000 0.00000000 0.00000000
v 0.13465919 0.12867647 0.13970588
vt 0.48437500 0.84375000
vn -1.00000000 0.00000000 0.00000000
v 0.13465919 0.12867647 0.29411765
vt 0.43750000 0.84375000
vn -1.00000000 0.00000000 0.00000000
v 0.13465919 0.30882353 0.29411765
vt 0.43750000 0.78125000
vn -1.00000000 0.00000000 0.00000000
f 133/133/133 134/134/134 135/135/135 136/136/136
usemtl texture_0
v 0.13465919 0.30882353 0.13970588
vt 0.81250000 0.73437500
vn 0.00000000 1.00000000 0.00000000
v 0.13465919 0.30882353 0.29411765
vt 0.81250000 0.68750000
vn 0.00000000 1.00000000 0.00000000
v 0.27362978 0.30882353 0.29411765
vt 0.85937500 0.68750000
vn 0.00000000 1.00000000 0.00000000
v 0.27362978 0.30882353 0.13970588
vt 0.85937500 0.73437500
vn 0.00000000 1.00000000 0.00000000
f 137/137/137 138/138/138 139/139/139 140/140/140
usemtl texture_0
v 0.13465919 0.12867647 0.29411765
vt 0.81250000 0.73437500
vn 0.00000000 -1.00000000 0.00000000
v 0.13465919 0.12867647 0.13970588
vt 0.81250000 0.78125000
vn 0.00000000 -1.00000000 0.00000000
v 0.27362978 0.12867647 0.13970588
vt 0.85937500 0.78125000
vn 0.00000000 -1.00000000 0.00000000
v 0.27362978 0.12867647 0.29411765
vt 0.85937500 0.73437500
vn 0.00000000 -1.00000000 0.00000000
f 141/141/141 142/142/142 143/143/143 144/144/144
usemtl texture_0
v 0.86534081 0.30882353 0.73161765
vt 0.82812500 0.45312500
vn 0.00000000 -0.00000000 -1.00000000
v 0.86534081 0.12867647 0.73161765
vt 0.82812500 0.51562500
vn 0.00000000 -0.00000000 -1.00000000
v 0.72637022 0.12867647 0.73161765
vt 0.78125000 0.51562500
vn 0.00000000 -0.00000000 -1.00000000
v 0.72637022 0.30882353 0.73161765
vt 0.78125000 0.45312500
vn 0.00000000 -0.00000000 -1.00000000
f 145/145/145 146/146/146 147/147/147 148/148/148
usemtl texture_0
v 0.86534081 0.30882353 0.88602941
vt 0.48437500 0.78125000
vn 1.00000000 0.00000000 0.00000000
v 0.86534081 0.12867647 0.88602941
vt 0.48437500 0.84375000
vn 1.00000000 0.00000000 0.00000000
v 0.86534081 0.12867647 0.73161765
vt 0.43750000 0.84375000
vn 1.00000000 0.00000000 0.00000000
v 0.86534081 0.30882353 0.73161765
vt 0.43750000 0.78125000
vn 1.00000000 0.00000000 0.00000000
f 149/149/149 150/150/150 151/151/151 152/152/152
usemtl texture_0
v 0.72637022 0.30882353 0.88602941
vt 0.81250000 0.76562500
vn 0.00000000 0.00000000 1.00000000
v 0.72637022 0.12867647 0.88602941
vt 0.81250000 0.82812500
vn 0.00000000 0.00000000 1.00000000
v 0.86534081 0.12867647 0.88602941
vt 0.76562500 0.82812500
vn 0.00000000 0.00000000 1.00000000
v 0.86534081 0.30882353 0.88602941
vt 0.76562500 0.76562500
vn 0.00000000 0.00000000 1.00000000
f 153/153/153 154/154/154 155/155/155 156/156/156
usemtl texture_0
v 0.72637022 0.30882353 0.73161765
vt 0.53125000 0.78125000
vn -1.00000000 0.00000000 0.00000000
v 0.72637022 0.12867647 0.73161765
vt 0.53125000 0.84375000
vn -1.00000000 0.00000000 0.00000000
v 0.72637022 0.12867647 0.88602941
vt 0.48437500 0.84375000
vn -1.00000000 0.00000000 0.00000000
v 0.72637022 0.30882353 0.88602941
vt 0.48437500 0.78125000
vn -1.00000000 0.00000000 0.00000000
f 157/157/157 158/158/158 159/159/159 160/160/160
usemtl texture_0
v 0.72637022 0.30882353 0.73161765
vt 0.85937500 0.68750000
vn 0.00000000 1.00000000 0.00000000
v 0.72637022 0.30882353 0.88602941
vt 0.85937500 0.73437500
vn 0.00000000 1.00000000 0.00000000
v 0.86534081 0.30882353 0.88602941
vt 0.81250000 0.73437500
vn 0.00000000 1.00000000 0.00000000
v 0.86534081 0.30882353 0.73161765
vt 0.81250000 0.68750000
vn 0.00000000 1.00000000 0.00000000
f 161/161/161 162/162/162 163/163/163 164/164/164
usemtl texture_0
v 0.72637022 0.12867647 0.88602941
vt 0.85937500 0.78125000
vn 0.00000000 -1.00000000 0.00000000
v 0.72637022 0.12867647 0.73161765
vt 0.85937500 0.73437500
vn 0.00000000 -1.00000000 0.00000000
v 0.86534081 0.12867647 0.73161765
vt 0.81250000 0.73437500
vn 0.00000000 -1.00000000 0.00000000
v 0.86534081 0.12867647 0.88602941
vt 0.81250000 0.78125000
vn 0.00000000 -1.00000000 0.00000000
f 165/165/165 166/166/166 167/167/167 168/168/168
usemtl texture_0
v 0.27362978 0.30882353 0.73161765
vt 0.78125000 0.45312500
vn 0.00000000 -0.00000000 -1.00000000
v 0.27362978 0.12867647 0.73161765
vt 0.78125000 0.51562500
vn 0.00000000 -0.00000000 -1.00000000
v 0.13465919 0.12867647 0.73161765
vt 0.82812500 0.51562500
vn 0.00000000 -0.00000000 -1.00000000
v 0.13465919 0.30882353 0.73161765
vt 0.82812500 0.45312500
vn 0.00000000 -0.00000000 -1.00000000
f 169/169/169 170/170/170 171/171/171 172/172/172
usemtl texture_0
v 0.27362978 0.30882353 0.88602941
vt 0.48437500 0.78125000
vn 1.00000000 0.00000000 0.00000000
v 0.27362978 0.12867647 0.88602941
vt 0.48437500 0.84375000
vn 1.00000000 0.00000000 0.00000000
v 0.27362978 0.12867647 0.73161765
vt 0.53125000 0.84375000
vn 1.00000000 0.00000000 0.00000000
v 0.27362978 0.30882353 0.73161765
vt 0.53125000 0.78125000
vn 1.00000000 0.00000000 0.00000000
f 173/173/173 174/174/174 175/175/175 176/176/176
usemtl texture_0
v 0.13465919 0.30882353 0.88602941
vt 0.76562500 0.76562500
vn 0.00000000 0.00000000 1.00000000
v 0.13465919 0.12867647 0.88602941
vt 0.76562500 0.82812500
vn 0.00000000 0.00000000 1.00000000
v 0.27362978 0.12867647 0.88602941
vt 0.81250000 0.82812500
vn 0.00000000 0.00000000 1.00000000
v 0.27362978 0.30882353 0.88602941
vt 0.81250000 0.76562500
vn 0.00000000 0.00000000 1.00000000
f 177/177/177 178/178/178 179/179/179 180/180/180
usemtl texture_0
v 0.13465919 0.30882353 0.73161765
vt 0.43750000 0.78125000
vn -1.00000000 0.00000000 0.00000000
v 0.13465919 0.12867647 0.73161765
vt 0.43750000 0.84375000
vn -1.00000000 0.00000000 0.00000000
v 0.13465919 0.12867647 0.88602941
vt 0.48437500 0.84375000
vn -1.00000000 0.00000000 0.00000000
v 0.13465919 0.30882353 0.88602941
vt 0.48437500 0.78125000
vn -1.00000000 0.00000000 0.00000000
f 181/181/181 182/182/182 183/183/183 184/184/184
usemtl texture_0
v 0.13465919 0.30882353 0.73161765
vt 0.81250000 0.68750000
vn 0.00000000 1.00000000 0.00000000
v 0.13465919 0.30882353 0.88602941
vt 0.81250000 0.73437500
vn 0.00000000 1.00000000 0.00000000
v 0.27362978 0.30882353 0.88602941
vt 0.85937500 0.73437500
vn 0.00000000 1.00000000 0.00000000
v 0.27362978 0.30882353 0.73161765
vt 0.85937500 0.68750000
vn 0.00000000 1.00000000 0.00000000
f 185/185/185 186/186/186 187/187/187 188/188/188
usemtl texture_0
v 0.13465919 0.12867647 0.88602941
vt 0.81250000 0.78125000
vn 0.00000000 -1.00000000 0.00000000
v 0.13465919 0.12867647 0.73161765
vt 0.81250000 0.73437500
vn 0.00000000 -1.00000000 0.00000000
v 0.27362978 0.12867647 0.73161765
vt 0.85937500 0.73437500
vn 0.00000000 -1.00000000 0.00000000
v 0.27362978 0.12867647 0.88602941
vt 0.85937500 0.78125000
vn 0.00000000 -1.00000000 0.00000000
f 189/189/189 190/190/190 191/191/191 192/192/192
usemtl texture_0
v 0.72637022 0.30882353 0.16544118
vt 0.43750000 0.65625000
vn 0.00000000 -0.00000000 -1.00000000
v 0.72637022 0.12867647 0.16544118
vt 0.43750000 0.71875000
vn 0.00000000 -0.00000000 -1.00000000
v 0.27342904 0.12867647 0.16544118
vt 0.57812500 0.71875000
vn 0.00000000 -0.00000000 -1.00000000
v 0.27342904 0.30882353 0.16544118
vt 0.57812500 0.65625000
vn 0.00000000 -0.00000000 -1.00000000
f 193/193/193 194/194/194 195/195/195 196/196/196
usemtl texture_0
v 0.72637022 0.30882353 0.26838235
vt 0.81250000 0.78125000
vn 1.00000000 0.00000000 0.00000000
v 0.72637022 0.12867647 0.26838235
vt 0.81250000 0.84375000
vn 1.00000000 0.00000000 0.00000000
v 0.72637022 0.12867647 0.16544118
vt 0.84375000 0.84375000
vn 1.00000000 0.00000000 0.00000000
v 0.72637022 0.30882353 0.16544118
vt 0.84375000 0.78125000
vn 1.00000000 0.00000000 0.00000000
f 197/197/197 198/198/198 199/199/199 200/200/200
usemtl texture_0
v 0.27342904 0.30882353 0.26838235
vt 0.57812500 0.65625000
vn 0.00000000 0.00000000 1.00000000
v 0.27342904 0.12867647 0.26838235
vt 0.57812500 0.71875000
vn 0.00000000 0.00000000 1.00000000
v 0.72637022 0.12867647 0.26838235
vt 0.71875000 0.71875000
vn 0.00000000 0.00000000 1.00000000
v 0.72637022 0.30882353 0.26838235
vt 0.71875000 0.65625000
vn 0.00000000 0.00000000 1.00000000
f 201/201/201 202/202/202 203/203/203 204/204/204
usemtl texture_0
v 0.27342904 0.30882353 0.16544118
vt 0.82812500 0.25000000
vn -1.00000000 0.00000000 0.00000000
v 0.27342904 0.12867647 0.16544118
vt 0.82812500 0.31250000
vn -1.00000000 0.00000000 0.00000000
v 0.27342904 0.12867647 0.26838235
vt 0.85937500 0.31250000
vn -1.00000000 0.00000000 0.00000000
v 0.27342904 0.30882353 0.26838235
vt 0.85937500 0.25000000
vn -1.00000000 0.00000000 0.00000000
f 205/205/205 206/206/206 207/207/207 208/208/208
usemtl texture_0
v 0.27342904 0.30882353 0.16544118
vt 0.57812500 0.78125000
vn 0.00000000 1.00000000 0.00000000
v 0.27342904 0.30882353 0.26838235
vt 0.57812500 0.75000000
vn 0.00000000 1.00000000 0.00000000
v 0.72637022 0.30882353 0.26838235
vt 0.43750000 0.75000000
vn 0.00000000 1.00000000 0.00000000
v 0.72637022 0.30882353 0.16544118
vt 0.43750000 0.78125000
vn 0.00000000 1.00000000 0.00000000
f 209/209/209 210/210/210 211/211/211 212/212/212
usemtl texture_0
v 0.27342904 0.12867647 0.26838235
vt 0.90625000 0.21875000
vn 0.00000000 -1.00000000 0.00000000
v 0.27342904 0.12867647 0.16544118
vt 0.90625000 0.25000000
vn 0.00000000 -1.00000000 0.00000000
v 0.72637022 0.12867647 0.16544118
vt 0.76562500 0.25000000
vn 0.00000000 -1.00000000 0.00000000
v 0.72637022 0.12867647 0.26838235
vt 0.76562500 0.21875000
vn 0.00000000 -1.00000000 0.00000000
f 213/213/213 214/214/214 215/215/215 216/216/216
usemtl texture_0
v 0.72637022 0.30882353 0.75735294
vt 0.71875000 0.65625000
vn 0.00000000 -0.00000000 -1.00000000
v 0.72637022 0.12867647 0.75735294
vt 0.71875000 0.71875000
vn 0.00000000 -0.00000000 -1.00000000
v 0.27342904 0.12867647 0.75735294
vt 0.57812500 0.71875000
vn 0.00000000 -0.00000000 -1.00000000
v 0.27342904 0.30882353 0.75735294
vt 0.57812500 0.65625000
vn 0.00000000 -0.00000000 -1.00000000
f 217/217/217 218/218/218 219/219/219 220/220/220
usemtl texture_0
v 0.72637022 0.30882353 0.86029412
vt 0.84375000 0.78125000
vn 1.00000000 0.00000000 0.00000000
v 0.72637022 0.12867647 0.86029412
vt 0.84375000 0.84375000
vn 1.00000000 0.00000000 0.00000000
v 0.72637022 0.12867647 0.75735294
vt 0.81250000 0.84375000
vn 1.00000000 0.00000000 0.00000000
v 0.72637022 0.30882353 0.75735294
vt 0.81250000 0.78125000
vn 1.00000000 0.00000000 0.00000000
f 221/221/221 222/222/222 223/223/223 224/224/224
usemtl texture_0
v 0.27342904 0.30882353 0.86029412
vt 0.57812500 0.65625000
vn 0.00000000 0.00000000 1.00000000
v 0.27342904 0.12867647 0.86029412
vt 0.57812500 0.71875000
vn 0.00000000 0.00000000 1.00000000
v 0.72637022 0.12867647 0.86029412
vt 0.43750000 0.71875000
vn 0.00000000 0.00000000 1.00000000
v 0.72637022 0.30882353 0.86029412
vt 0.43750000 0.65625000
vn 0.00000000 0.00000000 1.00000000
f 225/225/225 226/226/226 227/227/227 228/228/228
usemtl texture_0
v 0.27342904 0.30882353 0.75735294
vt 0.85937500 0.25000000
vn -1.00000000 0.00000000 0.00000000
v 0.27342904 0.12867647 0.75735294
vt 0.85937500 0.31250000
vn -1.00000000 0.00000000 0.00000000
v 0.27342904 0.12867647 0.86029412
vt 0.82812500 0.31250000
vn -1.00000000 0.00000000 0.00000000
v 0.27342904 0.30882353 0.86029412
vt 0.82812500 0.25000000
vn -1.00000000 0.00000000 0.00000000
f 229/229/229 230/230/230 231/231/231 232/232/232
usemtl texture_0
v 0.27342904 0.30882353 0.75735294
vt 0.57812500 0.75000000
vn 0.00000000 1.00000000 0.00000000
v 0.27342904 0.30882353 0.86029412
vt 0.57812500 0.78125000
vn 0.00000000 1.00000000 0.00000000
v 0.72637022 0.30882353 0.86029412
vt 0.43750000 0.78125000
vn 0.00000000 1.00000000 0.00000000
v 0.72637022 0.30882353 0.75735294
vt 0.43750000 0.75000000
vn 0.00000000 1.00000000 0.00000000
f 233/233/233 234/234/234 235/235/235 236/236/236
usemtl texture_0
v 0.27342904 0.12867647 0.86029412
vt 0.90625000 0.25000000
vn 0.00000000 -1.00000000 0.00000000
v 0.27342904 0.12867647 0.75735294
vt 0.90625000 0.21875000
vn 0.00000000 -1.00000000 0.00000000
v 0.72637022 0.12867647 0.75735294
vt 0.76562500 0.21875000
vn 0.00000000 -1.00000000 0.00000000
v 0.72637022 0.12867647 0.86029412
vt 0.76562500 0.25000000
vn 0.00000000 -1.00000000 0.00000000
f 237/237/237 238/238/238 239/239/239 240/240/240
usemtl texture_0
v 0.91681140 0.69512114 0.21626544
vt 0.06250000 0.73437500
vn 0.00000000 0.38268343 -0.92387953
v 0.91681140 0.38602910 0.08823532
vt 0.06250000 0.84375000
vn 0.00000000 0.38268343 -0.92387953
v 0.77784081 0.38602910 0.08823532
vt 0.10937500 0.84375000
vn 0.00000000 0.38268343 -0.92387953
v 0.77784081 0.69512114 0.21626544
vt 0.10937500 0.73437500
vn 0.00000000 0.38268343 -0.92387953
f 241/241/241 242/242/242 243/243/243 244/244/244
usemtl texture_0
v 0.91681140 0.63603032 0.35892331
vt 0.10937500 0.73437500
vn 1.00000000 0.00000000 0.00000000
v 0.91681140 0.32693827 0.23089319
vt 0.10937500 0.84375000
vn 1.00000000 0.00000000 0.00000000
v 0.91681140 0.38602910 0.08823532
vt 0.15625000 0.84375000
vn 1.00000000 0.00000000 0.00000000
v 0.91681140 0.69512114 0.21626544
vt 0.15625000 0.73437500
vn 1.00000000 0.00000000 0.00000000
f 245/245/245 246/246/246 247/247/247 248/248/248
usemtl texture_0
v 0.77784081 0.63603032 0.35892331
vt 0.15625000 0.73437500
vn 0.00000000 -0.38268343 0.92387953
v 0.77784081 0.32693827 0.23089319
vt 0.15625000 0.84375000
vn 0.00000000 -0.38268343 0.92387953
v 0.91681140 0.32693827 0.23089319
vt 0.20312500 0.84375000
vn 0.00000000 -0.38268343 0.92387953
v 0.91681140 0.63603032 0.35892331
vt 0.20312500 0.73437500
vn 0.00000000 -0.38268343 0.92387953
f 249/249/249 250/250/250 251/251/251 252/252/252
usemtl texture_0
v 0.77784081 0.69512114 0.21626544
vt 0.20312500 0.73437500
vn -1.00000000 -0.00000000 0.00000000
v 0.77784081 0.38602910 0.08823532
vt 0.20312500 0.84375000
vn -1.00000000 -0.00000000 0.00000000
v 0.77784081 0.32693827 0.23089319
vt 0.25000000 0.84375000
vn -1.00000000 -0.00000000 0.00000000
v 0.77784081 0.63603032 0.35892331
vt 0.25000000 0.73437500
vn -1.00000000 -0.00000000 0.00000000
f 253/253/253 254/254/254 255/255/255 256/256/256
usemtl texture_0
v 0.77784081 0.69512114 0.21626544
vt 0.82812500 0.56250000
vn 0.00000000 0.92387953 0.38268343
v 0.77784081 0.63603032 0.35892331
vt 0.82812500 0.51562500
vn 0.00000000 0.92387953 0.38268343
v 0.91681140 0.63603032 0.35892331
vt 0.78125000 0.51562500
vn 0.00000000 0.92387953 0.38268343
v 0.91681140 0.69512114 0.21626544
vt 0.78125000 0.56250000
vn 0.00000000 0.92387953 0.38268343
f 257/257/257 258/258/258 259/259/259 260/260/260
usemtl texture_0
v 0.77784081 0.32693827 0.23089319
vt 0.39062500 0.81250000
vn 0.00000000 -0.92387953 -0.38268343
v 0.77784081 0.38602910 0.08823532
vt 0.39062500 0.85937500
vn 0.00000000 -0.92387953 -0.38268343
v 0.91681140 0.38602910 0.08823532
vt 0.34375000 0.85937500
vn 0.00000000 -0.92387953 -0.38268343
v 0.91681140 0.32693827 0.23089319
vt 0.34375000 0.81250000
vn 0.00000000 -0.92387953 -0.38268343
f 261/261/261 262/262/262 263/263/263 264/264/264
usemtl texture_0
v 0.91938493 0.69512162 0.21755824
vt 0.39062500 0.81250000
vn 0.00000000 -0.00000000 -1.00000000
v 0.91938493 0.54070985 0.21755824
vt 0.39062500 0.85937500
vn 0.00000000 -0.00000000 -1.00000000
v 0.77526728 0.54070985 0.21755824
vt 0.43750000 0.85937500
vn 0.00000000 -0.00000000 -1.00000000
v 0.77526728 0.69512162 0.21755824
vt 0.43750000 0.81250000
vn 0.00000000 -0.00000000 -1.00000000
f 265/265/265 266/266/266 267/267/267 268/268/268
usemtl texture_0
v 0.91938493 0.69512162 0.80947000
vt 0.64062500 0.26562500
vn 1.00000000 0.00000000 0.00000000
v 0.91938493 0.54070985 0.80947000
vt 0.64062500 0.31250000
vn 1.00000000 0.00000000 0.00000000
v 0.91938493 0.54070985 0.21755824
vt 0.82812500 0.31250000
vn 1.00000000 0.00000000 0.00000000
v 0.91938493 0.69512162 0.21755824
vt 0.82812500 0.26562500
vn 1.00000000 0.00000000 0.00000000
f 269/269/269 270/270/270 271/271/271 272/272/272
usemtl texture_0
v 0.77526728 0.69512162 0.80947000
vt 0.81250000 0.64062500
vn 0.00000000 0.00000000 1.00000000
v 0.77526728 0.54070985 0.80947000
vt 0.81250000 0.68750000
vn 0.00000000 0.00000000 1.00000000
v 0.91938493 0.54070985 0.80947000
vt 0.85937500 0.68750000
vn 0.00000000 0.00000000 1.00000000
v 0.91938493 0.69512162 0.80947000
vt 0.85937500 0.64062500
vn 0.00000000 0.00000000 1.00000000
f 273/273/273 274/274/274 275/275/275 276/276/276
usemtl texture_0
v 0.77526728 0.69512162 0.21755824
vt 0.64062500 0.31250000
vn -1.00000000 0.00000000 0.00000000
v 0.77526728 0.54070985 0.21755824
vt 0.64062500 0.35937500
vn -1.00000000 0.00000000 0.00000000
v 0.77526728 0.54070985 0.80947000
vt 0.82812500 0.35937500
vn -1.00000000 0.00000000 0.00000000
v 0.77526728 0.69512162 0.80947000
vt 0.82812500 0.31250000
vn -1.00000000 0.00000000 0.00000000
f 277/277/277 278/278/278 279/279/279 280/280/280
usemtl texture_0
v 0.77526728 0.69512162 0.21755824
vt 0.39062500 0.81250000
vn 0.00000000 1.00000000 0.00000000
v 0.77526728 0.69512162 0.80947000
vt 0.39062500 0.62500000
vn 0.00000000 1.00000000 0.00000000
v 0.91938493 0.69512162 0.80947000
vt 0.34375000 0.62500000
vn 0.00000000 1.00000000 0.00000000
v 0.91938493 0.69512162 0.21755824
vt 0.34375000 0.81250000
vn 0.00000000 1.00000000 0.00000000
f 281/281/281 282/282/282 283/283/283 284/284/284
usemtl texture_0
v 0.77526728 0.54070985 0.80947000
vt 0.43750000 0.62500000
vn 0.00000000 -1.00000000 0.00000000
v 0.77526728 0.54070985 0.21755824
vt 0.43750000 0.81250000
vn 0.00000000 -1.00000000 0.00000000
v 0.91938493 0.54070985 0.21755824
vt 0.39062500 0.81250000
vn 0.00000000 -1.00000000 0.00000000
v 0.91938493 0.54070985 0.80947000
vt 0.39062500 0.62500000
vn 0.00000000 -1.00000000 0.00000000
f 285/285/285 286/286/286 287/287/287 288/288/288
usemtl texture_0
v 0.77784081 0.69019691 0.22815359
vt 0.50000000 0.00000000
vn 0.00000000 0.38268343 -0.92387953
v 0.77784081 0.38110486 0.10012348
vt 0.50000000 0.10937500
vn 0.00000000 0.38268343 -0.92387953
v 0.21938493 0.38110486 0.10012348
vt 0.67187500 0.10937500
vn 0.00000000 0.38268343 -0.92387953
v 0.21938493 0.69019691 0.22815359
vt 0.67187500 0.00000000
vn 0.00000000 0.38268343 -0.92387953
f 289/289/289 290/290/290 291/291/291 292/292/292
usemtl texture_0
v 0.77784081 0.64095456 0.34703515
vt 0.25000000 0.73437500
vn 1.00000000 0.00000000 0.00000000
v 0.77784081 0.33186251 0.21900503
vt 0.25000000 0.84375000
vn 1.00000000 0.00000000 0.00000000
v 0.77784081 0.38110486 0.10012348
vt 0.29687500 0.84375000
vn 1.00000000 0.00000000 0.00000000
v 0.77784081 0.69019691 0.22815359
vt 0.29687500 0.73437500
vn 1.00000000 0.00000000 0.00000000
f 293/293/293 294/294/294 295/295/295 296/296/296
usemtl texture_0
v 0.21938493 0.64095456 0.34703515
vt 0.50000000 0.10937500
vn 0.00000000 -0.38268343 0.92387953
v 0.21938493 0.33186251 0.21900503
vt 0.50000000 0.21875000
vn 0.00000000 -0.38268343 0.92387953
v 0.77784081 0.33186251 0.21900503
vt 0.67187500 0.21875000
vn 0.00000000 -0.38268343 0.92387953
v 0.77784081 0.64095456 0.34703515
vt 0.67187500 0.10937500
vn 0.00000000 -0.38268343 0.92387953
f 297/297/297 298/298/298 299/299/299 300/300/300
usemtl texture_0
v 0.21938493 0.69019691 0.22815359
vt 0.29687500 0.73437500
vn -1.00000000 0.00000000 0.00000000
v 0.21938493 0.38110486 0.10012348
vt 0.29687500 0.84375000
vn -1.00000000 0.00000000 0.00000000
v 0.21938493 0.33186251 0.21900503
vt 0.34375000 0.84375000
vn -1.00000000 0.00000000 0.00000000
v 0.21938493 0.64095456 0.34703515
vt 0.34375000 0.73437500
vn -1.00000000 0.00000000 0.00000000
f 301/301/301 302/302/302 303/303/303 304/304/304
usemtl texture_0
v 0.21938493 0.69019691 0.22815359
vt 0.84375000 0.04687500
vn 0.00000000 0.92387953 0.38268343
v 0.21938493 0.64095456 0.34703515
vt 0.84375000 0.00000000
vn 0.00000000 0.92387953 0.38268343
v 0.77784081 0.64095456 0.34703515
vt 0.67187500 0.00000000
vn 0.00000000 0.92387953 0.38268343
v 0.77784081 0.69019691 0.22815359
vt 0.67187500 0.04687500
vn 0.00000000 0.92387953 0.38268343
f 305/305/305 306/306/306 307/307/307 308/308/308
usemtl texture_0
v 0.21938493 0.33186251 0.21900503
vt 0.84375000 0.04687500
vn 0.00000000 -0.92387953 -0.38268343
v 0.21938493 0.38110486 0.10012348
vt 0.84375000 0.09375000
vn 0.00000000 -0.92387953 -0.38268343
v 0.77784081 0.38110486 0.10012348
vt 0.67187500 0.09375000
vn 0.00000000 -0.92387953 -0.38268343
v 0.77784081 0.33186251 0.21900503
vt 0.67187500 0.04687500
vn 0.00000000 -0.92387953 -0.38268343
f 309/309/309 310/310/310 311/311/311 312/312/312
usemtl texture_0
v 0.77526728 0.68740103 0.23042588
vt 0.67187500 0.09375000
vn 0.00000000 -0.00000000 -1.00000000
v 0.77526728 0.53298926 0.23042588
vt 0.67187500 0.14062500
vn 0.00000000 -0.00000000 -1.00000000
v 0.22453199 0.53298926 0.23042588
vt 0.84375000 0.14062500
vn 0.00000000 -0.00000000 -1.00000000
v 0.22453199 0.68740103 0.23042588
vt 0.84375000 0.09375000
vn 0.00000000 -0.00000000 -1.00000000
f 313/313/313 314/314/314 315/315/315 316/316/316
usemtl texture_0
v 0.77526728 0.68740103 0.79660235
vt 0.67187500 0.14062500
vn 1.00000000 0.00000000 0.00000000
v 0.77526728 0.53298926 0.79660235
vt 0.67187500 0.18750000
vn 1.00000000 0.00000000 0.00000000
v 0.77526728 0.53298926 0.23042588
vt 0.84375000 0.18750000
vn 1.00000000 0.00000000 0.00000000
v 0.77526728 0.68740103 0.23042588
vt 0.84375000 0.14062500
vn 1.00000000 0.00000000 0.00000000
f 317/317/317 318/318/318 319/319/319 320/320/320
usemtl texture_0
v 0.22453199 0.68740103 0.79660235
vt 0.00000000 0.68750000
vn 0.00000000 0.00000000 1.00000000
v 0.22453199 0.53298926 0.79660235
vt 0.00000000 0.73437500
vn 0.00000000 0.00000000 1.00000000
v 0.77526728 0.53298926 0.79660235
vt 0.17187500 0.73437500
vn 0.00000000 0.00000000 1.00000000
v 0.77526728 0.68740103 0.79660235
vt 0.17187500 0.68750000
vn 0.00000000 0.00000000 1.00000000
f 321/321/321 322/322/322 323/323/323 324/324/324
usemtl texture_0
v 0.22453199 0.68740103 0.23042588
vt 0.17187500 0.68750000
vn -1.00000000 0.00000000 0.00000000
v 0.22453199 0.53298926 0.23042588
vt 0.17187500 0.73437500
vn -1.00000000 0.00000000 0.00000000
v 0.22453199 0.53298926 0.79660235
vt 0.34375000 0.73437500
vn -1.00000000 0.00000000 0.00000000
v 0.22453199 0.68740103 0.79660235
vt 0.34375000 0.68750000
vn -1.00000000 0.00000000 0.00000000
f 325/325/325 326/326/326 327/327/327 328/328/328
usemtl texture_0
v 0.22453199 0.68740103 0.23042588
vt 0.64062500 0.43750000
vn 0.00000000 1.00000000 0.00000000
v 0.22453199 0.68740103 0.79660235
vt 0.64062500 0.26562500
vn 0.00000000 1.00000000 0.00000000
v 0.77526728 0.68740103 0.79660235
vt 0.46875000 0.26562500
vn 0.00000000 1.00000000 0.00000000
v 0.77526728 0.68740103 0.23042588
vt 0.46875000 0.43750000
vn 0.00000000 1.00000000 0.00000000
f 329/329/329 330/330/330 331/331/331 332/332/332
usemtl texture_0
v 0.22453199 0.53298926 0.79660235
vt 0.64062500 0.43750000
vn 0.00000000 -1.00000000 0.00000000
v 0.22453199 0.53298926 0.23042588
vt 0.64062500 0.60937500
vn 0.00000000 -1.00000000 0.00000000
v 0.77526728 0.53298926 0.23042588
vt 0.46875000 0.60937500
vn 0.00000000 -1.00000000 0.00000000
v 0.77526728 0.53298926 0.79660235
vt 0.46875000 0.43750000
vn 0.00000000 -1.00000000 0.00000000
f 333/333/333 334/334/334 335/335/335 336/336/336
usemtl texture_0
v 0.91681140 0.63603032 0.66681199
vt 0.20312500 0.73437500
vn 0.00000000 -0.38268343 -0.92387953
v 0.91681140 0.32693827 0.79484211
vt 0.20312500 0.84375000
vn 0.00000000 -0.38268343 -0.92387953
v 0.77784081 0.32693827 0.79484211
vt 0.15625000 0.84375000
vn 0.00000000 -0.38268343 -0.92387953
v 0.77784081 0.63603032 0.66681199
vt 0.15625000 0.73437500
vn 0.00000000 -0.38268343 -0.92387953
f 337/337/337 338/338/338 339/339/339 340/340/340
usemtl texture_0
v 0.91681140 0.69512114 0.80946986
vt 0.15625000 0.73437500
vn 1.00000000 0.00000000 0.00000000
v 0.91681140 0.38602910 0.93749997
vt 0.15625000 0.84375000
vn 1.00000000 0.00000000 0.00000000
v 0.91681140 0.32693827 0.79484211
vt 0.10937500 0.84375000
vn 1.00000000 0.00000000 0.00000000
v 0.91681140 0.63603032 0.66681199
vt 0.10937500 0.73437500
vn 1.00000000 0.00000000 0.00000000
f 341/341/341 342/342/342 343/343/343 344/344/344
usemtl texture_0
v 0.77784081 0.69512114 0.80946986
vt 0.10937500 0.73437500
vn 0.00000000 0.38268343 0.92387953
v 0.77784081 0.38602910 0.93749997
vt 0.10937500 0.84375000
vn 0.00000000 0.38268343 0.92387953
v 0.91681140 0.38602910 0.93749997
vt 0.06250000 0.84375000
vn 0.00000000 0.38268343 0.92387953
v 0.91681140 0.69512114 0.80946986
vt 0.06250000 0.73437500
vn 0.00000000 0.38268343 0.92387953
f 345/345/345 346/346/346 347/347/347 348/348/348
usemtl texture_0
v 0.77784081 0.63603032 0.66681199
vt 0.25000000 0.73437500
vn -1.00000000 0.00000000 0.00000000
v 0.77784081 0.32693827 0.79484211
vt 0.25000000 0.84375000
vn -1.00000000 0.00000000 0.00000000
v 0.77784081 0.38602910 0.93749997
vt 0.20312500 0.84375000
vn -1.00000000 0.00000000 0.00000000
v 0.77784081 0.69512114 0.80946986
vt 0.20312500 0.73437500
vn -1.00000000 0.00000000 0.00000000
f 349/349/349 350/350/350 351/351/351 352/352/352
usemtl texture_0
v 0.77784081 0.63603032 0.66681199
vt 0.82812500 0.51562500
vn 0.00000000 0.92387953 -0.38268343
v 0.77784081 0.69512114 0.80946986
vt 0.82812500 0.56250000
vn 0.00000000 0.92387953 -0.38268343
v 0.91681140 0.69512114 0.80946986
vt 0.78125000 0.56250000
vn 0.00000000 0.92387953 -0.38268343
v 0.91681140 0.63603032 0.66681199
vt 0.78125000 0.51562500
vn 0.00000000 0.92387953 -0.38268343
f 353/353/353 354/354/354 355/355/355 356/356/356
usemtl texture_0
v 0.77784081 0.38602910 0.93749997
vt 0.39062500 0.85937500
vn 0.00000000 -0.92387953 0.38268343
v 0.77784081 0.32693827 0.79484211
vt 0.39062500 0.81250000
vn 0.00000000 -0.92387953 0.38268343
v 0.91681140 0.32693827 0.79484211
vt 0.34375000 0.81250000
vn 0.00000000 -0.92387953 0.38268343
v 0.91681140 0.38602910 0.93749997
vt 0.34375000 0.85937500
vn 0.00000000 -0.92387953 0.38268343
f 357/357/357 358/358/358 359/359/359 360/360/360
usemtl texture_0
v 0.22215919 0.63603032 0.66681199
vt 0.15625000 0.73437500
vn 0.00000000 -0.38268343 -0.92387953
v 0.22215919 0.32693827 0.79484211
vt 0.15625000 0.84375000
vn 0.00000000 -0.38268343 -0.92387953
v 0.08318860 0.32693827 0.79484211
vt 0.20312500 0.84375000
vn 0.00000000 -0.38268343 -0.92387953
v 0.08318860 0.63603032 0.66681199
vt 0.20312500 0.73437500
vn 0.00000000 -0.38268343 -0.92387953
f 361/361/361 362/362/362 363/363/363 364/364/364
usemtl texture_0
v 0.22215919 0.69512114 0.80946986
vt 0.20312500 0.73437500
vn 1.00000000 0.00000000 0.00000000
v 0.22215919 0.38602910 0.93749997
vt 0.20312500 0.84375000
vn 1.00000000 0.00000000 0.00000000
v 0.22215919 0.32693827 0.79484211
vt 0.25000000 0.84375000
vn 1.00000000 0.00000000 0.00000000
v 0.22215919 0.63603032 0.66681199
vt 0.25000000 0.73437500
vn 1.00000000 0.00000000 0.00000000
f 365/365/365 366/366/366 367/367/367 368/368/368
usemtl texture_0
v 0.08318860 0.69512114 0.80946986
vt 0.06250000 0.73437500
vn 0.00000000 0.38268343 0.92387953
v 0.08318860 0.38602910 0.93749997
vt 0.06250000 0.84375000
vn 0.00000000 0.38268343 0.92387953
v 0.22215919 0.38602910 0.93749997
vt 0.10937500 0.84375000
vn 0.00000000 0.38268343 0.92387953
v 0.22215919 0.69512114 0.80946986
vt 0.10937500 0.73437500
vn 0.00000000 0.38268343 0.92387953
f 369/369/369 370/370/370 371/371/371 372/372/372
usemtl texture_0
v 0.08318860 0.63603032 0.66681199
vt 0.10937500 0.73437500
vn -1.00000000 0.00000000 0.00000000
v 0.08318860 0.32693827 0.79484211
vt 0.10937500 0.84375000
vn -1.00000000 0.00000000 0.00000000
v 0.08318860 0.38602910 0.93749997
vt 0.15625000 0.84375000
vn -1.00000000 0.00000000 0.00000000
v 0.08318860 0.69512114 0.80946986
vt 0.15625000 0.73437500
vn -1.00000000 0.00000000 0.00000000
f 373/373/373 374/374/374 375/375/375 376/376/376
usemtl texture_0
v 0.08318860 0.63603032 0.66681199
vt 0.78125000 0.51562500
vn 0.00000000 0.92387953 -0.38268343
v 0.08318860 0.69512114 0.80946986
vt 0.78125000 0.56250000
vn 0.00000000 0.92387953 -0.38268343
v 0.22215919 0.69512114 0.80946986
vt 0.82812500 0.56250000
vn 0.00000000 0.92387953 -0.38268343
v 0.22215919 0.63603032 0.66681199
vt 0.82812500 0.51562500
vn 0.00000000 0.92387953 -0.38268343
f 377/377/377 378/378/378 379/379/379 380/380/380
usemtl texture_0
v 0.08318860 0.38602910 0.93749997
vt 0.34375000 0.85937500
vn 0.00000000 -0.92387953 0.38268343
v 0.08318860 0.32693827 0.79484211
vt 0.34375000 0.81250000
vn 0.00000000 -0.92387953 0.38268343
v 0.22215919 0.32693827 0.79484211
vt 0.39062500 0.81250000
vn 0.00000000 -0.92387953 0.38268343
v 0.22215919 0.38602910 0.93749997
vt 0.39062500 0.85937500
vn 0.00000000 -0.92387953 0.38268343
f 381/381/381 382/382/382 383/383/383 384/384/384
usemtl texture_0
v 0.22473272 0.69512162 0.21755824
vt 0.43750000 0.81250000
vn 0.00000000 -0.00000000 -1.00000000
v 0.22473272 0.54070985 0.21755824
vt 0.43750000 0.85937500
vn 0.00000000 -0.00000000 -1.00000000
v 0.08061507 0.54070985 0.21755824
vt 0.39062500 0.85937500
vn 0.00000000 -0.00000000 -1.00000000
v 0.08061507 0.69512162 0.21755824
vt 0.39062500 0.81250000
vn 0.00000000 -0.00000000 -1.00000000
f 385/385/385 386/386/386 387/387/387 388/388/388
usemtl texture_0
v 0.22473272 0.69512162 0.80947000
vt 0.82812500 0.31250000
vn 1.00000000 0.00000000 0.00000000
v 0.22473272 0.54070985 0.80947000
vt 0.82812500 0.35937500
vn 1.00000000 0.00000000 0.00000000
v 0.22473272 0.54070985 0.21755824
vt 0.64062500 0.35937500
vn 1.00000000 0.00000000 0.00000000
v 0.22473272 0.69512162 0.21755824
vt 0.64062500 0.31250000
vn 1.00000000 0.00000000 0.00000000
f 389/389/389 390/390/390 391/391/391 392/392/392
usemtl texture_0
v 0.08061507 0.69512162 0.80947000
vt 0.85937500 0.64062500
vn 0.00000000 0.00000000 1.00000000
v 0.08061507 0.54070985 0.80947000
vt 0.85937500 0.68750000
vn 0.00000000 0.00000000 1.00000000
v 0.22473272 0.54070985 0.80947000
vt 0.81250000 0.68750000
vn 0.00000000 0.00000000 1.00000000
v 0.22473272 0.69512162 0.80947000
vt 0.81250000 0.64062500
vn 0.00000000 0.00000000 1.00000000
f 393/393/393 394/394/394 395/395/395 396/396/396
usemtl texture_0
v 0.08061507 0.69512162 0.21755824
vt 0.82812500 0.26562500
vn -1.00000000 0.00000000 0.00000000
v 0.08061507 0.54070985 0.21755824
vt 0.82812500 0.31250000
vn -1.00000000 0.00000000 0.00000000
v 0.08061507 0.54070985 0.80947000
vt 0.64062500 0.31250000
vn -1.00000000 0.00000000 0.00000000
v 0.08061507 0.69512162 0.80947000
vt 0.64062500 0.26562500
vn -1.00000000 0.00000000 0.00000000
f 397/397/397 398/398/398 399/399/399 400/400/400
usemtl texture_0
v 0.08061507 0.69512162 0.21755824
vt 0.34375000 0.81250000
vn 0.00000000 1.00000000 0.00000000
v 0.08061507 0.69512162 0.80947000
vt 0.34375000 0.62500000
vn 0.00000000 1.00000000 0.00000000
v 0.22473272 0.69512162 0.80947000
vt 0.39062500 0.62500000
vn 0.00000000 1.00000000 0.00000000
v 0.22473272 0.69512162 0.21755824
vt 0.39062500 0.81250000
vn 0.00000000 1.00000000 0.00000000
f 401/401/401 402/402/402 403/403/403 404/404/404
usemtl texture_0
v 0.08061507 0.54070985 0.80947000
vt 0.39062500 0.62500000
vn 0.00000000 -1.00000000 0.00000000
v 0.08061507 0.54070985 0.21755824
vt 0.39062500 0.81250000
vn 0.00000000 -1.00000000 0.00000000
v 0.22473272 0.54070985 0.21755824
vt 0.43750000 0.81250000
vn 0.00000000 -1.00000000 0.00000000
v 0.22473272 0.54070985 0.80947000
vt 0.43750000 0.62500000
vn 0.00000000 -1.00000000 0.00000000
f 405/405/405 406/406/406 407/407/407 408/408/408
usemtl texture_0
v 0.22215919 0.69512114 0.21626544
vt 0.10937500 0.73437500
vn 0.00000000 0.38268343 -0.92387953
v 0.22215919 0.38602910 0.08823532
vt 0.10937500 0.84375000
vn 0.00000000 0.38268343 -0.92387953
v 0.08318860 0.38602910 0.08823532
vt 0.06250000 0.84375000
vn 0.00000000 0.38268343 -0.92387953
v 0.08318860 0.69512114 0.21626544
vt 0.06250000 0.73437500
vn 0.00000000 0.38268343 -0.92387953
f 409/409/409 410/410/410 411/411/411 412/412/412
usemtl texture_0
v 0.22215919 0.63603032 0.35892331
vt 0.25000000 0.73437500
vn 1.00000000 0.00000000 0.00000000
v 0.22215919 0.32693827 0.23089319
vt 0.25000000 0.84375000
vn 1.00000000 0.00000000 0.00000000
v 0.22215919 0.38602910 0.08823532
vt 0.20312500 0.84375000
vn 1.00000000 0.00000000 0.00000000
v 0.22215919 0.69512114 0.21626544
vt 0.20312500 0.73437500
vn 1.00000000 0.00000000 0.00000000
f 413/413/413 414/414/414 415/415/415 416/416/416
usemtl texture_0
v 0.08318860 0.63603032 0.35892331
vt 0.20312500 0.73437500
vn 0.00000000 -0.38268343 0.92387953
v 0.08318860 0.32693827 0.23089319
vt 0.20312500 0.84375000
vn 0.00000000 -0.38268343 0.92387953
v 0.22215919 0.32693827 0.23089319
vt 0.15625000 0.84375000
vn 0.00000000 -0.38268343 0.92387953
v 0.22215919 0.63603032 0.35892331
vt 0.15625000 0.73437500
vn 0.00000000 -0.38268343 0.92387953
f 417/417/417 418/418/418 419/419/419 420/420/420
usemtl texture_0
v 0.08318860 0.69512114 0.21626544
vt 0.15625000 0.73437500
vn -1.00000000 -0.00000000 0.00000000
v 0.08318860 0.38602910 0.08823532
vt 0.15625000 0.84375000
vn -1.00000000 -0.00000000 0.00000000
v 0.08318860 0.32693827 0.23089319
vt 0.10937500 0.84375000
vn -1.00000000 -0.00000000 0.00000000
v 0.08318860 0.63603032 0.35892331
vt 0.10937500 0.73437500
vn -1.00000000 -0.00000000 0.00000000
f 421/421/421 422/422/422 423/423/423 424/424/424
usemtl texture_0
v 0.08318860 0.69512114 0.21626544
vt 0.78125000 0.56250000
vn 0.00000000 0.92387953 0.38268343
v 0.08318860 0.63603032 0.35892331
vt 0.78125000 0.51562500
vn 0.00000000 0.92387953 0.38268343
v 0.22215919 0.63603032 0.35892331
vt 0.82812500 0.51562500
vn 0.00000000 0.92387953 0.38268343
v 0.22215919 0.69512114 0.21626544
vt 0.82812500 0.56250000
vn 0.00000000 0.92387953 0.38268343
f 425/425/425 426/426/426 427/427/427 428/428/428
usemtl texture_0
v 0.08318860 0.32693827 0.23089319
vt 0.34375000 0.81250000
vn 0.00000000 -0.92387953 -0.38268343
v 0.08318860 0.38602910 0.08823532
vt 0.34375000 0.85937500
vn 0.00000000 -0.92387953 -0.38268343
v 0.22215919 0.38602910 0.08823532
vt 0.39062500 0.85937500
vn 0.00000000 -0.92387953 -0.38268343
v 0.22215919 0.32693827 0.23089319
vt 0.39062500 0.81250000
vn 0.00000000 -0.92387953 -0.38268343
f 429/429/429 430/430/430 431/431/431 432/432/432
usemtl texture_0
v 0.78298787 0.63815816 0.67772066
vt 0.67187500 0.10937500
vn 0.00000000 -0.38268343 -0.92387953
v 0.78298787 0.32906611 0.80575078
vt 0.67187500 0.21875000
vn 0.00000000 -0.38268343 -0.92387953
v 0.21938493 0.32906611 0.80575078
vt 0.50000000 0.21875000
vn 0.00000000 -0.38268343 -0.92387953
v 0.21938493 0.63815816 0.67772066
vt 0.50000000 0.10937500
vn 0.00000000 -0.38268343 -0.92387953
f 433/433/433 434/434/434 435/435/435 436/436/436
usemtl texture_0
v 0.78298787 0.68740051 0.79660221
vt 0.29687500 0.73437500
vn 1.00000000 0.00000000 0.00000000
v 0.78298787 0.37830846 0.92463233
vt 0.29687500 0.84375000
vn 1.00000000 0.00000000 0.00000000
v 0.78298787 0.32906611 0.80575078
vt 0.25000000 0.84375000
vn 1.00000000 0.00000000 0.00000000
v 0.78298787 0.63815816 0.67772066
vt 0.25000000 0.73437500
vn 1.00000000 0.00000000 0.00000000
f 437/437/437 438/438/438 439/439/439 440/440/440
usemtl texture_0
v 0.21938493 0.68740051 0.79660221
vt 0.67187500 0.00000000
vn 0.00000000 0.38268343 0.92387953
v 0.21938493 0.37830846 0.92463233
vt 0.67187500 0.10937500
vn 0.00000000 0.38268343 0.92387953
v 0.78298787 0.37830846 0.92463233
vt 0.50000000 0.10937500
vn 0.00000000 0.38268343 0.92387953
v 0.78298787 0.68740051 0.79660221
vt 0.50000000 0.00000000
vn 0.00000000 0.38268343 0.92387953
f 441/441/441 442/442/442 443/443/443 444/444/444
usemtl texture_0
v 0.21938493 0.63815816 0.67772066
vt 0.34375000 0.73437500
vn -1.00000000 0.00000000 0.00000000
v 0.21938493 0.32906611 0.80575078
vt 0.34375000 0.84375000
vn -1.00000000 0.00000000 0.00000000
v 0.21938493 0.37830846 0.92463233
vt 0.29687500 0.84375000
vn -1.00000000 0.00000000 0.00000000
v 0.21938493 0.68740051 0.79660221
vt 0.29687500 0.73437500
vn -1.00000000 0.00000000 0.00000000
f 445/445/445 446/446/446 447/447/447 448/448/448
usemtl texture_0
v 0.21938493 0.63815816 0.67772066
vt 0.84375000 0.00000000
vn 0.00000000 0.92387953 -0.38268343
v 0.21938493 0.68740051 0.79660221
vt 0.84375000 0.04687500
vn 0.00000000 0.92387953 -0.38268343
v 0.78298787 0.68740051 0.79660221
vt 0.67187500 0.04687500
vn 0.00000000 0.92387953 -0.38268343
v 0.78298787 0.63815816 0.67772066
vt 0.67187500 0.00000000
vn 0.00000000 0.92387953 -0.38268343
f 449/449/449 450/450/450 451/451/451 452/452/452
usemtl texture_0
v 0.21938493 0.37830846 0.92463233
vt 0.84375000 0.09375000
vn 0.00000000 -0.92387953 0.38268343
v 0.21938493 0.32906611 0.80575078
vt 0.84375000 0.04687500
vn 0.00000000 -0.92387953 0.38268343
v 0.78298787 0.32906611 0.80575078
vt 0.67187500 0.04687500
vn 0.00000000 -0.92387953 0.38268343
v 0.78298787 0.37830846 0.92463233
vt 0.67187500 0.09375000
vn 0.00000000 -0.92387953 0.38268343
f 453/453/453 454/454/454 455/455/455 456/456/456
usemtl texture_0
v 0.21186507 0.54070985 0.21755824
vt 0.85937500 0.31250000
vn 0.00000000 -0.00000000 -1.00000000
v 0.21186507 0.41203338 0.21755824
vt 0.85937500 0.35937500
vn 0.00000000 -0.00000000 -1.00000000
v 0.09348272 0.41203338 0.21755824
vt 0.82812500 0.35937500
vn 0.00000000 -0.00000000 -1.00000000
v 0.09348272 0.54070985 0.21755824
vt 0.82812500 0.31250000
vn 0.00000000 -0.00000000 -1.00000000
f 457/457/457 458/458/458 459/459/459 460/460/460
usemtl texture_0
v 0.21186507 0.54070985 0.80947000
vt 0.82812500 0.40625000
vn 1.00000000 0.00000000 0.00000000
v 0.21186507 0.41203338 0.80947000
vt 0.82812500 0.45312500
vn 1.00000000 0.00000000 0.00000000
v 0.21186507 0.41203338 0.21755824
vt 0.64062500 0.45312500
vn 1.00000000 0.00000000 0.00000000
v 0.21186507 0.54070985 0.21755824
vt 0.64062500 0.40625000
vn 1.00000000 0.00000000 0.00000000
f 461/461/461 462/462/462 463/463/463 464/464/464
usemtl texture_0
v 0.09348272 0.54070985 0.80947000
vt 0.85937500 0.35937500
vn 0.00000000 0.00000000 1.00000000
v 0.09348272 0.41203338 0.80947000
vt 0.85937500 0.40625000
vn 0.00000000 0.00000000 1.00000000
v 0.21186507 0.41203338 0.80947000
vt 0.82812500 0.40625000
vn 0.00000000 0.00000000 1.00000000
v 0.21186507 0.54070985 0.80947000
vt 0.82812500 0.35937500
vn 0.00000000 0.00000000 1.00000000
f 465/465/465 466/466/466 467/467/467 468/468/468
usemtl texture_0
v 0.09348272 0.54070985 0.21755824
vt 0.82812500 0.35937500
vn -1.00000000 0.00000000 0.00000000
v 0.09348272 0.41203338 0.21755824
vt 0.82812500 0.40625000
vn -1.00000000 0.00000000 0.00000000
v 0.09348272 0.41203338 0.80947000
vt 0.64062500 0.40625000
vn -1.00000000 0.00000000 0.00000000
v 0.09348272 0.54070985 0.80947000
vt 0.64062500 0.35937500
vn -1.00000000 0.00000000 0.00000000
f 469/469/469 470/470/470 471/471/471 472/472/472
usemtl texture_0
v 0.09348272 0.54070985 0.21755824
vt 0.00000000 0.92187500
vn 0.00000000 1.00000000 0.00000000
v 0.09348272 0.54070985 0.80947000
vt 0.00000000 0.73437500
vn 0.00000000 1.00000000 0.00000000
v 0.21186507 0.54070985 0.80947000
vt 0.03125000 0.73437500
vn 0.00000000 1.00000000 0.00000000
v 0.21186507 0.54070985 0.21755824
vt 0.03125000 0.92187500
vn 0.00000000 1.00000000 0.00000000
f 473/473/473 474/474/474 475/475/475 476/476/476
usemtl texture_0
v 0.09348272 0.41203338 0.80947000
vt 0.03125000 0.73437500
vn 0.00000000 -1.00000000 0.00000000
v 0.09348272 0.41203338 0.21755824
vt 0.03125000 0.92187500
vn 0.00000000 -1.00000000 0.00000000
v 0.21186507 0.41203338 0.21755824
vt 0.06250000 0.92187500
vn 0.00000000 -1.00000000 0.00000000
v 0.21186507 0.41203338 0.80947000
vt 0.06250000 0.73437500
vn 0.00000000 -1.00000000 0.00000000
f 477/477/477 478/478/478 479/479/479 480/480/480
usemtl texture_0
v 0.90651728 0.54070985 0.21755824
vt 0.82812500 0.31250000
vn 0.00000000 -0.00000000 -1.00000000
v 0.90651728 0.41203338 0.21755824
vt 0.82812500 0.35937500
vn 0.00000000 -0.00000000 -1.00000000
v 0.78813493 0.41203338 0.21755824
vt 0.85937500 0.35937500
vn 0.00000000 -0.00000000 -1.00000000
v 0.78813493 0.54070985 0.21755824
vt 0.85937500 0.31250000
vn 0.00000000 -0.00000000 -1.00000000
f 481/481/481 482/482/482 483/483/483 484/484/484
usemtl texture_0
v 0.90651728 0.54070985 0.80947000
vt 0.64062500 0.35937500
vn 1.00000000 0.00000000 0.00000000
v 0.90651728 0.41203338 0.80947000
vt 0.64062500 0.40625000
vn 1.00000000 0.00000000 0.00000000
v 0.90651728 0.41203338 0.21755824
vt 0.82812500 0.40625000
vn 1.00000000 0.00000000 0.00000000
v 0.90651728 0.54070985 0.21755824
vt 0.82812500 0.35937500
vn 1.00000000 0.00000000 0.00000000
f 485/485/485 486/486/486 487/487/487 488/488/488
usemtl texture_0
v 0.78813493 0.54070985 0.80947000
vt 0.82812500 0.35937500
vn 0.00000000 0.00000000 1.00000000
v 0.78813493 0.41203338 0.80947000
vt 0.82812500 0.40625000
vn 0.00000000 0.00000000 1.00000000
v 0.90651728 0.41203338 0.80947000
vt 0.85937500 0.40625000
vn 0.00000000 0.00000000 1.00000000
v 0.90651728 0.54070985 0.80947000
vt 0.85937500 0.35937500
vn 0.00000000 0.00000000 1.00000000
f 489/489/489 490/490/490 491/491/491 492/492/492
usemtl texture_0
v 0.78813493 0.54070985 0.21755824
vt 0.64062500 0.40625000
vn -1.00000000 0.00000000 0.00000000
v 0.78813493 0.41203338 0.21755824
vt 0.64062500 0.45312500
vn -1.00000000 0.00000000 0.00000000
v 0.78813493 0.41203338 0.80947000
vt 0.82812500 0.45312500
vn -1.00000000 0.00000000 0.00000000
v 0.78813493 0.54070985 0.80947000
vt 0.82812500 0.40625000
vn -1.00000000 0.00000000 0.00000000
f 493/493/493 494/494/494 495/495/495 496/496/496
usemtl texture_0
v 0.78813493 0.54070985 0.21755824
vt 0.03125000 0.92187500
vn 0.00000000 1.00000000 0.00000000
v 0.78813493 0.54070985 0.80947000
vt 0.03125000 0.73437500
vn 0.00000000 1.00000000 0.00000000
v 0.90651728 0.54070985 0.80947000
vt 0.00000000 0.73437500
vn 0.00000000 1.00000000 0.00000000
v 0.90651728 0.54070985 0.21755824
vt 0.00000000 0.92187500
vn 0.00000000 1.00000000 0.00000000
f 497/497/497 498/498/498 499/499/499 500/500/500
usemtl texture_0
v 0.78813493 0.41203338 0.80947000
vt 0.06250000 0.73437500
vn 0.00000000 -1.00000000 0.00000000
v 0.78813493 0.41203338 0.21755824
vt 0.06250000 0.92187500
vn 0.00000000 -1.00000000 0.00000000
v 0.90651728 0.41203338 0.21755824
vt 0.03125000 0.92187500
vn 0.00000000 -1.00000000 0.00000000
v 0.90651728 0.41203338 0.80947000
vt 0.03125000 0.73437500
vn 0.00000000 -1.00000000 0.00000000
f 501/501/501 502/502/502 503/503/503 504/504/504
usemtl texture_0
v 0.57195846 0.41176471 0.06250000
vt 0.57812500 0.75000000
vn 0.00000000 -0.00000000 -1.00000000
v 0.57195846 0.18014706 0.06250000
vt 0.57812500 0.82812500
vn 0.00000000 -0.00000000 -1.00000000
v 0.42784081 0.18014706 0.06250000
vt 0.62500000 0.82812500
vn 0.00000000 -0.00000000 -1.00000000
v 0.42784081 0.41176471 0.06250000
vt 0.62500000 0.75000000
vn 0.00000000 -0.00000000 -1.00000000
f 505/505/505 506/506/506 507/507/507 508/508/508
usemtl texture_0
v 0.57195846 0.41176471 0.16544118
vt 0.53125000 0.78125000
vn 1.00000000 0.00000000 0.00000000
v 0.57195846 0.18014706 0.16544118
vt 0.53125000 0.85937500
vn 1.00000000 0.00000000 0.00000000
v 0.57195846 0.18014706 0.06250000
vt 0.56250000 0.85937500
vn 1.00000000 0.00000000 0.00000000
v 0.57195846 0.41176471 0.06250000
vt 0.56250000 0.78125000
vn 1.00000000 0.00000000 0.00000000
f 509/509/509 510/510/510 511/511/511 512/512/512
usemtl texture_0
v 0.42784081 0.41176471 0.16544118
vt 0.62500000 0.75000000
vn 0.00000000 0.00000000 1.00000000
v 0.42784081 0.18014706 0.16544118
vt 0.62500000 0.82812500
vn 0.00000000 0.00000000 1.00000000
v 0.57195846 0.18014706 0.16544118
vt 0.67187500 0.82812500
vn 0.00000000 0.00000000 1.00000000
v 0.57195846 0.41176471 0.16544118
vt 0.67187500 0.75000000
vn 0.00000000 0.00000000 1.00000000
f 513/513/513 514/514/514 515/515/515 516/516/516
usemtl texture_0
v 0.42784081 0.41176471 0.06250000
vt 0.71875000 0.78125000
vn -1.00000000 0.00000000 0.00000000
v 0.42784081 0.18014706 0.06250000
vt 0.71875000 0.85937500
vn -1.00000000 0.00000000 0.00000000
v 0.42784081 0.18014706 0.16544118
vt 0.75000000 0.85937500
vn -1.00000000 0.00000000 0.00000000
v 0.42784081 0.41176471 0.16544118
vt 0.75000000 0.78125000
vn -1.00000000 0.00000000 0.00000000
f 517/517/517 518/518/518 519/519/519 520/520/520
usemtl texture_0
v 0.42784081 0.41176471 0.06250000
vt 0.87500000 0.43750000
vn 0.00000000 1.00000000 0.00000000
v 0.42784081 0.41176471 0.16544118
vt 0.87500000 0.40625000
vn 0.00000000 1.00000000 0.00000000
v 0.57195846 0.41176471 0.16544118
vt 0.82812500 0.40625000
vn 0.00000000 1.00000000 0.00000000
v 0.57195846 0.41176471 0.06250000
vt 0.82812500 0.43750000
vn 0.00000000 1.00000000 0.00000000
f 521/521/521 522/522/522 523/523/523 524/524/524
usemtl texture_0
v 0.42784081 0.18014706 0.16544118
vt 0.87500000 0.43750000
vn 0.00000000 -1.00000000 0.00000000
v 0.42784081 0.18014706 0.06250000
vt 0.87500000 0.46875000
vn 0.00000000 -1.00000000 0.00000000
v 0.57195846 0.18014706 0.06250000
vt 0.82812500 0.46875000
vn 0.00000000 -1.00000000 0.00000000
v 0.57195846 0.18014706 0.16544118
vt 0.82812500 0.43750000
vn 0.00000000 -1.00000000 0.00000000
f 525/525/525 526/526/526 527/527/527 528/528/528
