mtllib straw_hat.mtl
usemtl texture_0
v 0.68750000 0.14218750 0.31250000
vt 0.34375000 0.37500000
vn 0.00000000 -0.00000000 -1.00000000
v 0.68750000 0.01718750 0.31250000
vt 0.34375000 0.43750000
vn 0.00000000 -0.00000000 -1.00000000
v 0.31250000 0.01718750 0.31250000
vt 0.53125000 0.43750000
vn 0.00000000 -0.00000000 -1.00000000
v 0.31250000 0.14218750 0.31250000
vt 0.53125000 0.37500000
vn 0.00000000 -0.00000000 -1.00000000
f 1/1/1 2/2/2 3/3/3 4/4/4
usemtl texture_0
v 0.68750000 0.14218750 0.68750000
vt 0.34375000 0.43750000
vn 1.00000000 0.00000000 0.00000000
v 0.68750000 0.01718750 0.68750000
vt 0.34375000 0.50000000
vn 1.00000000 0.00000000 0.00000000
v 0.68750000 0.01718750 0.31250000
vt 0.53125000 0.50000000
vn 1.00000000 0.00000000 0.00000000
v 0.68750000 0.14218750 0.31250000
vt 0.53125000 0.43750000
vn 1.00000000 0.00000000 0.00000000
f 5/5/5 6/6/6 7/7/7 8/8/8
usemtl texture_0
v 0.31250000 0.14218750 0.68750000
vt 0.34375000 0.50000000
vn 0.00000000 0.00000000 1.00000000
v 0.31250000 0.01718750 0.68750000
vt 0.34375000 0.56250000
vn 0.00000000 0.00000000 1.00000000
v 0.68750000 0.01718750 0.68750000
vt 0.53125000 0.56250000
vn 0.00000000 0.00000000 1.00000000
v 0.68750000 0.14218750 0.68750000
vt 0.53125000 0.50000000
vn 0.00000000 0.00000000 1.00000000
f 9/9/9 10/10/10 11/11/11 12/12/12
usemtl texture_0
v 0.31250000 0.14218750 0.31250000
vt 0.53125000 0.00000000
vn -1.00000000 0.00000000 0.00000000
v 0.31250000 0.01718750 0.31250000
vt 0.53125000 0.06250000
vn -1.00000000 0.00000000 0.00000000
v 0.31250000 0.01718750 0.68750000
vt 0.71875000 0.06250000
vn -1.00000000 0.00000000 0.00000000
v 0.31250000 0.14218750 0.68750000
vt 0.71875000 0.00000000
vn -1.00000000 0.00000000 0.00000000
f 13/13/13 14/14/14 15/15/15 16/16/16
usemtl texture_0
v 0.31250000 0.14218750 0.31250000
vt 0.53125000 0.18750000
vn 0.00000000 1.00000000 0.00000000
v 0.31250000 0.14218750 0.68750000
vt 0.53125000 0.00000000
vn 0.00000000 1.00000000 0.00000000
v 0.68750000 0.14218750 0.68750000
vt 0.34375000 0.00000000
vn 0.00000000 1.00000000 0.00000000
v 0.68750000 0.14218750 0.31250000
vt 0.34375000 0.18750000
vn 0.00000000 1.00000000 0.00000000
f 17/17/17 18/18/18 19/19/19 20/20/20
usemtl texture_0
v 0.31250000 0.01718750 0.68750000
vt 0.53125000 0.18750000
vn 0.00000000 -1.00000000 0.00000000
v 0.31250000 0.01718750 0.31250000
vt 0.53125000 0.37500000
vn 0.00000000 -1.00000000 0.00000000
v 0.68750000 0.01718750 0.31250000
vt 0.34375000 0.37500000
vn 0.00000000 -1.00000000 0.00000000
v 0.68750000 0.01718750 0.68750000
vt 0.34375000 0.18750000
vn 0.00000000 -1.00000000 0.00000000
f 21/21/21 22/22/22 23/23/23 24/24/24
usemtl texture_0
v 0.82812500 0.01562500 0.17187500
vt 0.00000000 0.00000000
vn 0.00000000 -0.00000000 0.00000000
v 0.82812500 0.01562500 0.17187500
vt 0.00000000 0.00000000
vn 0.00000000 -0.00000000 0.00000000
v 0.17187500 0.01562500 0.17187500
vt 0.34375000 0.00000000
vn 0.00000000 -0.00000000 0.00000000
v 0.17187500 0.01562500 0.17187500
vt 0.34375000 0.00000000
vn 0.00000000 -0.00000000 0.00000000
f 25/25/25 26/26/26 27/27/27 28/28/28
usemtl texture_0
v 0.82812500 0.01562500 0.82812500
vt 0.00000000 0.00000000
vn -0.00000000 0.00000000 0.00000000
v 0.82812500 0.01562500 0.82812500
vt 0.00000000 0.00000000
vn -0.00000000 0.00000000 0.00000000
v 0.82812500 0.01562500 0.17187500
vt 0.34375000 0.00000000
vn -0.00000000 0.00000000 0.00000000
v 0.82812500 0.01562500 0.17187500
vt 0.34375000 0.00000000
vn -0.00000000 0.00000000 0.00000000
f 29/29/29 30/30/30 31/31/31 32/32/32
usemtl texture_0
v 0.17187500 0.01562500 0.82812500
vt 0.00000000 0.00000000
vn 0.00000000 0.00000000 0.00000000
v 0.17187500 0.01562500 0.82812500
vt 0.00000000 0.00000000
vn 0.00000000 0.00000000 0.00000000
v 0.82812500 0.01562500 0.82812500
vt 0.34375000 0.00000000
vn 0.00000000 0.00000000 0.00000000
v 0.82812500 0.01562500 0.82812500
vt 0.34375000 0.00000000
vn 0.00000000 0.00000000 0.00000000
f 33/33/33 34/34/34 35/35/35 36/36/36
usemtl texture_0
v 0.17187500 0.01562500 0.17187500
vt 0.00000000 0.00000000
vn 0.00000000 0.00000000 0.00000000
v 0.17187500 0.01562500 0.17187500
vt 0.00000000 0.00000000
vn 0.00000000 0.00000000 0.00000000
v 0.17187500 0.01562500 0.82812500
vt 0.34375000 0.00000000
vn 0.00000000 0.00000000 0.00000000
v 0.17187500 0.01562500 0.82812500
vt 0.34375000 0.00000000
vn 0.00000000 0.00000000 0.00000000
f 37/37/37 38/38/38 39/39/39 40/40/40
usemtl texture_0
v 0.17187500 0.01562500 0.17187500
vt 0.34375000 0.34375000
vn 0.00000000 1.00000000 0.00000000
v 0.17187500 0.01562500 0.82812500
vt 0.34375000 0.00000000
vn 0.00000000 1.00000000 0.00000000
v 0.82812500 0.01562500 0.82812500
vt 0.00000000 0.00000000
vn 0.00000000 1.00000000 0.00000000
v 0.82812500 0.01562500 0.17187500
vt 0.00000000 0.34375000
vn 0.00000000 1.00000000 0.00000000
f 41/41/41 42/42/42 43/43/43 44/44/44
usemtl texture_0
v 0.17187500 0.01562500 0.82812500
vt 0.34375000 0.34375000
vn 0.00000000 -1.00000000 0.00000000
v 0.17187500 0.01562500 0.17187500
vt 0.34375000 0.68750000
vn 0.00000000 -1.00000000 0.00000000
v 0.82812500 0.01562500 0.17187500
vt 0.00000000 0.68750000
vn 0.00000000 -1.00000000 0.00000000
v 0.82812500 0.01562500 0.82812500
vt 0.00000000 0.34375000
vn 0.00000000 -1.00000000 0.00000000
f 45/45/45 46/46/46 47/47/47 48/48/48
