mtllib void_staff.mtl
usemtl texture_0
v 0.56250000 0.62500000 0.45312500
vt 0.00000000 0.00000000
vn 0.00000000 -0.00000000 -1.00000000
v 0.56250000 -0.56250000 0.45312500
vt 0.00000000 0.14843750
vn 0.00000000 -0.00000000 -1.00000000
v 0.43750000 -0.56250000 0.45312500
vt 0.01562500 0.14843750
vn 0.00000000 -0.00000000 -1.00000000
v 0.43750000 0.62500000 0.45312500
vt 0.01562500 0.00000000
vn 0.00000000 -0.00000000 -1.00000000
f 1/1/1 2/2/2 3/3/3 4/4/4
usemtl texture_0
v 0.56250000 0.62500000 0.54687500
vt 0.01562500 0.00000000
vn 1.00000000 0.00000000 0.00000000
v 0.56250000 -0.56250000 0.54687500
vt 0.01562500 0.14843750
vn 1.00000000 0.00000000 0.00000000
v 0.56250000 -0.56250000 0.45312500
vt 0.03125000 0.14843750
vn 1.00000000 0.00000000 0.00000000
v 0.56250000 0.62500000 0.45312500
vt 0.03125000 0.00000000
vn 1.00000000 0.00000000 0.00000000
f 5/5/5 6/6/6 7/7/7 8/8/8
usemtl texture_0
v 0.43750000 0.62500000 0.54687500
vt 0.03125000 0.00000000
vn 0.00000000 0.00000000 1.00000000
v 0.43750000 -0.56250000 0.54687500
vt 0.03125000 0.14843750
vn 0.00000000 0.00000000 1.00000000
v 0.56250000 -0.56250000 0.54687500
vt 0.04687500 0.14843750
vn 0.00000000 0.00000000 1.00000000
v 0.56250000 0.62500000 0.54687500
vt 0.04687500 0.00000000
vn 0.00000000 0.00000000 1.00000000
f 9/9/9 10/10/10 11/11/11 12/12/12
usemtl texture_0
v 0.43750000 0.62500000 0.45312500
vt 0.04687500 0.00000000
vn -1.00000000 0.00000000 0.00000000
v 0.43750000 -0.56250000 0.45312500
vt 0.04687500 0.14843750
vn -1.00000000 0.00000000 0.00000000
v 0.43750000 -0.56250000 0.54687500
vt 0.06250000 0.14843750
vn -1.00000000 0.00000000 0.00000000
v 0.43750000 0.62500000 0.54687500
vt 0.06250000 0.00000000
vn -1.00000000 0.00000000 0.00000000
f 13/13/13 14/14/14 15/15/15 16/16/16
usemtl texture_0
v 0.43750000 0.62500000 0.45312500
vt 0.23437500 0.27343750
vn 0.00000000 1.00000000 0.00000000
v 0.43750000 0.62500000 0.54687500
vt 0.23437500 0.25781250
vn 0.00000000 1.00000000 0.00000000
v 0.56250000 0.62500000 0.54687500
vt 0.21875000 0.25781250
vn 0.00000000 1.00000000 0.00000000
v 0.56250000 0.62500000 0.45312500
vt 0.21875000 0.27343750
vn 0.00000000 1.00000000 0.00000000
f 17/17/17 18/18/18 19/19/19 20/20/20
usemtl texture_0
v 0.43750000 -0.56250000 0.54687500
vt 0.01562500 0.26562500
vn 0.00000000 -1.00000000 0.00000000
v 0.43750000 -0.56250000 0.45312500
vt 0.01562500 0.28125000
vn 0.00000000 -1.00000000 0.00000000
v 0.56250000 -0.56250000 0.45312500
vt 0.00000000 0.28125000
vn 0.00000000 -1.00000000 0.00000000
v 0.56250000 -0.56250000 0.54687500
vt 0.00000000 0.26562500
vn 0.00000000 -1.00000000 0.00000000
f 21/21/21 22/22/22 23/23/23 24/24/24
usemtl texture_0
v 0.61695723 0.67187500 0.43281250
vt 0.00000000 0.14843750
vn -0.00000000 0.00000000 -1.00000000
v 0.50000000 0.55491777 0.43281250
vt 0.00000000 0.17187500
vn -0.00000000 0.00000000 -1.00000000
v 0.38304277 0.67187500 0.43281250
vt 0.02343750 0.17187500
vn -0.00000000 0.00000000 -1.00000000
v 0.50000000 0.78883223 0.43281250
vt 0.02343750 0.14843750
vn -0.00000000 0.00000000 -1.00000000
f 25/25/25 26/26/26 27/27/27 28/28/28
usemtl texture_0
v 0.61695723 0.67187500 0.56562500
vt 0.04687500 0.14843750
vn 0.70710678 -0.70710678 0.00000000
v 0.50000000 0.55491777 0.56562500
vt 0.04687500 0.17187500
vn 0.70710678 -0.70710678 0.00000000
v 0.50000000 0.55491777 0.43281250
vt 0.06250000 0.17187500
vn 0.70710678 -0.70710678 0.00000000
v 0.61695723 0.67187500 0.43281250
vt 0.06250000 0.14843750
vn 0.70710678 -0.70710678 0.00000000
f 29/29/29 30/30/30 31/31/31 32/32/32
usemtl texture_0
v 0.50000000 0.78883223 0.56562500
vt 0.02343750 0.14843750
vn 0.00000000 0.00000000 1.00000000
v 0.38304277 0.67187500 0.56562500
vt 0.02343750 0.17187500
vn 0.00000000 0.00000000 1.00000000
v 0.50000000 0.55491777 0.56562500
vt 0.04687500 0.17187500
vn 0.00000000 0.00000000 1.00000000
v 0.61695723 0.67187500 0.56562500
vt 0.04687500 0.14843750
vn 0.00000000 0.00000000 1.00000000
f 33/33/33 34/34/34 35/35/35 36/36/36
usemtl texture_0
v 0.50000000 0.78883223 0.43281250
vt 0.12500000 0.23437500
vn -0.70710678 0.70710678 0.00000000
v 0.38304277 0.67187500 0.43281250
vt 0.12500000 0.25781250
vn -0.70710678 0.70710678 0.00000000
v 0.38304277 0.67187500 0.56562500
vt 0.14062500 0.25781250
vn -0.70710678 0.70710678 0.00000000
v 0.50000000 0.78883223 0.56562500
vt 0.14062500 0.23437500
vn -0.70710678 0.70710678 0.00000000
f 37/37/37 38/38/38 39/39/39 40/40/40
usemtl texture_0
v 0.50000000 0.78883223 0.43281250
vt 0.16406250 0.25000000
vn 0.70710678 0.70710678 -0.00000000
v 0.50000000 0.78883223 0.56562500
vt 0.16406250 0.23437500
vn 0.70710678 0.70710678 -0.00000000
v 0.61695723 0.67187500 0.56562500
vt 0.14062500 0.23437500
vn 0.70710678 0.70710678 -0.00000000
v 0.61695723 0.67187500 0.43281250
vt 0.14062500 0.25000000
vn 0.70710678 0.70710678 -0.00000000
f 41/41/41 42/42/42 43/43/43 44/44/44
usemtl texture_0
v 0.38304277 0.67187500 0.56562500
vt 0.21875000 0.23437500
vn -0.70710678 -0.70710678 -0.00000000
v 0.38304277 0.67187500 0.43281250
vt 0.21875000 0.25000000
vn -0.70710678 -0.70710678 -0.00000000
v 0.50000000 0.55491777 0.43281250
vt 0.19531250 0.25000000
vn -0.70710678 -0.70710678 -0.00000000
v 0.50000000 0.55491777 0.56562500
vt 0.19531250 0.23437500
vn -0.70710678 -0.70710678 -0.00000000
f 45/45/45 46/46/46 47/47/47 48/48/48
usemtl texture_0
v 0.61695750 1.04687500 0.43125000
vt 0.14062500 0.07812500
vn 0.00000000 -0.00000000 -1.00000000
v 0.61695750 0.67187500 0.43125000
vt 0.14062500 0.12500000
vn 0.00000000 -0.00000000 -1.00000000
v 0.38304250 0.67187500 0.43125000
vt 0.17187500 0.12500000
vn 0.00000000 -0.00000000 -1.00000000
v 0.38304250 1.04687500 0.43125000
vt 0.17187500 0.07812500
vn 0.00000000 -0.00000000 -1.00000000
f 49/49/49 50/50/50 51/51/51 52/52/52
usemtl texture_0
v 0.61695750 1.04687500 0.56875000
vt 0.02343750 0.18750000
vn 1.00000000 0.00000000 0.00000000
v 0.61695750 0.67187500 0.56875000
vt 0.02343750 0.23437500
vn 1.00000000 0.00000000 0.00000000
v 0.61695750 0.67187500 0.43125000
vt 0.03906250 0.23437500
vn 1.00000000 0.00000000 0.00000000
v 0.61695750 1.04687500 0.43125000
vt 0.03906250 0.18750000
vn 1.00000000 0.00000000 0.00000000
f 53/53/53 54/54/54 55/55/55 56/56/56
usemtl texture_0
v 0.38304250 1.04687500 0.56875000
vt 0.14062500 0.12500000
vn 0.00000000 0.00000000 1.00000000
v 0.38304250 0.67187500 0.56875000
vt 0.14062500 0.17187500
vn 0.00000000 0.00000000 1.00000000
v 0.61695750 0.67187500 0.56875000
vt 0.17187500 0.17187500
vn 0.00000000 0.00000000 1.00000000
v 0.61695750 1.04687500 0.56875000
vt 0.17187500 0.12500000
vn 0.00000000 0.00000000 1.00000000
f 57/57/57 58/58/58 59/59/59 60/60/60
usemtl texture_0
v 0.38304250 1.04687500 0.43125000
vt 0.03906250 0.18750000
vn -1.00000000 0.00000000 0.00000000
v 0.38304250 0.67187500 0.43125000
vt 0.03906250 0.23437500
vn -1.00000000 0.00000000 0.00000000
v 0.38304250 0.67187500 0.56875000
vt 0.05468750 0.23437500
vn -1.00000000 0.00000000 0.00000000
v 0.38304250 1.04687500 0.56875000
vt 0.05468750 0.18750000
vn -1.00000000 0.00000000 0.00000000
f 61/61/61 62/62/62 63/63/63 64/64/64
usemtl texture_0
v 0.38304250 1.04687500 0.43125000
vt 0.25000000 0.05468750
vn 0.00000000 1.00000000 0.00000000
v 0.38304250 1.04687500 0.56875000
vt 0.25000000 0.03906250
vn 0.00000000 1.00000000 0.00000000
v 0.61695750 1.04687500 0.56875000
vt 0.21875000 0.03906250
vn 0.00000000 1.00000000 0.00000000
v 0.61695750 1.04687500 0.43125000
vt 0.21875000 0.05468750
vn 0.00000000 1.00000000 0.00000000
f 65/65/65 66/66/66 67/67/67 68/68/68
usemtl texture_0
v 0.38304250 0.67187500 0.56875000
vt 0.25000000 0.05468750
vn 0.00000000 -1.00000000 0.00000000
v 0.38304250 0.67187500 0.43125000
vt 0.25000000 0.07031250
vn 0.00000000 -1.00000000 0.00000000
v 0.61695750 0.67187500 0.43125000
vt 0.21875000 0.07031250
vn 0.00000000 -1.00000000 0.00000000
v 0.61695750 0.67187500 0.56875000
vt 0.21875000 0.05468750
vn 0.00000000 -1.00000000 0.00000000
f 69/69/69 70/70/70 71/71/71 72/72/72
usemtl texture_0
v 0.45453834 0.98437500 0.37940824
vt 0.07031250 0.21875000
vn 0.70710678 0.00000000 -0.70710678
v 0.45453834 0.85937500 0.37940824
vt 0.07031250 0.23437500
vn 0.70710678 0.00000000 -0.70710678
v 0.28913545 0.85937500 0.21400536
vt 0.10156250 0.23437500
vn 0.70710678 0.00000000 -0.70710678
v 0.28913545 0.98437500 0.21400536
vt 0.10156250 0.21875000
vn 0.70710678 0.00000000 -0.70710678
f 73/73/73 74/74/74 75/75/75 76/76/76
usemtl texture_0
v 0.37940824 0.98437500 0.45453834
vt 0.26562500 0.00000000
vn 0.70710678 0.00000000 0.70710678
v 0.37940824 0.85937500 0.45453834
vt 0.26562500 0.01562500
vn 0.70710678 0.00000000 0.70710678
v 0.45453834 0.85937500 0.37940824
vt 0.28125000 0.01562500
vn 0.70710678 0.00000000 0.70710678
v 0.45453834 0.98437500 0.37940824
vt 0.28125000 0.00000000
vn 0.70710678 0.00000000 0.70710678
f 77/77/77 78/78/78 79/79/79 80/80/80
usemtl texture_0
v 0.21400536 0.98437500 0.28913545
vt 0.21875000 0.07031250
vn -0.70710678 0.00000000 0.70710678
v 0.21400536 0.85937500 0.28913545
vt 0.21875000 0.08593750
vn -0.70710678 0.00000000 0.70710678
v 0.37940824 0.85937500 0.45453834
vt 0.25000000 0.08593750
vn -0.70710678 0.00000000 0.70710678
v 0.37940824 0.98437500 0.45453834
vt 0.25000000 0.07031250
vn -0.70710678 0.00000000 0.70710678
f 81/81/81 82/82/82 83/83/83 84/84/84
usemtl texture_0
v 0.28913545 0.98437500 0.21400536
vt 0.01562500 0.26562500
vn -0.70710678 -0.00000000 -0.70710678
v 0.28913545 0.85937500 0.21400536
vt 0.01562500 0.28125000
vn -0.70710678 -0.00000000 -0.70710678
v 0.21400536 0.85937500 0.28913545
vt 0.03125000 0.28125000
vn -0.70710678 -0.00000000 -0.70710678
v 0.21400536 0.98437500 0.28913545
vt 0.03125000 0.26562500
vn -0.70710678 -0.00000000 -0.70710678
f 85/85/85 86/86/86 87/87/87 88/88/88
usemtl texture_0
v 0.28913545 0.98437500 0.21400536
vt 0.25000000 0.10156250
vn 0.00000000 1.00000000 -0.00000000
v 0.21400536 0.98437500 0.28913545
vt 0.25000000 0.08593750
vn 0.00000000 1.00000000 -0.00000000
v 0.37940824 0.98437500 0.45453834
vt 0.21875000 0.08593750
vn 0.00000000 1.00000000 -0.00000000
v 0.45453834 0.98437500 0.37940824
vt 0.21875000 0.10156250
vn 0.00000000 1.00000000 -0.00000000
f 89/89/89 90/90/90 91/91/91 92/92/92
usemtl texture_0
v 0.21400536 0.85937500 0.28913545
vt 0.25000000 0.12500000
vn 0.00000000 -1.00000000 0.00000000
v 0.28913545 0.85937500 0.21400536
vt 0.25000000 0.14062500
vn 0.00000000 -1.00000000 0.00000000
v 0.45453834 0.85937500 0.37940824
vt 0.21875000 0.14062500
vn 0.00000000 -1.00000000 0.00000000
v 0.37940824 0.85937500 0.45453834
vt 0.21875000 0.12500000
vn 0.00000000 -1.00000000 0.00000000
f 93/93/93 94/94/94 95/95/95 96/96/96
usemtl texture_0
v 0.28881019 0.98437500 0.21368009
vt 0.19531250 0.01562500
vn 0.70710678 0.00000000 -0.70710678
v 0.28881019 0.79687500 0.21368009
vt 0.19531250 0.03906250
vn 0.70710678 0.00000000 -0.70710678
v 0.16760148 0.79687500 0.09247138
vt 0.21875000 0.03906250
vn 0.70710678 0.00000000 -0.70710678
v 0.16760148 0.98437500 0.09247138
vt 0.21875000 0.01562500
vn 0.70710678 0.00000000 -0.70710678
f 97/97/97 98/98/98 99/99/99 100/100/100
usemtl texture_0
v 0.21368009 0.98437500 0.28881019
vt 0.21875000 0.23437500
vn 0.70710678 0.00000000 0.70710678
v 0.21368009 0.79687500 0.28881019
vt 0.21875000 0.25781250
vn 0.70710678 0.00000000 0.70710678
v 0.28881019 0.79687500 0.21368009
vt 0.23437500 0.25781250
vn 0.70710678 0.00000000 0.70710678
v 0.28881019 0.98437500 0.21368009
vt 0.23437500 0.23437500
vn 0.70710678 0.00000000 0.70710678
f 101/101/101 102/102/102 103/103/103 104/104/104
usemtl texture_0
v 0.09247138 0.98437500 0.16760148
vt 0.19531250 0.03906250
vn -0.70710678 0.00000000 0.70710678
v 0.09247138 0.79687500 0.16760148
vt 0.19531250 0.06250000
vn -0.70710678 0.00000000 0.70710678
v 0.21368009 0.79687500 0.28881019
vt 0.21875000 0.06250000
vn -0.70710678 0.00000000 0.70710678
v 0.21368009 0.98437500 0.28881019
vt 0.21875000 0.03906250
vn -0.70710678 0.00000000 0.70710678
f 105/105/105 106/106/106 107/107/107 108/108/108
usemtl texture_0
v 0.16760148 0.98437500 0.09247138
vt 0.23437500 0.21875000
vn -0.70710678 -0.00000000 -0.70710678
v 0.16760148 0.79687500 0.09247138
vt 0.23437500 0.24218750
vn -0.70710678 -0.00000000 -0.70710678
v 0.09247138 0.79687500 0.16760148
vt 0.25000000 0.24218750
vn -0.70710678 -0.00000000 -0.70710678
v 0.09247138 0.98437500 0.16760148
vt 0.25000000 0.21875000
vn -0.70710678 -0.00000000 -0.70710678
f 109/109/109 110/110/110 111/111/111 112/112/112
usemtl texture_0
v 0.16760148 0.98437500 0.09247138
vt 0.26562500 0.01562500
vn 0.00000000 1.00000000 -0.00000000
v 0.09247138 0.98437500 0.16760148
vt 0.26562500 0.00000000
vn 0.00000000 1.00000000 -0.00000000
v 0.21368009 0.98437500 0.28881019
vt 0.24218750 0.00000000
vn 0.00000000 1.00000000 -0.00000000
v 0.28881019 0.98437500 0.21368009
vt 0.24218750 0.01562500
vn 0.00000000 1.00000000 -0.00000000
f 113/113/113 114/114/114 115/115/115 116/116/116
usemtl texture_0
v 0.09247138 0.79687500 0.16760148
vt 0.26562500 0.01562500
vn 0.00000000 -1.00000000 0.00000000
v 0.16760148 0.79687500 0.09247138
vt 0.26562500 0.03125000
vn 0.00000000 -1.00000000 0.00000000
v 0.28881019 0.79687500 0.21368009
vt 0.24218750 0.03125000
vn 0.00000000 -1.00000000 0.00000000
v 0.21368009 0.79687500 0.28881019
vt 0.24218750 0.01562500
vn 0.00000000 -1.00000000 0.00000000
f 117/117/117 118/118/118 119/119/119 120/120/120
usemtl texture_0
v 0.57008250 1.12500000 0.41562500
vt 0.16406250 0.18750000
vn 0.00000000 -0.00000000 -1.00000000
v 0.57008250 0.84375000 0.41562500
vt 0.16406250 0.22656250
vn 0.00000000 -0.00000000 -1.00000000
v 0.42991750 0.84375000 0.41562500
vt 0.17968750 0.22656250
vn 0.00000000 -0.00000000 -1.00000000
v 0.42991750 1.12500000 0.41562500
vt 0.17968750 0.18750000
vn 0.00000000 -0.00000000 -1.00000000
f 121/121/121 122/122/122 123/123/123 124/124/124
usemtl texture_0
v 0.57008250 1.12500000 0.58437500
vt 0.17187500 0.12500000
vn 1.00000000 0.00000000 0.00000000
v 0.57008250 0.84375000 0.58437500
vt 0.17187500 0.16406250
vn 1.00000000 0.00000000 0.00000000
v 0.57008250 0.84375000 0.41562500
vt 0.19531250 0.16406250
vn 1.00000000 0.00000000 0.00000000
v 0.57008250 1.12500000 0.41562500
vt 0.19531250 0.12500000
vn 1.00000000 0.00000000 0.00000000
f 125/125/125 126/126/126 127/127/127 128/128/128
usemtl texture_0
v 0.42991750 1.12500000 0.58437500
vt 0.18750000 0.16406250
vn 0.00000000 0.00000000 1.00000000
v 0.42991750 0.84375000 0.58437500
vt 0.18750000 0.20312500
vn 0.00000000 0.00000000 1.00000000
v 0.57008250 0.84375000 0.58437500
vt 0.20312500 0.20312500
vn 0.00000000 0.00000000 1.00000000
v 0.57008250 1.12500000 0.58437500
vt 0.20312500 0.16406250
vn 0.00000000 0.00000000 1.00000000
f 129/129/129 130/130/130 131/131/131 132/132/132
usemtl texture_0
v 0.42991750 1.12500000 0.41562500
vt 0.00000000 0.18750000
vn -1.00000000 0.00000000 0.00000000
v 0.42991750 0.84375000 0.41562500
vt 0.00000000 0.22656250
vn -1.00000000 0.00000000 0.00000000
v 0.42991750 0.84375000 0.58437500
vt 0.02343750 0.22656250
vn -1.00000000 0.00000000 0.00000000
v 0.42991750 1.12500000 0.58437500
vt 0.02343750 0.18750000
vn -1.00000000 0.00000000 0.00000000
f 133/133/133 134/134/134 135/135/135 136/136/136
usemtl texture_0
v 0.42991750 1.12500000 0.41562500
vt 0.25781250 0.12500000
vn 0.00000000 1.00000000 0.00000000
v 0.42991750 1.12500000 0.58437500
vt 0.25781250 0.10156250
vn 0.00000000 1.00000000 0.00000000
v 0.57008250 1.12500000 0.58437500
vt 0.24218750 0.10156250
vn 0.00000000 1.00000000 0.00000000
v 0.57008250 1.12500000 0.41562500
vt 0.24218750 0.12500000
vn 0.00000000 1.00000000 0.00000000
f 137/137/137 138/138/138 139/139/139 140/140/140
usemtl texture_0
v 0.42991750 0.84375000 0.58437500
vt 0.17968750 0.24218750
vn 0.00000000 -1.00000000 0.00000000
v 0.42991750 0.84375000 0.41562500
vt 0.17968750 0.26562500
vn 0.00000000 -1.00000000 0.00000000
v 0.57008250 0.84375000 0.41562500
vt 0.16406250 0.26562500
vn 0.00000000 -1.00000000 0.00000000
v 0.57008250 0.84375000 0.58437500
vt 0.16406250 0.24218750
vn 0.00000000 -1.00000000 0.00000000
f 141/141/141 142/142/142 143/143/143 144/144/144
usemtl texture_0
v 0.90752862 0.98437500 0.83239852
vt 0.19531250 0.06250000
vn 0.70710678 0.00000000 -0.70710678
v 0.90752862 0.79687500 0.83239852
vt 0.19531250 0.08593750
vn 0.70710678 0.00000000 -0.70710678
v 0.78631991 0.79687500 0.71118981
vt 0.21875000 0.08593750
vn 0.70710678 0.00000000 -0.70710678
v 0.78631991 0.98437500 0.71118981
vt 0.21875000 0.06250000
vn 0.70710678 0.00000000 -0.70710678
f 145/145/145 146/146/146 147/147/147 148/148/148
usemtl texture_0
v 0.83239852 0.98437500 0.90752862
vt 0.17968750 0.24218750
vn 0.70710678 0.00000000 0.70710678
v 0.83239852 0.79687500 0.90752862
vt 0.17968750 0.26562500
vn 0.70710678 0.00000000 0.70710678
v 0.90752862 0.79687500 0.83239852
vt 0.19531250 0.26562500
vn 0.70710678 0.00000000 0.70710678
v 0.90752862 0.98437500 0.83239852
vt 0.19531250 0.24218750
vn 0.70710678 0.00000000 0.70710678
f 149/149/149 150/150/150 151/151/151 152/152/152
usemtl texture_0
v 0.71118981 0.98437500 0.78631991
vt 0.19531250 0.08593750
vn -0.70710678 0.00000000 0.70710678
v 0.71118981 0.79687500 0.78631991
vt 0.19531250 0.10937500
vn -0.70710678 0.00000000 0.70710678
v 0.83239852 0.79687500 0.90752862
vt 0.21875000 0.10937500
vn -0.70710678 0.00000000 0.70710678
v 0.83239852 0.98437500 0.90752862
vt 0.21875000 0.08593750
vn -0.70710678 0.00000000 0.70710678
f 153/153/153 154/154/154 155/155/155 156/156/156
usemtl texture_0
v 0.78631991 0.98437500 0.71118981
vt 0.23437500 0.24218750
vn -0.70710678 -0.00000000 -0.70710678
v 0.78631991 0.79687500 0.71118981
vt 0.23437500 0.26562500
vn -0.70710678 -0.00000000 -0.70710678
v 0.71118981 0.79687500 0.78631991
vt 0.25000000 0.26562500
vn -0.70710678 -0.00000000 -0.70710678
v 0.71118981 0.98437500 0.78631991
vt 0.25000000 0.24218750
vn -0.70710678 -0.00000000 -0.70710678
f 157/157/157 158/158/158 159/159/159 160/160/160
usemtl texture_0
v 0.78631991 0.98437500 0.71118981
vt 0.02343750 0.26562500
vn 0.00000000 1.00000000 -0.00000000
v 0.71118981 0.98437500 0.78631991
vt 0.02343750 0.25000000
vn 0.00000000 1.00000000 -0.00000000
v 0.83239852 0.98437500 0.90752862
vt 0.00000000 0.25000000
vn 0.00000000 1.00000000 -0.00000000
v 0.90752862 0.98437500 0.83239852
vt 0.00000000 0.26562500
vn 0.00000000 1.00000000 -0.00000000
f 161/161/161 162/162/162 163/163/163 164/164/164
usemtl texture_0
v 0.71118981 0.79687500 0.78631991
vt 0.04687500 0.25000000
vn 0.00000000 -1.00000000 0.00000000
v 0.78631991 0.79687500 0.71118981
vt 0.04687500 0.26562500
vn 0.00000000 -1.00000000 0.00000000
v 0.90752862 0.79687500 0.83239852
vt 0.02343750 0.26562500
vn 0.00000000 -1.00000000 0.00000000
v 0.83239852 0.79687500 0.90752862
vt 0.02343750 0.25000000
vn 0.00000000 -1.00000000 0.00000000
f 165/165/165 166/166/166 167/167/167 168/168/168
usemtl texture_0
v 0.78599464 0.98437500 0.71086455
vt 0.20312500 0.21875000
vn 0.70710678 0.00000000 -0.70710678
v 0.78599464 0.85937500 0.71086455
vt 0.20312500 0.23437500
vn 0.70710678 0.00000000 -0.70710678
v 0.62059176 0.85937500 0.54546166
vt 0.23437500 0.23437500
vn 0.70710678 0.00000000 -0.70710678
v 0.62059176 0.98437500 0.54546166
vt 0.23437500 0.21875000
vn 0.70710678 0.00000000 -0.70710678
f 169/169/169 170/170/170 171/171/171 172/172/172
usemtl texture_0
v 0.71086455 0.98437500 0.78599464
vt 0.26562500 0.01562500
vn 0.70710678 0.00000000 0.70710678
v 0.71086455 0.85937500 0.78599464
vt 0.26562500 0.03125000
vn 0.70710678 0.00000000 0.70710678
v 0.78599464 0.85937500 0.71086455
vt 0.28125000 0.03125000
vn 0.70710678 0.00000000 0.70710678
v 0.78599464 0.98437500 0.71086455
vt 0.28125000 0.01562500
vn 0.70710678 0.00000000 0.70710678
f 173/173/173 174/174/174 175/175/175 176/176/176
usemtl texture_0
v 0.54546166 0.98437500 0.62059176
vt 0.22656250 0.14062500
vn -0.70710678 0.00000000 0.70710678
v 0.54546166 0.85937500 0.62059176
vt 0.22656250 0.15625000
vn -0.70710678 0.00000000 0.70710678
v 0.71086455 0.85937500 0.78599464
vt 0.25781250 0.15625000
vn -0.70710678 0.00000000 0.70710678
v 0.71086455 0.98437500 0.78599464
vt 0.25781250 0.14062500
vn -0.70710678 0.00000000 0.70710678
f 177/177/177 178/178/178 179/179/179 180/180/180
usemtl texture_0
v 0.62059176 0.98437500 0.54546166
vt 0.03125000 0.26562500
vn -0.70710678 -0.00000000 -0.70710678
v 0.62059176 0.85937500 0.54546166
vt 0.03125000 0.28125000
vn -0.70710678 -0.00000000 -0.70710678
v 0.54546166 0.85937500 0.62059176
vt 0.04687500 0.28125000
vn -0.70710678 -0.00000000 -0.70710678
v 0.54546166 0.98437500 0.62059176
vt 0.04687500 0.26562500
vn -0.70710678 -0.00000000 -0.70710678
f 181/181/181 182/182/182 183/183/183 184/184/184
usemtl texture_0
v 0.62059176 0.98437500 0.54546166
vt 0.25781250 0.17187500
vn 0.00000000 1.00000000 -0.00000000
v 0.54546166 0.98437500 0.62059176
vt 0.25781250 0.15625000
vn 0.00000000 1.00000000 -0.00000000
v 0.71086455 0.98437500 0.78599464
vt 0.22656250 0.15625000
vn 0.00000000 1.00000000 -0.00000000
v 0.78599464 0.98437500 0.71086455
vt 0.22656250 0.17187500
vn 0.00000000 1.00000000 -0.00000000
f 185/185/185 186/186/186 187/187/187 188/188/188
usemtl texture_0
v 0.54546166 0.85937500 0.62059176
vt 0.19531250 0.22656250
vn 0.00000000 -1.00000000 0.00000000
v 0.62059176 0.85937500 0.54546166
vt 0.19531250 0.24218750
vn 0.00000000 -1.00000000 0.00000000
v 0.78599464 0.85937500 0.71086455
vt 0.16406250 0.24218750
vn 0.00000000 -1.00000000 0.00000000
v 0.71086455 0.85937500 0.78599464
vt 0.16406250 0.22656250
vn 0.00000000 -1.00000000 0.00000000
f 189/189/189 190/190/190 191/191/191 192/192/192
usemtl texture_0
v 0.90752862 0.79687500 0.83239852
vt 0.25781250 0.11718750
vn 0.70710678 0.00000000 -0.70710678
v 0.90752862 0.73437500 0.83239852
vt 0.25781250 0.12500000
vn 0.70710678 0.00000000 -0.70710678
v 0.74212574 0.73437500 0.66699564
vt 0.28906250 0.12500000
vn 0.70710678 0.00000000 -0.70710678
v 0.74212574 0.79687500 0.66699564
vt 0.28906250 0.11718750
vn 0.70710678 0.00000000 -0.70710678
f 193/193/193 194/194/194 195/195/195 196/196/196
usemtl texture_0
v 0.83239852 0.79687500 0.90752862
vt 0.17187500 0.16406250
vn 0.70710678 0.00000000 0.70710678
v 0.83239852 0.73437500 0.90752862
vt 0.17187500 0.17187500
vn 0.70710678 0.00000000 0.70710678
v 0.90752862 0.73437500 0.83239852
vt 0.18750000 0.17187500
vn 0.70710678 0.00000000 0.70710678
v 0.90752862 0.79687500 0.83239852
vt 0.18750000 0.16406250
vn 0.70710678 0.00000000 0.70710678
f 197/197/197 198/198/198 199/199/199 200/200/200
usemtl texture_0
v 0.66699564 0.79687500 0.74212574
vt 0.26562500 0.03125000
vn -0.70710678 0.00000000 0.70710678
v 0.66699564 0.73437500 0.74212574
vt 0.26562500 0.03906250
vn -0.70710678 0.00000000 0.70710678
v 0.83239852 0.73437500 0.90752862
vt 0.29687500 0.03906250
vn -0.70710678 0.00000000 0.70710678
v 0.83239852 0.79687500 0.90752862
vt 0.29687500 0.03125000
vn -0.70710678 0.00000000 0.70710678
f 201/201/201 202/202/202 203/203/203 204/204/204
usemtl texture_0
v 0.74212574 0.79687500 0.66699564
vt 0.21875000 0.10156250
vn -0.70710678 -0.00000000 -0.70710678
v 0.74212574 0.73437500 0.66699564
vt 0.21875000 0.10937500
vn -0.70710678 -0.00000000 -0.70710678
v 0.66699564 0.73437500 0.74212574
vt 0.23437500 0.10937500
vn -0.70710678 -0.00000000 -0.70710678
v 0.66699564 0.79687500 0.74212574
vt 0.23437500 0.10156250
vn -0.70710678 -0.00000000 -0.70710678
f 205/205/205 206/206/206 207/207/207 208/208/208
usemtl texture_0
v 0.74212574 0.79687500 0.66699564
vt 0.25781250 0.18750000
vn 0.00000000 1.00000000 -0.00000000
v 0.66699564 0.79687500 0.74212574
vt 0.25781250 0.17187500
vn 0.00000000 1.00000000 -0.00000000
v 0.83239852 0.79687500 0.90752862
vt 0.22656250 0.17187500
vn 0.00000000 1.00000000 -0.00000000
v 0.90752862 0.79687500 0.83239852
vt 0.22656250 0.18750000
vn 0.00000000 1.00000000 -0.00000000
f 209/209/209 210/210/210 211/211/211 212/212/212
usemtl texture_0
v 0.66699564 0.73437500 0.74212574
vt 0.25781250 0.18750000
vn 0.00000000 -1.00000000 0.00000000
v 0.74212574 0.73437500 0.66699564
vt 0.25781250 0.20312500
vn 0.00000000 -1.00000000 0.00000000
v 0.90752862 0.73437500 0.83239852
vt 0.22656250 0.20312500
vn 0.00000000 -1.00000000 0.00000000
v 0.83239852 0.73437500 0.90752862
vt 0.22656250 0.18750000
vn 0.00000000 -1.00000000 0.00000000
f 213/213/213 214/214/214 215/215/215 216/216/216
usemtl texture_0
v 0.33300436 0.79687500 0.25787426
vt 0.26562500 0.03906250
vn 0.70710678 0.00000000 -0.70710678
v 0.33300436 0.73437500 0.25787426
vt 0.26562500 0.04687500
vn 0.70710678 0.00000000 -0.70710678
v 0.16760148 0.73437500 0.09247138
vt 0.29687500 0.04687500
vn 0.70710678 0.00000000 -0.70710678
v 0.16760148 0.79687500 0.09247138
vt 0.29687500 0.03906250
vn 0.70710678 0.00000000 -0.70710678
f 217/217/217 218/218/218 219/219/219 220/220/220
usemtl texture_0
v 0.25787426 0.79687500 0.33300436
vt 0.00000000 0.22656250
vn 0.70710678 0.00000000 0.70710678
v 0.25787426 0.73437500 0.33300436
vt 0.00000000 0.23437500
vn 0.70710678 0.00000000 0.70710678
v 0.33300436 0.73437500 0.25787426
vt 0.01562500 0.23437500
vn 0.70710678 0.00000000 0.70710678
v 0.33300436 0.79687500 0.25787426
vt 0.01562500 0.22656250
vn 0.70710678 0.00000000 0.70710678
f 221/221/221 222/222/222 223/223/223 224/224/224
usemtl texture_0
v 0.09247138 0.79687500 0.16760148
vt 0.26562500 0.04687500
vn -0.70710678 0.00000000 0.70710678
v 0.09247138 0.73437500 0.16760148
vt 0.26562500 0.05468750
vn -0.70710678 0.00000000 0.70710678
v 0.25787426 0.73437500 0.33300436
vt 0.29687500 0.05468750
vn -0.70710678 0.00000000 0.70710678
v 0.25787426 0.79687500 0.33300436
vt 0.29687500 0.04687500
vn -0.70710678 0.00000000 0.70710678
f 225/225/225 226/226/226 227/227/227 228/228/228
usemtl texture_0
v 0.16760148 0.79687500 0.09247138
vt 0.18750000 0.26562500
vn -0.70710678 -0.00000000 -0.70710678
v 0.16760148 0.73437500 0.09247138
vt 0.18750000 0.27343750
vn -0.70710678 -0.00000000 -0.70710678
v 0.09247138 0.73437500 0.16760148
vt 0.20312500 0.27343750
vn -0.70710678 -0.00000000 -0.70710678
v 0.09247138 0.79687500 0.16760148
vt 0.20312500 0.26562500
vn -0.70710678 -0.00000000 -0.70710678
f 229/229/229 230/230/230 231/231/231 232/232/232
usemtl texture_0
v 0.16760148 0.79687500 0.09247138
vt 0.25781250 0.21875000
vn 0.00000000 1.00000000 -0.00000000
v 0.09247138 0.79687500 0.16760148
vt 0.25781250 0.20312500
vn 0.00000000 1.00000000 -0.00000000
v 0.25787426 0.79687500 0.33300436
vt 0.22656250 0.20312500
vn 0.00000000 1.00000000 -0.00000000
v 0.33300436 0.79687500 0.25787426
vt 0.22656250 0.21875000
vn 0.00000000 1.00000000 -0.00000000
f 233/233/233 234/234/234 235/235/235 236/236/236
usemtl texture_0
v 0.09247138 0.73437500 0.16760148
vt 0.03125000 0.23437500
vn 0.00000000 -1.00000000 0.00000000
v 0.16760148 0.73437500 0.09247138
vt 0.03125000 0.25000000
vn 0.00000000 -1.00000000 0.00000000
v 0.33300436 0.73437500 0.25787426
vt 0.00000000 0.25000000
vn 0.00000000 -1.00000000 0.00000000
v 0.25787426 0.73437500 0.33300436
vt 0.00000000 0.23437500
vn 0.00000000 -1.00000000 0.00000000
f 237/237/237 238/238/238 239/239/239 240/240/240
usemtl texture_0
v 0.83239852 0.79687500 0.09247138
vt 0.25781250 0.11718750
vn -0.70710678 -0.00000000 -0.70710678
v 0.83239852 0.73437500 0.09247138
vt 0.25781250 0.12500000
vn -0.70710678 -0.00000000 -0.70710678
v 0.66699564 0.73437500 0.25787426
vt 0.28906250 0.12500000
vn -0.70710678 -0.00000000 -0.70710678
v 0.66699564 0.79687500 0.25787426
vt 0.28906250 0.11718750
vn -0.70710678 -0.00000000 -0.70710678
f 241/241/241 242/242/242 243/243/243 244/244/244
usemtl texture_0
v 0.90752862 0.79687500 0.16760148
vt 0.17187500 0.16406250
vn 0.70710678 0.00000000 -0.70710678
v 0.90752862 0.73437500 0.16760148
vt 0.17187500 0.17187500
vn 0.70710678 0.00000000 -0.70710678
v 0.83239852 0.73437500 0.09247138
vt 0.18750000 0.17187500
vn 0.70710678 0.00000000 -0.70710678
v 0.83239852 0.79687500 0.09247138
vt 0.18750000 0.16406250
vn 0.70710678 0.00000000 -0.70710678
f 245/245/245 246/246/246 247/247/247 248/248/248
usemtl texture_0
v 0.74212574 0.79687500 0.33300436
vt 0.26562500 0.03125000
vn 0.70710678 0.00000000 0.70710678
v 0.74212574 0.73437500 0.33300436
vt 0.26562500 0.03906250
vn 0.70710678 0.00000000 0.70710678
v 0.90752862 0.73437500 0.16760148
vt 0.29687500 0.03906250
vn 0.70710678 0.00000000 0.70710678
v 0.90752862 0.79687500 0.16760148
vt 0.29687500 0.03125000
vn 0.70710678 0.00000000 0.70710678
f 249/249/249 250/250/250 251/251/251 252/252/252
usemtl texture_0
v 0.66699564 0.79687500 0.25787426
vt 0.21875000 0.10156250
vn -0.70710678 0.00000000 0.70710678
v 0.66699564 0.73437500 0.25787426
vt 0.21875000 0.10937500
vn -0.70710678 0.00000000 0.70710678
v 0.74212574 0.73437500 0.33300436
vt 0.23437500 0.10937500
vn -0.70710678 0.00000000 0.70710678
v 0.74212574 0.79687500 0.33300436
vt 0.23437500 0.10156250
vn -0.70710678 0.00000000 0.70710678
f 253/253/253 254/254/254 255/255/255 256/256/256
usemtl texture_0
v 0.66699564 0.79687500 0.25787426
vt 0.25781250 0.18750000
vn -0.00000000 1.00000000 0.00000000
v 0.74212574 0.79687500 0.33300436
vt 0.25781250 0.17187500
vn -0.00000000 1.00000000 0.00000000
v 0.90752862 0.79687500 0.16760148
vt 0.22656250 0.17187500
vn -0.00000000 1.00000000 0.00000000
v 0.83239852 0.79687500 0.09247138
vt 0.22656250 0.18750000
vn -0.00000000 1.00000000 0.00000000
f 257/257/257 258/258/258 259/259/259 260/260/260
usemtl texture_0
v 0.74212574 0.73437500 0.33300436
vt 0.25781250 0.18750000
vn 0.00000000 -1.00000000 -0.00000000
v 0.66699564 0.73437500 0.25787426
vt 0.25781250 0.20312500
vn 0.00000000 -1.00000000 -0.00000000
v 0.83239852 0.73437500 0.09247138
vt 0.22656250 0.20312500
vn 0.00000000 -1.00000000 -0.00000000
v 0.90752862 0.73437500 0.16760148
vt 0.22656250 0.18750000
vn 0.00000000 -1.00000000 -0.00000000
f 261/261/261 262/262/262 263/263/263 264/264/264
usemtl texture_0
v 0.83239852 0.98437500 0.09247138
vt 0.19531250 0.06250000
vn -0.70710678 -0.00000000 -0.70710678
v 0.83239852 0.79687500 0.09247138
vt 0.19531250 0.08593750
vn -0.70710678 -0.00000000 -0.70710678
v 0.71118981 0.79687500 0.21368009
vt 0.21875000 0.08593750
vn -0.70710678 -0.00000000 -0.70710678
v 0.71118981 0.98437500 0.21368009
vt 0.21875000 0.06250000
vn -0.70710678 -0.00000000 -0.70710678
f 265/265/265 266/266/266 267/267/267 268/268/268
usemtl texture_0
v 0.90752862 0.98437500 0.16760148
vt 0.17968750 0.24218750
vn 0.70710678 0.00000000 -0.70710678
v 0.90752862 0.79687500 0.16760148
vt 0.17968750 0.26562500
vn 0.70710678 0.00000000 -0.70710678
v 0.83239852 0.79687500 0.09247138
vt 0.19531250 0.26562500
vn 0.70710678 0.00000000 -0.70710678
v 0.83239852 0.98437500 0.09247138
vt 0.19531250 0.24218750
vn 0.70710678 0.00000000 -0.70710678
f 269/269/269 270/270/270 271/271/271 272/272/272
usemtl texture_0
v 0.78631991 0.98437500 0.28881019
vt 0.19531250 0.08593750
vn 0.70710678 0.00000000 0.70710678
v 0.78631991 0.79687500 0.28881019
vt 0.19531250 0.10937500
vn 0.70710678 0.00000000 0.70710678
v 0.90752862 0.79687500 0.16760148
vt 0.21875000 0.10937500
vn 0.70710678 0.00000000 0.70710678
v 0.90752862 0.98437500 0.16760148
vt 0.21875000 0.08593750
vn 0.70710678 0.00000000 0.70710678
f 273/273/273 274/274/274 275/275/275 276/276/276
usemtl texture_0
v 0.71118981 0.98437500 0.21368009
vt 0.23437500 0.24218750
vn -0.70710678 0.00000000 0.70710678
v 0.71118981 0.79687500 0.21368009
vt 0.23437500 0.26562500
vn -0.70710678 0.00000000 0.70710678
v 0.78631991 0.79687500 0.28881019
vt 0.25000000 0.26562500
vn -0.70710678 0.00000000 0.70710678
v 0.78631991 0.98437500 0.28881019
vt 0.25000000 0.24218750
vn -0.70710678 0.00000000 0.70710678
f 277/277/277 278/278/278 279/279/279 280/280/280
usemtl texture_0
v 0.71118981 0.98437500 0.21368009
vt 0.02343750 0.26562500
vn -0.00000000 1.00000000 0.00000000
v 0.78631991 0.98437500 0.28881019
vt 0.02343750 0.25000000
vn -0.00000000 1.00000000 0.00000000
v 0.90752862 0.98437500 0.16760148
vt 0.00000000 0.25000000
vn -0.00000000 1.00000000 0.00000000
v 0.83239852 0.98437500 0.09247138
vt 0.00000000 0.26562500
vn -0.00000000 1.00000000 0.00000000
f 281/281/281 282/282/282 283/283/283 284/284/284
usemtl texture_0
v 0.78631991 0.79687500 0.28881019
vt 0.04687500 0.25000000
vn 0.00000000 -1.00000000 -0.00000000
v 0.71118981 0.79687500 0.21368009
vt 0.04687500 0.26562500
vn 0.00000000 -1.00000000 -0.00000000
v 0.83239852 0.79687500 0.09247138
vt 0.02343750 0.26562500
vn 0.00000000 -1.00000000 -0.00000000
v 0.90752862 0.79687500 0.16760148
vt 0.02343750 0.25000000
vn 0.00000000 -1.00000000 -0.00000000
f 285/285/285 286/286/286 287/287/287 288/288/288
usemtl texture_0
v 0.71086455 0.98437500 0.21400536
vt 0.20312500 0.21875000
vn -0.70710678 -0.00000000 -0.70710678
v 0.71086455 0.85937500 0.21400536
vt 0.20312500 0.23437500
vn -0.70710678 -0.00000000 -0.70710678
v 0.54546166 0.85937500 0.37940824
vt 0.23437500 0.23437500
vn -0.70710678 -0.00000000 -0.70710678
v 0.54546166 0.98437500 0.37940824
vt 0.23437500 0.21875000
vn -0.70710678 -0.00000000 -0.70710678
f 289/289/289 290/290/290 291/291/291 292/292/292
usemtl texture_0
v 0.78599464 0.98437500 0.28913545
vt 0.26562500 0.01562500
vn 0.70710678 0.00000000 -0.70710678
v 0.78599464 0.85937500 0.28913545
vt 0.26562500 0.03125000
vn 0.70710678 0.00000000 -0.70710678
v 0.71086455 0.85937500 0.21400536
vt 0.28125000 0.03125000
vn 0.70710678 0.00000000 -0.70710678
v 0.71086455 0.98437500 0.21400536
vt 0.28125000 0.01562500
vn 0.70710678 0.00000000 -0.70710678
f 293/293/293 294/294/294 295/295/295 296/296/296
usemtl texture_0
v 0.62059176 0.98437500 0.45453834
vt 0.22656250 0.14062500
vn 0.70710678 0.00000000 0.70710678
v 0.62059176 0.85937500 0.45453834
vt 0.22656250 0.15625000
vn 0.70710678 0.00000000 0.70710678
v 0.78599464 0.85937500 0.28913545
vt 0.25781250 0.15625000
vn 0.70710678 0.00000000 0.70710678
v 0.78599464 0.98437500 0.28913545
vt 0.25781250 0.14062500
vn 0.70710678 0.00000000 0.70710678
f 297/297/297 298/298/298 299/299/299 300/300/300
usemtl texture_0
v 0.54546166 0.98437500 0.37940824
vt 0.03125000 0.26562500
vn -0.70710678 0.00000000 0.70710678
v 0.54546166 0.85937500 0.37940824
vt 0.03125000 0.28125000
vn -0.70710678 0.00000000 0.70710678
v 0.62059176 0.85937500 0.45453834
vt 0.04687500 0.28125000
vn -0.70710678 0.00000000 0.70710678
v 0.62059176 0.98437500 0.45453834
vt 0.04687500 0.26562500
vn -0.70710678 0.00000000 0.70710678
f 301/301/301 302/302/302 303/303/303 304/304/304
usemtl texture_0
v 0.54546166 0.98437500 0.37940824
vt 0.25781250 0.17187500
vn -0.00000000 1.00000000 0.00000000
v 0.62059176 0.98437500 0.45453834
vt 0.25781250 0.15625000
vn -0.00000000 1.00000000 0.00000000
v 0.78599464 0.98437500 0.28913545
vt 0.22656250 0.15625000
vn -0.00000000 1.00000000 0.00000000
v 0.71086455 0.98437500 0.21400536
vt 0.22656250 0.17187500
vn -0.00000000 1.00000000 0.00000000
f 305/305/305 306/306/306 307/307/307 308/308/308
usemtl texture_0
v 0.62059176 0.85937500 0.45453834
vt 0.19531250 0.22656250
vn 0.00000000 -1.00000000 -0.00000000
v 0.54546166 0.85937500 0.37940824
vt 0.19531250 0.24218750
vn 0.00000000 -1.00000000 -0.00000000
v 0.71086455 0.85937500 0.21400536
vt 0.16406250 0.24218750
vn 0.00000000 -1.00000000 -0.00000000
v 0.78599464 0.85937500 0.28913545
vt 0.16406250 0.22656250
vn 0.00000000 -1.00000000 -0.00000000
f 309/309/309 310/310/310 311/311/311 312/312/312
usemtl texture_0
v 0.25787426 0.79687500 0.66699564
vt 0.26562500 0.03906250
vn -0.70710678 -0.00000000 -0.70710678
v 0.25787426 0.73437500 0.66699564
vt 0.26562500 0.04687500
vn -0.70710678 -0.00000000 -0.70710678
v 0.09247138 0.73437500 0.83239852
vt 0.29687500 0.04687500
vn -0.70710678 -0.00000000 -0.70710678
v 0.09247138 0.79687500 0.83239852
vt 0.29687500 0.03906250
vn -0.70710678 -0.00000000 -0.70710678
f 313/313/313 314/314/314 315/315/315 316/316/316
usemtl texture_0
v 0.33300436 0.79687500 0.74212574
vt 0.00000000 0.22656250
vn 0.70710678 0.00000000 -0.70710678
v 0.33300436 0.73437500 0.74212574
vt 0.00000000 0.23437500
vn 0.70710678 0.00000000 -0.70710678
v 0.25787426 0.73437500 0.66699564
vt 0.01562500 0.23437500
vn 0.70710678 0.00000000 -0.70710678
v 0.25787426 0.79687500 0.66699564
vt 0.01562500 0.22656250
vn 0.70710678 0.00000000 -0.70710678
f 317/317/317 318/318/318 319/319/319 320/320/320
usemtl texture_0
v 0.16760148 0.79687500 0.90752862
vt 0.26562500 0.04687500
vn 0.70710678 0.00000000 0.70710678
v 0.16760148 0.73437500 0.90752862
vt 0.26562500 0.05468750
vn 0.70710678 0.00000000 0.70710678
v 0.33300436 0.73437500 0.74212574
vt 0.29687500 0.05468750
vn 0.70710678 0.00000000 0.70710678
v 0.33300436 0.79687500 0.74212574
vt 0.29687500 0.04687500
vn 0.70710678 0.00000000 0.70710678
f 321/321/321 322/322/322 323/323/323 324/324/324
usemtl texture_0
v 0.09247138 0.79687500 0.83239852
vt 0.18750000 0.26562500
vn -0.70710678 0.00000000 0.70710678
v 0.09247138 0.73437500 0.83239852
vt 0.18750000 0.27343750
vn -0.70710678 0.00000000 0.70710678
v 0.16760148 0.73437500 0.90752862
vt 0.20312500 0.27343750
vn -0.70710678 0.00000000 0.70710678
v 0.16760148 0.79687500 0.90752862
vt 0.20312500 0.26562500
vn -0.70710678 0.00000000 0.70710678
f 325/325/325 326/326/326 327/327/327 328/328/328
usemtl texture_0
v 0.09247138 0.79687500 0.83239852
vt 0.25781250 0.21875000
vn -0.00000000 1.00000000 0.00000000
v 0.16760148 0.79687500 0.90752862
vt 0.25781250 0.20312500
vn -0.00000000 1.00000000 0.00000000
v 0.33300436 0.79687500 0.74212574
vt 0.22656250 0.20312500
vn -0.00000000 1.00000000 0.00000000
v 0.25787426 0.79687500 0.66699564
vt 0.22656250 0.21875000
vn -0.00000000 1.00000000 0.00000000
f 329/329/329 330/330/330 331/331/331 332/332/332
usemtl texture_0
v 0.16760148 0.73437500 0.90752862
vt 0.03125000 0.23437500
vn 0.00000000 -1.00000000 -0.00000000
v 0.09247138 0.73437500 0.83239852
vt 0.03125000 0.25000000
vn 0.00000000 -1.00000000 -0.00000000
v 0.25787426 0.73437500 0.66699564
vt 0.00000000 0.25000000
vn 0.00000000 -1.00000000 -0.00000000
v 0.33300436 0.73437500 0.74212574
vt 0.00000000 0.23437500
vn 0.00000000 -1.00000000 -0.00000000
f 333/333/333 334/334/334 335/335/335 336/336/336
usemtl texture_0
v 0.21368009 0.98437500 0.71118981
vt 0.19531250 0.01562500
vn -0.70710678 -0.00000000 -0.70710678
v 0.21368009 0.79687500 0.71118981
vt 0.19531250 0.03906250
vn -0.70710678 -0.00000000 -0.70710678
v 0.09247138 0.79687500 0.83239852
vt 0.21875000 0.03906250
vn -0.70710678 -0.00000000 -0.70710678
v 0.09247138 0.98437500 0.83239852
vt 0.21875000 0.01562500
vn -0.70710678 -0.00000000 -0.70710678
f 337/337/337 338/338/338 339/339/339 340/340/340
usemtl texture_0
v 0.28881019 0.98437500 0.78631991
vt 0.21875000 0.23437500
vn 0.70710678 0.00000000 -0.70710678
v 0.28881019 0.79687500 0.78631991
vt 0.21875000 0.25781250
vn 0.70710678 0.00000000 -0.70710678
v 0.21368009 0.79687500 0.71118981
vt 0.23437500 0.25781250
vn 0.70710678 0.00000000 -0.70710678
v 0.21368009 0.98437500 0.71118981
vt 0.23437500 0.23437500
vn 0.70710678 0.00000000 -0.70710678
f 341/341/341 342/342/342 343/343/343 344/344/344
usemtl texture_0
v 0.16760148 0.98437500 0.90752862
vt 0.19531250 0.03906250
vn 0.70710678 0.00000000 0.70710678
v 0.16760148 0.79687500 0.90752862
vt 0.19531250 0.06250000
vn 0.70710678 0.00000000 0.70710678
v 0.28881019 0.79687500 0.78631991
vt 0.21875000 0.06250000
vn 0.70710678 0.00000000 0.70710678
v 0.28881019 0.98437500 0.78631991
vt 0.21875000 0.03906250
vn 0.70710678 0.00000000 0.70710678
f 345/345/345 346/346/346 347/347/347 348/348/348
usemtl texture_0
v 0.09247138 0.98437500 0.83239852
vt 0.23437500 0.21875000
vn -0.70710678 0.00000000 0.70710678
v 0.09247138 0.79687500 0.83239852
vt 0.23437500 0.24218750
vn -0.70710678 0.00000000 0.70710678
v 0.16760148 0.79687500 0.90752862
vt 0.25000000 0.24218750
vn -0.70710678 0.00000000 0.70710678
v 0.16760148 0.98437500 0.90752862
vt 0.25000000 0.21875000
vn -0.70710678 0.00000000 0.70710678
f 349/349/349 350/350/350 351/351/351 352/352/352
usemtl texture_0
v 0.09247138 0.98437500 0.83239852
vt 0.26562500 0.01562500
vn -0.00000000 1.00000000 0.00000000
v 0.16760148 0.98437500 0.90752862
vt 0.26562500 0.00000000
vn -0.00000000 1.00000000 0.00000000
v 0.28881019 0.98437500 0.78631991
vt 0.24218750 0.00000000
vn -0.00000000 1.00000000 0.00000000
v 0.21368009 0.98437500 0.71118981
vt 0.24218750 0.01562500
vn -0.00000000 1.00000000 0.00000000
f 353/353/353 354/354/354 355/355/355 356/356/356
usemtl texture_0
v 0.16760148 0.79687500 0.90752862
vt 0.26562500 0.01562500
vn 0.00000000 -1.00000000 -0.00000000
v 0.09247138 0.79687500 0.83239852
vt 0.26562500 0.03125000
vn 0.00000000 -1.00000000 -0.00000000
v 0.21368009 0.79687500 0.71118981
vt 0.24218750 0.03125000
vn 0.00000000 -1.00000000 -0.00000000
v 0.28881019 0.79687500 0.78631991
vt 0.24218750 0.01562500
vn 0.00000000 -1.00000000 -0.00000000
f 357/357/357 358/358/358 359/359/359 360/360/360
usemtl texture_0
v 0.37940824 0.98437500 0.54546166
vt 0.07031250 0.21875000
vn -0.70710678 -0.00000000 -0.70710678
v 0.37940824 0.85937500 0.54546166
vt 0.07031250 0.23437500
vn -0.70710678 -0.00000000 -0.70710678
v 0.21400536 0.85937500 0.71086455
vt 0.10156250 0.23437500
vn -0.70710678 -0.00000000 -0.70710678
v 0.21400536 0.98437500 0.71086455
vt 0.10156250 0.21875000
vn -0.70710678 -0.00000000 -0.70710678
f 361/361/361 362/362/362 363/363/363 364/364/364
usemtl texture_0
v 0.45453834 0.98437500 0.62059176
vt 0.26562500 0.00000000
vn 0.70710678 0.00000000 -0.70710678
v 0.45453834 0.85937500 0.62059176
vt 0.26562500 0.01562500
vn 0.70710678 0.00000000 -0.70710678
v 0.37940824 0.85937500 0.54546166
vt 0.28125000 0.01562500
vn 0.70710678 0.00000000 -0.70710678
v 0.37940824 0.98437500 0.54546166
vt 0.28125000 0.00000000
vn 0.70710678 0.00000000 -0.70710678
f 365/365/365 366/366/366 367/367/367 368/368/368
usemtl texture_0
v 0.28913545 0.98437500 0.78599464
vt 0.21875000 0.07031250
vn 0.70710678 0.00000000 0.70710678
v 0.28913545 0.85937500 0.78599464
vt 0.21875000 0.08593750
vn 0.70710678 0.00000000 0.70710678
v 0.45453834 0.85937500 0.62059176
vt 0.25000000 0.08593750
vn 0.70710678 0.00000000 0.70710678
v 0.45453834 0.98437500 0.62059176
vt 0.25000000 0.07031250
vn 0.70710678 0.00000000 0.70710678
f 369/369/369 370/370/370 371/371/371 372/372/372
usemtl texture_0
v 0.21400536 0.98437500 0.71086455
vt 0.01562500 0.26562500
vn -0.70710678 0.00000000 0.70710678
v 0.21400536 0.85937500 0.71086455
vt 0.01562500 0.28125000
vn -0.70710678 0.00000000 0.70710678
v 0.28913545 0.85937500 0.78599464
vt 0.03125000 0.28125000
vn -0.70710678 0.00000000 0.70710678
v 0.28913545 0.98437500 0.78599464
vt 0.03125000 0.26562500
vn -0.70710678 0.00000000 0.70710678
f 373/373/373 374/374/374 375/375/375 376/376/376
usemtl texture_0
v 0.21400536 0.98437500 0.71086455
vt 0.25000000 0.10156250
vn -0.00000000 1.00000000 0.00000000
v 0.28913545 0.98437500 0.78599464
vt 0.25000000 0.08593750
vn -0.00000000 1.00000000 0.00000000
v 0.45453834 0.98437500 0.62059176
vt 0.21875000 0.08593750
vn -0.00000000 1.00000000 0.00000000
v 0.37940824 0.98437500 0.54546166
vt 0.21875000 0.10156250
vn -0.00000000 1.00000000 0.00000000
f 377/377/377 378/378/378 379/379/379 380/380/380
usemtl texture_0
v 0.28913545 0.85937500 0.78599464
vt 0.25000000 0.12500000
vn 0.00000000 -1.00000000 -0.00000000
v 0.21400536 0.85937500 0.71086455
vt 0.25000000 0.14062500
vn 0.00000000 -1.00000000 -0.00000000
v 0.37940824 0.85937500 0.54546166
vt 0.21875000 0.14062500
vn 0.00000000 -1.00000000 -0.00000000
v 0.45453834 0.85937500 0.62059176
vt 0.21875000 0.12500000
vn 0.00000000 -1.00000000 -0.00000000
f 381/381/381 382/382/382 383/383/383 384/384/384
usemtl texture_0
v 0.42945750 1.23437500 0.43125000
vt 0.06250000 0.00000000
vn 0.00000000 -0.00000000 -1.00000000
v 0.42945750 1.04687500 0.43125000
vt 0.06250000 0.02343750
vn 0.00000000 -0.00000000 -1.00000000
v -0.11695750 1.04687500 0.43125000
vt 0.13281250 0.02343750
vn 0.00000000 -0.00000000 -1.00000000
v -0.11695750 1.23437500 0.43125000
vt 0.13281250 0.00000000
vn 0.00000000 -0.00000000 -1.00000000
f 385/385/385 386/386/386 387/387/387 388/388/388
usemtl texture_0
v 0.42945750 1.23437500 0.56875000
vt 0.25000000 0.03125000
vn 1.00000000 0.00000000 0.00000000
v 0.42945750 1.04687500 0.56875000
vt 0.25000000 0.05468750
vn 1.00000000 0.00000000 0.00000000
v 0.42945750 1.04687500 0.43125000
vt 0.26562500 0.05468750
vn 1.00000000 0.00000000 0.00000000
v 0.42945750 1.23437500 0.43125000
vt 0.26562500 0.03125000
vn 1.00000000 0.00000000 0.00000000
f 389/389/389 390/390/390 391/391/391 392/392/392
usemtl texture_0
v -0.11695750 1.23437500 0.56875000
vt 0.06250000 0.02343750
vn 0.00000000 0.00000000 1.00000000
v -0.11695750 1.04687500 0.56875000
vt 0.06250000 0.04687500
vn 0.00000000 0.00000000 1.00000000
v 0.42945750 1.04687500 0.56875000
vt 0.13281250 0.04687500
vn 0.00000000 0.00000000 1.00000000
v 0.42945750 1.23437500 0.56875000
vt 0.13281250 0.02343750
vn 0.00000000 0.00000000 1.00000000
f 393/393/393 394/394/394 395/395/395 396/396/396
usemtl texture_0
v -0.11695750 1.23437500 0.43125000
vt 0.04687500 0.25000000
vn -1.00000000 0.00000000 0.00000000
v -0.11695750 1.04687500 0.43125000
vt 0.04687500 0.27343750
vn -1.00000000 0.00000000 0.00000000
v -0.11695750 1.04687500 0.56875000
vt 0.06250000 0.27343750
vn -1.00000000 0.00000000 0.00000000
v -0.11695750 1.23437500 0.56875000
vt 0.06250000 0.25000000
vn -1.00000000 0.00000000 0.00000000
f 397/397/397 398/398/398 399/399/399 400/400/400
usemtl texture_0
v -0.11695750 1.23437500 0.43125000
vt 0.07031250 0.18750000
vn 0.00000000 1.00000000 0.00000000
v -0.11695750 1.23437500 0.56875000
vt 0.07031250 0.17187500
vn 0.00000000 1.00000000 0.00000000
v 0.42945750 1.23437500 0.56875000
vt 0.00000000 0.17187500
vn 0.00000000 1.00000000 0.00000000
v 0.42945750 1.23437500 0.43125000
vt 0.00000000 0.18750000
vn 0.00000000 1.00000000 0.00000000
f 401/401/401 402/402/402 403/403/403 404/404/404
usemtl texture_0
v -0.11695750 1.04687500 0.56875000
vt 0.24218750 0.00000000
vn 0.00000000 -1.00000000 0.00000000
v -0.11695750 1.04687500 0.43125000
vt 0.24218750 0.01562500
vn 0.00000000 -1.00000000 0.00000000
v 0.42945750 1.04687500 0.43125000
vt 0.17187500 0.01562500
vn 0.00000000 -1.00000000 0.00000000
v 0.42945750 1.04687500 0.56875000
vt 0.17187500 0.00000000
vn 0.00000000 -1.00000000 0.00000000
f 405/405/405 406/406/406 407/407/407 408/408/408
usemtl texture_0
v 0.63169416 1.18213836 0.40000000
vt 0.19531250 0.12500000
vn 0.00000000 0.00000000 -1.00000000
v 0.49911164 1.04955584 0.40000000
vt 0.19531250 0.14843750
vn 0.00000000 0.00000000 -1.00000000
v 0.36685438 1.18181309 0.40000000
vt 0.21875000 0.14843750
vn 0.00000000 0.00000000 -1.00000000
v 0.49943691 1.31439562 0.40000000
vt 0.21875000 0.12500000
vn 0.00000000 0.00000000 -1.00000000
f 409/409/409 410/410/410 411/411/411 412/412/412
usemtl texture_0
v 0.63169416 1.18213836 0.60000000
vt 0.20312500 0.14843750
vn 0.70710678 -0.70710678 0.00000000
v 0.49911164 1.04955584 0.60000000
vt 0.20312500 0.17187500
vn 0.70710678 -0.70710678 0.00000000
v 0.49911164 1.04955584 0.40000000
vt 0.22656250 0.17187500
vn 0.70710678 -0.70710678 0.00000000
v 0.63169416 1.18213836 0.40000000
vt 0.22656250 0.14843750
vn 0.70710678 -0.70710678 0.00000000
f 413/413/413 414/414/414 415/415/415 416/416/416
usemtl texture_0
v 0.49943691 1.31439562 0.60000000
vt 0.20312500 0.17187500
vn 0.00000000 0.00000000 1.00000000
v 0.36685438 1.18181309 0.60000000
vt 0.20312500 0.19531250
vn 0.00000000 0.00000000 1.00000000
v 0.49911164 1.04955584 0.60000000
vt 0.22656250 0.19531250
vn 0.00000000 0.00000000 1.00000000
v 0.63169416 1.18213836 0.60000000
vt 0.22656250 0.17187500
vn 0.00000000 0.00000000 1.00000000
f 417/417/417 418/418/418 419/419/419 420/420/420
usemtl texture_0
v 0.49943691 1.31439562 0.40000000
vt 0.17968750 0.20312500
vn -0.70710678 0.70710678 0.00000000
v 0.36685438 1.18181309 0.40000000
vt 0.17968750 0.22656250
vn -0.70710678 0.70710678 0.00000000
v 0.36685438 1.18181309 0.60000000
vt 0.20312500 0.22656250
vn -0.70710678 0.70710678 0.00000000
v 0.49943691 1.31439562 0.60000000
vt 0.20312500 0.20312500
vn -0.70710678 0.70710678 0.00000000
f 421/421/421 422/422/422 423/423/423 424/424/424
usemtl texture_0
v 0.49943691 1.31439562 0.40000000
vt 0.22656250 0.21875000
vn 0.70710678 0.70710678 -0.00000000
v 0.49943691 1.31439562 0.60000000
vt 0.22656250 0.19531250
vn 0.70710678 0.70710678 -0.00000000
v 0.63169416 1.18213836 0.60000000
vt 0.20312500 0.19531250
vn 0.70710678 0.70710678 -0.00000000
v 0.63169416 1.18213836 0.40000000
vt 0.20312500 0.21875000
vn 0.70710678 0.70710678 -0.00000000
f 425/425/425 426/426/426 427/427/427 428/428/428
usemtl texture_0
v 0.36685438 1.18181309 0.60000000
vt 0.24218750 0.01562500
vn -0.70710678 -0.70710678 -0.00000000
v 0.36685438 1.18181309 0.40000000
vt 0.24218750 0.03906250
vn -0.70710678 -0.70710678 -0.00000000
v 0.49911164 1.04955584 0.40000000
vt 0.21875000 0.03906250
vn -0.70710678 -0.70710678 -0.00000000
v 0.49911164 1.04955584 0.60000000
vt 0.21875000 0.01562500
vn -0.70710678 -0.70710678 -0.00000000
f 429/429/429 430/430/430 431/431/431 432/432/432
usemtl texture_0
v 0.05914500 1.60937500 0.43125000
vt 0.17187500 0.01562500
vn 0.00000000 -0.00000000 -1.00000000
v 0.05914500 1.23437500 0.43125000
vt 0.17187500 0.06250000
vn 0.00000000 -0.00000000 -1.00000000
v -0.11227000 1.23437500 0.43125000
vt 0.19531250 0.06250000
vn 0.00000000 -0.00000000 -1.00000000
v -0.11227000 1.60937500 0.43125000
vt 0.19531250 0.01562500
vn 0.00000000 -0.00000000 -1.00000000
f 433/433/433 434/434/434 435/435/435 436/436/436
usemtl texture_0
v 0.05914500 1.60937500 0.56875000
vt 0.05468750 0.18750000
vn 1.00000000 0.00000000 0.00000000
v 0.05914500 1.23437500 0.56875000
vt 0.05468750 0.23437500
vn 1.00000000 0.00000000 0.00000000
v 0.05914500 1.23437500 0.43125000
vt 0.07031250 0.23437500
vn 1.00000000 0.00000000 0.00000000
v 0.05914500 1.60937500 0.43125000
vt 0.07031250 0.18750000
vn 1.00000000 0.00000000 0.00000000
f 437/437/437 438/438/438 439/439/439 440/440/440
usemtl texture_0
v -0.11227000 1.60937500 0.56875000
vt 0.17187500 0.06250000
vn 0.00000000 0.00000000 1.00000000
v -0.11227000 1.23437500 0.56875000
vt 0.17187500 0.10937500
vn 0.00000000 0.00000000 1.00000000
v 0.05914500 1.23437500 0.56875000
vt 0.19531250 0.10937500
vn 0.00000000 0.00000000 1.00000000
v 0.05914500 1.60937500 0.56875000
vt 0.19531250 0.06250000
vn 0.00000000 0.00000000 1.00000000
f 441/441/441 442/442/442 443/443/443 444/444/444
usemtl texture_0
v -0.11227000 1.60937500 0.43125000
vt 0.11718750 0.18750000
vn -1.00000000 0.00000000 0.00000000
v -0.11227000 1.23437500 0.43125000
vt 0.11718750 0.23437500
vn -1.00000000 0.00000000 0.00000000
v -0.11227000 1.23437500 0.56875000
vt 0.13281250 0.23437500
vn -1.00000000 0.00000000 0.00000000
v -0.11227000 1.60937500 0.56875000
vt 0.13281250 0.18750000
vn -1.00000000 0.00000000 0.00000000
f 445/445/445 446/446/446 447/447/447 448/448/448
usemtl texture_0
v -0.11227000 1.60937500 0.43125000
vt 0.27343750 0.07031250
vn 0.00000000 1.00000000 0.00000000
v -0.11227000 1.60937500 0.56875000
vt 0.27343750 0.05468750
vn 0.00000000 1.00000000 0.00000000
v 0.05914500 1.60937500 0.56875000
vt 0.25000000 0.05468750
vn 0.00000000 1.00000000 0.00000000
v 0.05914500 1.60937500 0.43125000
vt 0.25000000 0.07031250
vn 0.00000000 1.00000000 0.00000000
f 449/449/449 450/450/450 451/451/451 452/452/452
usemtl texture_0
v -0.11227000 1.23437500 0.56875000
vt 0.08593750 0.25000000
vn 0.00000000 -1.00000000 0.00000000
v -0.11227000 1.23437500 0.43125000
vt 0.08593750 0.26562500
vn 0.00000000 -1.00000000 0.00000000
v 0.05914500 1.23437500 0.43125000
vt 0.06250000 0.26562500
vn 0.00000000 -1.00000000 0.00000000
v 0.05914500 1.23437500 0.56875000
vt 0.06250000 0.25000000
vn 0.00000000 -1.00000000 0.00000000
f 453/453/453 454/454/454 455/455/455 456/456/456
usemtl texture_0
v 0.23102000 1.60937500 0.43125000
vt 0.25000000 0.07031250
vn 0.00000000 -0.00000000 -1.00000000
v 0.23102000 1.50000000 0.43125000
vt 0.25000000 0.08593750
vn 0.00000000 -0.00000000 -1.00000000
v 0.05960500 1.50000000 0.43125000
vt 0.27343750 0.08593750
vn 0.00000000 -0.00000000 -1.00000000
v 0.05960500 1.60937500 0.43125000
vt 0.27343750 0.07031250
vn 0.00000000 -0.00000000 -1.00000000
f 457/457/457 458/458/458 459/459/459 460/460/460
usemtl texture_0
v 0.23102000 1.60937500 0.56875000
vt 0.06250000 0.26562500
vn 1.00000000 0.00000000 0.00000000
v 0.23102000 1.50000000 0.56875000
vt 0.06250000 0.28125000
vn 1.00000000 0.00000000 0.00000000
v 0.23102000 1.50000000 0.43125000
vt 0.07812500 0.28125000
vn 1.00000000 0.00000000 0.00000000
v 0.23102000 1.60937500 0.43125000
vt 0.07812500 0.26562500
vn 1.00000000 0.00000000 0.00000000
f 461/461/461 462/462/462 463/463/463 464/464/464
usemtl texture_0
v 0.05960500 1.60937500 0.56875000
vt 0.08593750 0.25000000
vn 0.00000000 0.00000000 1.00000000
v 0.05960500 1.50000000 0.56875000
vt 0.08593750 0.26562500
vn 0.00000000 0.00000000 1.00000000
v 0.23102000 1.50000000 0.56875000
vt 0.10937500 0.26562500
vn 0.00000000 0.00000000 1.00000000
v 0.23102000 1.60937500 0.56875000
vt 0.10937500 0.25000000
vn 0.00000000 0.00000000 1.00000000
f 465/465/465 466/466/466 467/467/467 468/468/468
usemtl texture_0
v 0.05960500 1.60937500 0.43125000
vt 0.07812500 0.26562500
vn -1.00000000 0.00000000 0.00000000
v 0.05960500 1.50000000 0.43125000
vt 0.07812500 0.28125000
vn -1.00000000 0.00000000 0.00000000
v 0.05960500 1.50000000 0.56875000
vt 0.09375000 0.28125000
vn -1.00000000 0.00000000 0.00000000
v 0.05960500 1.60937500 0.56875000
vt 0.09375000 0.26562500
vn -1.00000000 0.00000000 0.00000000
f 469/469/469 470/470/470 471/471/471 472/472/472
usemtl texture_0
v 0.05960500 1.60937500 0.43125000
vt 0.27343750 0.10156250
vn 0.00000000 1.00000000 0.00000000
v 0.05960500 1.60937500 0.56875000
vt 0.27343750 0.08593750
vn 0.00000000 1.00000000 0.00000000
v 0.23102000 1.60937500 0.56875000
vt 0.25000000 0.08593750
vn 0.00000000 1.00000000 0.00000000
v 0.23102000 1.60937500 0.43125000
vt 0.25000000 0.10156250
vn 0.00000000 1.00000000 0.00000000
f 473/473/473 474/474/474 475/475/475 476/476/476
usemtl texture_0
v 0.05960500 1.50000000 0.56875000
vt 0.27343750 0.12500000
vn 0.00000000 -1.00000000 0.00000000
v 0.05960500 1.50000000 0.43125000
vt 0.27343750 0.14062500
vn 0.00000000 -1.00000000 0.00000000
v 0.23102000 1.50000000 0.43125000
vt 0.25000000 0.14062500
vn 0.00000000 -1.00000000 0.00000000
v 0.23102000 1.50000000 0.56875000
vt 0.25000000 0.12500000
vn 0.00000000 -1.00000000 0.00000000
f 477/477/477 478/478/478 479/479/479 480/480/480
usemtl texture_0
v 0.65529437 1.71322562 0.33750000
vt 0.06250000 0.09375000
vn 0.00000000 -0.00000000 -1.00000000
v 0.65529437 1.40072562 0.33750000
vt 0.06250000 0.13281250
vn 0.00000000 -0.00000000 -1.00000000
v 0.34325438 1.40072562 0.33750000
vt 0.10156250 0.13281250
vn 0.00000000 -0.00000000 -1.00000000
v 0.34325438 1.71322562 0.33750000
vt 0.10156250 0.09375000
vn 0.00000000 -0.00000000 -1.00000000
f 481/481/481 482/482/482 483/483/483 484/484/484
usemtl texture_0
v 0.65529437 1.71322562 0.66250000
vt 0.10156250 0.09375000
vn 1.00000000 0.00000000 0.00000000
v 0.65529437 1.40072562 0.66250000
vt 0.10156250 0.13281250
vn 1.00000000 0.00000000 0.00000000
v 0.65529437 1.40072562 0.33750000
vt 0.14062500 0.13281250
vn 1.00000000 0.00000000 0.00000000
v 0.65529437 1.71322562 0.33750000
vt 0.14062500 0.09375000
vn 1.00000000 0.00000000 0.00000000
f 485/485/485 486/486/486 487/487/487 488/488/488
usemtl texture_0
v 0.34325438 1.71322562 0.66250000
vt 0.13281250 0.00000000
vn 0.00000000 0.00000000 1.00000000
v 0.34325438 1.40072562 0.66250000
vt 0.13281250 0.03906250
vn 0.00000000 0.00000000 1.00000000
v 0.65529437 1.40072562 0.66250000
vt 0.17187500 0.03906250
vn 0.00000000 0.00000000 1.00000000
v 0.65529437 1.71322562 0.66250000
vt 0.17187500 0.00000000
vn 0.00000000 0.00000000 1.00000000
f 489/489/489 490/490/490 491/491/491 492/492/492
usemtl texture_0
v 0.34325438 1.71322562 0.33750000
vt 0.17187500 0.03906250
vn -1.00000000 0.00000000 0.00000000
v 0.34325438 1.40072562 0.33750000
vt 0.17187500 0.07812500
vn -1.00000000 0.00000000 0.00000000
v 0.34325438 1.40072562 0.66250000
vt 0.13281250 0.07812500
vn -1.00000000 0.00000000 0.00000000
v 0.34325438 1.71322562 0.66250000
vt 0.13281250 0.03906250
vn -1.00000000 0.00000000 0.00000000
f 493/493/493 494/494/494 495/495/495 496/496/496
usemtl texture_0
v 0.34325438 1.71322562 0.33750000
vt 0.10156250 0.17187500
vn 0.00000000 1.00000000 0.00000000
v 0.34325438 1.71322562 0.66250000
vt 0.10156250 0.13281250
vn 0.00000000 1.00000000 0.00000000
v 0.65529437 1.71322562 0.66250000
vt 0.06250000 0.13281250
vn 0.00000000 1.00000000 0.00000000
v 0.65529437 1.71322562 0.33750000
vt 0.06250000 0.17187500
vn 0.00000000 1.00000000 0.00000000
f 497/497/497 498/498/498 499/499/499 500/500/500
usemtl texture_0
v 0.34325438 1.40072562 0.66250000
vt 0.14062500 0.13281250
vn 0.00000000 -1.00000000 0.00000000
v 0.34325438 1.40072562 0.33750000
vt 0.14062500 0.17187500
vn 0.00000000 -1.00000000 0.00000000
v 0.65529437 1.40072562 0.33750000
vt 0.10156250 0.17187500
vn 0.00000000 -1.00000000 0.00000000
v 0.65529437 1.40072562 0.66250000
vt 0.10156250 0.13281250
vn 0.00000000 -1.00000000 0.00000000
f 501/501/501 502/502/502 503/503/503 504/504/504
usemtl texture_0
v 0.57812500 -0.56250000 0.43750000
vt 0.25781250 0.14062500
vn 0.00000000 -0.00000000 -1.00000000
v 0.57812500 -0.68750000 0.43750000
vt 0.25781250 0.15625000
vn 0.00000000 -0.00000000 -1.00000000
v 0.42187500 -0.68750000 0.43750000
vt 0.28125000 0.15625000
vn 0.00000000 -0.00000000 -1.00000000
v 0.42187500 -0.56250000 0.43750000
vt 0.28125000 0.14062500
vn 0.00000000 -0.00000000 -1.00000000
f 505/505/505 506/506/506 507/507/507 508/508/508
usemtl texture_0
v 0.57812500 -0.56250000 0.56250000
vt 0.15625000 0.26562500
vn 1.00000000 0.00000000 0.00000000
v 0.57812500 -0.68750000 0.56250000
vt 0.15625000 0.28125000
vn 1.00000000 0.00000000 0.00000000
v 0.57812500 -0.68750000 0.43750000
vt 0.17187500 0.28125000
vn 1.00000000 0.00000000 0.00000000
v 0.57812500 -0.56250000 0.43750000
vt 0.17187500 0.26562500
vn 1.00000000 0.00000000 0.00000000
f 509/509/509 510/510/510 511/511/511 512/512/512
usemtl texture_0
v 0.42187500 -0.56250000 0.56250000
vt 0.25781250 0.15625000
vn 0.00000000 0.00000000 1.00000000
v 0.42187500 -0.68750000 0.56250000
vt 0.25781250 0.17187500
vn 0.00000000 0.00000000 1.00000000
v 0.57812500 -0.68750000 0.56250000
vt 0.28125000 0.17187500
vn 0.00000000 0.00000000 1.00000000
v 0.57812500 -0.56250000 0.56250000
vt 0.28125000 0.15625000
vn 0.00000000 0.00000000 1.00000000
f 513/513/513 514/514/514 515/515/515 516/516/516
usemtl texture_0
v 0.42187500 -0.56250000 0.43750000
vt 0.17187500 0.26562500
vn -1.00000000 0.00000000 0.00000000
v 0.42187500 -0.68750000 0.43750000
vt 0.17187500 0.28125000
vn -1.00000000 0.00000000 0.00000000
v 0.42187500 -0.68750000 0.56250000
vt 0.18750000 0.28125000
vn -1.00000000 0.00000000 0.00000000
v 0.42187500 -0.56250000 0.56250000
vt 0.18750000 0.26562500
vn -1.00000000 0.00000000 0.00000000
f 517/517/517 518/518/518 519/519/519 520/520/520
usemtl texture_0
v 0.42187500 -0.56250000 0.43750000
vt 0.28125000 0.18750000
vn 0.00000000 1.00000000 0.00000000
v 0.42187500 -0.56250000 0.56250000
vt 0.28125000 0.17187500
vn 0.00000000 1.00000000 0.00000000
v 0.57812500 -0.56250000 0.56250000
vt 0.25781250 0.17187500
vn 0.00000000 1.00000000 0.00000000
v 0.57812500 -0.56250000 0.43750000
vt 0.25781250 0.18750000
vn 0.00000000 1.00000000 0.00000000
f 521/521/521 522/522/522 523/523/523 524/524/524
usemtl texture_0
v 0.42187500 -0.68750000 0.56250000
vt 0.28125000 0.18750000
vn 0.00000000 -1.00000000 0.00000000
v 0.42187500 -0.68750000 0.43750000
vt 0.28125000 0.20312500
vn 0.00000000 -1.00000000 0.00000000
v 0.57812500 -0.68750000 0.43750000
vt 0.25781250 0.20312500
vn 0.00000000 -1.00000000 0.00000000
v 0.57812500 -0.68750000 0.56250000
vt 0.25781250 0.18750000
vn 0.00000000 -1.00000000 0.00000000
f 525/525/525 526/526/526 527/527/527 528/528/528
usemtl texture_0
v 0.57812500 0.31250000 0.43750000
vt 0.03125000 0.23437500
vn 0.00000000 -0.00000000 -1.00000000
v 0.57812500 0.18750000 0.43750000
vt 0.03125000 0.25000000
vn 0.00000000 -0.00000000 -1.00000000
v 0.42187500 0.18750000 0.43750000
vt 0.05468750 0.25000000
vn 0.00000000 -0.00000000 -1.00000000
v 0.42187500 0.31250000 0.43750000
vt 0.05468750 0.23437500
vn 0.00000000 -0.00000000 -1.00000000
f 529/529/529 530/530/530 531/531/531 532/532/532
usemtl texture_0
v 0.57812500 0.31250000 0.56250000
vt 0.10156250 0.21875000
vn 1.00000000 0.00000000 0.00000000
v 0.57812500 0.18750000 0.56250000
vt 0.10156250 0.23437500
vn 1.00000000 0.00000000 0.00000000
v 0.57812500 0.18750000 0.43750000
vt 0.11718750 0.23437500
vn 1.00000000 0.00000000 0.00000000
v 0.57812500 0.31250000 0.43750000
vt 0.11718750 0.21875000
vn 1.00000000 0.00000000 0.00000000
f 533/533/533 534/534/534 535/535/535 536/536/536
usemtl texture_0
v 0.42187500 0.31250000 0.56250000
vt 0.05468750 0.23437500
vn 0.00000000 0.00000000 1.00000000
v 0.42187500 0.18750000 0.56250000
vt 0.05468750 0.25000000
vn 0.00000000 0.00000000 1.00000000
v 0.57812500 0.18750000 0.56250000
vt 0.07812500 0.25000000
vn 0.00000000 0.00000000 1.00000000
v 0.57812500 0.31250000 0.56250000
vt 0.07812500 0.23437500
vn 0.00000000 0.00000000 1.00000000
f 537/537/537 538/538/538 539/539/539 540/540/540
usemtl texture_0
v 0.42187500 0.31250000 0.43750000
vt 0.25781250 0.20312500
vn -1.00000000 0.00000000 0.00000000
v 0.42187500 0.18750000 0.43750000
vt 0.25781250 0.21875000
vn -1.00000000 0.00000000 0.00000000
v 0.42187500 0.18750000 0.56250000
vt 0.27343750 0.21875000
vn -1.00000000 0.00000000 0.00000000
v 0.42187500 0.31250000 0.56250000
vt 0.27343750 0.20312500
vn -1.00000000 0.00000000 0.00000000
f 541/541/541 542/542/542 543/543/543 544/544/544
usemtl texture_0
v 0.42187500 0.31250000 0.43750000
vt 0.10156250 0.25000000
vn 0.00000000 1.00000000 0.00000000
v 0.42187500 0.31250000 0.56250000
vt 0.10156250 0.23437500
vn 0.00000000 1.00000000 0.00000000
v 0.57812500 0.31250000 0.56250000
vt 0.07812500 0.23437500
vn 0.00000000 1.00000000 0.00000000
v 0.57812500 0.31250000 0.43750000
vt 0.07812500 0.25000000
vn 0.00000000 1.00000000 0.00000000
f 545/545/545 546/546/546 547/547/547 548/548/548
usemtl texture_0
v 0.42187500 0.18750000 0.56250000
vt 0.12500000 0.23437500
vn 0.00000000 -1.00000000 0.00000000
v 0.42187500 0.18750000 0.43750000
vt 0.12500000 0.25000000
vn 0.00000000 -1.00000000 0.00000000
v 0.57812500 0.18750000 0.43750000
vt 0.10156250 0.25000000
vn 0.00000000 -1.00000000 0.00000000
v 0.57812500 0.18750000 0.56250000
vt 0.10156250 0.23437500
vn 0.00000000 -1.00000000 0.00000000
f 549/549/549 550/550/550 551/551/551 552/552/552
usemtl texture_0
v 0.94039500 1.60937500 0.43125000
vt 0.27343750 0.07031250
vn 0.00000000 -0.00000000 -1.00000000
v 0.94039500 1.50000000 0.43125000
vt 0.27343750 0.08593750
vn 0.00000000 -0.00000000 -1.00000000
v 0.76898000 1.50000000 0.43125000
vt 0.25000000 0.08593750
vn 0.00000000 -0.00000000 -1.00000000
v 0.76898000 1.60937500 0.43125000
vt 0.25000000 0.07031250
vn 0.00000000 -0.00000000 -1.00000000
f 553/553/553 554/554/554 555/555/555 556/556/556
usemtl texture_0
v 0.94039500 1.60937500 0.56875000
vt 0.09375000 0.26562500
vn 1.00000000 0.00000000 0.00000000
v 0.94039500 1.50000000 0.56875000
vt 0.09375000 0.28125000
vn 1.00000000 0.00000000 0.00000000
v 0.94039500 1.50000000 0.43125000
vt 0.07812500 0.28125000
vn 1.00000000 0.00000000 0.00000000
v 0.94039500 1.60937500 0.43125000
vt 0.07812500 0.26562500
vn 1.00000000 0.00000000 0.00000000
f 557/557/557 558/558/558 559/559/559 560/560/560
usemtl texture_0
v 0.76898000 1.60937500 0.56875000
vt 0.10937500 0.25000000
vn 0.00000000 0.00000000 1.00000000
v 0.76898000 1.50000000 0.56875000
vt 0.10937500 0.26562500
vn 0.00000000 0.00000000 1.00000000
v 0.94039500 1.50000000 0.56875000
vt 0.08593750 0.26562500
vn 0.00000000 0.00000000 1.00000000
v 0.94039500 1.60937500 0.56875000
vt 0.08593750 0.25000000
vn 0.00000000 0.00000000 1.00000000
f 561/561/561 562/562/562 563/563/563 564/564/564
usemtl texture_0
v 0.76898000 1.60937500 0.43125000
vt 0.07812500 0.26562500
vn -1.00000000 0.00000000 0.00000000
v 0.76898000 1.50000000 0.43125000
vt 0.07812500 0.28125000
vn -1.00000000 0.00000000 0.00000000
v 0.76898000 1.50000000 0.56875000
vt 0.06250000 0.28125000
vn -1.00000000 0.00000000 0.00000000
v 0.76898000 1.60937500 0.56875000
vt 0.06250000 0.26562500
vn -1.00000000 0.00000000 0.00000000
f 565/565/565 566/566/566 567/567/567 568/568/568
usemtl texture_0
v 0.76898000 1.60937500 0.43125000
vt 0.25000000 0.10156250
vn 0.00000000 1.00000000 0.00000000
v 0.76898000 1.60937500 0.56875000
vt 0.25000000 0.08593750
vn 0.00000000 1.00000000 0.00000000
v 0.94039500 1.60937500 0.56875000
vt 0.27343750 0.08593750
vn 0.00000000 1.00000000 0.00000000
v 0.94039500 1.60937500 0.43125000
vt 0.27343750 0.10156250
vn 0.00000000 1.00000000 0.00000000
f 569/569/569 570/570/570 571/571/571 572/572/572
usemtl texture_0
v 0.76898000 1.50000000 0.56875000
vt 0.25000000 0.12500000
vn 0.00000000 -1.00000000 0.00000000
v 0.76898000 1.50000000 0.43125000
vt 0.25000000 0.14062500
vn 0.00000000 -1.00000000 0.00000000
v 0.94039500 1.50000000 0.43125000
vt 0.27343750 0.14062500
vn 0.00000000 -1.00000000 0.00000000
v 0.94039500 1.50000000 0.56875000
vt 0.27343750 0.12500000
vn 0.00000000 -1.00000000 0.00000000
f 573/573/573 574/574/574 575/575/575 576/576/576
usemtl texture_0
v 1.11227000 1.60937500 0.43125000
vt 0.19531250 0.01562500
vn 0.00000000 -0.00000000 -1.00000000
v 1.11227000 1.23437500 0.43125000
vt 0.19531250 0.06250000
vn 0.00000000 -0.00000000 -1.00000000
v 0.94085500 1.23437500 0.43125000
vt 0.17187500 0.06250000
vn 0.00000000 -0.00000000 -1.00000000
v 0.94085500 1.60937500 0.43125000
vt 0.17187500 0.01562500
vn 0.00000000 -0.00000000 -1.00000000
f 577/577/577 578/578/578 579/579/579 580/580/580
usemtl texture_0
v 1.11227000 1.60937500 0.56875000
vt 0.13281250 0.18750000
vn 1.00000000 0.00000000 0.00000000
v 1.11227000 1.23437500 0.56875000
vt 0.13281250 0.23437500
vn 1.00000000 0.00000000 0.00000000
v 1.11227000 1.23437500 0.43125000
vt 0.11718750 0.23437500
vn 1.00000000 0.00000000 0.00000000
v 1.11227000 1.60937500 0.43125000
vt 0.11718750 0.18750000
vn 1.00000000 0.00000000 0.00000000
f 581/581/581 582/582/582 583/583/583 584/584/584
usemtl texture_0
v 0.94085500 1.60937500 0.56875000
vt 0.19531250 0.06250000
vn 0.00000000 0.00000000 1.00000000
v 0.94085500 1.23437500 0.56875000
vt 0.19531250 0.10937500
vn 0.00000000 0.00000000 1.00000000
v 1.11227000 1.23437500 0.56875000
vt 0.17187500 0.10937500
vn 0.00000000 0.00000000 1.00000000
v 1.11227000 1.60937500 0.56875000
vt 0.17187500 0.06250000
vn 0.00000000 0.00000000 1.00000000
f 585/585/585 586/586/586 587/587/587 588/588/588
usemtl texture_0
v 0.94085500 1.60937500 0.43125000
vt 0.07031250 0.18750000
vn -1.00000000 0.00000000 0.00000000
v 0.94085500 1.23437500 0.43125000
vt 0.07031250 0.23437500
vn -1.00000000 0.00000000 0.00000000
v 0.94085500 1.23437500 0.56875000
vt 0.05468750 0.23437500
vn -1.00000000 0.00000000 0.00000000
v 0.94085500 1.60937500 0.56875000
vt 0.05468750 0.18750000
vn -1.00000000 0.00000000 0.00000000
f 589/589/589 590/590/590 591/591/591 592/592/592
usemtl texture_0
v 0.94085500 1.60937500 0.43125000
vt 0.25000000 0.07031250
vn 0.00000000 1.00000000 0.00000000
v 0.94085500 1.60937500 0.56875000
vt 0.25000000 0.05468750
vn 0.00000000 1.00000000 0.00000000
v 1.11227000 1.60937500 0.56875000
vt 0.27343750 0.05468750
vn 0.00000000 1.00000000 0.00000000
v 1.11227000 1.60937500 0.43125000
vt 0.27343750 0.07031250
vn 0.00000000 1.00000000 0.00000000
f 593/593/593 594/594/594 595/595/595 596/596/596
usemtl texture_0
v 0.94085500 1.23437500 0.56875000
vt 0.06250000 0.25000000
vn 0.00000000 -1.00000000 0.00000000
v 0.94085500 1.23437500 0.43125000
vt 0.06250000 0.26562500
vn 0.00000000 -1.00000000 0.00000000
v 1.11227000 1.23437500 0.43125000
vt 0.08593750 0.26562500
vn 0.00000000 -1.00000000 0.00000000
v 1.11227000 1.23437500 0.56875000
vt 0.08593750 0.25000000
vn 0.00000000 -1.00000000 0.00000000
f 597/597/597 598/598/598 599/599/599 600/600/600
usemtl texture_0
v 1.11695750 1.23437500 0.43125000
vt 0.13281250 0.00000000
vn 0.00000000 -0.00000000 -1.00000000
v 1.11695750 1.04687500 0.43125000
vt 0.13281250 0.02343750
vn 0.00000000 -0.00000000 -1.00000000
v 0.57054250 1.04687500 0.43125000
vt 0.06250000 0.02343750
vn 0.00000000 -0.00000000 -1.00000000
v 0.57054250 1.23437500 0.43125000
vt 0.06250000 0.00000000
vn 0.00000000 -0.00000000 -1.00000000
f 601/601/601 602/602/602 603/603/603 604/604/604
usemtl texture_0
v 1.11695750 1.23437500 0.56875000
vt 0.06250000 0.25000000
vn 1.00000000 0.00000000 0.00000000
v 1.11695750 1.04687500 0.56875000
vt 0.06250000 0.27343750
vn 1.00000000 0.00000000 0.00000000
v 1.11695750 1.04687500 0.43125000
vt 0.04687500 0.27343750
vn 1.00000000 0.00000000 0.00000000
v 1.11695750 1.23437500 0.43125000
vt 0.04687500 0.25000000
vn 1.00000000 0.00000000 0.00000000
f 605/605/605 606/606/606 607/607/607 608/608/608
usemtl texture_0
v 0.57054250 1.23437500 0.56875000
vt 0.13281250 0.02343750
vn 0.00000000 0.00000000 1.00000000
v 0.57054250 1.04687500 0.56875000
vt 0.13281250 0.04687500
vn 0.00000000 0.00000000 1.00000000
v 1.11695750 1.04687500 0.56875000
vt 0.06250000 0.04687500
vn 0.00000000 0.00000000 1.00000000
v 1.11695750 1.23437500 0.56875000
vt 0.06250000 0.02343750
vn 0.00000000 0.00000000 1.00000000
f 609/609/609 610/610/610 611/611/611 612/612/612
usemtl texture_0
v 0.57054250 1.23437500 0.43125000
vt 0.26562500 0.03125000
vn -1.00000000 0.00000000 0.00000000
v 0.57054250 1.04687500 0.43125000
vt 0.26562500 0.05468750
vn -1.00000000 0.00000000 0.00000000
v 0.57054250 1.04687500 0.56875000
vt 0.25000000 0.05468750
vn -1.00000000 0.00000000 0.00000000
v 0.57054250 1.23437500 0.56875000
vt 0.25000000 0.03125000
vn -1.00000000 0.00000000 0.00000000
f 613/613/613 614/614/614 615/615/615 616/616/616
usemtl texture_0
v 0.57054250 1.23437500 0.43125000
vt 0.00000000 0.18750000
vn 0.00000000 1.00000000 0.00000000
v 0.57054250 1.23437500 0.56875000
vt 0.00000000 0.17187500
vn 0.00000000 1.00000000 0.00000000
v 1.11695750 1.23437500 0.56875000
vt 0.07031250 0.17187500
vn 0.00000000 1.00000000 0.00000000
v 1.11695750 1.23437500 0.43125000
vt 0.07031250 0.18750000
vn 0.00000000 1.00000000 0.00000000
f 617/617/617 618/618/618 619/619/619 620/620/620
usemtl texture_0
v 0.57054250 1.04687500 0.56875000
vt 0.17187500 0.00000000
vn 0.00000000 -1.00000000 0.00000000
v 0.57054250 1.04687500 0.43125000
vt 0.17187500 0.01562500
vn 0.00000000 -1.00000000 0.00000000
v 1.11695750 1.04687500 0.43125000
vt 0.24218750 0.01562500
vn 0.00000000 -1.00000000 0.00000000
v 1.11695750 1.04687500 0.56875000
vt 0.24218750 0.00000000
vn 0.00000000 -1.00000000 0.00000000
f 621/621/621 622/622/622 623/623/623 624/624/624
usemtl texture_1
v 0.31825437 1.37572563 0.68750000
vt 0.00000000 0.00000000
vn 0.00000000 0.00000000 -1.00000000
v 0.31825437 1.73822563 0.68750000
vt 0.00000000 0.18750000
vn 0.00000000 0.00000000 -1.00000000
v 0.68029438 1.73822563 0.68750000
vt 0.18750000 0.18750000
vn 0.00000000 0.00000000 -1.00000000
v 0.68029438 1.37572563 0.68750000
vt 0.18750000 0.00000000
vn 0.00000000 0.00000000 -1.00000000
f 625/625/625 626/626/626 627/627/627 628/628/628
usemtl texture_1
v 0.31825437 1.37572563 0.31250000
vt 0.00000000 0.18750000
vn 1.00000000 0.00000000 0.00000000
v 0.31825437 1.73822563 0.31250000
vt 0.00000000 0.37500000
vn 1.00000000 0.00000000 0.00000000
v 0.31825437 1.73822563 0.68750000
vt 0.18750000 0.37500000
vn 1.00000000 0.00000000 0.00000000
v 0.31825437 1.37572563 0.68750000
vt 0.18750000 0.18750000
vn 1.00000000 0.00000000 0.00000000
f 629/629/629 630/630/630 631/631/631 632/632/632
usemtl texture_1
v 0.68029438 1.37572563 0.31250000
vt 0.18750000 0.00000000
vn 0.00000000 -0.00000000 1.00000000
v 0.68029438 1.73822563 0.31250000
vt 0.18750000 0.18750000
vn 0.00000000 -0.00000000 1.00000000
v 0.31825437 1.73822563 0.31250000
vt 0.37500000 0.18750000
vn 0.00000000 -0.00000000 1.00000000
v 0.31825437 1.37572563 0.31250000
vt 0.37500000 0.00000000
vn 0.00000000 -0.00000000 1.00000000
f 633/633/633 634/634/634 635/635/635 636/636/636
usemtl texture_1
v 0.68029438 1.37572563 0.68750000
vt 0.18750000 0.18750000
vn -1.00000000 0.00000000 0.00000000
v 0.68029438 1.73822563 0.68750000
vt 0.18750000 0.37500000
vn -1.00000000 0.00000000 0.00000000
v 0.68029438 1.73822563 0.31250000
vt 0.37500000 0.37500000
vn -1.00000000 0.00000000 0.00000000
v 0.68029438 1.37572563 0.31250000
vt 0.37500000 0.18750000
vn -1.00000000 0.00000000 0.00000000
f 637/637/637 638/638/638 639/639/639 640/640/640
usemtl texture_1
v 0.68029438 1.37572563 0.68750000
vt 0.18750000 0.56250000
vn 0.00000000 1.00000000 0.00000000
v 0.68029438 1.37572563 0.31250000
vt 0.18750000 0.37500000
vn 0.00000000 1.00000000 0.00000000
v 0.31825437 1.37572563 0.31250000
vt 0.00000000 0.37500000
vn 0.00000000 1.00000000 0.00000000
v 0.31825437 1.37572563 0.68750000
vt 0.00000000 0.56250000
vn 0.00000000 1.00000000 0.00000000
f 641/641/641 642/642/642 643/643/643 644/644/644
usemtl texture_1
v 0.68029438 1.73822563 0.31250000
vt 0.56250000 0.00000000
vn 0.00000000 -1.00000000 0.00000000
v 0.68029438 1.73822563 0.68750000
vt 0.56250000 0.18750000
vn 0.00000000 -1.00000000 0.00000000
v 0.31825437 1.73822563 0.68750000
vt 0.37500000 0.18750000
vn 0.00000000 -1.00000000 0.00000000
v 0.31825437 1.73822563 0.31250000
vt 0.37500000 0.00000000
vn 0.00000000 -1.00000000 0.00000000
f 645/645/645 646/646/646 647/647/647 648/648/648
